<svg xmlns="http://www.w3.org/2000/svg" fill="none" viewBox="0 0 30 30" height="30" width="30">
<path fill="white" d="M24.5545 23.7807C23.2891 25.1515 21.7879 26.2311 20.0924 26.9896C18.3377 27.7746 16.4651 28.1727 14.5266 28.1727C10.8816 28.1727 7.45477 26.7532 4.8774 24.1759C2.30004 21.5984 0.880605 18.1716 0.880605 14.5266C0.880605 10.8817 2.30004 7.45483 4.87746 4.8774C7.45482 2.30004 10.8817 0.880606 14.5266 0.880606C17.0888 0.880606 19.5856 1.59463 21.7472 2.94539C21.9536 3.07424 22.2251 3.01154 22.354 2.80535C22.4829 2.5991 22.4201 2.32746 22.2139 2.19861C19.9122 0.760254 17.2539 0 14.5266 0C10.6464 0 6.9985 1.51102 4.25479 4.25473C1.51107 6.9985 0 10.6464 0 14.5266C0 18.4068 1.51107 22.0548 4.25473 24.7985C6.99844 27.5422 10.6464 29.0533 14.5266 29.0533C16.5898 29.0533 18.5835 28.6294 20.452 27.7935C22.2568 26.9861 23.8548 25.8369 25.2016 24.3781C25.3665 24.1993 25.3554 23.9208 25.1767 23.7559C24.998 23.5908 24.7194 23.602 24.5545 23.7807Z"></path>
<path fill="white" d="M29.9635 12.9693C29.8937 12.8081 29.735 12.7038 29.5593 12.7038H28.9391C28.7141 10.9021 28.1598 9.18165 27.289 7.58404C26.3793 5.91499 25.1687 4.45865 23.691 3.25554C23.5024 3.10191 23.225 3.1305 23.0716 3.319C22.918 3.50761 22.9465 3.78493 23.135 3.93845C24.5237 5.06902 25.6611 6.43736 26.5158 8.00544C27.3934 9.61572 27.9287 11.3589 28.1069 13.1868C28.1287 13.4112 28.3165 13.5826 28.5415 13.5844L27.138 15.0781L25.7344 13.5844H26.0339C26.2901 13.5902 26.5071 13.3458 26.4711 13.0921C25.7529 7.05154 20.6178 2.4964 14.5263 2.4964C7.89281 2.4964 2.49609 7.89312 2.49609 14.5266C2.49609 16.7659 3.1156 18.9511 4.28765 20.8461C4.37097 20.9808 4.51506 21.0549 4.66254 21.0549C4.74158 21.0549 4.82156 21.0336 4.89375 20.989C5.10052 20.8611 5.16451 20.5897 5.0366 20.3829C3.95068 18.6271 3.3767 16.6021 3.3767 14.5266C3.3767 8.37868 8.37837 3.377 14.5263 3.377C20.0052 3.377 24.6492 7.35271 25.527 12.7038H24.7163C24.3422 12.6914 24.1303 13.1815 24.3954 13.4456L26.817 16.0226C26.9822 16.206 27.2936 16.206 27.4588 16.0226L29.8803 13.4456C30.0004 13.3176 30.0332 13.1305 29.9635 12.9693Z"></path>
<path fill="white" d="M28.1142 17.8134H25.5048C25.3162 17.8134 25.1485 17.9335 25.0878 18.1121C23.5523 22.6364 19.3083 25.6762 14.5273 25.6762C11.2534 25.6762 8.15753 24.2451 6.03339 21.7497C5.87577 21.5646 5.5978 21.5422 5.41271 21.6999C5.22755 21.8575 5.20523 22.1354 5.36284 22.3206C7.65462 25.0128 10.9949 26.5569 14.5273 26.5569C19.5797 26.5569 24.0764 23.4101 25.8159 18.694H27.5244C27.0948 20.0363 26.4607 21.2987 25.6349 22.4539C25.4935 22.6517 25.5392 22.9267 25.7371 23.0681C25.935 23.2096 26.21 23.1637 26.3514 22.9659C27.351 21.5676 28.0869 20.0213 28.5389 18.3698C28.5751 18.2374 28.5475 18.0957 28.4642 17.9865C28.3809 17.8774 28.2514 17.8134 28.1142 17.8134Z"></path>
<path fill="white" d="M6.18806 17.869C6.23963 17.8887 6.2926 17.8979 6.34469 17.8979C6.52205 17.8979 6.68933 17.7899 6.75619 17.6142L7.17695 16.5094H9.98054L10.397 17.613C10.4829 17.8405 10.737 17.9555 10.9644 17.8695C11.192 17.7836 11.3067 17.5296 11.2209 17.3021L9.11699 11.7271C9.11552 11.7231 9.11394 11.7191 9.1123 11.7151C9.02429 11.5011 8.81798 11.3629 8.58654 11.3629C8.58636 11.3629 8.58619 11.3629 8.58607 11.3629C8.35445 11.363 8.14808 11.5017 8.06037 11.7161C8.05902 11.7194 8.05767 11.7227 8.05644 11.7261L5.93324 17.3008C5.8467 17.5281 5.96078 17.7824 6.18806 17.869ZM8.58519 12.8121L9.64826 15.6288H7.5124L8.58519 12.8121Z"></path>
<path fill="white" d="M21.3441 12.2693C21.5873 12.2693 21.7844 12.0722 21.7844 11.829C21.7844 11.5858 21.5873 11.3887 21.3441 11.3887H18.9833C18.7401 11.3887 18.543 11.5858 18.543 11.829V17.4317C18.543 17.6748 18.7401 17.872 18.9833 17.872H21.3441C21.5873 17.872 21.7844 17.6748 21.7844 17.4317C21.7844 17.1885 21.5873 16.9913 21.3441 16.9913H19.4236V15.0706H21.17C21.4132 15.0706 21.6104 14.8735 21.6104 14.6303C21.6104 14.3871 21.4132 14.19 21.17 14.19H19.4236V12.2693H21.3441V12.2693Z"></path>
<path fill="white" d="M14.7714 12.2435C15.2497 12.2435 15.711 12.3844 16.1056 12.6509C16.3071 12.7871 16.5809 12.734 16.717 12.5325C16.8531 12.331 16.8001 12.0573 16.5986 11.9212C16.0579 11.556 15.426 11.3629 14.7714 11.3629C12.9697 11.3629 11.5039 12.8287 11.5039 14.6304C11.5039 16.4321 12.9697 17.8979 14.7714 17.8979C16.4675 17.8979 17.6522 16.5543 17.6522 14.6304C17.6522 14.3872 17.4551 14.1901 17.2119 14.1901H15.5204C15.2772 14.1901 15.0801 14.3872 15.0801 14.6304C15.0801 14.8736 15.2772 15.0707 15.5204 15.0707H16.7472C16.5826 16.4977 15.6126 17.0173 14.7713 17.0173C13.4552 17.0173 12.3845 15.9465 12.3845 14.6304C12.3845 13.3143 13.4552 12.2435 14.7714 12.2435Z"></path>
</svg>
