<svg xmlns="http://www.w3.org/2000/svg" fill="none" viewBox="0 0 24 24" height="24" width="24">
<path fill="#F0F0F0" d="M22.5 10.2869H4.71L10.155 2.81332C10.4096 2.46327 10.5321 2.01197 10.4955 1.55871C10.459 1.10545 10.2663 0.687351 9.96 0.396397C9.65368 0.105443 9.25875 -0.0345367 8.86211 0.00725335C8.46548 0.0490434 8.09961 0.26918 7.845 0.619234L0.345 10.904C0.294541 10.9858 0.249419 11.0718 0.21 11.1611C0.21 11.2469 0.21 11.2983 0.105 11.384C0.0370105 11.5805 0.00141168 11.7897 0 12.0011C0.00141168 12.2124 0.0370105 12.4216 0.105 12.6182C0.105 12.7039 0.105 12.7553 0.21 12.841C0.249419 12.9304 0.294541 13.0163 0.345 13.0981L7.845 23.3829C7.98603 23.5764 8.16264 23.732 8.36227 23.8387C8.5619 23.9453 8.77963 24.0004 9 24C9.35048 24.0008 9.69013 23.8613 9.96 23.6057C10.1119 23.4618 10.2374 23.2851 10.3295 23.0857C10.4215 22.8862 10.4782 22.668 10.4963 22.4435C10.5144 22.219 10.4936 21.9926 10.435 21.7773C10.3765 21.562 10.2813 21.362 10.155 21.1888L4.71 13.7152H22.5C22.8978 13.7152 23.2794 13.5346 23.5607 13.2131C23.842 12.8917 24 12.4557 24 12.0011C24 11.5465 23.842 11.1105 23.5607 10.789C23.2794 10.4675 22.8978 10.2869 22.5 10.2869Z"></path>
</svg>
