<svg width="40" height="40" viewBox="0 0 40 40" fill="none" xmlns="http://www.w3.org/2000/svg">
<g clip-path="url(#clip0)">
<path d="M38.3125 34.1875L6.4375 40L4.9375 12.9375L40 11.4375L38.3125 34.1875Z" fill="white"/>
<path d="M6.4375 40L1.625 30.875L0 9.6875L4.9375 12.9375L6.4375 40Z" fill="white"/>
<path d="M40 11.4375L4.9375 12.9375L0 9.6875L26.3125 9L40 11.4375Z" fill="#881A0E"/>
<path d="M15 18.8125L16.75 18.75L13.75 30.125L12.125 30.3125L9.4375 19.125L11.375 19L13.0625 27.5L15 18.8125Z" fill="#93278F"/>
<path d="M23.4375 28C22.875 28.875 22.0625 29.375 20.9375 29.5625C19.875 29.6875 19 29.375 18.4375 28.625C17.6875 27.6875 17.3125 26.1875 17.3125 24.25C17.375 22.25 17.8125 20.6875 18.625 19.625C19.25 18.75 20.0625 18.3125 21.1875 18.25C22.25 18.1875 23.0625 18.5625 23.625 19.375C24.3125 20.3125 24.6875 21.6875 24.625 23.625C24.5625 25.4375 24.1875 26.9375 23.4375 28ZM22.5 26.5C22.875 25.8125 23.0625 24.875 23.0625 23.6875C23.0625 22.5 22.9375 21.625 22.5625 21C22.1875 20.375 21.75 20.0625 21.125 20.125C20.5 20.1875 20 20.5 19.625 21.1875C19.25 21.875 19 22.8125 19 24.0625C19 25.3125 19.125 26.1875 19.5 26.8125C19.875 27.4375 20.375 27.6875 21 27.625C21.625 27.5625 22.125 27.1875 22.5 26.5Z" fill="#93278F"/>
<path d="M30.8125 18V19.75L28.8125 19.875L28.6875 28.25L27.25 28.4375L27.375 20L25.25 20.125L25.3125 18.25L30.8125 18Z" fill="#93278F"/>
<path d="M36.3125 19.4375L33 19.625L32.9375 21.75L36 21.5V23.1875L32.9375 23.4375L32.875 26L36.375 25.625V27.375L31.5625 27.9375L31.75 17.9375L36.4375 17.6875L36.3125 19.4375Z" fill="#93278F"/>
<path d="M27.625 0L6.375 0.375C7.8125 6.625 6.4375 11.75 6.4375 11.75L27.6875 10.75C27.6875 10.8125 29.0625 6.3125 27.625 0Z" fill="#DFE9EF"/>
<path d="M25.5 4.25C21.875 4.3125 18.3125 4.375 14.6875 4.5V3.625C18.3125 3.5 21.875 3.4375 25.5 3.375V4.25Z" fill="white"/>
<path d="M11.5625 5.4375C11.5 5.5625 11.375 5.5625 11.25 5.5C10.75 5.0625 10.1875 4.6875 9.6875 4.25C9.5625 4.1875 9.5625 4.0625 9.6875 3.9375C9.75 3.875 9.8125 3.8125 9.875 3.8125C10 3.75 10.125 3.75 10.25 3.8125C10.5625 4 10.8125 4.25 11.125 4.4375C11.25 4.5 11.375 4.5 11.4375 4.375C11.8125 3.8125 12.125 3.25 12.4375 2.6875C12.5 2.5625 12.625 2.5625 12.8125 2.5625C12.875 2.5625 13 2.625 13.0625 2.625C13.125 2.75 13.1875 2.875 13.125 3C12.625 3.8125 12.125 4.625 11.5625 5.4375Z" fill="white"/>
<path d="M25.125 9.4375C21.5 9.5 17.875 9.625 14.25 9.6875C14.3125 9.375 14.3125 9.125 14.375 8.8125C18 8.75 21.625 8.6875 25.25 8.5625C25.1875 8.875 25.125 9.125 25.125 9.4375Z" fill="#93A2AA"/>
<path d="M12.5625 10.75C11.375 10.75 10.1875 10.8125 9 10.8125C9.125 9.8125 9.25 8.875 9.375 7.875C10.5625 7.875 11.75 7.8125 12.9375 7.8125C12.8125 8.75 12.6875 9.75 12.5625 10.75Z" fill="#93A2AA"/>
</g>
<defs>
<clipPath id="clip0">
<rect width="40" height="40" fill="white"/>
</clipPath>
</defs>
</svg>
