<svg xmlns="http://www.w3.org/2000/svg" fill="none" viewBox="0 0 624 661" height="661" width="624">
<path fill="#F0F0F0" d="M311.586 661C139.502 661 -0.000244141 569.498 -0.000244141 456.625C-0.000244141 343.752 139.502 252.25 311.586 252.25C483.67 252.25 623.172 343.752 623.172 456.625C623.172 569.498 483.67 661 311.586 661Z"></path>
<path fill="#E0E0E0" d="M376.066 611.492C316.725 611.492 268.619 579.941 268.619 541.023C268.619 502.104 316.725 470.554 376.066 470.554C435.406 470.554 483.512 502.104 483.512 541.023C483.512 579.941 435.406 611.492 376.066 611.492Z"></path>
<path fill="#93278F" d="M70.5043 452.854L83.1085 444.59C83.1085 444.59 86.1901 413.938 84.1401 390.198C81.2569 356.842 62.2911 316.694 39.675 326.13C17.059 335.566 50.044 369.523 57.3843 397.816C64.7246 426.109 70.5043 452.854 70.5043 452.854Z"></path>
<path fill="black" d="M70.5043 452.854L83.1085 444.59C83.1085 444.59 86.1901 413.938 84.1401 390.198C81.2569 356.842 62.2911 316.694 39.675 326.13C17.059 335.566 50.044 369.523 57.3843 397.816C64.7246 426.109 70.5043 452.854 70.5043 452.854Z" opacity="0.15"></path>
<path fill="white" d="M77.1313 449.383C76.9302 449.371 76.7412 449.27 76.6051 449.102C76.469 448.933 76.3967 448.71 76.4039 448.482C78.6126 374.361 46.1301 337.069 45.8127 336.708C45.6689 336.545 45.5882 336.323 45.5882 336.092C45.5882 335.861 45.6689 335.639 45.8127 335.476C45.8828 335.395 45.9662 335.332 46.0581 335.288C46.1501 335.245 46.2487 335.222 46.3483 335.222C46.4479 335.222 46.5466 335.245 46.6385 335.288C46.7304 335.332 46.8139 335.395 46.884 335.476C47.2278 335.837 80.1732 373.67 77.9381 448.542C77.9347 448.657 77.9111 448.771 77.8685 448.877C77.8259 448.982 77.7653 449.076 77.6902 449.155C77.6151 449.233 77.5269 449.294 77.431 449.333C77.335 449.372 77.2332 449.389 77.1313 449.383Z"></path>
<path fill="#93278F" d="M62.5836 458.008L71.5507 452.133C71.5507 452.133 73.0848 431.097 63.9987 405.554C56.0633 383.317 36.4891 364.851 26.6227 368.727C16.7563 372.604 17.0076 380.552 21.8217 388.891C26.6359 397.23 55.8781 417.079 62.5836 458.008Z"></path>
<path fill="white" d="M67.3183 455.784C67.1159 455.78 66.9227 455.687 66.7796 455.524C66.6365 455.362 66.5546 455.142 66.5512 454.912C66.7363 408.033 27.998 376.36 27.6013 376.044C27.5186 375.98 27.4483 375.897 27.3946 375.801C27.3409 375.705 27.3048 375.598 27.2888 375.485C27.2727 375.373 27.2769 375.258 27.301 375.147C27.3252 375.037 27.3688 374.933 27.4293 374.842C27.5463 374.657 27.7227 374.531 27.9205 374.492C28.1184 374.452 28.3219 374.503 28.4874 374.632C28.8842 374.947 68.2573 407.162 68.0854 454.912C68.0854 455.144 68.0045 455.365 67.8607 455.529C67.7168 455.692 67.5217 455.784 67.3183 455.784Z"></path>
<path fill="#93278F" d="M536.872 434.448L525.233 425.523C525.233 425.523 520.114 390.965 524.876 360.478C531.568 317.716 557.583 303.502 566.841 308.01C576.099 312.517 578.083 325.244 560.797 349.645C550.547 363.994 537.229 394.631 536.872 434.448Z"></path>
<g opacity="0.15">
<path fill="black" d="M536.875 434.448L525.237 425.523C525.237 425.523 520.118 390.965 524.88 360.478C531.572 317.716 557.587 303.502 566.845 308.01C576.103 312.517 578.087 325.244 560.801 349.645C550.551 363.994 537.233 394.631 536.875 434.448Z" opacity="0.15"></path>
</g>
<path fill="white" d="M532.877 417.319H532.996C533.115 417.311 533.231 417.274 533.337 417.211C533.442 417.148 533.535 417.06 533.608 416.954C533.682 416.847 533.735 416.725 533.764 416.593C533.793 416.462 533.797 416.325 533.777 416.192C529.571 375.939 544.529 332.246 560.81 314.861C560.967 314.681 561.055 314.438 561.055 314.185C561.055 313.932 560.967 313.689 560.81 313.509C560.733 313.419 560.64 313.347 560.538 313.299C560.436 313.25 560.326 313.225 560.215 313.225C560.104 313.225 559.994 313.25 559.892 313.299C559.79 313.347 559.697 313.419 559.62 313.509C543.035 331.209 527.799 375.624 532.057 416.463C532.082 416.693 532.178 416.905 532.329 417.062C532.479 417.219 532.673 417.31 532.877 417.319Z"></path>
<path fill="#93278F" d="M567.343 457.797C569.194 459.06 574.59 454.507 576.085 453.41C578.646 451.51 580.733 448.891 582.142 445.807C583.724 442.31 584.311 438.341 583.822 434.448C583.551 432.416 583.158 430.408 582.645 428.438C582.182 426.47 581.719 424.501 581.322 422.518C580.736 420.589 580.51 418.542 580.661 416.508C581.177 412.496 584.364 409.746 587.274 407.387C590.474 404.758 593.887 401.287 593.887 396.449C593.724 392.648 592.443 389.018 590.25 386.142C588.266 383.136 585.885 380.522 584.1 377.382C582.703 375.206 581.991 372.56 582.076 369.869C582.306 368.21 582.828 366.621 583.61 365.196C585.171 362.071 587.194 359.186 588.292 355.865C589.39 352.545 589.311 348.278 586.97 345.798C585.105 343.77 582.261 343.44 579.682 343.575C577.252 343.85 574.904 344.727 572.805 346.144C565.967 350.276 561.946 359.291 554.712 362.432C551.921 363.634 548.879 363.844 545.983 364.655C543.087 365.467 540.097 367.074 538.709 370.064C535.971 375.999 540.746 383.482 538.788 389.778C537.042 395.367 532.175 397.411 529.424 402.414C528.308 404.636 527.844 407.205 528.102 409.746C528.257 414.037 529.104 418.259 530.601 422.202C532.323 426.292 534.267 430.256 536.421 434.072C536.421 434.072 567.065 457.602 567.343 457.797Z"></path>
<path fill="white" d="M549.46 445.341C549.571 445.339 549.681 445.313 549.783 445.262C549.885 445.212 549.977 445.14 550.055 445.049C550.132 444.958 550.193 444.851 550.234 444.734C550.275 444.616 550.295 444.491 550.293 444.365C549.553 406.32 566.032 364.73 577.697 352.71C577.863 352.54 577.963 352.303 577.975 352.049C577.988 351.796 577.911 351.548 577.763 351.358C577.686 351.268 577.593 351.196 577.491 351.148C577.389 351.099 577.279 351.074 577.168 351.074C577.057 351.074 576.947 351.099 576.845 351.148C576.743 351.196 576.65 351.268 576.573 351.358C564.67 363.528 547.86 405.84 548.614 444.41C548.615 444.534 548.639 444.657 548.682 444.771C548.726 444.885 548.788 444.988 548.867 445.075C548.946 445.161 549.038 445.229 549.14 445.275C549.242 445.321 549.351 445.343 549.46 445.341Z"></path>
<path fill="white" d="M555.638 398.988C555.716 399.01 555.798 399.01 555.876 398.988C566.695 395.442 580.106 395.082 580.238 395.067C580.349 395.065 580.458 395.038 580.559 394.987C580.66 394.937 580.752 394.864 580.828 394.773C580.905 394.683 580.964 394.575 581.004 394.458C581.043 394.341 581.062 394.215 581.058 394.09C581.06 393.963 581.039 393.837 580.996 393.72C580.953 393.603 580.889 393.497 580.808 393.41C580.728 393.322 580.632 393.255 580.527 393.211C580.422 393.168 580.31 393.15 580.198 393.158C580.066 393.158 566.444 393.534 555.413 397.14C555.2 397.213 555.021 397.379 554.915 397.601C554.808 397.823 554.783 398.084 554.845 398.327C554.896 398.52 555.001 398.689 555.144 398.808C555.288 398.927 555.461 398.99 555.638 398.988Z"></path>
<path fill="#455A64" d="M243.922 408.289L248.935 404.998C249.77 404.382 250.465 403.551 250.964 402.571C251.463 401.592 251.751 400.493 251.805 399.363V162.684C251.75 161.557 251.463 160.459 250.967 159.48C250.471 158.502 249.779 157.669 248.948 157.05L109.614 65.6656C108.727 65.1547 107.746 64.8885 106.751 64.8885C105.756 64.8885 104.775 65.1547 103.888 65.6656L98.8751 68.9561C98.0399 69.5722 97.3446 70.4036 96.8459 71.3828C96.3471 72.3619 96.059 73.461 96.0051 74.5906V311.27C96.0596 312.398 96.3466 313.495 96.8428 314.474C97.339 315.452 98.0306 316.285 98.8618 316.904L238.195 408.304C239.083 408.816 240.065 409.081 241.06 409.079C242.056 409.076 243.037 408.805 243.922 408.289Z"></path>
<path fill="#455A64" d="M96.0062 74.0648C96.2046 72.3819 97.4081 71.7659 98.8498 72.7125L238.197 164.112C239.039 164.712 239.735 165.544 240.22 166.531L250.973 159.484C250.492 158.49 249.795 157.652 248.949 157.05L109.616 65.6656C108.728 65.1547 107.747 64.8885 106.752 64.8885C105.757 64.8885 104.776 65.1547 103.889 65.6656L98.8762 68.9561C98.102 69.5224 97.4447 70.272 96.9494 71.1538C96.454 72.0356 96.1323 73.0286 96.0062 74.0648Z"></path>
<path fill="#263238" d="M238.687 408.559C239.533 408.949 240.443 409.127 241.356 409.083C242.269 409.039 243.162 408.773 243.977 408.304L249.003 404.998C249.834 404.379 250.525 403.546 251.022 402.567C251.518 401.589 251.805 400.491 251.859 399.364V162.684C251.825 161.554 251.539 160.453 251.026 159.484L240.274 166.531C240.796 167.501 241.088 168.609 241.12 169.746V406.425C241.067 408.289 240.036 409.145 238.687 408.559Z"></path>
<path fill="#37474F" d="M241.066 169.776V406.425C241.066 408.499 239.744 409.34 238.196 408.304L98.8629 316.904C98.0316 316.285 97.3401 315.452 96.8439 314.474C96.3477 313.495 96.0607 312.398 96.0061 311.27V74.5907C96.0061 72.5172 97.3287 71.6757 98.8629 72.7125L238.196 164.112C239.035 164.731 239.733 165.567 240.231 166.552C240.73 167.536 241.017 168.641 241.066 169.776Z"></path>
<path fill="#455A64" d="M273.602 259.928C275.401 258.711 283.746 253.317 284.183 253.032C284.523 252.801 284.813 252.487 285.032 252.112C285.251 251.737 285.393 251.311 285.447 250.865C285.502 250.42 285.468 249.966 285.347 249.537C285.227 249.109 285.023 248.716 284.752 248.389L251.806 208.241L241.067 215.243L273.999 255.421C274.258 255.734 274.454 256.106 274.576 256.512C274.697 256.919 274.741 257.35 274.703 257.777C274.665 258.204 274.548 258.617 274.358 258.988C274.168 259.359 273.91 259.68 273.602 259.928Z"></path>
<path fill="#37474F" d="M241.068 215.288L274 255.421C274.366 255.864 274.605 256.424 274.685 257.024C274.765 257.625 274.683 258.24 274.45 258.787C274.216 259.334 273.842 259.787 273.377 260.088C272.912 260.388 272.377 260.521 271.844 260.469L241.068 257.584V215.288Z"></path>
<path fill="#93278F" d="M168.537 143.031C152.295 132.378 139.136 141.018 139.136 162.324C139.136 183.63 152.295 209.518 168.537 220.171C184.778 230.824 197.938 222.185 197.938 200.894C197.938 179.603 184.778 153.684 168.537 143.031Z"></path>
<path fill="white" d="M168.748 159.799C163.458 156.343 159.212 159.138 159.212 166.05C159.392 169.807 160.35 173.463 162.007 176.721C163.663 179.979 165.973 182.747 168.748 184.801C174.038 188.257 178.297 185.463 178.297 178.551C178.115 174.792 177.156 171.136 175.497 167.878C173.837 164.619 171.525 161.852 168.748 159.799Z"></path>
<path fill="white" d="M149.941 196.641C149.941 185.297 156.964 180.684 165.613 186.364L171.023 189.91C179.672 195.59 186.695 209.443 186.695 220.757V223.867C185.062 224.46 183.358 224.759 181.643 224.754C177.003 224.575 172.485 223.021 168.536 220.246C161.018 214.985 154.658 207.842 149.941 199.361V196.641Z"></path>
<path fill="#93278F" d="M187.161 325.634L149.917 301.203C148.33 300.166 147.047 301.008 147.047 303.081V316.709C147.101 317.839 147.39 318.938 147.888 319.917C148.387 320.896 149.082 321.728 149.917 322.344L187.161 346.775C188.748 347.812 190.031 346.97 190.031 344.897V331.269C189.977 330.139 189.689 329.04 189.19 328.061C188.692 327.082 187.996 326.25 187.161 325.634Z"></path>
<path fill="#FAFAFA" d="M205.398 295.193L131.717 246.841C129.826 245.594 128.279 246.601 128.279 249.095V254.159C128.343 255.513 128.688 256.832 129.286 258.007C129.883 259.182 130.716 260.18 131.717 260.92L205.438 309.272C207.329 310.519 208.863 309.512 208.863 307.018V301.999C208.803 300.634 208.457 299.304 207.855 298.12C207.252 296.937 206.41 295.933 205.398 295.193Z"></path>
<path fill="#FAFAFA" d="M196.772 260.199C195.766 259.538 194.986 259.433 194.431 259.898C193.875 260.364 193.597 261.401 193.597 262.994C193.569 264.447 193.855 265.887 194.431 267.186C194.95 268.36 195.765 269.332 196.772 269.98L198.755 271.288V276.141C198.759 276.308 198.795 276.472 198.861 276.622C198.908 276.758 198.991 276.873 199.099 276.952L200.104 277.613C200.139 277.642 200.181 277.658 200.223 277.658C200.266 277.658 200.308 277.642 200.343 277.613C200.414 277.511 200.447 277.382 200.435 277.253V263.204C200.436 263.038 200.405 262.873 200.343 262.723C200.292 262.59 200.21 262.475 200.104 262.393L196.772 260.199ZM198.755 268.568L196.838 267.306C196.374 267.009 195.983 266.585 195.7 266.074C195.4 265.47 195.253 264.783 195.277 264.09C195.277 263.279 195.423 262.813 195.7 262.678C195.896 262.624 196.101 262.621 196.298 262.671C196.495 262.72 196.68 262.82 196.838 262.964L198.755 264.226V268.568Z"></path>
<path fill="#FAFAFA" d="M188.06 254.474C187.928 254.384 187.822 254.384 187.756 254.474C187.671 254.609 187.612 254.763 187.584 254.925L184.529 266.675C184.529 266.675 184.529 266.765 184.529 266.81C184.531 266.977 184.567 267.142 184.634 267.291C184.681 267.427 184.764 267.542 184.872 267.621L185.772 268.207C185.93 268.312 186.05 268.327 186.116 268.207C186.18 268.132 186.225 268.039 186.248 267.937L186.79 265.878L190.758 268.463L191.287 271.227C191.325 271.377 191.373 271.523 191.432 271.663C191.498 271.846 191.62 271.996 191.776 272.084L192.676 272.67C192.709 272.702 192.751 272.719 192.795 272.719C192.838 272.719 192.88 272.702 192.914 272.67C192.983 272.573 193.016 272.449 193.006 272.324C193.014 272.269 193.014 272.214 193.006 272.159L189.964 256.412C189.928 256.181 189.87 255.954 189.792 255.736C189.728 255.578 189.621 255.447 189.488 255.361L188.06 254.474ZM187.372 263.579L188.695 258.276L190.017 265.367L187.372 263.579Z"></path>
<path fill="#FAFAFA" d="M179.897 248.9C179.454 248.582 178.95 248.392 178.429 248.344C178.06 248.306 177.69 248.401 177.37 248.614C177.08 248.828 176.854 249.137 176.722 249.501C176.578 249.87 176.497 250.268 176.484 250.673C176.475 250.84 176.507 251.006 176.577 251.153C176.624 251.289 176.707 251.405 176.815 251.484L177.688 252.055C177.833 252.145 177.939 252.16 178.005 252.055C178.087 251.994 178.155 251.911 178.204 251.815C178.257 251.679 178.333 251.558 178.429 251.457C178.524 251.356 178.637 251.279 178.759 251.229C179.162 251.163 179.571 251.282 179.897 251.559C180.111 251.716 180.314 251.892 180.505 252.085C180.701 252.29 180.875 252.522 181.021 252.776C181.161 253.021 181.277 253.283 181.365 253.557C181.443 253.819 181.483 254.093 181.484 254.369C181.499 254.622 181.458 254.875 181.365 255.105C181.324 255.186 181.267 255.254 181.197 255.304C181.128 255.353 181.049 255.383 180.968 255.391C180.723 255.439 180.472 255.439 180.227 255.391L179.077 255.105C178.648 254.961 178.201 254.9 177.754 254.925C177.435 254.924 177.124 255.04 176.868 255.255C176.626 255.487 176.451 255.796 176.365 256.142C176.236 256.629 176.178 257.136 176.193 257.644C176.194 258.316 176.279 258.983 176.445 259.628C176.606 260.29 176.842 260.926 177.146 261.521C177.466 262.13 177.848 262.695 178.283 263.204C178.728 263.728 179.235 264.178 179.791 264.541C180.198 264.823 180.646 265.021 181.113 265.127C181.494 265.21 181.887 265.174 182.251 265.022C182.581 264.847 182.855 264.558 183.031 264.195C183.247 263.732 183.365 263.217 183.375 262.693C183.376 262.522 183.345 262.353 183.282 262.197C183.224 262.069 183.137 261.96 183.031 261.882L182.158 261.311C182.026 261.22 181.92 261.19 181.841 261.235C181.761 261.28 181.709 261.356 181.656 261.491C181.601 261.645 181.53 261.792 181.444 261.927C181.362 262.058 181.246 262.157 181.113 262.212C180.939 262.258 180.758 262.258 180.584 262.212C180.304 262.137 180.036 262.01 179.791 261.836C179.534 261.67 179.291 261.479 179.063 261.265C178.619 260.866 178.265 260.35 178.032 259.763C177.926 259.462 177.872 259.141 177.873 258.816C177.861 258.699 177.869 258.579 177.899 258.466C177.929 258.352 177.978 258.246 178.045 258.155C178.117 258.084 178.201 258.03 178.292 257.999C178.383 257.968 178.48 257.96 178.574 257.975C178.874 257.989 179.172 258.044 179.46 258.14C179.804 258.23 180.201 258.336 180.664 258.426C181.018 258.526 181.385 258.557 181.748 258.516C182.034 258.495 182.305 258.362 182.515 258.14C182.744 257.886 182.905 257.563 182.978 257.209C183.085 256.687 183.133 256.152 183.124 255.616C183.124 254.954 183.04 254.296 182.872 253.663C182.715 253.011 182.483 252.384 182.185 251.799C181.899 251.219 181.552 250.679 181.153 250.192C180.79 249.696 180.367 249.261 179.897 248.9Z"></path>
<path fill="#FAFAFA" d="M171.211 243.22C170.771 242.893 170.266 242.697 169.743 242.649C169.374 242.613 169.004 242.708 168.685 242.92C168.402 243.139 168.182 243.447 168.05 243.806C167.905 244.176 167.825 244.574 167.812 244.978C167.796 245.145 167.829 245.314 167.904 245.459C167.951 245.595 168.034 245.711 168.142 245.789L169.015 246.36C169.148 246.451 169.253 246.481 169.333 246.36C169.417 246.3 169.482 246.21 169.518 246.105C169.639 245.841 169.841 245.638 170.087 245.534C170.284 245.501 170.485 245.513 170.678 245.57C170.871 245.627 171.052 245.727 171.211 245.865C171.432 246.018 171.64 246.194 171.832 246.39C172.025 246.596 172.193 246.828 172.335 247.082C172.481 247.323 172.596 247.586 172.679 247.863C172.761 248.123 172.806 248.397 172.811 248.674C172.827 248.927 172.786 249.18 172.692 249.41C172.651 249.491 172.594 249.559 172.525 249.609C172.456 249.659 172.377 249.689 172.295 249.696C172.05 249.745 171.8 249.745 171.555 249.696L170.404 249.41C169.974 249.274 169.528 249.214 169.081 249.23C168.762 249.227 168.451 249.343 168.195 249.561C167.953 249.795 167.775 250.103 167.679 250.447C167.563 250.937 167.509 251.443 167.521 251.95C167.522 252.621 167.606 253.289 167.772 253.933C167.933 254.596 168.169 255.232 168.473 255.826C168.792 256.441 169.173 257.011 169.61 257.524C170.057 258.035 170.559 258.48 171.105 258.846C171.513 259.127 171.96 259.325 172.427 259.432C172.804 259.514 173.192 259.478 173.552 259.327C173.889 259.158 174.168 258.868 174.345 258.501C174.563 258.039 174.676 257.522 174.676 256.998C174.691 256.831 174.659 256.662 174.583 256.517C174.537 256.382 174.453 256.266 174.345 256.187L173.472 255.616C173.34 255.526 173.221 255.496 173.155 255.541C173.109 255.565 173.068 255.6 173.036 255.644C173.004 255.688 172.981 255.74 172.97 255.796C172.91 255.948 172.839 256.094 172.758 256.232C172.671 256.364 172.551 256.463 172.414 256.517C172.24 256.563 172.059 256.563 171.885 256.517C171.604 256.442 171.336 256.315 171.092 256.142C170.841 255.972 170.603 255.781 170.378 255.571C170.145 255.365 169.94 255.122 169.769 254.85C169.598 254.59 169.456 254.308 169.346 254.008C169.24 253.707 169.186 253.386 169.187 253.062C169.175 252.944 169.184 252.825 169.213 252.711C169.243 252.597 169.292 252.492 169.359 252.401C169.431 252.329 169.515 252.276 169.606 252.245C169.698 252.214 169.794 252.205 169.888 252.22C170.183 252.241 170.476 252.296 170.761 252.386C171.105 252.476 171.515 252.581 171.965 252.671C172.323 252.772 172.695 252.802 173.062 252.761C173.349 252.744 173.621 252.611 173.829 252.386C174.054 252.13 174.21 251.807 174.279 251.454C174.397 250.939 174.45 250.408 174.438 249.876C174.433 249.21 174.349 248.548 174.187 247.908C174.023 247.258 173.792 246.633 173.499 246.045C173.213 245.46 172.861 244.92 172.454 244.437C172.098 243.96 171.678 243.55 171.211 243.22Z"></path>
<path fill="#FAFAFA" d="M161.565 245.098L162.636 252.295C162.668 252.512 162.721 252.724 162.795 252.926C162.846 253.088 162.944 253.226 163.073 253.317L164.078 253.978C164.21 254.068 164.303 254.068 164.369 253.978C164.458 253.855 164.509 253.702 164.514 253.543L166.102 240.846C166.102 240.846 166.102 240.726 166.102 240.681C166.098 240.514 166.062 240.35 165.996 240.2C165.946 240.066 165.863 239.952 165.758 239.869L164.845 239.268C164.769 239.233 164.683 239.233 164.607 239.268C164.528 239.268 164.475 239.389 164.448 239.629L163.403 248.178L162.491 241.763C162.467 241.603 162.427 241.446 162.372 241.297C162.319 241.107 162.206 240.946 162.054 240.846L161.036 240.17C160.891 240.08 160.785 240.095 160.719 240.17C160.662 240.266 160.621 240.373 160.6 240.485L159.674 245.699L158.629 235.783C158.616 235.587 158.567 235.398 158.484 235.227C158.422 235.114 158.341 235.017 158.245 234.941L157.333 234.34C157.299 234.311 157.257 234.295 157.214 234.295C157.171 234.295 157.129 234.311 157.095 234.34C157.057 234.389 157.028 234.447 157.01 234.508C156.992 234.57 156.985 234.636 156.989 234.701C156.984 234.761 156.984 234.821 156.989 234.881L158.576 249.651C158.603 249.867 158.651 250.079 158.722 250.282C158.782 250.442 158.883 250.578 159.013 250.673L160.031 251.334C160.15 251.409 160.243 251.409 160.309 251.334C160.376 251.196 160.429 251.05 160.467 250.898L161.565 245.098Z"></path>
<path fill="#FAFAFA" d="M155.377 238.728C155.348 237.894 155.259 237.065 155.112 236.248C154.961 235.45 154.73 234.674 154.425 233.934C154.133 233.216 153.76 232.544 153.314 231.936C152.861 231.333 152.32 230.824 151.713 230.434C151.247 230.074 150.702 229.871 150.139 229.848C149.719 229.853 149.317 230.041 149.015 230.373C148.695 230.782 148.464 231.271 148.341 231.801C148.17 232.491 148.077 233.203 148.063 233.919C148.063 234.19 148.063 234.49 148.063 234.821C148.063 235.151 148.063 235.497 148.063 235.858C148.063 236.218 148.063 236.564 148.063 236.894C148.063 237.225 148.063 237.541 148.063 237.826C148.092 238.654 148.18 239.478 148.328 240.29C148.48 241.086 148.706 241.862 149.002 242.604C149.303 243.32 149.68 243.992 150.126 244.602C150.578 245.2 151.115 245.708 151.713 246.105C152.19 246.462 152.743 246.664 153.314 246.691C153.52 246.696 153.724 246.653 153.915 246.565C154.106 246.477 154.28 246.346 154.425 246.18C154.77 245.759 155.007 245.24 155.112 244.678C155.27 243.985 155.359 243.274 155.377 242.559C155.377 242.289 155.377 241.988 155.377 241.657C155.377 241.327 155.377 240.981 155.377 240.621C155.377 240.26 155.377 239.93 155.377 239.584C155.377 239.238 155.39 238.998 155.377 238.728ZM149.743 235.136C149.713 234.769 149.75 234.398 149.85 234.047C149.95 233.696 150.111 233.371 150.325 233.093C150.669 232.747 151.145 232.762 151.713 233.093C152.331 233.505 152.82 234.125 153.115 234.866C153.49 235.742 153.689 236.702 153.697 237.676C153.697 238.232 153.697 238.848 153.697 239.524C153.697 240.2 153.697 240.801 153.697 241.342C153.727 241.71 153.69 242.08 153.59 242.431C153.49 242.782 153.329 243.107 153.115 243.385C152.771 243.716 152.295 243.686 151.713 243.31C151.106 242.895 150.622 242.283 150.325 241.552C149.949 240.682 149.751 239.727 149.743 238.758C149.743 238.187 149.743 237.571 149.743 236.894C149.743 236.218 149.73 235.677 149.743 235.136Z"></path>
<path fill="#FAFAFA" d="M142.299 224.438C141.254 223.762 140.474 223.657 139.931 224.153C139.61 224.555 139.371 225.033 139.232 225.553C139.092 226.072 139.056 226.621 139.125 227.158C139.114 228.179 139.252 229.194 139.535 230.163C139.803 231.066 140.221 231.902 140.765 232.627L139.045 236.879C139.04 236.949 139.04 237.02 139.045 237.09C139.045 237.225 139.072 237.359 139.125 237.48C139.161 237.59 139.226 237.684 139.31 237.751L140.368 238.442C140.54 238.547 140.659 238.562 140.738 238.442C140.808 238.363 140.866 238.272 140.91 238.172L142.537 234.16L144.19 235.242V240.32C144.189 240.486 144.221 240.651 144.283 240.801C144.337 240.932 144.419 241.045 144.521 241.132L145.526 241.793C145.559 241.825 145.601 241.842 145.645 241.842C145.688 241.842 145.731 241.825 145.764 241.793C145.802 241.747 145.831 241.692 145.849 241.633C145.867 241.573 145.874 241.51 145.87 241.447V227.398C145.866 227.231 145.83 227.067 145.764 226.918C145.717 226.782 145.634 226.666 145.526 226.587L142.299 224.438ZM144.164 232.522L142.299 231.38C141.843 231.091 141.453 230.685 141.161 230.193C140.855 229.614 140.708 228.945 140.738 228.27C140.738 227.459 140.884 227.008 141.161 226.918C141.564 226.855 141.972 226.974 142.299 227.248L144.097 228.42L144.164 232.522Z"></path>
<path fill="#FAFAFA" d="M133.437 218.654C132.957 218.298 132.408 218.081 131.837 218.023C131.423 218.005 131.02 218.172 130.713 218.488C130.363 218.907 130.12 219.427 130.012 219.991C129.834 220.736 129.736 221.503 129.721 222.275C129.721 223.326 129.721 224.408 129.721 225.505C129.748 226.4 129.845 227.29 130.012 228.165C130.163 228.978 130.394 229.769 130.7 230.524C130.995 231.217 131.368 231.863 131.811 232.447C132.253 233.044 132.78 233.552 133.371 233.949L136.506 235.888C136.539 235.919 136.581 235.937 136.625 235.937C136.668 235.937 136.711 235.919 136.744 235.888C136.783 235.842 136.812 235.788 136.83 235.728C136.849 235.668 136.855 235.605 136.85 235.542V221.493C136.846 221.326 136.81 221.162 136.744 221.013C136.697 220.877 136.614 220.761 136.506 220.682L133.437 218.654ZM131.401 223.326C131.407 222.92 131.46 222.515 131.559 222.124C131.621 221.829 131.754 221.558 131.943 221.343C132.026 221.249 132.125 221.175 132.234 221.126C132.344 221.077 132.46 221.053 132.578 221.058C132.909 221.083 133.228 221.207 133.504 221.418L135.17 222.5V232.297L133.437 231.17C133.102 230.948 132.803 230.664 132.551 230.328C132.305 229.999 132.096 229.635 131.93 229.246C131.765 228.832 131.641 228.399 131.559 227.954C131.467 227.49 131.414 227.017 131.401 226.542C131.361 225.445 131.361 224.378 131.401 223.326Z"></path>
<path fill="#93278F" d="M315.054 0.575897C312.771 1.15299 310.571 2.09387 308.52 3.37061C306.556 4.57006 304.796 6.15751 303.323 8.05852C301.913 9.88719 300.866 12.0396 300.254 14.3692C299.63 16.8628 299.584 19.4975 300.122 22.0171C300.477 24.0147 301.173 25.9138 302.172 27.6065C303.084 29.054 304.17 30.3488 305.399 31.453C306.606 32.5176 307.894 33.4579 309.248 34.2627L313.057 36.5616C314.204 37.2415 315.293 38.0413 316.31 38.9506C317.23 39.7524 317.936 40.8294 318.347 42.0609C318.549 42.6235 318.883 43.1122 319.313 43.4733C319.516 43.6528 319.753 43.7773 320.005 43.8371C320.257 43.897 320.518 43.8908 320.767 43.8189L326.375 42.4065C326.645 42.3422 326.901 42.2173 327.128 42.0393C327.355 41.8613 327.549 41.6337 327.698 41.3697C327.856 41.1243 327.961 40.84 328.005 40.5399C328.049 40.2397 328.029 39.932 327.949 39.6418C327.497 37.6688 326.701 35.8191 325.608 34.2026C324.61 32.7728 323.455 31.4951 322.169 30.4012C320.917 29.3598 319.59 28.44 318.202 27.6516C316.879 26.8853 315.556 26.149 314.406 25.4128C313.335 24.7592 312.329 23.9785 311.404 23.0839C310.591 22.3115 310.029 21.2544 309.803 20.0788C309.593 19.058 309.603 17.9944 309.834 16.9792C310.064 15.9639 310.507 15.0271 311.126 14.249C312.672 12.3307 314.74 11.0559 316.998 10.6279C321.177 9.57609 324.704 11.1738 327.579 15.4209C327.856 15.8845 328.206 16.2868 328.61 16.6079C329.067 16.865 329.594 16.9082 330.078 16.7281L336.043 15.2256C336.469 15.1322 336.844 14.8513 337.088 14.4443C337.218 14.2268 337.306 13.9801 337.344 13.7208C337.383 13.4616 337.372 13.1959 337.313 12.9418C336.806 10.8539 335.862 8.93628 334.562 7.35233C333.095 5.51542 331.353 3.98915 329.417 2.84473C327.3 1.5862 325.018 0.723697 322.659 0.290418C320.131 -0.176586 317.548 -0.0796199 315.054 0.575897ZM321.389 48.9275C320.864 49.0674 320.409 49.435 320.12 49.9517C319.83 50.4683 319.731 51.093 319.842 51.6921L321.27 59.0546C321.318 59.3628 321.423 59.656 321.578 59.9149C321.733 60.1739 321.935 60.3927 322.169 60.5571C322.391 60.7305 322.641 60.8495 322.906 60.9064C323.17 60.9633 323.442 60.9569 323.703 60.8877L330.105 59.2198C330.377 59.1677 330.636 59.0494 330.864 58.8731C331.093 58.6968 331.285 58.4665 331.427 58.1981C331.576 57.9443 331.677 57.6589 331.724 57.3592C331.772 57.0595 331.766 56.7519 331.705 56.4552L330.263 49.0928C330.14 48.4959 329.817 47.9771 329.363 47.6461C328.909 47.3152 328.359 47.1981 327.83 47.3198L321.389 48.9275Z"></path>
<path fill="#93278F" d="M307.991 71.0598C306.398 70.7696 304.778 70.7342 303.176 70.9546C301.647 71.1612 300.161 71.6697 298.785 72.4572C297.476 73.2292 296.322 74.304 295.4 75.6125C294.57 76.8931 293.986 78.357 293.686 79.9098C293.385 81.4626 293.374 83.0698 293.654 84.6277C293.906 85.8254 294.311 86.9746 294.857 88.0384C295.384 89.0732 295.995 90.0492 296.683 90.9534C297.357 91.8549 298.005 92.7113 298.6 93.5377C299.183 94.3076 299.701 95.1376 300.148 96.0169C300.567 96.7876 300.778 97.6807 300.756 98.5862C300.768 99.0095 300.872 99.4227 301.06 99.7883C301.156 99.9567 301.282 100.1 301.43 100.209C301.579 100.318 301.745 100.389 301.92 100.419L305.888 101.141C306.073 101.179 306.263 101.175 306.447 101.128C306.631 101.082 306.805 100.994 306.959 100.87C307.115 100.759 307.246 100.606 307.34 100.426C307.434 100.246 307.49 100.043 307.501 99.8333C307.667 98.4352 307.577 97.013 307.237 95.6563C306.926 94.4552 306.481 93.304 305.914 92.2305C305.358 91.2003 304.721 90.2297 304.01 89.3306C303.309 88.4291 302.687 87.5877 302.079 86.7763C301.536 86.0517 301.065 85.2605 300.677 84.4173C300.333 83.6916 300.207 82.8577 300.32 82.0433C300.419 81.3265 300.669 80.6476 301.049 80.0642C301.429 79.4809 301.928 79.0104 302.502 78.6927C303.924 77.9124 305.533 77.6904 307.078 78.0616C308.477 78.294 309.778 79.0122 310.803 80.1178C311.829 81.2234 312.528 82.6622 312.805 84.237C312.882 84.6158 313.016 84.9767 313.202 85.3038C313.438 85.589 313.758 85.7656 314.101 85.7997L318.28 86.566C318.574 86.6298 318.878 86.5596 319.127 86.3706C319.254 86.2712 319.361 86.142 319.441 85.9917C319.521 85.8414 319.572 85.6735 319.59 85.4992C319.714 84.0082 319.509 82.5055 318.994 81.1268C318.471 79.5225 317.701 78.0368 316.72 76.7394C315.644 75.3187 314.376 74.1014 312.963 73.1333C311.439 72.0833 309.751 71.3791 307.991 71.0598ZM301.166 103.89C300.984 103.857 300.798 103.866 300.619 103.915C300.439 103.964 300.27 104.052 300.121 104.176C299.965 104.292 299.833 104.445 299.733 104.623C299.632 104.802 299.566 105.003 299.539 105.212L298.799 110.366C298.741 110.784 298.831 111.211 299.049 111.554C299.267 111.897 299.595 112.129 299.963 112.199L304.393 113.026C304.761 113.09 305.136 112.988 305.438 112.74C305.591 112.622 305.721 112.469 305.819 112.29C305.917 112.112 305.981 111.912 306.007 111.703L306.747 106.55C306.781 106.343 306.776 106.13 306.733 105.926C306.689 105.721 306.609 105.53 306.496 105.363C306.392 105.188 306.257 105.041 306.1 104.93C305.943 104.818 305.767 104.746 305.584 104.717L301.166 103.89Z"></path>
<g opacity="0.2">
<path fill="black" d="M307.991 71.0598C306.398 70.7696 304.778 70.7342 303.176 70.9546C301.647 71.1612 300.161 71.6697 298.785 72.4572C297.476 73.2292 296.322 74.304 295.4 75.6125C294.57 76.8931 293.986 78.357 293.686 79.9098C293.385 81.4626 293.374 83.0698 293.654 84.6277C293.906 85.8254 294.311 86.9746 294.857 88.0384C295.384 89.0732 295.995 90.0492 296.683 90.9534C297.357 91.8549 298.005 92.7113 298.6 93.5377C299.183 94.3076 299.701 95.1376 300.148 96.0169C300.567 96.7876 300.778 97.6807 300.756 98.5862C300.768 99.0095 300.872 99.4227 301.06 99.7883C301.156 99.9567 301.282 100.1 301.43 100.209C301.579 100.318 301.745 100.389 301.92 100.419L305.888 101.141C306.073 101.179 306.263 101.175 306.447 101.128C306.631 101.082 306.805 100.994 306.959 100.87C307.115 100.759 307.246 100.606 307.34 100.426C307.434 100.246 307.49 100.043 307.501 99.8333C307.667 98.4352 307.577 97.013 307.237 95.6563C306.926 94.4552 306.481 93.304 305.914 92.2305C305.358 91.2003 304.721 90.2297 304.01 89.3306C303.309 88.4291 302.687 87.5877 302.079 86.7763C301.536 86.0517 301.065 85.2605 300.677 84.4173C300.333 83.6916 300.207 82.8577 300.32 82.0433C300.419 81.3265 300.669 80.6476 301.049 80.0642C301.429 79.4809 301.928 79.0104 302.502 78.6927C303.924 77.9124 305.533 77.6904 307.078 78.0616C308.477 78.294 309.778 79.0122 310.803 80.1178C311.829 81.2234 312.528 82.6622 312.805 84.237C312.882 84.6158 313.016 84.9767 313.202 85.3038C313.438 85.589 313.758 85.7656 314.101 85.7997L318.28 86.566C318.574 86.6298 318.878 86.5596 319.127 86.3706C319.254 86.2712 319.361 86.142 319.441 85.9917C319.521 85.8414 319.572 85.6735 319.59 85.4992C319.714 84.0082 319.509 82.5055 318.994 81.1268C318.471 79.5225 317.701 78.0368 316.72 76.7394C315.644 75.3187 314.376 74.1014 312.963 73.1333C311.439 72.0833 309.751 71.3791 307.991 71.0598ZM301.166 103.89C300.984 103.857 300.798 103.866 300.619 103.915C300.439 103.964 300.27 104.052 300.121 104.176C299.965 104.292 299.833 104.445 299.733 104.623C299.632 104.802 299.566 105.003 299.539 105.212L298.799 110.366C298.741 110.784 298.831 111.211 299.049 111.554C299.267 111.897 299.595 112.129 299.963 112.199L304.393 113.026C304.761 113.09 305.136 112.988 305.438 112.74C305.591 112.622 305.721 112.469 305.819 112.29C305.917 112.112 305.981 111.912 306.007 111.703L306.747 106.55C306.781 106.343 306.776 106.13 306.733 105.926C306.689 105.721 306.609 105.53 306.496 105.363C306.392 105.188 306.257 105.041 306.1 104.93C305.943 104.818 305.767 104.746 305.584 104.717L301.166 103.89Z" opacity="0.2"></path>
</g>
<path fill="#93278F" d="M270.588 79.1584C270.407 79.3008 270.255 79.4836 270.139 79.6954C270.023 79.9073 269.946 80.1438 269.913 80.3905C269.871 80.635 269.874 80.8867 269.922 81.1297C269.97 81.3728 270.061 81.602 270.191 81.8029L273.339 86.8364C273.464 87.0412 273.625 87.2149 273.811 87.3466C273.998 87.4784 274.206 87.5655 274.423 87.6027C274.638 87.6505 274.86 87.6471 275.074 87.5928C275.288 87.5385 275.49 87.4344 275.666 87.2871L280.005 83.7862C280.185 83.6457 280.338 83.4632 280.452 83.2508C280.566 83.0384 280.639 82.801 280.666 82.5541C280.708 82.3097 280.705 82.058 280.657 81.8149C280.609 81.5718 280.518 81.3426 280.388 81.1418L277.201 76.1083C276.943 75.7003 276.554 75.4242 276.118 75.3398C275.683 75.2554 275.235 75.3696 274.873 75.6575L270.588 79.1584ZM252.283 45.0659C250.702 46.3253 249.293 47.8444 248.104 49.5735C246.944 51.182 246.048 53.0141 245.459 54.9826C244.91 56.8691 244.725 58.8677 244.917 60.8425C245.141 62.9485 245.843 64.9522 246.953 66.6573C247.779 68.036 248.84 69.2114 250.075 70.1132C251.161 70.8869 252.342 71.4743 253.579 71.8561C254.785 72.214 256.015 72.4553 257.256 72.5773L260.774 72.9379C261.829 73.0337 262.874 73.2399 263.896 73.554C264.838 73.797 265.7 74.3389 266.382 75.1166C266.69 75.472 267.079 75.7219 267.506 75.8378C267.709 75.904 267.923 75.914 268.13 75.8669C268.337 75.8198 268.532 75.7171 268.696 75.5674L272.532 72.4721C272.898 72.1747 273.15 71.7279 273.233 71.225C273.282 70.9814 273.281 70.7279 273.228 70.4851C273.175 70.2423 273.072 70.0171 272.929 69.8277C272.033 68.5069 270.913 67.4034 269.636 66.5822C268.485 65.8687 267.258 65.3282 265.985 64.9745C264.756 64.6358 263.504 64.4197 262.242 64.3284C260.999 64.2383 259.835 64.1331 258.751 64.0129C257.758 63.9133 256.778 63.6916 255.828 63.3518C254.997 63.0373 254.28 62.4192 253.791 61.5938C253.349 60.8969 253.062 60.0889 252.953 59.2387C252.845 58.3885 252.919 57.5212 253.169 56.7106C253.795 54.7079 254.991 52.9999 256.568 51.8574C259.425 49.5435 262.542 49.4683 265.919 51.632C266.259 51.8777 266.635 52.0509 267.03 52.1428C267.236 52.1591 267.442 52.129 267.637 52.0542C267.832 51.9794 268.013 51.8614 268.167 51.7071L272.241 48.4166C272.389 48.3053 272.515 48.1615 272.613 47.9938C272.71 47.826 272.777 47.6377 272.81 47.4399C272.841 47.2354 272.835 47.0257 272.792 46.824C272.749 46.6223 272.669 46.433 272.558 46.2679C271.597 44.8689 270.348 43.7596 268.921 43.0375C267.3 42.2031 265.564 41.6948 263.79 41.535C261.838 41.3496 259.872 41.5273 257.97 42.0608C255.918 42.6228 253.984 43.6444 252.283 45.0659Z"></path>
<g opacity="0.6">
<path fill="white" d="M270.588 79.1584C270.407 79.3008 270.255 79.4836 270.139 79.6954C270.023 79.9073 269.946 80.1438 269.913 80.3905C269.871 80.635 269.874 80.8867 269.922 81.1297C269.97 81.3728 270.061 81.602 270.191 81.8029L273.339 86.8364C273.464 87.0412 273.625 87.2149 273.811 87.3466C273.998 87.4784 274.206 87.5655 274.423 87.6027C274.638 87.6505 274.86 87.6471 275.074 87.5928C275.288 87.5385 275.49 87.4344 275.666 87.2871L280.005 83.7862C280.185 83.6457 280.338 83.4632 280.452 83.2508C280.566 83.0384 280.639 82.801 280.666 82.5541C280.708 82.3097 280.705 82.058 280.657 81.8149C280.609 81.5718 280.518 81.3426 280.388 81.1418L277.201 76.1083C276.943 75.7003 276.554 75.4242 276.118 75.3398C275.683 75.2554 275.235 75.3696 274.873 75.6575L270.588 79.1584ZM252.283 45.0659C250.702 46.3253 249.293 47.8444 248.104 49.5735C246.944 51.182 246.048 53.0141 245.459 54.9826C244.91 56.8691 244.725 58.8677 244.917 60.8425C245.141 62.9485 245.843 64.9522 246.953 66.6573C247.779 68.036 248.84 69.2114 250.075 70.1132C251.161 70.8869 252.342 71.4743 253.579 71.8561C254.785 72.214 256.015 72.4553 257.256 72.5773L260.774 72.9379C261.829 73.0337 262.874 73.2399 263.896 73.554C264.838 73.797 265.7 74.3389 266.382 75.1166C266.69 75.472 267.079 75.7219 267.506 75.8378C267.709 75.904 267.923 75.914 268.13 75.8669C268.337 75.8198 268.532 75.7171 268.696 75.5674L272.532 72.4721C272.898 72.1747 273.15 71.7279 273.233 71.225C273.282 70.9814 273.281 70.7279 273.228 70.4851C273.175 70.2423 273.072 70.0171 272.929 69.8277C272.033 68.5069 270.913 67.4034 269.636 66.5822C268.485 65.8687 267.258 65.3282 265.985 64.9745C264.756 64.6358 263.504 64.4197 262.242 64.3284C260.999 64.2383 259.835 64.1331 258.751 64.0129C257.758 63.9133 256.778 63.6916 255.828 63.3518C254.997 63.0373 254.28 62.4192 253.791 61.5938C253.349 60.8969 253.062 60.0889 252.953 59.2387C252.845 58.3885 252.919 57.5212 253.169 56.7106C253.795 54.7079 254.991 52.9999 256.568 51.8574C259.425 49.5435 262.542 49.4683 265.919 51.632C266.259 51.8777 266.635 52.0509 267.03 52.1428C267.236 52.1591 267.442 52.129 267.637 52.0542C267.832 51.9794 268.013 51.8614 268.167 51.7071L272.241 48.4166C272.389 48.3053 272.515 48.1615 272.613 47.9938C272.71 47.826 272.777 47.6377 272.81 47.4399C272.841 47.2354 272.835 47.0257 272.792 46.824C272.749 46.6223 272.669 46.433 272.558 46.2679C271.597 44.8689 270.348 43.7596 268.921 43.0375C267.3 42.2031 265.564 41.6948 263.79 41.535C261.838 41.3496 259.872 41.5273 257.97 42.0608C255.918 42.6228 253.984 43.6444 252.283 45.0659Z" opacity="0.6"></path>
</g>
<path fill="#263238" d="M369.079 212.163H416.07V82.8248C416.07 71.5911 412.142 60.8176 405.15 52.8742C398.158 44.9309 388.675 40.4683 378.787 40.4683H374.449C364.561 40.4683 355.077 44.9309 348.085 52.8742C341.093 60.8176 337.165 71.5911 337.165 82.8248V175.982C337.183 185.585 340.553 194.787 346.536 201.57C352.519 208.353 360.627 212.163 369.079 212.163Z"></path>
<path fill="#263238" d="M420.647 523.533C421.478 528.892 421.921 534.32 421.97 539.761C422.142 549.617 423.729 553.118 423.94 561.202C424.192 570.442 422.777 573.898 419.483 579.097C416.19 584.296 407.58 588.999 403.85 580.224C400.121 571.449 400.663 565.694 401.84 556.634C403.044 547.258 403.163 542.075 403.903 534.938C404.512 528.642 405.226 523.849 405.226 523.849L420.647 523.533Z"></path>
<path fill="#AD6359" d="M396.018 458.068L424.586 457.482C424.163 479.148 421.134 503.204 420.618 523.593C420.512 527.425 420.698 553.329 419.428 561.157C417.51 572.997 405.157 571.389 404.496 564.312C403.835 557.235 405.29 526.989 405.25 523.864C405.369 510.822 399.96 488.81 397.169 465.4C397.05 464.273 396.151 459.195 396.018 458.068Z"></path>
<path fill="#263238" d="M359.317 506.675C359.317 506.675 360.442 505.984 360.64 507.351C360.918 508.974 361.341 512.324 361.963 514.999C362.783 518.71 363.47 524.825 362.981 527.861C362.492 530.896 356.276 534.772 352.242 536.185C347.27 537.928 342.736 540.992 339.016 545.125C335.048 549.392 326.412 553.419 320.5 553.374C313.556 553.374 308.716 550.744 306.428 546.522C304.139 542.3 308.517 541.789 316.453 536.004L322.603 531.497C335.18 522.166 339.796 517.178 343.327 507.847L359.317 506.675Z"></path>
<path fill="#AD6359" d="M343.224 500.89C343.436 494.189 339.362 437.228 339.362 437.228L366.488 451.276C360.682 490.673 359.439 499.974 359.346 506.419C359.465 506.959 359.514 507.516 359.492 508.072C359.492 515.72 351.861 519.852 345.935 524.961C340.898 529.443 335.531 533.425 329.893 536.861C325.581 539.31 316.825 539.535 315.741 536.395C322.962 530.129 333.464 520.754 339.204 513.602C342.007 510.236 343.013 507.606 343.224 500.89Z"></path>
<path fill="#455A64" d="M412.883 246.646C423.305 272.625 423.305 292.729 421.572 325.89C420.038 356.316 417.485 383.136 417.485 383.136C417.882 388.53 424.482 399.063 425.341 422.924C426.135 445.221 424.019 473.574 424.019 473.574C424.019 473.574 409.193 482.905 398.229 473.484C398.229 473.484 387.648 416.102 384.553 388.185C381.908 363.829 377.147 332.711 377.147 332.711L367.135 388.02C369.296 395.867 370.862 403.91 371.817 412.06C373.219 428.483 365.125 460.727 365.125 460.727C365.125 460.727 349.809 465.911 340.458 456.49C340.458 456.49 336.967 404.067 335.657 384.293C333.912 357.804 337.588 286.103 340.458 248.134L412.883 246.646Z"></path>
<path fill="#263238" d="M377.121 332.666L373.008 290.986C373.008 290.986 354.571 288.191 346.212 279.266C348.605 283.519 351.792 287.12 355.547 289.816C359.303 292.511 363.535 294.234 367.942 294.863L373.894 333.643L367.136 388.02L377.121 332.666Z"></path>
<path fill="#AD6359" d="M302.462 236.399C301.7 228.793 301.365 221.14 301.457 213.485C301.867 206.874 302.912 205.792 311.046 194.088C322.023 178.266 331.4 164.037 341.319 149.898C348.408 139.801 355.868 138.253 363.116 138.704C368.194 139.02 358.275 166.771 353.289 183.194L324.814 218.023C323.931 219.398 323.527 221.093 323.676 222.786L325.396 252.416L316.865 265.398C316.865 265.398 303.943 252.747 302.462 236.399Z"></path>
<path fill="#93278F" d="M390.572 139.606C396.088 140.041 406.113 141.108 406.113 141.108C411.892 144.774 413.36 147.794 414.432 156.509C414.895 160.235 412.223 170.137 409.935 184.216L405.597 210.315L406.073 223.267C408.321 231.17 413.413 240.982 417.91 255.451C395.823 269.455 377.307 269.98 360.51 267.471C347.708 265.593 340.923 262.077 338.661 258.591C339.137 244.302 339.984 235.467 340.248 220.532C340.341 214.266 340.01 207.926 339.786 200.714C331.202 192.69 331.096 179.348 335.818 170.663C346.703 150.634 357.296 138.028 364.306 138.674L390.572 139.606Z"></path>
<path fill="white" d="M390.572 139.606C396.088 140.041 406.113 141.108 406.113 141.108C411.892 144.774 413.36 147.794 414.432 156.509C414.895 160.235 412.223 170.137 409.935 184.216L405.597 210.315L406.073 223.267C408.321 231.17 413.413 240.982 417.91 255.451C395.823 269.455 377.307 269.98 360.51 267.471C347.708 265.593 340.923 262.077 338.661 258.591C339.137 244.302 339.984 235.467 340.248 220.532C340.341 214.266 340.01 207.926 339.786 200.714C331.202 192.69 331.096 179.348 335.818 170.663C346.703 150.634 357.296 138.028 364.306 138.674L390.572 139.606Z" opacity="0.6"></path>
<path fill="black" d="M356.882 200.909C356.882 200.909 366.96 209.804 378.48 205.161C381.714 204.003 384.631 201.916 386.948 199.103C389.265 196.289 390.904 192.843 391.705 189.099C391.705 189.099 392.922 204.049 378.413 209.143C364.354 214.056 356.882 200.909 356.882 200.909Z" opacity="0.1"></path>
<path fill="#AD6359" d="M343.212 98.5714C343.648 120.268 349.824 125.617 352.946 127.12C356.067 128.622 362.045 127.721 367.864 126.624V139.726C367.864 139.726 361.146 147.719 361.648 153.684C362.151 159.649 372.229 160.326 379.741 154.481C383.886 151.246 387.635 147.401 390.89 143.046C391.515 142.206 391.858 141.141 391.856 140.041V109.39C391.856 109.39 395.043 113.221 400.677 108.834C401.893 107.952 402.934 106.793 403.734 105.43C404.534 104.067 405.076 102.53 405.325 100.916C405.573 99.3019 405.524 97.6469 405.179 96.056C404.835 94.4651 404.202 92.9731 403.323 91.6748C400.863 88.3842 394.62 88.1588 391.631 93.1773C389.938 96.9186 389.713 100.69 387.822 99.1874C382.796 95.0705 385.494 85.6646 379.424 81.157C377.432 79.9758 375.362 78.9711 373.234 78.1519C362.402 73.8998 353.012 70.3237 350.75 61.9095C346.491 64.6742 342.682 72.9832 343.212 98.5714Z"></path>
<path fill="#AD6359" d="M364.569 117.954C363.181 117.954 362.056 116.676 362.056 115.099C362.056 113.523 363.181 112.244 364.569 112.244C365.957 112.244 367.082 113.523 367.082 115.099C367.082 116.676 365.957 117.954 364.569 117.954Z"></path>
<path fill="#263238" d="M366.237 95.2807C366.238 95.8685 366.39 96.4432 366.675 96.9336C366.96 97.424 367.366 97.8086 367.842 98.0398C368.317 98.271 368.842 98.3387 369.352 98.2344C369.861 98.1301 370.332 97.8584 370.706 97.4531C371.081 97.0477 371.343 96.5264 371.459 95.9537C371.576 95.381 371.542 94.7821 371.362 94.2311C371.182 93.68 370.863 93.2011 370.446 92.8535C370.029 92.506 369.531 92.3051 369.014 92.2757C368.656 92.2553 368.298 92.3179 367.962 92.4598C367.625 92.6017 367.318 92.8198 367.058 93.1009C366.798 93.382 366.591 93.7202 366.45 94.095C366.309 94.4697 366.237 94.8731 366.237 95.2807Z"></path>
<path fill="#263238" d="M346.202 95.5813C346.175 95.9489 346.212 96.319 346.312 96.6699C346.412 97.0209 346.573 97.3457 346.785 97.6254C346.996 97.9051 347.255 98.1341 347.546 98.2991C347.836 98.4641 348.152 98.5617 348.476 98.5864C348.803 98.6207 349.133 98.5756 349.443 98.4541C349.754 98.3326 350.038 98.1375 350.277 97.8817C350.516 97.6259 350.704 97.3153 350.829 96.9705C350.954 96.6257 351.013 96.2546 351.003 95.8818C351.037 95.5115 351.004 95.1371 350.906 94.7817C350.808 94.4263 350.648 94.0973 350.434 93.8149C350.221 93.5324 349.959 93.3026 349.664 93.1393C349.369 92.976 349.049 92.8828 348.721 92.8654C348.394 92.848 348.067 92.9067 347.76 93.038C347.453 93.1693 347.173 93.3703 346.937 93.6288C346.702 93.8873 346.515 94.1978 346.388 94.5413C346.262 94.8848 346.198 95.2541 346.202 95.6264V95.5813Z"></path>
<path fill="#455A64" d="M369.636 103.004C371.917 103.004 374.105 101.975 375.72 100.144C377.334 98.3131 378.243 95.829 378.246 93.2374C378.246 86.5962 372.215 86.5962 369.636 86.5962C367.057 86.5962 361.039 86.5962 361.039 93.2374C361.043 95.8264 361.95 98.3082 363.561 100.139C365.173 101.97 367.357 103 369.636 103.004ZM369.636 88.1288C374.926 88.1288 376.884 89.6313 376.884 93.2374C376.884 95.4291 376.117 97.5311 374.753 99.0809C373.389 100.631 371.539 101.501 369.61 101.501C367.68 101.501 365.83 100.631 364.466 99.0809C363.102 97.5311 362.335 95.4291 362.335 93.2374C362.388 89.5562 364.425 88.1288 369.636 88.1288Z"></path>
<path fill="#455A64" d="M347.8 103.004C350.081 103.004 352.269 101.975 353.884 100.144C355.498 98.3131 356.407 95.829 356.41 93.2374C356.41 86.5962 350.379 86.5962 347.8 86.5962C345.221 86.5962 339.203 86.5962 339.203 93.2374C339.207 95.8264 340.114 98.3082 341.725 100.139C343.337 101.97 345.521 103 347.8 103.004ZM347.8 88.1288C353.011 88.1288 355.048 89.6313 355.048 93.2374C355.048 95.4291 354.282 97.5311 352.917 99.0809C351.553 100.631 349.703 101.501 347.774 101.501C345.844 101.501 343.994 100.631 342.63 99.0809C341.266 97.5311 340.5 95.4291 340.5 93.2374C340.552 89.5562 342.589 88.1288 347.8 88.1288Z"></path>
<path fill="#AD6359" d="M359.699 90.0821L359.276 108.338L350.825 105.363L359.699 90.0821Z"></path>
<path fill="#AD6359" d="M367.875 126.669C374.012 125.752 386.643 121.635 388.613 115.956C387.82 118.826 386.274 121.353 384.183 123.198C380.413 126.879 367.875 131.011 367.875 131.011V126.669Z"></path>
<path fill="#263238" d="M367.575 81.217L373.182 85.1086C373.624 84.234 373.753 83.1996 373.541 82.2203C373.329 81.241 372.793 80.392 372.045 79.8497C371.675 79.5947 371.263 79.4275 370.835 79.3583C370.407 79.2891 369.97 79.3193 369.552 79.4471C369.134 79.5749 368.744 79.7977 368.404 80.1019C368.064 80.4061 367.782 80.7854 367.575 81.217Z"></path>
<path fill="#263238" d="M344.757 85.5444L351 83.0652C350.879 82.5952 350.675 82.1583 350.4 81.7812C350.125 81.4041 349.785 81.0949 349.401 80.8726C349.017 80.6502 348.597 80.5194 348.167 80.4882C347.737 80.4571 347.306 80.5261 346.9 80.6912C346.063 81.033 345.373 81.7276 344.974 82.6311C344.576 83.5345 344.498 84.5777 344.757 85.5444Z"></path>
<path fill="#455A64" d="M361.712 94.0187C361.802 94.0187 361.891 93.9984 361.973 93.9589C362.056 93.9195 362.131 93.8617 362.194 93.789C362.257 93.7162 362.306 93.6299 362.339 93.5352C362.372 93.4405 362.388 93.3392 362.387 93.2374C362.387 91.9903 360.218 91.1789 358.26 91.1789C356.303 91.1789 355.046 91.9903 355.046 93.2374C355.087 93.4006 355.174 93.5443 355.293 93.6465C355.413 93.7488 355.558 93.8041 355.708 93.8041C355.857 93.8041 356.002 93.7488 356.122 93.6465C356.241 93.5443 356.328 93.4006 356.369 93.2374C356.369 93.0871 357.043 92.7115 358.22 92.7115C359.168 92.6886 360.111 92.8722 360.998 93.2524C360.998 93.3569 361.016 93.4604 361.053 93.5564C361.089 93.6525 361.142 93.739 361.209 93.8108C361.276 93.8826 361.355 93.9381 361.442 93.9738C361.528 94.0096 361.62 94.0248 361.712 94.0187Z"></path>
<path fill="#455A64" d="M377.545 93.3575H377.625L392.742 91.855C393.448 91.0596 394.289 90.4359 395.215 90.0219L377.466 91.8851C377.288 91.9114 377.126 92.0157 377.015 92.1757C376.904 92.3357 376.852 92.5388 376.871 92.7415C376.902 92.9178 376.986 93.076 377.11 93.1886C377.233 93.3012 377.387 93.361 377.545 93.3575Z"></path>
<path fill="#AD6359" d="M439.612 111.268C434.666 103.755 431.293 98.0905 426.783 91.7348C424.217 88.0836 422.577 85.4692 420.17 81.7279C418.477 79.1435 417.525 76.9649 415.594 76.1685C413.508 75.1974 411.628 73.7324 410.079 71.8713C409.127 70.6747 408.243 69.4099 407.434 68.0849C404.599 63.7502 401.232 59.8995 397.435 56.6506C393.467 53.2549 389.037 50.6404 384.95 47.41C382.516 45.4717 379.911 42.2563 382.873 39.2512C383.782 38.3819 384.869 37.7875 386.034 37.5233C393.242 35.7503 399.511 38.5601 406.561 40.6035C409.623 41.4718 412.617 42.6225 415.515 44.0443C416.94 44.6846 418.276 45.555 419.482 46.6287C421.169 48.5606 422.551 50.8069 423.569 53.2699C426.651 59.5204 433.264 65.1099 437.893 70.0532C443.302 75.838 448.143 81.1419 454.319 87.5126C459.874 93.2674 465.31 98.5563 470.402 104.837C474.621 110.021 473.047 114.077 472.491 115.49C469.053 123.513 465.204 126.398 460.588 131.372C452.653 139.981 425.209 164.758 416.123 172.947C414.171 174.689 412.638 176.963 411.666 179.558L409.92 184.141C399.551 186.304 392.634 168.619 401.218 147.329C402.639 143.886 404.81 140.912 407.526 138.689C418.371 129.719 439.612 111.268 439.612 111.268Z"></path>
<path fill="#AD6359" d="M439.615 111.268C442.915 115.88 447.313 119.317 452.285 121.17C452.285 121.17 445.672 123.093 436.613 113.852L439.615 111.268Z"></path>
<path fill="#455A64" d="M305.159 220.727L306.852 219.075C307.105 218.885 307.394 218.766 307.695 218.727C307.996 218.688 308.301 218.73 308.585 218.849L326.956 224.529C327.881 224.879 328.729 225.453 329.441 226.21C330.153 226.967 330.713 227.89 331.082 228.916L344.308 272.234C344.467 272.587 344.529 272.986 344.487 273.38C344.445 273.774 344.299 274.144 344.07 274.443L342.324 276.156C342.07 276.355 341.777 276.481 341.47 276.523C341.164 276.565 340.853 276.521 340.565 276.396L322.168 270.717C321.242 270.366 320.395 269.793 319.682 269.036C318.97 268.278 318.41 267.355 318.041 266.329C315.396 257.81 307.461 231.531 304.816 223.011C304.498 221.945 304.657 221.133 305.159 220.727Z"></path>
<path fill="#93278F" d="M342.577 273.902L329.351 230.584C328.984 229.559 328.424 228.637 327.712 227.882C326.999 227.127 326.151 226.557 325.225 226.212L306.867 220.532C305.161 220.006 304.222 221.118 304.831 223.011C307.476 231.531 315.411 257.81 318.056 266.329C318.425 267.355 318.985 268.278 319.697 269.035C320.41 269.793 321.257 270.366 322.183 270.717L340.54 276.456C342.233 276.907 343.146 275.795 342.577 273.902Z"></path>
<path fill="#37474F" d="M327.221 227.414C328.176 228.235 328.917 229.336 329.364 230.599L342.589 273.902C342.741 274.246 342.804 274.631 342.771 275.014C342.738 275.397 342.611 275.761 342.404 276.066L344.044 274.473C344.279 274.178 344.429 273.808 344.474 273.413C344.519 273.019 344.457 272.618 344.296 272.264L331.07 228.946C330.651 227.769 329.973 226.733 329.099 225.941L327.221 227.414Z"></path>
<path fill="#AD6359" d="M310.2 240.471C311.523 244.873 316.112 247.818 323.703 249.861C331.295 251.905 335.488 261.055 334.284 263.835C333.081 266.615 320.807 269.214 315.9 268.418C310.993 267.621 306.074 259.568 304.579 257.074C303.084 254.579 301.365 237.18 302.939 234.791C304.513 232.402 307.833 232.778 307.833 232.778L310.2 240.471Z"></path>
</svg>
