<svg xmlns="http://www.w3.org/2000/svg" fill="none" viewBox="0 0 30 30" height="30" width="30">
<path fill="white" d="M29.7439 8.95426L15.2279 0.0654069C15.1578 0.0224635 15.0796 0 15.0001 0C14.9207 0 14.8424 0.0224635 14.7723 0.0654069L0.256299 8.95426C0.178883 9.00163 0.114139 9.07227 0.0689935 9.15863C0.0238483 9.24499 0 9.34381 0 9.44453C0 9.54525 0.0238483 9.64408 0.0689935 9.73044C0.114139 9.8168 0.178883 9.88744 0.256299 9.93481L3.38729 11.8517V19.0907C3.3876 19.4507 3.48908 19.8009 3.67664 20.0893C4.60119 21.502 8.15012 26.1111 15.0001 26.1111C17.7909 26.1111 20.0335 25.3459 21.7743 24.3436V29.4444C21.7743 29.5918 21.8252 29.7331 21.916 29.8373C22.0067 29.9415 22.1298 30 22.2581 30C22.3865 30 22.5095 29.9415 22.6003 29.8373C22.691 29.7331 22.742 29.5918 22.742 29.4444V23.7281C24.1225 22.7815 25.3371 21.5476 26.3235 20.0896C26.5111 19.8012 26.6126 19.451 26.6129 19.091V11.8519L29.7439 9.93467C29.8213 9.88728 29.886 9.81664 29.9311 9.73031C29.9762 9.64398 30 9.5452 30 9.44453C30 9.34386 29.9762 9.24508 29.9311 9.15875C29.886 9.07242 29.8213 9.00179 29.7439 8.9544V8.95426ZM15.0001 25C8.59854 25 5.30667 20.7306 4.45022 19.4219C4.38786 19.3264 4.35443 19.2102 4.35502 19.0909V12.4445L14.7723 18.8237C14.8424 18.8666 14.9207 18.889 15.0001 18.889C15.0796 18.889 15.1578 18.8666 15.2279 18.8237L21.7743 14.8148V23.0889C20.0958 24.1479 17.8589 25 15.0001 25ZM25.6452 19.0909C25.6458 19.2102 25.6123 19.3265 25.5499 19.422C24.7629 20.5889 23.8143 21.5995 22.742 22.4135V14.2223L25.6452 12.4445V19.0909ZM22.2581 13.2594L15.2279 8.95426C15.1147 8.88584 14.9826 8.87164 14.8604 8.91474C14.7381 8.95784 14.6357 9.05475 14.5755 9.18428C14.5153 9.31381 14.5022 9.46544 14.5391 9.60602C14.576 9.74661 14.6598 9.86471 14.7723 9.93453L21.2299 13.889L15.0001 17.7038L1.5123 9.44453L15.0001 1.18526L28.4879 9.44453L22.2581 13.2594Z"></path>
</svg>
