<svg xmlns="http://www.w3.org/2000/svg" fill="none" viewBox="0 0 30 30" height="30" width="30">
<path fill="white" d="M0.311327 29.9848C0.418819 30.016 0.53302 29.9988 0.629175 29.9366C0.72533 29.8745 0.795691 29.7725 0.825006 29.6528C1.68953 26.0496 5.20304 25.1158 7.30308 24.5569C7.82935 24.4172 8.24483 24.3066 8.5151 24.1763C10.9072 23.0164 11.687 21.1506 11.9203 19.7892C11.9342 19.7082 11.9287 19.6245 11.9044 19.5467C11.8801 19.4688 11.8378 19.3995 11.7818 19.3457C10.5362 18.1446 9.48538 16.3416 8.8223 14.2676C8.80359 14.2081 8.77417 14.1536 8.73584 14.1073C7.85873 13.0422 7.35512 11.9161 7.35512 11.0188C7.35512 10.4947 7.53222 10.1431 7.93091 9.87772C7.99063 9.83784 8.04054 9.782 8.07614 9.71522C8.11174 9.64844 8.13193 9.57283 8.13487 9.49517C8.32037 4.71899 11.3655 0.959175 15.1006 0.934797L15.1904 0.94136C18.944 0.999492 21.9698 4.83994 22.0781 9.68363C22.0796 9.74984 22.0937 9.81493 22.1195 9.87458C22.1452 9.93423 22.1821 9.98708 22.2275 10.0296C22.4902 10.2781 22.6128 10.5931 22.6128 11.0207C22.6128 11.7717 22.2544 12.6952 21.6047 13.6197C21.5737 13.6642 21.5499 13.7143 21.5342 13.7679C20.8627 16.1456 19.6574 18.2449 18.2289 19.5295C18.1697 19.5829 18.1245 19.6532 18.0982 19.7329C18.0719 19.8126 18.0654 19.8988 18.0794 19.9823C18.3128 21.3428 19.0925 23.2077 21.4847 24.3694C21.7675 24.5063 22.2065 24.6132 22.763 24.7473C24.8421 25.2498 28.3211 26.0927 29.1748 29.6528C29.1891 29.7123 29.2138 29.7681 29.2474 29.8169C29.281 29.8657 29.3229 29.9066 29.3707 29.9374C29.4184 29.9681 29.4712 29.988 29.5258 29.996C29.5805 30.004 29.636 29.9998 29.6893 29.9838C29.7425 29.9678 29.7924 29.9403 29.8361 29.9027C29.8798 29.8652 29.9165 29.8184 29.944 29.765C29.9715 29.7116 29.9893 29.6527 29.9965 29.5917C30.0036 29.5306 29.9999 29.4685 29.9856 29.4091C28.9993 25.2958 25.0578 24.3422 22.9409 23.8303C22.4499 23.7112 22.0261 23.609 21.8196 23.5078C20.2584 22.7502 19.2965 21.596 18.9566 20.0714C20.4061 18.6809 21.619 16.5357 22.3123 14.1298C23.0484 13.0609 23.4529 11.9601 23.4529 11.0197C23.4529 10.3925 23.2716 9.86928 22.9124 9.46048C22.7126 4.20612 19.3561 0.0684455 15.1904 0.00187522L15.0654 0C10.9752 0.0243779 7.60441 4.05329 7.3098 9.2167C6.78436 9.648 6.51745 10.2528 6.51745 11.0207C6.51745 12.1299 7.07898 13.4566 8.06185 14.6736C8.74088 16.7579 9.79342 18.5891 11.0466 19.8708C10.7083 21.4009 9.74558 22.5589 8.18104 23.3174C7.97875 23.4159 7.57587 23.5237 7.10919 23.6475C4.97641 24.2138 1.00798 25.2686 0.014198 29.4109C-0.0145022 29.531 0.000676766 29.659 0.0563968 29.7666C0.112117 29.8742 0.203815 29.9527 0.311327 29.9848Z"></path>
</svg>
