<svg width="660" height="660" viewBox="0 0 660 660" fill="none" xmlns="http://www.w3.org/2000/svg">
<path d="M556.142 116.503C532.501 92.2811 505.415 72.1379 476.626 58.0799C432.788 36.5507 384.503 26.2019 336.204 25.5815C195.07 23.7599 184.338 197.525 140.936 221.681C97.5348 245.837 18.9024 248.675 16.1832 345.299C14.4804 406.019 28.0632 468.56 66.0924 515.909C100.954 559.284 152.183 581.262 202.66 597.498C259.327 615.74 319.44 633.6 379.051 621.324C440.233 608.692 483.212 557.964 533.491 523.644C565.171 502.049 593.512 479.305 613.048 444.642C615.384 440.51 617.575 436.273 619.648 431.983C645.797 378.14 650.918 316.021 636.504 257.743C623.542 205.432 594.33 155.628 556.142 116.503Z" fill="#D7A8DF"/>
<path opacity="0.7" d="M556.142 116.503C532.501 92.2811 505.415 72.1379 476.626 58.0799C432.788 36.5507 384.503 26.2019 336.204 25.5815C195.07 23.7599 184.338 197.525 140.936 221.681C97.5348 245.837 18.9024 248.675 16.1832 345.299C14.4804 406.019 28.0632 468.56 66.0924 515.909C100.954 559.284 152.183 581.262 202.66 597.498C259.327 615.74 319.44 633.6 379.051 621.324C440.233 608.692 483.212 557.964 533.491 523.644C565.171 502.049 593.512 479.305 613.048 444.642C615.384 440.51 617.575 436.273 619.648 431.983C645.797 378.14 650.918 316.021 636.504 257.743C623.542 205.432 594.33 155.628 556.142 116.503Z" fill="#D7A8DF"/>
<path d="M31.3096 446.582L44.668 574.649" stroke="#263238" stroke-width="1.32" stroke-miterlimit="10"/>
<path d="M42.5163 550.136L36.4575 543.734" stroke="#263238" stroke-width="1.32" stroke-miterlimit="10"/>
<path d="M38.2794 545.662C38.2679 544.682 38.0477 543.716 37.6334 542.828C37.2191 541.941 36.6203 541.152 35.877 540.514C34.3194 539.128 26.1354 535.682 25.317 538.56C24.525 541.702 32.907 547.8 38.2794 545.662Z" fill="#93278F" stroke="#263238" stroke-width="1.32" stroke-miterlimit="10"/>
<path d="M38.2929 545.662L30.5049 540.804" stroke="#263238" stroke-width="0.66" stroke-miterlimit="10"/>
<path d="M44.0349 564.696L37.9761 558.307" stroke="#263238" stroke-width="1.32" stroke-miterlimit="10"/>
<path d="M39.8103 560.221C39.803 559.243 39.5846 558.278 39.1699 557.391C38.7553 556.505 38.1543 555.719 37.4079 555.086C35.8503 553.687 27.6663 550.242 26.8479 553.133C26.0427 556.261 34.4247 562.426 39.8103 560.221Z" fill="#93278F" stroke="#263238" stroke-width="1.32" stroke-miterlimit="10"/>
<path d="M39.8105 560.221L32.0225 555.364" stroke="#263238" stroke-width="0.66" stroke-miterlimit="10"/>
<path d="M38.8078 514.602L32.749 508.2" stroke="#263238" stroke-width="1.32" stroke-miterlimit="10"/>
<path d="M34.5833 510.114C34.5708 509.137 34.3501 508.173 33.9358 507.287C33.5215 506.402 32.9233 505.615 32.1809 504.979C30.6233 503.58 22.4393 500.148 21.6209 503.026C20.8157 506.154 29.1977 512.318 34.5833 510.114Z" fill="#93278F" stroke="#263238" stroke-width="1.32" stroke-miterlimit="10"/>
<path d="M34.5834 510.114L26.7954 505.256" stroke="#263238" stroke-width="0.66" stroke-miterlimit="10"/>
<path d="M40.3254 529.162L34.2666 522.76" stroke="#263238" stroke-width="1.32" stroke-miterlimit="10"/>
<path d="M36.1014 524.674C36.0931 523.695 35.8743 522.73 35.4598 521.844C35.0452 520.958 34.4446 520.172 33.699 519.539C32.1414 518.219 23.9574 514.708 23.139 517.585C22.3338 520.727 30.7158 526.878 36.1014 524.674Z" fill="#93278F" stroke="#263238" stroke-width="1.32" stroke-miterlimit="10"/>
<path d="M36.1015 524.674L28.3135 519.829" stroke="#263238" stroke-width="0.66" stroke-miterlimit="10"/>
<path d="M36.3391 490.934L30.2803 484.532" stroke="#263238" stroke-width="1.32" stroke-miterlimit="10"/>
<path d="M32.1151 486.46C32.1036 485.48 31.8834 484.514 31.4691 483.626C31.0549 482.739 30.4561 481.95 29.7127 481.312C28.1551 479.926 19.9711 476.48 19.1527 479.371C18.3475 482.5 26.7163 488.664 32.1151 486.46Z" fill="#93278F" stroke="#263238" stroke-width="1.32" stroke-miterlimit="10"/>
<path d="M32.1147 486.46L24.3267 481.602" stroke="#263238" stroke-width="0.66" stroke-miterlimit="10"/>
<path d="M33.8576 467.174L27.7988 460.772" stroke="#263238" stroke-width="1.32" stroke-miterlimit="10"/>
<path d="M29.6335 462.686C29.621 461.709 29.4002 460.745 28.986 459.86C28.5717 458.975 27.9734 458.188 27.2311 457.552C25.6735 456.166 17.4895 452.72 16.6711 455.598C15.8395 458.74 24.2479 464.891 29.6335 462.686Z" fill="#93278F" stroke="#263238" stroke-width="1.32" stroke-miterlimit="10"/>
<path d="M29.6332 462.686L21.8452 457.842" stroke="#263238" stroke-width="0.66" stroke-miterlimit="10"/>
<path d="M41.5005 541.517L46.1073 534.006" stroke="#263238" stroke-width="1.32" stroke-miterlimit="10"/>
<path d="M44.695 536.263C44.5071 535.3 44.5277 534.309 44.7554 533.355C44.9831 532.401 45.4126 531.506 46.015 530.732C47.2426 529.056 54.5422 524 55.9018 526.654C57.3538 529.544 50.437 537.306 44.695 536.263Z" fill="#93278F" stroke="#263238" stroke-width="1.32" stroke-miterlimit="10"/>
<path d="M44.6948 536.263L51.7172 529.558" stroke="#263238" stroke-width="0.66" stroke-miterlimit="10"/>
<path d="M37.5005 503.197L42.1073 495.673" stroke="#263238" stroke-width="1.32" stroke-miterlimit="10"/>
<path d="M40.6953 497.93C40.5076 496.97 40.5283 495.98 40.756 495.028C40.9837 494.076 41.4132 493.184 42.0153 492.413C43.2429 490.723 50.5425 485.668 51.9021 488.334C53.3541 491.225 46.4373 498.96 40.6953 497.93Z" fill="#93278F" stroke="#263238" stroke-width="1.32" stroke-miterlimit="10"/>
<path d="M40.6953 497.93L47.7177 491.225" stroke="#263238" stroke-width="0.66" stroke-miterlimit="10"/>
<path d="M35.7319 486.354L40.3519 478.83" stroke="#263238" stroke-width="1.32" stroke-miterlimit="10"/>
<path d="M38.9395 481.087C38.7527 480.127 38.7738 479.137 39.0015 478.185C39.2292 477.234 39.6581 476.342 40.2595 475.57C41.5003 473.88 48.7999 468.824 50.1463 471.491C51.5983 474.382 44.6683 482.13 38.9395 481.087Z" fill="#93278F" stroke="#263238" stroke-width="1.32" stroke-miterlimit="10"/>
<path d="M38.9395 481.087L45.9619 474.382" stroke="#263238" stroke-width="0.66" stroke-miterlimit="10"/>
<path d="M33.1577 461.657L37.7645 454.146" stroke="#263238" stroke-width="1.32" stroke-miterlimit="10"/>
<path d="M36.3656 456.403C36.1794 455.44 36.2008 454.449 36.4285 453.495C36.6561 452.541 37.0847 451.647 37.6856 450.872C38.9264 449.196 46.226 444.127 47.5724 446.794C49.0244 449.684 42.0944 457.446 36.3656 456.403Z" fill="#93278F" stroke="#263238" stroke-width="1.32" stroke-miterlimit="10"/>
<path d="M36.3652 456.403L43.3744 449.698" stroke="#263238" stroke-width="0.66" stroke-miterlimit="10"/>
<path d="M31.1908 445.87C31.0046 444.907 31.026 443.915 31.2537 442.962C31.4813 442.008 31.9099 441.114 32.5108 440.339C33.7516 438.662 41.0512 433.607 42.3976 436.26C43.8496 439.151 36.9592 446.912 31.1908 445.87Z" fill="#93278F" stroke="#263238" stroke-width="1.32" stroke-miterlimit="10"/>
<path d="M31.1909 445.87L38.2133 439.164" stroke="#263238" stroke-width="0.66" stroke-miterlimit="10"/>
<path d="M31.6004 446.16C30.6251 446.248 29.6423 446.126 28.718 445.803C27.7936 445.48 26.9491 444.962 26.2412 444.286C24.6968 442.886 20.4332 435.046 23.2184 434.029C26.2544 432.868 33.2372 440.563 31.6004 446.16Z" fill="#93278F" stroke="#263238" stroke-width="1.32" stroke-miterlimit="10"/>
<path d="M31.6006 446.16L25.6606 438.478" stroke="#263238" stroke-width="0.66" stroke-miterlimit="10"/>
<path d="M66.5536 464.218L53.2612 592.297" stroke="#263238" stroke-width="1.32" stroke-miterlimit="10"/>
<path d="M56.2049 567.864L51.5981 560.353" stroke="#263238" stroke-width="1.32" stroke-miterlimit="10"/>
<path d="M52.9974 562.61C53.1853 561.648 53.1647 560.656 52.937 559.702C52.7093 558.748 52.2798 557.854 51.6774 557.08C50.4498 555.403 43.1502 550.348 41.7906 553.014C40.3386 555.905 47.2686 563.64 52.9974 562.61Z" fill="#93278F" stroke="#263238" stroke-width="1.32" stroke-miterlimit="10"/>
<path d="M52.9975 562.61L46.3711 556.248" stroke="#263238" stroke-width="0.66" stroke-miterlimit="10"/>
<path d="M59.888 532.316L55.2812 524.806" stroke="#263238" stroke-width="1.32" stroke-miterlimit="10"/>
<path d="M56.6803 527.063C56.8671 526.102 56.846 525.113 56.6183 524.161C56.3906 523.209 55.9616 522.317 55.3603 521.545C54.1195 519.856 46.8463 514.8 45.4999 517.44C44.0215 520.357 50.9515 528.106 56.6803 527.063Z" fill="#93278F" stroke="#263238" stroke-width="1.32" stroke-miterlimit="10"/>
<path d="M56.6801 527.063L50.0669 520.714" stroke="#263238" stroke-width="0.66" stroke-miterlimit="10"/>
<path d="M58.3832 546.889L53.7632 539.378" stroke="#263238" stroke-width="1.32" stroke-miterlimit="10"/>
<path d="M55.1751 541.636C55.3631 540.673 55.3425 539.681 55.1148 538.727C54.8871 537.773 54.4576 536.879 53.8551 536.105C52.6275 534.428 45.3279 529.373 43.9683 532.039C42.5163 534.93 49.4463 542.678 55.1751 541.636Z" fill="#93278F" stroke="#263238" stroke-width="1.32" stroke-miterlimit="10"/>
<path d="M55.1752 541.636L48.5488 535.273" stroke="#263238" stroke-width="0.66" stroke-miterlimit="10"/>
<path d="M62.3431 508.662L57.7363 501.151" stroke="#263238" stroke-width="1.32" stroke-miterlimit="10"/>
<path d="M59.1351 503.408C59.3213 502.446 59.2999 501.454 59.0722 500.5C58.8446 499.547 58.416 498.652 57.8151 497.878C56.5743 496.201 49.2747 491.146 47.9283 493.812C46.4763 496.703 53.4063 504.451 59.1351 503.408Z" fill="#93278F" stroke="#263238" stroke-width="1.32" stroke-miterlimit="10"/>
<path d="M59.1357 503.408L52.5225 497.046" stroke="#263238" stroke-width="0.66" stroke-miterlimit="10"/>
<path d="M64.8114 484.889L60.2046 477.391" stroke="#263238" stroke-width="1.32" stroke-miterlimit="10"/>
<path d="M61.604 479.635C61.7908 478.675 61.7697 477.685 61.542 476.733C61.3143 475.782 60.8853 474.89 60.284 474.118C59.0432 472.441 51.7436 467.386 50.384 470.039C48.9452 472.93 55.8752 480.691 61.604 479.635Z" fill="#93278F" stroke="#263238" stroke-width="1.32" stroke-miterlimit="10"/>
<path d="M61.6039 479.635L54.9775 473.286" stroke="#263238" stroke-width="0.66" stroke-miterlimit="10"/>
<path d="M56.9839 559.218L63.0427 552.816" stroke="#263238" stroke-width="1.32" stroke-miterlimit="10"/>
<path d="M61.1948 554.73C61.2081 553.751 61.4305 552.787 61.8472 551.901C62.2638 551.016 62.865 550.229 63.6104 549.595C65.1548 548.209 73.3388 544.764 74.1704 547.642C74.9624 550.77 66.5936 556.934 61.1948 554.73Z" fill="#93278F" stroke="#263238" stroke-width="1.32" stroke-miterlimit="10"/>
<path d="M61.1948 554.73L69.4448 549.622" stroke="#263238" stroke-width="0.66" stroke-miterlimit="10"/>
<path d="M60.957 520.885L67.0158 514.483" stroke="#263238" stroke-width="1.32" stroke-miterlimit="10"/>
<path d="M65.1675 516.41C65.1797 515.43 65.4016 514.463 65.8183 513.575C66.2349 512.687 66.8366 511.899 67.5831 511.262C69.1407 509.876 77.3247 506.431 78.1431 509.309C78.9483 512.45 70.5663 518.602 65.1675 516.41Z" fill="#93278F" stroke="#263238" stroke-width="1.32" stroke-miterlimit="10"/>
<path d="M65.1675 516.41L73.4175 511.289" stroke="#263238" stroke-width="0.66" stroke-miterlimit="10"/>
<path d="M62.7124 504.042L68.758 497.64" stroke="#263238" stroke-width="1.32" stroke-miterlimit="10"/>
<path d="M66.9233 499.567C66.9348 498.588 67.155 497.622 67.5693 496.734C67.9836 495.846 68.5824 495.057 69.3257 494.419C70.8833 493.033 79.0673 489.588 79.8857 492.466C80.6909 495.594 72.3221 501.758 66.9233 499.567Z" fill="#93278F" stroke="#263238" stroke-width="1.32" stroke-miterlimit="10"/>
<path d="M66.9233 499.567L75.1733 494.445" stroke="#263238" stroke-width="0.66" stroke-miterlimit="10"/>
<path d="M65.2734 479.358L71.319 472.943" stroke="#263238" stroke-width="1.32" stroke-miterlimit="10"/>
<path d="M69.4839 474.87C69.4954 473.89 69.7156 472.925 70.1298 472.037C70.5441 471.149 71.1429 470.36 71.8863 469.722C73.4439 468.336 81.6279 464.891 82.4463 467.768C83.2515 470.91 74.8827 477.074 69.4839 474.87Z" fill="#93278F" stroke="#263238" stroke-width="1.32" stroke-miterlimit="10"/>
<path d="M69.4839 474.87L77.7339 469.748" stroke="#263238" stroke-width="0.66" stroke-miterlimit="10"/>
<path d="M66.5933 463.492C66.6058 462.514 66.8265 461.55 67.2408 460.665C67.655 459.78 68.2533 458.993 68.9957 458.357C70.5533 456.971 78.7373 453.512 79.5557 456.403C80.3609 459.532 71.9921 465.696 66.5933 463.492Z" fill="#93278F" stroke="#263238" stroke-width="1.32" stroke-miterlimit="10"/>
<path d="M66.5933 463.492L74.8433 458.383" stroke="#263238" stroke-width="0.66" stroke-miterlimit="10"/>
<path d="M66.9236 463.861C65.9469 463.752 65.0053 463.433 64.1626 462.928C63.3199 462.422 62.5958 461.741 62.0396 460.931C60.8252 459.241 58.2512 450.74 61.1948 450.265C64.4288 449.75 69.6824 458.726 66.9236 463.861Z" fill="#93278F" stroke="#263238" stroke-width="1.32" stroke-miterlimit="10"/>
<path d="M66.9237 463.861L62.6997 455.123" stroke="#263238" stroke-width="0.66" stroke-miterlimit="10"/>
<path d="M51.3213 412.064V574.028" stroke="#263238" stroke-width="1.32" stroke-miterlimit="10"/>
<path d="M51.453 549.674L46.0938 542.678" stroke="#263238" stroke-width="1.32" stroke-miterlimit="10"/>
<path d="M47.7176 544.777C47.8098 543.803 47.6914 542.82 47.3703 541.895C47.0491 540.97 46.5328 540.126 45.8564 539.418C44.4572 537.874 36.6164 533.597 35.6 536.382C34.4384 539.418 42.134 546.401 47.7176 544.777Z" fill="#93278F" stroke="#263238" stroke-width="1.32" stroke-miterlimit="10"/>
<path d="M47.7175 544.777L40.4839 539.141" stroke="#263238" stroke-width="0.66" stroke-miterlimit="10"/>
<path d="M51.453 519.235L46.0938 512.239" stroke="#263238" stroke-width="1.32" stroke-miterlimit="10"/>
<path d="M47.7176 514.338C47.8098 513.363 47.6914 512.381 47.3703 511.456C47.0491 510.531 46.5328 509.686 45.8564 508.979C44.4572 507.434 36.6164 503.158 35.6 505.943C34.4384 508.979 42.134 515.975 47.7176 514.338Z" fill="#93278F" stroke="#263238" stroke-width="1.32" stroke-miterlimit="10"/>
<path d="M47.7175 514.338L40.4839 508.702" stroke="#263238" stroke-width="0.66" stroke-miterlimit="10"/>
<path d="M51.453 483.503L46.0938 476.507" stroke="#263238" stroke-width="1.32" stroke-miterlimit="10"/>
<path d="M47.7176 478.606C47.8098 477.631 47.6914 476.648 47.3703 475.723C47.0491 474.799 46.5328 473.954 45.8564 473.246C44.4572 471.702 36.6164 467.425 35.6 470.21C34.4384 473.246 42.134 480.242 47.7176 478.606Z" fill="#93278F" stroke="#263238" stroke-width="1.32" stroke-miterlimit="10"/>
<path d="M47.7175 478.606L40.4839 472.969" stroke="#263238" stroke-width="0.66" stroke-miterlimit="10"/>
<path d="M51.453 459.716L46.0938 452.72" stroke="#263238" stroke-width="1.32" stroke-miterlimit="10"/>
<path d="M47.7176 454.819C47.8098 453.845 47.6914 452.862 47.3703 451.937C47.0491 451.012 46.5328 450.168 45.8564 449.46C44.4572 447.916 36.6164 443.639 35.6 446.424C34.4384 449.46 42.134 456.443 47.7176 454.819Z" fill="#93278F" stroke="#263238" stroke-width="1.32" stroke-miterlimit="10"/>
<path d="M47.7175 454.819L40.4839 449.183" stroke="#263238" stroke-width="0.66" stroke-miterlimit="10"/>
<path d="M51.453 435.824L46.0938 428.828" stroke="#263238" stroke-width="1.32" stroke-miterlimit="10"/>
<path d="M47.7176 430.927C47.8098 429.953 47.6914 428.97 47.3703 428.045C47.0491 427.12 46.5328 426.276 45.8564 425.568C44.4572 424.024 36.6164 419.747 35.6 422.532C34.4384 425.568 42.134 432.551 47.7176 430.927Z" fill="#93278F" stroke="#263238" stroke-width="1.32" stroke-miterlimit="10"/>
<path d="M47.7175 430.927L40.4839 425.291" stroke="#263238" stroke-width="0.66" stroke-miterlimit="10"/>
<path d="M51.334 558.967L56.6932 551.971" stroke="#263238" stroke-width="1.32" stroke-miterlimit="10"/>
<path d="M55.0699 554.07C54.9777 553.095 55.0961 552.112 55.4173 551.188C55.7384 550.263 56.2547 549.418 56.9311 548.711C58.3303 547.166 66.1711 542.89 67.1875 545.675C68.3491 548.711 60.7195 555.72 55.0699 554.07Z" fill="#93278F" stroke="#263238" stroke-width="1.32" stroke-miterlimit="10"/>
<path d="M55.0698 554.07L62.739 548.13" stroke="#263238" stroke-width="0.66" stroke-miterlimit="10"/>
<path d="M51.334 510.563L56.6932 503.567" stroke="#263238" stroke-width="1.32" stroke-miterlimit="10"/>
<path d="M55.0693 505.666C54.9732 504.687 55.0897 503.699 55.4109 502.769C55.7322 501.84 56.2505 500.991 56.9305 500.28C58.3297 498.736 66.1705 494.459 67.1869 497.244C68.3485 500.28 60.7189 507.289 55.0693 505.666Z" fill="#93278F" stroke="#263238" stroke-width="1.32" stroke-miterlimit="10"/>
<path d="M55.0698 505.665L62.739 499.725" stroke="#263238" stroke-width="0.66" stroke-miterlimit="10"/>
<path d="M51.334 486.671L56.6932 479.675" stroke="#263238" stroke-width="1.32" stroke-miterlimit="10"/>
<path d="M55.0699 481.8C54.9777 480.825 55.0961 479.842 55.4173 478.918C55.7384 477.993 56.2547 477.148 56.9311 476.441C58.3303 474.896 66.1711 470.62 67.1875 473.405C68.3491 476.414 60.7195 483.397 55.0699 481.8Z" fill="#93278F" stroke="#263238" stroke-width="1.32" stroke-miterlimit="10"/>
<path d="M55.0698 481.774L62.739 475.834" stroke="#263238" stroke-width="0.66" stroke-miterlimit="10"/>
<path d="M51.334 455.083L56.6932 448.087" stroke="#263238" stroke-width="1.32" stroke-miterlimit="10"/>
<path d="M55.0698 450.186C54.9795 449.214 55.0989 448.233 55.4199 447.311C55.741 446.389 56.2563 445.546 56.931 444.84C58.3302 443.296 66.171 439.019 67.1874 441.817C68.349 444.84 60.7194 451.823 55.0698 450.186Z" fill="#93278F" stroke="#263238" stroke-width="1.32" stroke-miterlimit="10"/>
<path d="M55.0698 450.186L62.739 444.246" stroke="#263238" stroke-width="0.66" stroke-miterlimit="10"/>
<path d="M51.334 430.254L56.6932 423.271" stroke="#263238" stroke-width="1.32" stroke-miterlimit="10"/>
<path d="M55.0701 425.37C54.9776 424.393 55.0959 423.408 55.417 422.482C55.7381 421.555 56.2545 420.708 56.9313 419.998C58.3305 418.453 66.1713 414.19 67.1877 416.975C68.3493 419.998 60.7197 426.994 55.0701 425.37Z" fill="#93278F" stroke="#263238" stroke-width="1.32" stroke-miterlimit="10"/>
<path d="M55.0698 425.37L62.739 419.417" stroke="#263238" stroke-width="0.66" stroke-miterlimit="10"/>
<path d="M51.0177 414.348C50.9254 413.373 51.0439 412.39 51.365 411.466C51.6861 410.541 52.2025 409.696 52.8789 408.989C54.2781 407.444 62.1189 403.168 63.1353 405.966C64.2969 408.989 56.6145 415.985 51.0177 414.348Z" fill="#93278F" stroke="#263238" stroke-width="1.32" stroke-miterlimit="10"/>
<path d="M51.0176 414.348L58.6868 408.408" stroke="#263238" stroke-width="0.66" stroke-miterlimit="10"/>
<path d="M51.3873 414.678C50.3998 414.672 49.4251 414.453 48.5298 414.037C47.6345 413.62 46.8397 413.015 46.1997 412.262C44.8797 410.705 41.3817 402.521 44.2593 401.702C47.5197 400.91 53.6049 409.292 51.3873 414.678Z" fill="#93278F" stroke="#263238" stroke-width="1.32" stroke-miterlimit="10"/>
<path d="M51.3872 414.678L46.2788 406.428" stroke="#263238" stroke-width="0.66" stroke-miterlimit="10"/>
<path d="M57.9874 616.031H40.8406L38.689 572.708H60.1258L57.9874 616.031Z" fill="#263238" stroke="#263238" stroke-width="1.32" stroke-miterlimit="10"/>
<g opacity="0.3">
<path opacity="0.3" d="M403.089 54.7404H361.021V71.8344H403.089V54.7404Z" stroke="black" stroke-width="1.32" stroke-linejoin="round"/>
<path opacity="0.3" d="M458.291 54.7404H416.223V71.8344H458.291V54.7404Z" stroke="black" stroke-width="1.32" stroke-linejoin="round"/>
<path opacity="0.3" d="M429.383 83.6615H387.314V100.756H429.383V83.6615Z" stroke="black" stroke-width="1.32" stroke-linejoin="round"/>
<path opacity="0.3" d="M403.089 290.651H361.021V307.745H403.089V290.651Z" stroke="black" stroke-width="1.32" stroke-linejoin="round"/>
<path opacity="0.3" d="M458.291 290.651H416.223V307.745H458.291V290.651Z" stroke="black" stroke-width="1.32" stroke-linejoin="round"/>
<path opacity="0.3" d="M429.383 319.559H387.314V336.653H429.383V319.559Z" stroke="black" stroke-width="1.32" stroke-linejoin="round"/>
<path opacity="0.3" d="M530.587 84.9815H488.519V102.076H530.587V84.9815Z" stroke="black" stroke-width="1.32" stroke-linejoin="round"/>
<path opacity="0.3" d="M585.803 84.9815H543.735V102.076H585.803V84.9815Z" stroke="black" stroke-width="1.32" stroke-linejoin="round"/>
<path opacity="0.3" d="M556.882 113.903H514.814V130.997H556.882V113.903Z" stroke="black" stroke-width="1.32" stroke-linejoin="round"/>
<path opacity="0.3" d="M530.587 242.722H488.519V259.816H530.587V242.722Z" stroke="black" stroke-width="1.32" stroke-linejoin="round"/>
<path opacity="0.3" d="M585.803 242.722H543.735V259.816H585.803V242.722Z" stroke="black" stroke-width="1.32" stroke-linejoin="round"/>
<path opacity="0.3" d="M556.882 271.63H514.814V288.724H556.882V271.63Z" stroke="black" stroke-width="1.32" stroke-linejoin="round"/>
<path opacity="0.3" d="M157.279 145.451H115.21V162.545H157.279V145.451Z" stroke="black" stroke-width="1.32" stroke-linejoin="round"/>
<path opacity="0.3" d="M212.494 145.451H170.425V162.545H212.494V145.451Z" stroke="black" stroke-width="1.32" stroke-linejoin="round"/>
<path opacity="0.3" d="M183.573 174.359H141.504V191.453H183.573V174.359Z" stroke="black" stroke-width="1.32" stroke-linejoin="round"/>
<path opacity="0.3" d="M257.176 62.6339H215.107V79.7279H257.176V62.6339Z" stroke="black" stroke-width="1.32" stroke-linejoin="round"/>
<path opacity="0.3" d="M228.268 91.5552H186.2V108.649H228.268V91.5552Z" stroke="black" stroke-width="1.32" stroke-linejoin="round"/>
<path opacity="0.3" d="M533.214 479.318H491.146V496.412H533.214V479.318Z" stroke="black" stroke-width="1.32" stroke-linejoin="round"/>
<path opacity="0.3" d="M504.307 508.24H462.238V525.334H504.307V508.24Z" stroke="black" stroke-width="1.32" stroke-linejoin="round"/>
<path opacity="0.3" d="M435.944 166.478H393.875V183.572H435.944V166.478Z" stroke="black" stroke-width="1.32" stroke-linejoin="round"/>
<path opacity="0.3" d="M77.1016 204.6H35.0332V221.694H77.1016V204.6Z" stroke="black" stroke-width="1.32" stroke-linejoin="round"/>
<path opacity="0.3" d="M253.242 479.318H211.174V496.412H253.242V479.318Z" stroke="black" stroke-width="1.32" stroke-linejoin="round"/>
<path opacity="0.3" d="M224.321 508.24H182.252V525.334H224.321V508.24Z" stroke="black" stroke-width="1.32" stroke-linejoin="round"/>
<path opacity="0.3" d="M288.724 145.451H246.655V162.545H288.724V145.451Z" stroke="black" stroke-width="1.32" stroke-linejoin="round"/>
<path opacity="0.3" d="M343.939 145.451H301.871V162.545H343.939V145.451Z" stroke="black" stroke-width="1.32" stroke-linejoin="round"/>
<path opacity="0.3" d="M315.019 174.359H272.95V191.453H315.019V174.359Z" stroke="black" stroke-width="1.32" stroke-linejoin="round"/>
<path opacity="0.3" d="M585.803 308.444H543.735V325.538H585.803V308.444Z" stroke="black" stroke-width="1.32" stroke-linejoin="round"/>
<path opacity="0.3" d="M641.006 308.444H598.938V325.538H641.006V308.444Z" stroke="black" stroke-width="1.32" stroke-linejoin="round"/>
<path opacity="0.3" d="M612.085 337.352H570.016V354.446H612.085V337.352Z" stroke="black" stroke-width="1.32" stroke-linejoin="round"/>
<path opacity="0.3" d="M83.6753 412.289H41.6069V429.383H83.6753V412.289Z" stroke="black" stroke-width="1.32" stroke-linejoin="round"/>
<path opacity="0.3" d="M138.877 412.289H96.8091V429.383H138.877V412.289Z" stroke="black" stroke-width="1.32" stroke-linejoin="round"/>
<path opacity="0.3" d="M109.957 441.197H67.8882V458.291H109.957V441.197Z" stroke="black" stroke-width="1.32" stroke-linejoin="round"/>
</g>
<path d="M522.997 465.458C522.997 465.458 530.032 486.13 530.917 503.29C531.801 520.45 537.081 580.298 537.081 580.298C537.081 580.298 525.637 598.778 519.472 602.29C513.308 605.801 501.124 609.47 506.272 614.618C508.912 617.258 545.305 615.463 555.614 614.79C556.337 614.746 557.014 614.425 557.506 613.894C557.998 613.363 558.266 612.663 558.254 611.939C558.254 609.985 558.254 607.332 558.254 605.339C558.254 601.814 558.69 591.254 558.69 589.934C558.69 588.614 552.974 578.939 552.974 578.939C552.974 578.939 566.174 528.33 567.045 511.17C567.916 494.01 562.65 486.09 562.65 483.45C562.65 480.81 562.214 463.214 562.214 463.214L522.997 465.458Z" fill="#B16668" stroke="#263238" stroke-width="1.32" stroke-linejoin="round"/>
<path d="M558.254 611.939C558.254 609.985 558.254 607.332 558.254 605.339C558.254 603.029 558.439 597.722 558.571 593.96C557.819 594.053 557 594.172 556.142 594.304C550.942 595.082 535.841 603.544 526.073 608.824C518.998 612.586 509.692 612.295 505.111 611.846C505.083 612.371 505.178 612.895 505.389 613.377C505.6 613.858 505.921 614.283 506.326 614.618C508.966 617.258 545.358 615.463 555.667 614.79C556.38 614.733 557.045 614.406 557.525 613.877C558.006 613.347 558.267 612.654 558.254 611.939Z" fill="#B16668" stroke="#263238" stroke-width="1.32" stroke-linejoin="round"/>
<path d="M555.377 583.268C547.153 589.393 531.062 601.062 525.862 602.686C523.377 603.623 520.658 603.744 518.1 603.029C512.173 606.091 502.986 609.312 505.454 613.589C510.919 613.747 521.294 613.589 528.541 610.724C538.771 606.632 545.068 602.224 552.301 599.227C554.268 598.393 556.293 597.705 558.36 597.168C558.479 593.802 558.598 590.66 558.598 589.974C558.598 589.288 556.934 586.08 555.377 583.268Z" fill="#263238" stroke="#263238" stroke-width="1.32" stroke-linejoin="round"/>
<path d="M547.642 465.458C547.642 465.458 554.678 486.13 555.562 503.29C556.446 520.45 561.713 580.298 561.713 580.298C561.713 580.298 550.282 598.778 544.118 602.29C537.953 605.801 525.77 609.47 530.918 614.618C533.558 617.258 569.937 615.463 580.259 614.79C580.983 614.749 581.662 614.429 582.155 613.897C582.647 613.366 582.914 612.663 582.899 611.939C582.899 609.985 582.899 607.332 582.899 605.339C582.899 601.814 583.348 591.254 583.348 589.934C583.348 588.614 577.619 578.939 577.619 578.939C577.619 578.939 590.819 528.33 591.704 511.17C592.588 494.01 587.308 486.09 587.308 483.45C587.308 480.81 586.859 463.214 586.859 463.214L547.642 465.458Z" fill="#B16668" stroke="#263238" stroke-width="1.32" stroke-linejoin="round"/>
<path d="M582.886 611.939C582.886 609.985 582.886 607.332 582.886 605.339C582.886 603.029 583.071 597.722 583.203 593.96C582.45 594.053 581.645 594.172 580.787 594.304C575.586 595.082 560.472 603.544 550.717 608.824C543.642 612.586 534.336 612.295 529.756 611.846C529.725 612.372 529.818 612.897 530.03 613.379C530.241 613.86 530.563 614.285 530.97 614.618C533.61 617.258 569.989 615.463 580.312 614.79C581.024 614.733 581.687 614.406 582.165 613.876C582.644 613.346 582.902 612.653 582.886 611.939Z" fill="#B16668" stroke="#263238" stroke-width="1.32" stroke-linejoin="round"/>
<path d="M580.021 583.268C571.798 589.393 555.694 601.062 550.506 602.686C548.021 603.623 545.302 603.744 542.744 603.029C536.818 606.091 527.63 609.312 530.099 613.589C535.55 613.747 545.939 613.589 553.186 610.724C563.416 606.632 569.712 602.224 576.946 599.227C578.925 598.396 580.964 597.712 583.044 597.181C583.163 593.815 583.282 590.674 583.282 589.987C583.282 589.301 581.566 586.08 580.021 583.268Z" fill="#263238" stroke="#263238" stroke-width="1.32" stroke-linejoin="round"/>
<path d="M562.32 146.85C562.32 146.85 572.062 162.294 579.11 164.736C586.159 167.178 606.738 166.901 613.51 172.854C620.281 178.807 617.034 198.317 612.19 208.072C607.345 217.826 618.156 216.744 624.65 221.892C631.145 227.04 629.534 240.372 623.568 246.8C617.602 253.229 603.253 258.179 603.253 258.179C603.253 258.179 600.547 245.177 592.693 240.306C584.839 235.435 571.019 229.469 568.854 218.909C566.689 208.349 557.753 188.839 557.753 188.839C557.753 188.839 568.313 184.774 567.772 173.131C567.23 161.489 557.753 150.916 557.212 148.474C556.67 146.032 558.73 144.949 562.32 146.85Z" fill="#263238" stroke="#263238" stroke-width="1.32" stroke-linejoin="round"/>
<path d="M489.997 347.754C489.997 347.754 469.867 346.104 468.217 346.104C466.567 346.104 458.977 355.014 458.317 356.664C457.657 358.314 458.647 363.594 458.647 363.594L493.297 353.694L489.997 347.754Z" fill="#B16668" stroke="#263238" stroke-width="1.32" stroke-linejoin="round"/>
<path d="M472.745 337.115L471.24 359.634H473.22L475.108 337.286C475.131 336.993 475.042 336.701 474.858 336.471C474.674 336.24 474.409 336.088 474.118 336.046C473.956 336.015 473.79 336.02 473.63 336.059C473.47 336.098 473.32 336.17 473.191 336.271C473.061 336.372 472.954 336.5 472.877 336.645C472.8 336.791 472.755 336.951 472.745 337.115Z" fill="#263238" stroke="#263238" stroke-width="1.32" stroke-linejoin="round"/>
<path d="M520.027 323.004L489.997 347.754L493.297 353.694L517.387 343.794L520.027 323.004Z" fill="#93278F" stroke="#263238" stroke-width="1.32" stroke-linejoin="round"/>
<path d="M507.434 367.699C507.434 367.699 505.969 423.641 505.969 433.884C505.969 444.127 507.791 464.64 507.791 464.64C507.791 464.64 515.117 469.036 546.19 470.488C577.262 471.94 597.392 465.01 597.392 465.01C597.392 465.01 604.336 407.959 605.075 395.525C605.814 383.09 605.431 371.395 605.431 371.395L507.434 367.699Z" fill="#263238" stroke="#263238" stroke-width="1.32" stroke-linejoin="round"/>
<path d="M550.057 225.984C550.057 225.984 530.257 232.254 528.277 237.204C526.297 242.154 522.337 262.614 522.337 262.614C522.337 262.614 517.387 282.744 517.717 286.374C518.047 290.004 523.327 298.914 523.327 299.904C523.327 300.894 504.517 374.484 504.517 374.484C504.517 374.484 517.717 382.404 547.747 383.724C577.777 385.044 609.127 376.134 609.127 376.134C609.127 376.134 604.507 339.504 601.207 332.244C597.907 324.984 594.607 303.534 594.607 303.534C594.607 303.534 610.777 247.434 606.157 237.534C601.537 227.634 573.157 218.724 573.157 218.724L550.057 225.984Z" fill="#E0BBE6" stroke="#263238" stroke-width="1.32" stroke-linejoin="round"/>
<path d="M584.826 223.08C578.437 220.44 573.157 218.737 573.157 218.737L550.057 225.997C550.057 225.997 544.421 227.779 538.85 230.208C537.979 234.828 535.669 248.688 537.847 255.697C540.487 264.277 542.137 272.527 542.137 272.527C542.137 272.527 559.297 255.697 569.197 248.107C576.391 242.576 582.186 230.274 584.826 223.08Z" fill="#93278F" stroke="#263238" stroke-width="1.32" stroke-linejoin="round"/>
<path d="M511.355 187.44C511.355 187.44 514.417 197.564 516.78 199.452C519.143 201.34 520.08 202.092 520.08 202.092C520.08 202.092 519.367 215.292 521.955 216.229C522.781 216.482 523.654 216.549 524.509 216.426C525.365 216.303 526.183 215.992 526.905 215.516C526.905 215.516 539.392 228.941 541.042 229.654C542.692 230.366 547.391 226.591 547.391 226.591C547.391 226.591 542.217 244.015 542.217 257.202C542.217 270.389 541.504 273.926 543.629 269.927C545.754 265.927 568.353 233.891 571.653 227.766C573.289 224.894 574.705 221.902 575.89 218.816C575.89 218.816 568.128 205.154 567.178 201.854C566.227 198.554 564.828 191.4 564.828 191.4C564.828 191.4 564.591 193.05 550.691 186.226C543.077 182.495 535.686 178.325 528.555 173.738C524.779 171.6 511.355 187.44 511.355 187.44Z" fill="#B16668" stroke="#263238" stroke-width="1.32" stroke-linejoin="round"/>
<path d="M522.892 195.043C522.892 195.043 523.67 192.034 530.006 191.083" stroke="#263238" stroke-width="1.32" stroke-linejoin="round"/>
<path d="M527.379 198.977L528.792 202.514C528.792 202.514 532.316 201.564 533.267 199.69" stroke="#263238" stroke-width="1.32" stroke-linejoin="round"/>
<path d="M531.854 216.876C531.854 216.876 537.266 215.226 537.266 210.751" stroke="#263238" stroke-width="1.32" stroke-linejoin="round"/>
<path d="M561.528 194.74C561.528 194.74 564.59 198.277 562.94 201.34C562.613 202.16 562.013 202.842 561.241 203.27C560.469 203.698 559.572 203.846 558.703 203.689C559.779 206.226 559.947 209.056 559.178 211.702C557.753 215.464 550.453 221.588 550.453 221.588" stroke="#263238" stroke-width="1.32" stroke-linejoin="round"/>
<path d="M521.492 199.69C521.492 199.69 524.132 205.814 526.205 206.052C528.277 206.29 535.854 201.564 537.029 199.214C538.204 196.865 534.204 192.152 532.092 192.152C529.98 192.152 522.72 198 522.72 198C522.72 198 521.017 198.277 521.492 199.69Z" stroke="#263238" stroke-width="1.32" stroke-linejoin="round"/>
<path d="M521.492 199.69L518.892 200.864" stroke="#263238" stroke-width="1.32" stroke-linejoin="round"/>
<path d="M517.44 200.389C517.44 200.389 512.504 202.039 512.966 204.164C513.428 206.29 519.566 209.576 519.566 209.576" stroke="#263238" stroke-width="1.32" stroke-linejoin="round"/>
<path d="M533.029 191.915L536.329 190.027" stroke="#263238" stroke-width="1.32" stroke-linejoin="round"/>
<path d="M547.391 226.538C547.391 226.538 549.516 235.976 547.892 243.83" stroke="#263238" stroke-width="1.32" stroke-linejoin="round"/>
<path d="M571.837 264.924L562.32 320.034L499.237 347.16L503.197 361.68L586.08 341.484C586.08 341.484 591.03 340.164 592.35 333.564C592.641 332.125 608.52 254.034 609.18 249.084C609.441 245.677 608.493 242.287 606.501 239.51C604.509 236.733 601.601 234.748 598.29 233.904" fill="#93278F"/>
<path d="M571.837 264.924L562.32 320.034L499.237 347.16L503.197 361.68L586.08 341.484C586.08 341.484 591.03 340.164 592.35 333.564C592.641 332.125 608.52 254.034 609.18 249.084C609.441 245.677 608.493 242.287 606.501 239.51C604.509 236.733 601.601 234.748 598.29 233.904" stroke="#263238" stroke-width="1.32" stroke-linejoin="round"/>
<path d="M499.237 347.16L480.097 354.42C480.097 354.42 462.277 358.71 461.287 359.7C460.297 360.69 451.057 366.3 449.407 367.29C447.757 368.28 445.117 371.25 452.047 370.26C456.979 369.45 461.835 368.236 466.567 366.63C466.567 366.63 476.467 367.62 479.767 367.29C483.067 366.96 489.72 361.68 489.72 361.68L502.59 357.39L499.237 347.16Z" fill="#B16668" stroke="#263238" stroke-width="1.32" stroke-linejoin="round"/>
<path d="M509.679 157.08C509.679 157.08 491.317 177.434 493.68 183.77C496.043 190.106 509.032 190.45 511.368 189.446C513.705 188.443 524.727 178.768 524.727 178.768C524.727 178.768 529.729 187.453 538.085 191.123C542.925 193.302 548.134 194.547 553.437 194.792L563.125 194.462C563.125 194.462 578.807 190.78 576.471 176.431C574.134 162.083 566.465 147.048 555.773 141.715C545.081 136.382 523.037 141.042 509.679 157.08Z" fill="#263238" stroke="#263238" stroke-width="1.32" stroke-linejoin="round"/>
<path d="M512.926 184.8C512.926 184.8 510.827 177.461 514.496 175.89C518.166 174.319 522.416 176.405 522.416 176.405" stroke="#707070" stroke-width="1.32" stroke-linejoin="round"/>
<path d="M611.464 224.624C617.232 225.139 620.902 231.964 619.384 235.633" stroke="#707070" stroke-width="1.32" stroke-linejoin="round"/>
<path d="M606.87 198.488C604.164 203.188 600.455 207.728 600.455 210.989C600.535 213.14 601.067 215.25 602.018 217.181C602.969 219.112 604.316 220.821 605.973 222.196" stroke="#707070" stroke-width="1.32" stroke-linejoin="round"/>
<path d="M543.946 185.486C548.169 186.694 552.601 186.991 556.948 186.358C572.154 184.259 600.983 178.438 607.794 185.83C610.342 188.575 609.959 191.915 608.481 195.334" stroke="#707070" stroke-width="1.32" stroke-linejoin="round"/>
<path d="M533.359 179.52C535.249 181.33 537.432 182.807 539.814 183.889" stroke="#707070" stroke-width="1.32" stroke-linejoin="round"/>
<path d="M608.15 176.405C609.537 177.35 610.695 178.593 611.54 180.044C612.385 181.494 612.896 183.114 613.034 184.787" stroke="#707070" stroke-width="1.32" stroke-linejoin="round"/>
<path d="M523.935 164.868C523.935 164.868 528.647 162.228 537.557 169.052C546.467 175.877 566.386 180.061 584.206 175.349C592.561 173.131 599.188 172.999 604.006 174.451" stroke="#707070" stroke-width="1.32" stroke-linejoin="round"/>
<path d="M571.111 195.268C571.111 195.268 591.545 194.225 591.03 206.804C590.515 219.384 593.67 221.47 597.313 222.526" stroke="#707070" stroke-width="1.32" stroke-linejoin="round"/>
<path d="M256.581 348.388L230.696 363.924L205.999 371.488L204.811 375.474H243.051L259.38 366.709L256.581 348.388Z" fill="#263238" stroke="#263238" stroke-width="1.32" stroke-linejoin="round"/>
<path d="M258.575 384.226C258.575 384.226 258.575 427.244 260.568 449.552C262.046 464.049 265.118 478.339 269.729 492.162C269.729 492.162 282.071 545.134 284.869 556.288C287.668 567.442 288.618 585.512 288.618 585.512C288.618 585.512 287.153 594.515 283.972 596.904C280.79 599.293 266.152 609.259 266.944 611.252C267.736 613.246 303.191 611.252 303.191 611.252C303.191 611.252 311.546 612.044 309.949 601.286C308.352 590.528 304.775 563.006 304.775 543.946C304.775 524.885 294.426 485.76 294.426 485.76C294.426 485.76 305.171 452.76 310.754 430.399C316.338 408.038 315.137 397.399 315.137 397.399L314.741 391.024L258.575 384.226Z" fill="black" stroke="#263238" stroke-width="1.32" stroke-linejoin="round"/>
<path d="M309.949 601.286C308.959 594.607 307.203 581.486 305.989 567.877C295.798 573.157 290.149 571.6 287.073 569.052C288.169 577.619 288.591 585.512 288.591 585.512C288.591 585.512 287.126 594.515 283.945 596.904C280.763 599.293 266.125 609.259 266.917 611.252C267.709 613.246 303.164 611.252 303.164 611.252C303.164 611.252 311.519 612.044 309.949 601.286Z" fill="#B16668" stroke="#263238" stroke-width="1.32" stroke-linejoin="round"/>
<path d="M307.23 604.019C306.874 601.656 306.425 598.462 305.91 594.779C301.118 594.713 297.356 594.568 297.356 594.568C297.356 594.568 295.878 589.156 290.466 588.667C285.054 588.179 284.566 594.568 284.566 594.568H284.236C283.698 596.508 282.655 598.271 281.213 599.676C278.018 602.065 263.393 612.031 264.185 614.024C264.977 616.018 300.432 614.024 300.432 614.024C300.432 614.024 308.88 614.777 307.23 604.019Z" fill="#455A64" stroke="#263238" stroke-width="1.32" stroke-linejoin="round"/>
<path d="M277.609 448.47C277.609 448.47 270.481 396.858 277.067 394.654C283.654 392.449 294.082 392.462 292.987 407.854C291.891 423.245 277.609 448.47 277.609 448.47Z" fill="#93278F" stroke="#263238" stroke-width="1.32" stroke-linejoin="round"/>
<path d="M290.044 397.769C290.044 397.769 275.299 441.976 270.93 469.458C266.561 496.94 290.994 555.126 293.621 562.267C299.204 577.394 302.782 590.938 302.782 590.938C302.782 590.938 296.815 598.858 291.232 603.28C285.648 607.702 276.5 610.856 277.292 614.434C278.084 618.011 313.54 614.434 313.54 614.434C313.54 614.434 325.09 608.863 329.076 606.065C333.062 603.266 325.116 589.34 324.298 587.347C323.479 585.354 321.499 580.985 321.499 580.985C321.499 580.985 321.908 524.819 318.714 512.873C315.52 500.927 309.949 483.833 309.949 483.833C309.949 483.833 349.787 449.579 358.948 421.304C368.108 393.03 364.914 385.849 364.914 385.849L289.252 394.614L290.044 397.769Z" fill="black" stroke="#263238" stroke-width="1.32" stroke-linejoin="round"/>
<path d="M290.043 397.769C290.043 397.769 275.299 441.976 270.93 469.458C270.93 469.748 270.851 470.052 270.811 470.342C280.671 457.142 304.445 423.68 304.445 409.028C304.32 403.257 302.035 397.741 298.043 393.571L289.251 394.588L290.043 397.769Z" fill="#93278F" stroke="#263238" stroke-width="1.32" stroke-linejoin="round"/>
<path d="M318.713 512.873C318.278 511.21 317.776 509.441 317.261 507.593C308.325 517.572 283.39 534.6 295.679 537.504C304.444 539.563 314.714 541.926 321.195 544.592C320.759 531.168 320.073 517.981 318.713 512.873Z" fill="#93278F" stroke="#263238" stroke-width="1.32" stroke-linejoin="round"/>
<path d="M321.367 555.139C316.179 558.004 310.028 561.937 312.364 573.619C313.143 577.579 316.588 579.097 321.512 579.15C321.525 575.243 321.538 565.805 321.367 555.139Z" fill="#93278F" stroke="#263238" stroke-width="1.32" stroke-linejoin="round"/>
<path d="M294.426 485.76C293.423 492.466 306.306 494.432 314.226 497.495C311.929 489.958 309.909 483.78 309.909 483.78C309.909 483.78 312.549 481.457 316.734 477.55C305.303 479.081 295.086 481.338 294.426 485.76Z" fill="#93278F" stroke="#263238" stroke-width="1.32" stroke-linejoin="round"/>
<path d="M320.285 440.708C321.433 446.477 328.469 452.747 335.359 458.278C341.234 451.637 346.57 444.539 351.318 437.052C336.943 435.494 318.648 432.524 320.285 440.708Z" fill="#93278F" stroke="#263238" stroke-width="1.32" stroke-linejoin="round"/>
<path d="M330.844 412.54C337.326 418.532 348.612 422.532 357.007 426.32C357.746 424.631 358.406 422.941 358.947 421.278C361.116 414.794 362.879 408.181 364.227 401.478C349.483 402.23 322.383 404.738 330.844 412.54Z" fill="#93278F" stroke="#263238" stroke-width="1.32" stroke-linejoin="round"/>
<path d="M329.075 606.065C333.035 603.28 325.115 589.34 324.297 587.347C323.479 585.354 321.499 580.985 321.499 580.985C321.499 580.985 321.499 574.807 321.499 566.122C310.331 572.986 300.973 570.94 295.97 568.762C300.194 581.051 302.794 590.898 302.794 590.898C302.794 590.898 296.828 598.818 291.244 603.24C285.661 607.662 276.513 610.817 277.305 614.394C278.097 617.971 313.552 614.394 313.552 614.394C313.552 614.394 325.089 608.863 329.075 606.065Z" fill="#B16668" stroke="#263238" stroke-width="1.32" stroke-linejoin="round"/>
<path d="M329.076 606.065C332.732 603.504 326.304 591.545 324.628 588.073C319.77 596.495 311.942 595.32 311.942 595.32C311.055 593.52 309.842 591.9 308.365 590.542C305.58 587.756 302.782 590.938 302.782 590.938C302.782 590.938 296.815 598.858 291.232 603.28C285.648 607.702 276.5 610.856 277.292 614.434C278.084 618.011 313.54 614.434 313.54 614.434C313.54 614.434 325.09 608.863 329.076 606.065Z" fill="#455A64" stroke="#263238" stroke-width="1.32" stroke-linejoin="round"/>
<path d="M256.99 379.051L258.178 390.931C266.452 396.896 276.256 400.376 286.439 400.963C303.177 401.755 324.284 400.158 338.223 397.003C352.162 393.848 366.893 391.829 367.263 388.238C367.633 384.648 367.659 374.299 367.659 374.299C367.659 374.299 348.941 380.675 318.674 382.668C288.406 384.661 276.434 384.252 270.085 381.863C265.862 380.355 261.459 379.41 256.99 379.051Z" fill="#787878" stroke="#263238" stroke-width="1.32" stroke-miterlimit="10"/>
<path d="M295.679 232.082C295.679 232.082 274.084 247.104 267.484 262.06C260.884 277.015 251.195 292.42 251.644 306.504C252.027 315.883 253.502 325.186 256.04 334.224C256.924 338.184 247.684 372.068 254.72 380.86C261.755 389.651 287.72 394.508 311.044 391.42C334.368 388.331 359.884 385.704 366.035 379.988C372.186 374.273 375.024 359.911 371.856 355.423C368.688 350.935 364.715 306.94 364.715 297.7C364.715 288.46 371.315 261.624 371.315 261.624C371.315 261.624 380.555 244.9 378.364 238.748C376.173 232.597 360.755 224.664 351.119 223.78C341.483 222.895 337.919 221.588 326.924 222.024C315.928 222.46 300.55 227.172 295.679 232.082Z" fill="#787878" stroke="#263238" stroke-width="1.32" stroke-miterlimit="10"/>
<path d="M378.364 238.748C376.2 232.584 360.756 224.664 351.12 223.78C341.484 222.895 337.92 221.588 326.924 222.024C315.928 222.46 300.59 227.172 295.719 232.082C295.719 232.082 274.124 247.104 267.524 262.06C265.676 266.244 263.564 270.442 261.571 274.652C260.924 277.97 260.484 281.325 260.251 284.698C259.96 292.09 259.96 302.914 259.96 302.914C259.96 302.914 263.089 306.623 263.379 301.488C263.379 301.488 276.474 283.549 282.744 275.867C289.014 268.184 313.222 241.969 332.904 237.706C352.585 233.442 361.944 238.55 365.904 243.395C369.864 248.239 371.329 261.624 371.329 261.624C371.329 261.624 380.556 244.9 378.364 238.748Z" fill="#787878" stroke="#263238" stroke-width="1.32" stroke-miterlimit="10"/>
<path d="M300.63 145.636C300.63 145.636 300.63 138.046 293.7 128.806C286.77 119.566 267.63 119.896 258.39 132.766C249.15 145.636 260.7 154.216 258.72 157.186C256.74 160.156 241.56 164.446 246.18 171.046C250.8 177.646 256.74 179.942 256.08 180.932C255.42 181.922 246.51 186.872 255.09 190.832C263.67 194.792 265.32 195.122 265.32 195.122C265.32 195.122 260.04 198.092 262.35 200.732C264.66 203.372 269.28 200.402 269.28 200.402C269.28 200.402 267.63 196.442 269.61 195.122C271.59 193.802 274.89 190.172 273.57 187.532C272.25 184.892 270.27 182.912 272.91 180.932C275.55 178.952 278.19 174.662 279.51 173.012C280.83 171.362 292.38 152.236 294.69 152.236C296.309 152.035 297.801 151.258 298.892 150.045C299.984 148.832 300.601 147.267 300.63 145.636Z" fill="#263238" stroke="#263238" stroke-width="1.32" stroke-linejoin="round"/>
<path d="M293.436 238.3C293.436 238.3 274.085 255.024 266.64 272.184C259.195 289.344 259.156 306.068 261.36 304.3C263.564 302.531 272.356 277.464 282.044 265.148C288.687 257.003 296.268 249.67 304.63 243.302L322.476 227.304L293.436 238.3Z" fill="#93278F" stroke="#263238" stroke-width="1.32" stroke-linejoin="round"/>
<path d="M295.68 145.306C295.68 145.306 278.52 153.226 275.88 163.786C273.24 174.346 276.87 192.482 276.87 192.482C276.87 192.482 272.91 202.052 276.21 209.312C279.51 216.572 284.46 225.482 288.75 228.452C290.848 230.03 293.188 231.256 295.68 232.082C295.68 232.082 290.73 240.002 291.06 245.612C291.39 251.222 297 249.572 304.59 243.302C312.18 237.032 321.076 228.122 326.356 225.812C331.636 223.502 333.616 222.512 333.616 222.512C333.616 222.512 332.626 205.022 332.626 199.742C332.626 194.462 343.186 179.282 337.576 165.106C331.966 150.929 312.84 138.046 295.68 145.306Z" fill="#B16668" stroke="#263238" stroke-width="1.32" stroke-miterlimit="10"/>
<path d="M281.82 192.152L280.5 196.772C280.5 196.772 282.15 198.422 287.76 197.102" stroke="#263238" stroke-width="1.32" stroke-miterlimit="10"/>
<path d="M289.409 194.132C289.409 194.132 284.459 204.692 286.769 205.682C289.079 206.672 296.009 205.022 296.009 205.022" stroke="#263238" stroke-width="1.32" stroke-miterlimit="10"/>
<path d="M297.989 190.832L296.669 196.442C298.276 196.987 299.993 197.121 301.664 196.832C303.335 196.544 304.908 195.843 306.239 194.792" stroke="#263238" stroke-width="1.32" stroke-miterlimit="10"/>
<path d="M279.84 186.212C279.84 186.212 284.13 181.922 288.42 186.212" stroke="#263238" stroke-width="1.32" stroke-miterlimit="10"/>
<path d="M295.02 183.242C297.061 182.144 299.416 181.774 301.695 182.194C303.975 182.614 306.044 183.798 307.56 185.552" stroke="#263238" stroke-width="1.32" stroke-miterlimit="10"/>
<path d="M285.12 214.262C285.12 214.262 287.76 219.212 292.38 219.212C297 219.212 301.29 213.932 301.29 213.932C301.29 213.932 288.42 214.592 285.12 214.262Z" fill="#93278F" stroke="#263238" stroke-width="1.32" stroke-linejoin="round"/>
<path d="M285.12 214.262C291.267 215.752 297.726 215.291 303.6 212.942C303.6 212.942 297.99 213.932 296.01 213.602C294.03 213.272 285.78 212.612 285.12 214.262Z" fill="#93278F" stroke="#263238" stroke-width="1.32" stroke-linejoin="round"/>
<path d="M332.64 199.742C332.64 194.462 343.2 179.282 337.59 165.106C331.98 150.929 312.853 138.046 295.693 145.306C295.693 145.306 280.394 152.368 276.46 162.043C276.592 161.858 276.724 161.66 276.883 161.476C279.046 159.008 281.481 156.794 284.143 154.876C284.143 154.876 282.823 160.156 283.813 160.486C284.803 160.816 290.083 157.516 290.083 157.516C290.083 157.516 286.123 163.456 290.083 163.786C294.043 164.116 305.593 157.846 305.593 157.846C305.593 157.846 303.283 163.456 305.923 163.786C308.563 164.116 313.5 164.446 313.5 164.446C313.5 164.446 311.533 169.396 313.5 171.362C314.169 171.959 314.954 172.414 315.805 172.697C316.656 172.981 317.556 173.088 318.45 173.012C318.45 173.012 315.15 177.632 316.47 179.282C317.753 181.271 318.858 183.369 319.77 185.552C319.77 185.552 323.07 176.312 327.36 185.222C328.619 187.671 329.163 190.424 328.93 193.167C328.696 195.91 327.695 198.532 326.04 200.732C326.04 200.732 327.505 204.838 332.64 202.897C332.64 201.63 332.64 200.548 332.64 199.742Z" fill="#263238" stroke="#263238" stroke-width="1.32" stroke-linejoin="round"/>
<path d="M275.88 168.406C275.603 167.724 275.438 167.002 275.391 166.267C275.391 166.69 275.273 167.125 275.22 167.587L275.88 168.406Z" fill="#B16668" stroke="#263238" stroke-width="1.32" stroke-linejoin="round"/>
<path d="M318.437 189.512C318.437 189.512 319.427 177.632 326.357 182.252C333.287 186.872 329.327 197.102 328.007 200.402C326.687 203.702 319.427 203.372 319.427 201.392" fill="#B16668"/>
<path d="M318.437 189.512C318.437 189.512 319.427 177.632 326.357 182.252C333.287 186.872 329.327 197.102 328.007 200.402C326.687 203.702 319.427 203.372 319.427 201.392" stroke="#263238" stroke-width="1.32" stroke-linejoin="round"/>
<path d="M295.68 232.082C294.119 234.656 292.852 237.396 291.905 240.253C295.495 238.347 298.864 236.049 301.95 233.402C307.517 228.559 312.3 222.882 316.127 216.572C316.127 216.572 306.24 226.142 302.927 228.782C300.794 230.42 298.315 231.548 295.68 232.082Z" fill="#263238" stroke="#263238" stroke-width="1.32" stroke-linejoin="round"/>
<path d="M327.083 254.76C327.083 254.76 317.526 261.928 312.747 276.659C307.969 291.39 301.593 332.812 301.593 332.812C295.767 334.566 290.157 336.97 284.869 339.979C277.701 344.362 243.051 366.274 243.051 366.274L239.461 368.28L244.239 379.83C259.564 378.42 274.75 375.771 289.647 371.91C313.935 365.534 335.042 359.568 338.633 355.186C342.223 350.803 359.343 293.053 362.129 282.295C364.914 271.537 366.511 264.779 358.947 256.806" fill="#787878"/>
<path d="M327.083 254.76C327.083 254.76 317.526 261.928 312.747 276.659C307.969 291.39 301.593 332.812 301.593 332.812C295.767 334.566 290.157 336.97 284.869 339.979C277.701 344.362 243.051 366.274 243.051 366.274L239.461 368.28L244.239 379.83C259.564 378.42 274.75 375.771 289.647 371.91C313.935 365.534 335.042 359.568 338.633 355.186C342.223 350.803 359.343 293.053 362.129 282.295C364.914 271.537 366.511 264.779 358.947 256.806" stroke="#263238" stroke-width="1.32" stroke-miterlimit="10"/>
<path d="M330.317 318.582C331.825 317.588 333.27 316.504 334.646 315.335" stroke="#263238" stroke-width="1.32" stroke-linejoin="round"/>
<path d="M303.6 332.059C311.43 328.874 319.048 325.193 326.409 321.037" stroke="#263238" stroke-width="1.32" stroke-linejoin="round"/>
<path d="M327.73 306.636C321.13 312.378 312.352 320.1 307.164 325.288" stroke="#263238" stroke-width="1.32" stroke-linejoin="round"/>
<path d="M336.599 299.006C336.599 299.006 334.685 300.617 331.768 303.112" stroke="#263238" stroke-width="1.32" stroke-linejoin="round"/>
<path d="M304.378 334.052C304.378 334.052 314.331 335.636 317.578 334.844" stroke="#263238" stroke-width="1.32" stroke-linejoin="round"/>
<path d="M239.461 368.28C239.461 368.28 222.736 369.468 220.743 369.468C215.802 369.884 210.886 370.549 206.012 371.461C204.811 371.857 197.247 381.018 197.247 381.018C197.247 381.018 195.65 383.011 197.643 382.615C199.636 382.219 206.012 380.226 206.012 380.226C206.012 380.226 215.569 382.219 218.75 382.219C221.931 382.219 233.085 380.622 233.085 380.622L244.239 379.83L239.461 368.28Z" fill="#B16668" stroke="#263238" stroke-width="1.32" stroke-linejoin="round"/>
<path d="M244.635 366.313L249.81 379.856" stroke="#263238" stroke-width="1.32" stroke-linejoin="round"/>
<path d="M350.75 616.031C349.921 616.039 349.105 615.824 348.387 615.408C347.669 614.993 347.077 614.391 346.672 613.668C346.267 612.944 346.064 612.124 346.085 611.295C346.106 610.466 346.349 609.658 346.79 608.956L476.15 391.156C476.472 390.642 476.893 390.196 477.388 389.845C477.882 389.493 478.441 389.243 479.032 389.107C479.624 388.972 480.236 388.954 480.834 389.055C481.433 389.157 482.005 389.375 482.519 389.697C483.033 390.019 483.478 390.44 483.83 390.935C484.181 391.429 484.432 391.988 484.567 392.579C484.703 393.171 484.72 393.783 484.619 394.381C484.518 394.98 484.3 395.552 483.978 396.066L354.618 613.866C354.205 614.521 353.635 615.063 352.959 615.441C352.284 615.819 351.524 616.022 350.75 616.031Z" fill="#787878" stroke="#263238" stroke-width="1.32" stroke-miterlimit="10"/>
<path d="M480.124 616.031C479.333 616.04 478.554 615.846 477.86 615.467C477.167 615.087 476.582 614.536 476.164 613.866L346.804 396.066C346.481 395.552 346.263 394.98 346.162 394.381C346.061 393.783 346.078 393.171 346.214 392.579C346.349 391.988 346.6 391.429 346.951 390.935C347.303 390.44 347.748 390.019 348.262 389.697C348.776 389.375 349.349 389.157 349.947 389.055C350.545 388.954 351.157 388.972 351.749 389.107C352.34 389.243 352.899 389.493 353.394 389.845C353.888 390.196 354.309 390.642 354.631 391.156L483.991 608.956C484.427 609.659 484.667 610.466 484.686 611.294C484.704 612.121 484.501 612.938 484.097 613.661C483.693 614.383 483.102 614.983 482.387 615.4C481.672 615.817 480.859 616.035 480.031 616.031H480.124Z" fill="#787878" stroke="#263238" stroke-width="1.32" stroke-miterlimit="10"/>
<path d="M377.15 616.031C376.321 616.039 375.504 615.824 374.787 615.408C374.069 614.993 373.477 614.391 373.072 613.668C372.667 612.944 372.464 612.124 372.485 611.295C372.506 610.466 372.749 609.658 373.19 608.956L502.55 391.156C502.872 390.642 503.293 390.196 503.787 389.845C504.282 389.493 504.841 389.243 505.432 389.107C506.024 388.972 506.636 388.954 507.234 389.055C507.833 389.157 508.405 389.375 508.919 389.697C509.433 390.019 509.878 390.44 510.23 390.935C510.581 391.429 510.832 391.988 510.967 392.579C511.103 393.171 511.12 393.783 511.019 394.381C510.918 394.98 510.7 395.552 510.378 396.066L381.018 613.866C380.605 614.521 380.035 615.063 379.359 615.441C378.684 615.819 377.924 616.022 377.15 616.031Z" fill="#B16668" stroke="#263238" stroke-width="1.32" stroke-linejoin="round"/>
<path d="M506.523 616.031C505.733 616.04 504.954 615.846 504.26 615.467C503.567 615.087 502.982 614.536 502.563 613.866L373.203 396.066C372.881 395.552 372.663 394.98 372.562 394.381C372.461 393.783 372.478 393.171 372.614 392.579C372.749 391.988 373 391.429 373.351 390.935C373.703 390.44 374.148 390.019 374.662 389.697C375.176 389.375 375.748 389.157 376.347 389.055C376.945 388.954 377.557 388.972 378.149 389.107C378.74 389.243 379.299 389.493 379.794 389.845C380.288 390.196 380.709 390.642 381.031 391.156L510.391 608.956C510.827 609.659 511.067 610.466 511.086 611.294C511.104 612.121 510.901 612.938 510.497 613.661C510.092 614.383 509.502 614.983 508.787 615.4C508.072 615.817 507.259 616.035 506.431 616.031H506.523Z" fill="#B16668" stroke="#263238" stroke-width="1.32" stroke-linejoin="round"/>
<path d="M339.24 220.11H463.65C468.846 220.11 473.828 222.174 477.502 225.847C481.175 229.521 483.239 234.504 483.239 239.699V383.698H339.24V220.11Z" fill="white" stroke="#263238" stroke-width="1.32" stroke-linejoin="round"/>
<path d="M377.52 220.11H501.93C507.125 220.11 512.108 222.174 515.781 225.847C519.455 229.521 521.519 234.504 521.519 239.699V383.698H377.52V220.11Z" fill="white" stroke="#263238" stroke-width="1.32" stroke-linejoin="round"/>
<path d="M377.48 267.419L484.097 220.11H377.48V267.419Z" fill="#93278F" stroke="#263238" stroke-width="1.32" stroke-linejoin="round"/>
<path d="M386.839 383.698H521.479V324.416L386.839 383.698Z" fill="#93278F" stroke="#263238" stroke-width="1.32" stroke-linejoin="round"/>
<path d="M447.48 248.609V283.008H443.652V248.609H447.48Z" fill="#263238"/>
<path d="M403.141 295.68L408.738 325.618L414.295 295.68H417.833L411.391 330H405.741L399.247 295.68H403.141Z" fill="#263238"/>
<path d="M420.433 303.93C420.433 298.65 423.073 295.284 428.353 295.284C433.633 295.284 436.273 298.676 436.273 303.93V321.724C436.273 327.004 433.633 330.383 428.353 330.383C423.073 330.383 420.433 326.938 420.433 321.724V303.93ZM424.221 321.922C424.221 325.063 425.541 326.885 428.3 326.885C431.059 326.885 432.379 325.063 432.379 321.922V303.745C432.379 300.643 431.059 298.782 428.3 298.782C425.541 298.782 424.221 300.643 424.221 303.745V321.922Z" fill="#263238"/>
<path d="M444.84 330V299.125H438.504V295.68H454.965V299.178H448.629V330H444.84Z" fill="#263238"/>
<path d="M469.775 310.86V314.305H461.367V326.542H471.689V330H457.539V295.68H471.689V299.178H461.367V310.913L469.775 310.86Z" fill="#263238"/>
<path d="M483.292 295.68C488.651 295.68 491.106 298.927 491.106 304.234V321.578C491.106 326.858 488.651 330.079 483.292 330.079H475.2V295.68H483.292ZM483.292 326.594C486.051 326.594 487.371 324.878 487.371 321.737V303.983C487.371 300.841 486.051 299.125 483.252 299.125H479.121V326.542L483.292 326.594Z" fill="#263238"/>
<path d="M520.925 383.698H339.279V398.864H520.925V383.698Z" fill="#303030" stroke="#263238" stroke-width="1.32" stroke-miterlimit="10"/>
<path d="M520.911 383.698H377.361V398.864H520.911V383.698Z" fill="#787878" stroke="#263238" stroke-width="1.32" stroke-miterlimit="10"/>
<path d="M80.916 616.031C80.0868 616.039 79.2705 615.824 78.553 615.408C77.8354 614.993 77.2431 614.391 76.838 613.668C76.433 612.944 76.2302 612.124 76.251 611.295C76.2717 610.466 76.5153 609.658 76.956 608.956L206.316 391.156C206.638 390.642 207.059 390.196 207.554 389.845C208.048 389.493 208.607 389.243 209.198 389.107C209.79 388.972 210.402 388.954 211 389.055C211.599 389.157 212.171 389.375 212.685 389.697C213.199 390.019 213.644 390.44 213.996 390.935C214.347 391.429 214.598 391.988 214.733 392.579C214.869 393.171 214.886 393.783 214.785 394.381C214.684 394.98 214.466 395.552 214.144 396.066L84.7836 613.866C84.3712 614.521 83.8011 615.063 83.1255 615.441C82.4499 615.819 81.6902 616.022 80.916 616.031Z" fill="#787878" stroke="#263238" stroke-width="1.32" stroke-miterlimit="10"/>
<path d="M210.289 616.031C209.499 616.039 208.72 615.844 208.027 615.465C207.333 615.086 206.749 614.535 206.329 613.866L76.9691 396.066C76.6466 395.552 76.4286 394.98 76.3274 394.381C76.2262 393.783 76.2438 393.171 76.3793 392.579C76.5147 391.988 76.7653 391.429 77.1168 390.935C77.4683 390.44 77.9137 390.019 78.4277 389.697C78.9416 389.375 79.5141 389.157 80.1123 389.055C80.7105 388.954 81.3228 388.972 81.9142 389.107C82.5057 389.243 83.0646 389.493 83.5592 389.845C84.0537 390.196 84.4742 390.642 84.7966 391.156L214.157 608.956C214.806 609.992 215.018 611.244 214.746 612.437C214.474 613.63 213.74 614.666 212.705 615.318C211.98 615.772 211.144 616.019 210.289 616.031Z" fill="#787878" stroke="#263238" stroke-width="1.32" stroke-miterlimit="10"/>
<path d="M107.316 616.031C106.487 616.039 105.67 615.824 104.953 615.408C104.235 614.993 103.643 614.391 103.238 613.668C102.833 612.944 102.63 612.124 102.651 611.295C102.672 610.466 102.915 609.658 103.356 608.956L232.716 391.156C233.038 390.642 233.459 390.196 233.953 389.845C234.448 389.493 235.007 389.243 235.598 389.107C236.19 388.972 236.802 388.954 237.4 389.055C237.999 389.157 238.571 389.375 239.085 389.697C239.599 390.019 240.044 390.44 240.396 390.935C240.747 391.429 240.998 391.988 241.133 392.579C241.269 393.171 241.286 393.783 241.185 394.381C241.084 394.98 240.866 395.552 240.544 396.066L111.184 613.866C110.771 614.521 110.201 615.063 109.525 615.441C108.85 615.819 108.09 616.022 107.316 616.031Z" fill="#B16668" stroke="#263238" stroke-width="1.32" stroke-linejoin="round"/>
<path d="M236.689 616.031C235.899 616.039 235.12 615.844 234.427 615.465C233.734 615.086 233.149 614.535 232.729 613.866L103.369 396.066C103.047 395.552 102.829 394.98 102.728 394.381C102.627 393.783 102.644 393.171 102.78 392.579C102.915 391.988 103.166 391.429 103.517 390.935C103.869 390.44 104.314 390.019 104.828 389.697C105.342 389.375 105.914 389.157 106.513 389.055C107.111 388.954 107.723 388.972 108.315 389.107C108.906 389.243 109.465 389.493 109.96 389.845C110.454 390.196 110.875 390.642 111.197 391.156L240.557 608.956C241.207 609.992 241.419 611.244 241.147 612.437C240.874 613.63 240.14 614.666 239.105 615.318C238.38 615.772 237.545 616.019 236.689 616.031Z" fill="#B16668" stroke="#263238" stroke-width="1.32" stroke-linejoin="round"/>
<path d="M69.4448 220.11H193.855C199.05 220.11 204.033 222.174 207.706 225.848C211.38 229.521 213.444 234.504 213.444 239.699V383.698H69.4448V220.11Z" fill="white" stroke="#263238" stroke-width="1.32" stroke-linejoin="round"/>
<path d="M107.659 220.11H232.056C237.251 220.11 242.234 222.174 245.907 225.847C249.581 229.521 251.645 234.504 251.645 239.699V383.698H107.659V220.11Z" fill="white" stroke="#263238" stroke-width="1.32" stroke-linejoin="round"/>
<path d="M107.659 267.419L214.262 220.11H107.659V267.419Z" fill="#93278F" stroke="#263238" stroke-width="1.32" stroke-linejoin="round"/>
<path d="M117.004 383.698H251.658V324.416L117.004 383.698Z" fill="#93278F" stroke="#263238" stroke-width="1.32" stroke-linejoin="round"/>
<path d="M177.579 248.609V283.008H173.751V248.609H177.579Z" fill="#263238"/>
<path d="M133.32 295.68L138.917 325.618L144.461 295.68H147.998L141.557 330H135.96L129.426 295.68H133.32Z" fill="#263238"/>
<path d="M150.599 303.93C150.599 298.65 153.239 295.284 158.519 295.284C163.799 295.284 166.439 298.676 166.439 303.93V321.724C166.439 327.004 163.799 330.383 158.519 330.383C153.239 330.383 150.599 326.938 150.599 321.724V303.93ZM154.44 321.922C154.44 325.063 155.76 326.885 158.519 326.885C161.277 326.885 162.597 325.063 162.597 321.922V303.745C162.597 300.643 161.277 298.782 158.519 298.782C155.76 298.782 154.44 300.643 154.44 303.745V321.922Z" fill="#263238"/>
<path d="M174.979 330V299.125H168.643V295.68H185.103V299.178H178.767V330H174.979Z" fill="#263238"/>
<path d="M199.94 310.86V314.305H191.545V326.542H201.867V330H187.704V295.68H201.867V299.178H191.545V310.913L199.94 310.86Z" fill="#263238"/>
<path d="M213.457 295.68C218.816 295.68 221.271 298.927 221.271 304.234V321.578C221.271 326.858 218.816 330.079 213.457 330.079H205.405V295.68H213.457ZM213.457 326.594C216.202 326.594 217.536 324.878 217.536 321.737V303.983C217.536 300.841 216.216 299.125 213.404 299.125H209.272V326.542L213.457 326.594Z" fill="#263238"/>
<path d="M251.09 383.698H69.4448V398.864H251.09V383.698Z" fill="#303030" stroke="#263238" stroke-width="1.32" stroke-miterlimit="10"/>
<path d="M251.077 383.698H107.527V398.864H251.077V383.698Z" fill="#787878" stroke="#263238" stroke-width="1.32" stroke-miterlimit="10"/>
<path d="M8.73877 616.031H630.485" stroke="#263238" stroke-width="1.32" stroke-linejoin="round"/>
</svg>
