<svg width="718" height="734" viewBox="0 0 718 734" fill="none" xmlns="http://www.w3.org/2000/svg">
<path d="M559.266 354.098L539.109 406.517L615.149 437.106L635.306 384.687L559.266 354.098Z" fill="#EBEBEB"/>
<path d="M635.28 385.35C634.973 385.527 634.645 385.665 634.304 385.761L631.434 386.818L620.928 390.488L586.05 402.511L585.763 402.614L585.605 402.335L585.247 401.689L566.717 368.556L561.191 358.515L559.756 355.755C559.566 355.447 559.411 355.117 559.297 354.772C559.522 355.054 559.719 355.359 559.885 355.682L561.493 358.368L567.234 368.336L585.892 401.351L586.266 401.997L585.821 401.836L620.784 390.018L631.376 386.539L634.247 385.629C634.584 385.509 634.929 385.416 635.28 385.35Z" fill="#E0E0E0"/>
<path d="M539.075 407.194C538.989 407.018 547.471 402.129 558.021 396.287C568.57 390.444 577.224 385.849 577.325 386.011C577.425 386.172 568.943 391.075 558.379 396.918C547.816 402.76 539.175 407.385 539.075 407.194Z" fill="#E0E0E0"/>
<path d="M602.815 395.553C603.016 395.553 605.929 404.889 609.316 416.56C612.704 428.23 615.287 437.714 615.058 437.772C614.828 437.831 611.943 428.436 608.556 416.765C605.169 405.095 602.657 395.611 602.815 395.553Z" fill="#E0E0E0"/>
<path d="M307.937 574.638L234.831 611.967L259.429 662.363L332.535 625.034L307.937 574.638Z" fill="#EBEBEB"/>
<path d="M308.455 575.148C308.358 575.493 308.238 575.832 308.096 576.161L306.948 579.023C305.9 581.578 304.422 585.145 302.642 589.505L288.031 624.076L287.902 624.355H287.6L286.883 624.194L250.427 616.105L239.389 613.565L236.404 612.831C236.053 612.757 235.708 612.659 235.371 612.538C235.729 612.543 236.086 612.593 236.433 612.684L239.447 613.272L250.527 615.576L287.055 623.386L287.772 623.548L287.356 623.768C293.097 610.321 298.365 598.166 302.168 589.299C304.077 584.969 305.627 581.431 306.732 578.906C307.263 577.746 307.68 576.807 307.995 576.102C308.115 575.768 308.269 575.448 308.455 575.148Z" fill="#E0E0E0"/>
<path d="M259.942 662.875C259.741 662.875 261.865 653.113 264.678 641.178C267.491 629.243 269.96 619.599 270.147 619.657C270.333 619.716 268.223 629.42 265.41 641.354C262.597 653.289 260.128 662.919 259.942 662.875Z" fill="#E0E0E0"/>
<path d="M294.146 606.621C294.232 606.431 303.016 610.512 313.752 615.738C324.487 620.964 333.142 625.368 332.984 625.544C332.826 625.72 324.129 621.654 313.378 616.428C302.628 611.202 294.06 606.798 294.146 606.621Z" fill="#E0E0E0"/>
<path d="M187.834 385.467C215.621 366.501 222.396 330.623 221.807 298.268C221.707 292.866 222.381 287.185 219.913 282.399C217.444 277.613 211.545 274.296 206.723 276.527C202.718 278.362 200.981 283.001 198.642 286.803C195.58 291.919 191.167 296.046 185.911 298.709C182.481 300.441 178.247 301.468 174.917 299.545C170.338 296.903 169.893 290.458 170.008 285.085L170.654 255.065C170.769 249.707 170.869 244.216 169.219 239.093C167.568 233.97 164.066 229.184 159.028 227.687C153.991 226.189 147.675 229.023 146.527 234.263C146.054 236.436 146.527 238.667 146.283 240.943C146.039 243.218 145.035 245.626 142.925 246.213C140.815 246.8 138.691 245.259 137.184 243.659C131.773 238.154 128.156 231.107 124.783 224.119C121.41 217.132 118.123 209.953 113.301 203.964C108.478 197.974 101.589 193.189 93.9675 192.631C86.3462 192.073 78.1795 196.697 76.127 204.228C74.0746 211.759 78.3517 219.51 83.0163 225.705C89.9646 234.924 98.1833 243.063 107.416 249.868C109.081 251.101 110.875 252.422 111.478 254.419C112.583 258.016 109.167 261.524 105.651 262.654C101.661 263.917 97.3691 263.447 93.2211 263.873C89.0732 264.299 84.6095 266.075 82.9015 270.009C80.6481 275.47 85.1118 281.283 89.5181 285.13C98.3692 292.803 108.43 298.884 119.271 303.113C123.161 304.581 127.266 305.946 130.38 308.764C133.495 311.583 135.318 316.442 133.351 320.2C131.385 323.958 126.476 325.089 122.386 324.266C118.295 323.444 114.664 321.125 110.789 319.583C103.526 316.647 94.0679 317.044 89.2598 323.356C86.1309 327.496 85.7577 333.339 87.2504 338.359C88.9603 343.317 91.6306 347.87 95.1013 351.747C106.525 366.005 121.429 376.923 138.303 383.397C155.168 389.592 170.855 391.442 187.806 385.467" fill="#EBEBEB"/>
<path d="M179.796 365.092C174.733 347.392 168.676 330.007 161.654 313.022C159.817 308.481 158.004 304.008 156.215 299.604C154.406 295.2 152.626 290.796 150.631 286.7C146.749 278.726 142.436 270.977 137.714 263.491C133.279 256.313 128.787 249.663 124.567 243.468C120.347 237.273 116.242 231.606 112.324 226.571C106.165 218.603 99.3976 211.147 92.0866 204.272C89.5031 201.835 87.4363 200 86.0298 198.782L84.4079 197.402L83.8481 196.962C83.8481 196.962 84.006 197.138 84.3648 197.475L85.9293 198.943C87.3646 200.206 89.3309 202.055 91.8857 204.522C99.1116 211.466 105.819 218.954 111.951 226.923C115.84 231.959 119.874 237.669 124.093 243.849C128.313 250.03 132.705 256.724 137.169 263.902C141.844 271.373 146.114 279.101 149.957 287.053C151.952 291.192 153.717 295.508 155.511 299.927C157.305 304.346 159.114 308.735 160.951 313.33C167.963 330.287 174.03 347.637 179.122 365.297" fill="#E0E0E0"/>
<path d="M150.431 286.627C150.667 285.88 150.84 285.114 150.947 284.337C151.234 282.869 151.593 280.696 151.995 278.024C152.813 272.696 153.718 265.282 154.679 257.12C155.641 248.958 156.66 241.559 157.55 236.26C158.009 233.603 158.411 231.46 158.698 229.977C158.882 229.22 159.007 228.449 159.071 227.672C158.778 228.398 158.552 229.15 158.397 229.918C158.009 231.386 157.535 233.5 156.961 236.157C155.885 241.442 154.78 248.841 153.818 257.017C152.856 265.194 152.024 272.446 151.378 277.951C151.048 280.505 150.775 282.634 150.574 284.278C150.457 285.055 150.409 285.841 150.431 286.627Z" fill="#E0E0E0"/>
<path d="M82.2417 272.681C82.4724 272.741 82.7077 272.78 82.945 272.798L84.9687 273.004C86.7198 273.18 89.2745 273.43 92.3891 273.826C98.6325 274.589 107.244 275.969 116.674 277.907C126.104 279.845 134.543 282.017 140.614 283.779C143.657 284.63 146.097 285.379 147.791 285.893L149.743 286.48C149.97 286.563 150.206 286.617 150.446 286.642C150.246 286.508 150.028 286.405 149.8 286.333L147.891 285.599C146.226 284.983 143.815 284.131 140.715 283.221C134.672 281.327 126.218 279.096 116.774 277.129C107.33 275.162 98.6756 273.899 92.3747 273.283C89.2315 272.945 86.6336 272.784 84.9113 272.71H82.8732C82.6651 272.67 82.4525 272.66 82.2417 272.681Z" fill="#E0E0E0"/>
<path d="M179.051 363.785C179.238 363.527 179.393 363.246 179.51 362.948C179.826 362.302 180.228 361.48 180.716 360.453C181.735 358.295 183.156 355.124 184.849 351.19C188.251 343.336 192.628 332.326 197.307 320.112C201.986 307.898 206.278 296.874 209.536 288.961L213.454 279.61L214.502 277.056C214.641 276.764 214.752 276.459 214.832 276.145C214.643 276.404 214.484 276.685 214.359 276.982L213.167 279.478C212.134 281.636 210.727 284.807 209.034 288.741C205.618 296.595 201.254 307.605 196.575 319.818C191.896 332.032 187.605 343.057 184.333 350.969L180.429 360.321L179.367 362.875C179.227 363.165 179.121 363.47 179.051 363.785Z" fill="#E0E0E0"/>
<path d="M88.6279 332.84C88.9186 332.988 89.2211 333.111 89.5322 333.207L92.1587 334.117L101.904 337.42C110.085 340.224 121.338 344.231 133.767 348.694C146.197 353.157 157.478 357.076 165.716 359.748C169.821 361.069 173.166 362.126 175.491 362.801L178.16 363.565C178.466 363.677 178.784 363.751 179.108 363.785C178.82 363.629 178.517 363.506 178.203 363.418L175.577 362.493L165.889 359.19C157.708 356.401 146.455 352.393 134.026 347.931C121.596 343.468 110.315 339.548 102.091 336.877C97.9716 335.541 94.6274 334.498 92.3022 333.823L89.6326 333.045C89.3069 332.936 88.9696 332.867 88.6279 332.84Z" fill="#E0E0E0"/>
<path d="M189.198 65.4727H108.22C102.639 65.4727 98.1152 70.0997 98.1152 75.8074V116.721C98.1152 122.428 102.639 127.055 108.22 127.055H189.198C194.778 127.055 199.302 122.428 199.302 116.721V75.8074C199.302 70.0997 194.778 65.4727 189.198 65.4727Z" fill="#E0E0E0"/>
<path d="M159.661 125.103L183.587 146.829L185.553 125.485" fill="#E0E0E0"/>
<path d="M135.547 97.1521C135.547 98.3454 135.201 99.5119 134.553 100.504C133.905 101.496 132.984 102.27 131.906 102.726C130.828 103.183 129.642 103.302 128.498 103.07C127.353 102.837 126.302 102.262 125.477 101.418C124.652 100.575 124.09 99.4996 123.863 98.3292C123.635 97.1588 123.752 95.9457 124.199 94.8432C124.645 93.7407 125.401 92.7984 126.371 92.1354C127.341 91.4725 128.482 91.1186 129.648 91.1186C131.213 91.1186 132.713 91.7543 133.82 92.8858C134.926 94.0173 135.547 95.5519 135.547 97.1521Z" fill="white"/>
<path d="M155.815 97.1521C155.815 98.3461 155.468 99.5132 154.819 100.506C154.171 101.498 153.248 102.272 152.17 102.728C151.091 103.184 149.904 103.303 148.759 103.069C147.615 102.835 146.564 102.258 145.739 101.413C144.915 100.568 144.354 99.4915 144.128 98.3202C143.902 97.1488 144.021 95.9352 144.47 94.833C144.918 93.7308 145.677 92.7895 146.649 92.1283C147.621 91.4671 148.763 91.1157 149.93 91.1186C150.704 91.1186 151.47 91.2748 152.185 91.5782C152.9 91.8816 153.549 92.3262 154.096 92.8867C154.643 93.4471 155.076 94.1124 155.371 94.8443C155.666 95.5762 155.816 96.3605 155.815 97.1521Z" fill="white"/>
<path d="M176.095 97.1521C176.095 98.3461 175.748 99.5132 175.1 100.506C174.451 101.498 173.529 102.272 172.45 102.728C171.371 103.184 170.184 103.303 169.04 103.069C167.895 102.835 166.844 102.258 166.02 101.413C165.195 100.568 164.634 99.4915 164.408 98.3202C164.182 97.1488 164.301 95.9352 164.75 94.833C165.199 93.7308 165.957 92.7895 166.929 92.1283C167.901 91.4671 169.043 91.1157 170.21 91.1186C171.772 91.1225 173.269 91.7599 174.372 92.891C175.475 94.0221 176.095 95.5545 176.095 97.1521Z" fill="white"/>
<path d="M482.288 131.535L462.131 183.954L538.171 214.543L558.328 162.124L482.288 131.535Z" fill="#EBEBEB"/>
<path d="M558.322 162.801C558.013 162.98 557.686 163.123 557.346 163.227L554.476 164.269L543.969 167.983L509.078 180.006L508.791 180.109L508.633 179.83L508.274 179.184L489.73 146.051C487.434 141.853 485.539 138.432 484.19 135.966L482.755 133.206C482.565 132.896 482.406 132.566 482.281 132.223C482.51 132.506 482.712 132.81 482.884 133.133L484.477 135.819C485.912 138.256 487.821 141.691 490.218 145.787L508.877 178.802L509.236 179.463L508.805 179.287L543.754 167.543L554.361 164.049L557.231 163.139C557.586 162.998 557.951 162.885 558.322 162.801Z" fill="#E0E0E0"/>
<path d="M462.159 184.645C462.059 184.469 470.541 179.58 481.09 173.738C491.64 167.895 500.294 163.3 500.395 163.462C500.495 163.623 492.013 168.526 481.449 174.369C470.886 180.212 462.159 184.836 462.159 184.645Z" fill="#E0E0E0"/>
<path d="M525.871 173.004C526.058 173.004 528.972 182.355 532.359 194.011C535.746 205.667 538.344 215.179 538.1 215.238C537.856 215.297 535 205.887 531.613 194.231C528.225 182.575 525.67 173.062 525.871 173.004Z" fill="#E0E0E0"/>
<path d="M671.852 684.705C671.852 684.91 531.697 685.086 358.833 685.086C185.968 685.086 45.7852 684.91 45.7852 684.705C45.7852 684.499 185.911 684.323 358.833 684.323C531.755 684.323 671.852 684.484 671.852 684.705Z" fill="#263238"/>
<path d="M370.157 380.095C380.382 380.095 388.672 371.616 388.672 361.157C388.672 350.699 380.382 342.22 370.157 342.22C359.931 342.22 351.642 350.699 351.642 361.157C351.642 371.616 359.931 380.095 370.157 380.095Z" fill="#93278F"/>
<path d="M433.883 380.095C444.108 380.095 452.398 371.616 452.398 361.157C452.398 350.699 444.108 342.22 433.883 342.22C423.657 342.22 415.368 350.699 415.368 361.157C415.368 371.616 423.657 380.095 433.883 380.095Z" fill="#93278F"/>
<path d="M557.115 263.168C557.474 263.092 557.841 263.067 558.206 263.095C559.283 263.1 560.356 263.223 561.407 263.462C563.153 263.834 564.832 264.478 566.387 265.37C568.548 266.609 570.443 268.282 571.956 270.288C573.906 272.848 575.168 275.884 575.616 279.096C575.751 279.995 575.828 280.903 575.846 281.812C575.846 282.722 575.846 283.632 575.846 284.572C575.846 286.451 575.846 288.418 575.846 290.444C575.918 298.591 575.975 307.957 576.061 318.453C576.162 339.46 576.276 365.004 576.42 394.408C576.42 401.757 576.449 409.342 576.506 417.162C576.506 421.076 576.506 425.045 576.506 429.067C576.506 431.078 576.506 433.104 576.506 435.145C576.506 436.158 576.506 437.185 576.506 438.213C576.489 439.324 576.393 440.433 576.219 441.53C575.476 446.094 573.212 450.254 569.811 453.305C566.41 456.355 562.081 458.108 557.56 458.266L531.41 458.354L532.96 456.886C531.266 475.691 529.486 495.553 527.621 516.163L527.334 519.378L524.894 517.323L454.694 458.163L455.843 458.574L311.999 458.647H278.227C277.079 458.647 276.031 458.647 274.811 458.647C271.724 458.575 268.696 457.764 265.969 456.281C263.243 454.797 260.894 452.682 259.11 450.103C257.688 448.058 256.642 445.765 256.024 443.336C255.492 440.979 255.275 438.559 255.378 436.143C255.378 431.641 255.378 427.149 255.378 422.667C255.378 413.731 255.378 404.86 255.378 396.052C255.378 360.82 255.45 326.909 255.478 294.569C255.478 290.532 255.478 286.51 255.478 282.531C255.423 280.374 255.689 278.221 256.268 276.146C256.857 274.057 257.762 272.075 258.952 270.274C261.342 266.724 264.776 264.045 268.755 262.625C270.705 261.914 272.755 261.532 274.826 261.495C276.778 261.495 278.601 261.495 280.495 261.495L324.07 261.583L402.278 261.818L515.536 262.42L546.322 262.787L554.331 262.978C555.244 262.958 556.156 263.022 557.058 263.168C556.158 263.325 555.244 263.389 554.331 263.359L546.322 263.55L515.536 263.917L402.278 264.519L324.07 264.754L280.495 264.842C278.644 264.842 276.706 264.842 274.898 264.842C273.174 264.873 271.467 265.195 269.845 265.796C266.551 266.987 263.711 269.218 261.736 272.167C259.74 275.195 258.735 278.793 258.866 282.443C258.866 286.421 258.866 290.444 258.866 294.481C258.866 326.777 258.937 360.761 258.98 395.964C258.98 404.772 258.98 413.643 258.98 422.578V436.055C258.875 438.155 259.059 440.26 259.526 442.308C260.277 445.292 261.826 448.002 263.998 450.136C266.171 452.27 268.881 453.743 271.826 454.39C272.809 454.601 273.808 454.724 274.811 454.757C275.83 454.757 277.022 454.757 278.127 454.757H312.172L456.015 454.83H456.661L457.163 455.256L527.204 514.607L524.463 515.767C526.401 495.215 528.266 475.309 530.046 456.519L530.175 455.051H531.611H557.675C561.522 454.934 565.21 453.459 568.114 450.877C571.018 448.295 572.959 444.764 573.607 440.884C573.753 439.947 573.835 439 573.851 438.051C573.851 437.024 573.851 435.996 573.851 434.983C573.851 432.943 573.851 430.917 573.851 428.906C573.851 424.883 573.851 420.915 573.851 417C573.851 409.171 573.879 401.586 573.937 394.246C574.08 364.886 574.195 339.299 574.296 318.292C574.382 307.796 574.439 298.43 574.511 290.282C574.511 288.257 574.511 286.289 574.511 284.41C574.511 283.471 574.511 282.561 574.511 281.651C574.51 280.797 574.457 279.943 574.353 279.096C573.984 276.072 572.862 273.196 571.095 270.743C569.701 268.787 567.94 267.135 565.914 265.884C564.44 264.966 562.845 264.269 561.177 263.814C558.594 263.227 557.115 263.315 557.115 263.168Z" fill="#93278F"/>
<path d="M158.813 357.414H438.375C443.476 357.414 448.368 359.487 451.975 363.176C455.582 366.865 457.608 371.868 457.608 377.085V531.313C457.608 536.53 455.582 541.534 451.975 545.223C448.368 548.912 443.476 550.984 438.375 550.984H158.813C153.716 550.984 148.827 548.914 145.223 545.227C141.619 541.541 139.594 536.541 139.594 531.328V377.085C139.592 374.503 140.088 371.945 141.053 369.558C142.018 367.172 143.433 365.003 145.218 363.176C147.003 361.35 149.122 359.9 151.455 358.912C153.787 357.923 156.288 357.414 158.813 357.414Z" fill="#93278F"/>
<path d="M333.042 544.789L408.236 613.081L414.408 546.008" fill="#93278F"/>
<path d="M238.714 475.867C248.94 475.867 257.229 467.388 257.229 456.93C257.229 446.471 248.94 437.992 238.714 437.992C228.489 437.992 220.199 446.471 220.199 456.93C220.199 467.388 228.489 475.867 238.714 475.867Z" fill="white"/>
<path d="M302.441 475.867C312.667 475.867 320.956 467.388 320.956 456.93C320.956 446.471 312.667 437.992 302.441 437.992C292.216 437.992 283.926 446.471 283.926 456.93C283.926 467.388 292.216 475.867 302.441 475.867Z" fill="white"/>
<path d="M366.166 475.867C376.392 475.867 384.681 467.388 384.681 456.93C384.681 446.471 376.392 437.992 366.166 437.992C355.941 437.992 347.651 446.471 347.651 456.93C347.651 467.388 355.941 475.867 366.166 475.867Z" fill="white"/>
<g opacity="0.3">
<path opacity="0.3" d="M445.738 358.192L415.855 357.297H184.776C203.98 376.836 231.437 387.288 258.406 389.695C285.375 392.103 312.487 387.904 339.169 383.177C365.851 378.45 392.647 373.166 419.731 373.371C425.472 373.371 431.371 373.665 436.681 371.492C441.992 369.319 446.527 364.064 445.738 358.192Z" fill="black"/>
</g>
<path d="M497.61 380.095C507.835 380.095 516.125 371.616 516.125 361.157C516.125 350.699 507.835 342.22 497.61 342.22C487.384 342.22 479.095 350.699 479.095 361.157C479.095 371.616 487.384 380.095 497.61 380.095Z" fill="#93278F"/>
<path d="M338.051 82.7072C330.593 82.8228 323.363 85.349 317.394 89.924C311.426 94.4991 307.026 100.888 304.824 108.177C302.729 115.708 303.145 123.723 301.796 131.445C300.447 139.167 296.643 147.241 289.481 150.03C284.817 151.835 279.434 151.087 274.842 152.966C272.681 153.851 270.773 155.277 269.291 157.113C267.809 158.948 266.801 161.135 266.36 163.472C265.919 165.81 266.058 168.223 266.765 170.491C267.472 172.759 268.724 174.809 270.407 176.454C267.569 178.954 265.667 182.383 265.025 186.156C264.382 189.93 265.038 193.815 266.881 197.149C268.724 200.483 271.641 203.061 275.133 204.443C278.626 205.825 282.479 205.925 286.037 204.727C283.381 209.131 284.257 215.003 287.371 219.026C290.688 222.925 295.367 225.339 300.404 225.749C305.39 226.131 310.405 225.67 315.245 224.384C326.124 221.918 337.032 217.954 345.213 210.218C354.184 201.733 358.934 189.666 362.537 177.672C369.397 154.845 373.057 130.256 367.445 107.076" fill="#263238"/>
<path d="M288.032 209.924L275.933 236.979L249.452 177.29C248.204 172.461 246.797 167.014 246.51 165.928C246.083 164.258 245.933 162.526 246.065 160.805C246.153 158.668 246.53 156.553 247.184 154.522C247.974 152.716 246.208 150.881 244.687 151.762C243.166 152.643 240.884 157.634 240.955 163.902C241.027 170.171 219.685 155.197 216.226 158.749L218.809 179.742C221.149 181.929 227.751 187.963 231.425 191.295L256.399 254.859C257.798 258.772 260.264 262.192 263.504 264.717C266.744 267.242 270.622 268.765 274.682 269.106C278.741 269.447 282.811 268.592 286.411 266.643C290.01 264.693 292.988 261.73 294.993 258.104L311.083 229.096L288.032 209.924Z" fill="#AD6359"/>
<path d="M231.927 139.46C232.031 139.422 232.142 139.407 232.253 139.415C232.363 139.424 232.471 139.456 232.568 139.51C232.666 139.564 232.751 139.639 232.819 139.729C232.886 139.819 232.934 139.922 232.96 140.033L246.696 181.738C246.825 182.103 246.831 182.501 246.711 182.869C246.591 183.237 246.353 183.552 246.035 183.764L229.731 193.115C229.566 193.203 229.383 193.252 229.197 193.259C229.011 193.265 228.826 193.229 228.656 193.153C228.485 193.077 228.333 192.963 228.211 192.82C228.09 192.676 228 192.506 227.951 192.323L212.507 149.149C212.353 148.76 212.348 148.325 212.495 147.933C212.641 147.541 212.928 147.22 213.297 147.035L231.927 139.46Z" fill="#263238"/>
<path d="M232.372 142.528L245.003 179.727L228.856 188.535L214.977 149.589L232.372 142.528Z" fill="#F5F5F5"/>
<path d="M218.062 152.114C218.55 153.391 219.354 155.447 219.856 156.724C219.914 156.874 220.001 157.011 220.112 157.126C220.223 157.241 220.355 157.332 220.501 157.393C220.647 157.455 220.804 157.486 220.962 157.484C221.12 157.483 221.276 157.449 221.42 157.384L230.032 153.7L233.003 154.14L232.171 152.54L233.147 152.129C233.293 152.069 233.427 151.98 233.54 151.867C233.652 151.754 233.741 151.618 233.801 151.469C233.862 151.32 233.892 151.159 233.89 150.998C233.889 150.836 233.856 150.677 233.793 150.529L232.041 146.345C231.918 146.054 231.688 145.825 231.4 145.707C231.113 145.588 230.791 145.591 230.506 145.714L218.765 150.558C218.617 150.61 218.481 150.693 218.365 150.8C218.249 150.907 218.155 151.038 218.09 151.183C218.024 151.328 217.988 151.486 217.983 151.646C217.978 151.806 218.005 151.965 218.062 152.114Z" fill="#E0E0E0"/>
<path d="M225.339 174.105L227.133 178.7C227.191 178.848 227.278 178.983 227.388 179.097C227.498 179.211 227.629 179.301 227.773 179.363C227.917 179.424 228.072 179.456 228.228 179.455C228.385 179.455 228.539 179.423 228.683 179.36L237.295 175.676L240.266 176.116L239.434 174.516L240.41 174.105C240.556 174.045 240.69 173.956 240.802 173.843C240.915 173.73 241.004 173.594 241.064 173.445C241.125 173.296 241.155 173.135 241.153 172.974C241.152 172.812 241.118 172.653 241.055 172.505L239.304 168.336C239.246 168.191 239.161 168.059 239.053 167.948C238.945 167.838 238.816 167.75 238.675 167.69C238.533 167.63 238.382 167.599 238.229 167.599C238.076 167.599 237.924 167.63 237.783 167.69L226.028 172.534C225.881 172.589 225.746 172.674 225.631 172.784C225.517 172.893 225.425 173.025 225.36 173.171C225.296 173.318 225.261 173.476 225.258 173.636C225.254 173.796 225.282 173.956 225.339 174.105Z" fill="#E0E0E0"/>
<path d="M235.385 157.311C235.931 158.559 236.82 160.599 237.337 161.847C237.401 161.994 237.435 162.153 237.437 162.314C237.44 162.475 237.411 162.634 237.352 162.784C237.293 162.933 237.205 163.068 237.094 163.182C236.983 163.296 236.851 163.386 236.706 163.447L228.094 167.117L226.329 169.598L225.783 167.851L224.822 168.292C224.677 168.354 224.522 168.388 224.366 168.389C224.209 168.391 224.054 168.361 223.908 168.301C223.763 168.241 223.631 168.152 223.519 168.04C223.407 167.927 223.318 167.793 223.257 167.646L221.563 163.433C221.448 163.138 221.45 162.809 221.568 162.516C221.685 162.223 221.911 161.988 222.195 161.862L233.806 156.694C233.949 156.626 234.104 156.588 234.262 156.582C234.419 156.577 234.576 156.603 234.723 156.661C234.871 156.718 235.005 156.806 235.119 156.917C235.232 157.029 235.323 157.163 235.385 157.311Z" fill="#E0E0E0"/>
<path d="M216.226 159.792C218.996 160.262 222.397 160.541 225.167 161.01C225.967 161.081 226.738 161.342 227.421 161.774C227.75 162.003 227.993 162.341 228.108 162.731C228.223 163.121 228.203 163.54 228.052 163.917C227.607 164.739 226.517 164.798 225.598 164.768C223.56 164.768 221.292 165.15 219.254 165.077C221.866 165.312 224.277 165.532 227.191 165.884C227.81 165.946 228.39 166.22 228.835 166.663C229.281 167.106 229.567 167.69 229.645 168.321C229.6 168.854 229.372 169.354 229.002 169.733C228.632 170.112 228.143 170.345 227.622 170.391C226.551 170.467 225.477 170.467 224.407 170.391C224.407 170.391 220.201 170.391 220.015 171.007C222.641 171.007 226.1 171.565 228.727 171.815C229.444 171.815 229.76 172.872 229.932 173.591C230.037 173.944 230.02 174.324 229.884 174.665C229.748 175.007 229.502 175.291 229.186 175.47C228.853 175.582 228.501 175.622 228.153 175.588C224.751 175.485 222.986 175.705 219.541 175.588" fill="#AD6359"/>
<path d="M279.219 256.298C279.483 252.944 279.367 249.57 278.875 246.242C278.134 242.96 277.021 239.778 275.559 236.759C276.254 237.481 276.822 238.32 277.238 239.24C278.363 241.389 279.161 243.701 279.607 246.096C280.07 248.513 280.162 250.989 279.879 253.436C279.827 254.422 279.603 255.392 279.219 256.298Z" fill="#AD6359"/>
<path d="M229.358 172.255C227.377 172.403 225.385 172.295 223.431 171.932C221.809 171.771 220.316 171.433 219.326 171.433C218.778 171.469 218.245 171.624 217.761 171.888C217.761 171.888 217.761 171.683 218.02 171.448C218.372 171.131 218.815 170.94 219.283 170.905C220.699 170.86 222.116 170.949 223.517 171.169C225.5 171.286 227.462 171.651 229.358 172.255Z" fill="#AD6359"/>
<path d="M228.424 166.163C226.463 166.312 224.491 166.209 222.554 165.855C220.947 165.693 219.468 165.341 218.507 165.37C217.545 165.4 217.071 165.972 216.985 165.884C216.899 165.796 217.258 165.047 218.421 164.842C219.059 164.753 219.706 164.753 220.344 164.842L222.612 165.091C224.585 165.199 226.538 165.559 228.424 166.163Z" fill="#AD6359"/>
<path d="M310.321 291.927C310.321 291.927 222.971 285.174 197.695 305.403C172.42 325.632 184.52 358.251 184.52 358.251H327.358L332.841 290.87L310.321 291.927Z" fill="#263238"/>
<path d="M326.756 338.33C326.328 338.34 325.901 338.311 325.478 338.242C324.646 338.139 323.412 338.022 321.847 337.802C318.69 337.391 314.125 336.73 308.513 335.761C293.903 333.191 279.449 329.76 265.226 325.485C256.915 322.96 249.021 320.45 241.744 318.556C235.314 316.856 228.739 315.789 222.11 315.371C217.641 315.117 213.158 315.383 208.748 316.163C207.169 316.369 205.992 316.765 205.174 316.912C204.759 317.024 204.337 317.108 203.911 317.162C204.306 316.997 204.714 316.864 205.131 316.765C206.301 316.403 207.489 316.104 208.69 315.87C213.115 314.967 217.631 314.617 222.139 314.827C228.809 315.173 235.43 316.195 241.902 317.881C249.222 319.686 257.131 322.285 265.441 324.736C279.635 328.998 294.036 332.501 308.585 335.233C314.168 336.26 318.718 337.009 321.847 337.508L325.464 338.081C326.325 338.227 326.756 338.315 326.756 338.33Z" fill="#455A64"/>
<path d="M244.313 318.204C241.861 316.103 239.234 314.227 236.462 312.596C233.573 311.186 230.566 310.046 227.477 309.19C228.444 309.12 229.416 309.225 230.348 309.499C232.606 310.001 234.788 310.81 236.835 311.906C238.878 313.007 240.77 314.379 242.461 315.987C243.196 316.614 243.822 317.363 244.313 318.204Z" fill="#455A64"/>
<path d="M373.546 283.515C373.546 283.515 293.644 285.732 268.369 305.961C243.094 326.19 255.193 358.809 255.193 358.809L405.036 361.128V341.383L385.602 339.24L385.458 338.33C392.994 329.889 387.253 300.47 374.708 284.954L373.546 283.515Z" fill="#263238"/>
<path d="M395.979 340.576C395.551 340.575 395.124 340.541 394.702 340.473C393.869 340.385 392.649 340.253 391.07 340.048C387.913 339.637 383.349 338.976 377.751 337.992C363.134 335.432 348.675 332.001 334.449 327.716C326.124 325.191 318.259 322.637 310.968 320.802C304.548 319.09 297.983 318.008 291.362 317.573C286.893 317.319 282.41 317.585 277.999 318.365C276.421 318.571 275.244 318.982 274.426 319.129C274.012 319.242 273.589 319.321 273.163 319.363C273.558 319.2 273.966 319.073 274.383 318.982C275.553 318.615 276.741 318.311 277.942 318.072C282.36 317.193 286.866 316.863 291.362 317.088C298.029 317.393 304.649 318.376 311.126 320.024C318.46 321.844 326.354 324.428 334.664 326.894C348.866 331.145 363.277 334.629 377.837 337.332C383.42 338.374 387.97 339.123 391.113 339.622L394.73 340.194C395.157 340.283 395.575 340.41 395.979 340.576Z" fill="#455A64"/>
<path d="M313.536 320.376C311.083 318.274 308.456 316.393 305.685 314.754C302.791 313.36 299.785 312.22 296.701 311.348C297.669 311.28 298.641 311.389 299.571 311.671C304.111 312.679 308.3 314.921 311.699 318.16C312.427 318.789 313.048 319.539 313.536 320.376Z" fill="#455A64"/>
<path d="M332.239 286.906C331.834 287.014 331.422 287.088 331.005 287.126L327.445 287.64C324.374 288.11 319.925 288.873 314.528 289.989C309.131 291.104 302.586 292.558 295.424 294.305C287.663 296.135 280.223 299.175 273.364 303.318C269.837 305.477 266.608 308.109 263.762 311.143C261.137 313.992 258.901 317.192 257.117 320.655C254.102 326.547 252.503 333.089 252.452 339.739C252.413 344.217 253.052 348.674 254.347 352.951C254.806 354.419 255.237 355.623 255.538 356.401C255.703 356.794 255.847 357.196 255.969 357.605C255.739 357.245 255.547 356.861 255.395 356.46C254.897 355.344 254.456 354.202 254.074 353.039C252.313 347.692 251.621 342.037 252.04 336.41C252.459 330.784 253.981 325.301 256.514 320.288C258.302 316.754 260.558 313.489 263.217 310.585C266.104 307.494 269.387 304.817 272.977 302.628C279.877 298.452 287.374 295.405 295.195 293.6C302.371 291.883 308.873 290.503 314.356 289.446C319.838 288.389 324.316 287.713 327.402 287.332C328.952 287.141 330.158 287.009 330.991 286.95C331.406 286.912 331.822 286.898 332.239 286.906Z" fill="#455A64"/>
<path d="M405.035 342.367L418.699 341.486L427.756 346.874L445.108 348.812C453.418 349.252 454.739 358.398 449.629 358.398C445.567 358.398 421.268 360.012 421.268 360.012L405.035 360.453V342.367Z" fill="#E0E0E0"/>
<path d="M427.238 346.903C426.645 347.43 425.919 347.775 425.143 347.901C423.285 348.378 421.329 348.254 419.542 347.546C417.756 346.839 416.228 345.584 415.168 343.952C414.673 343.331 414.364 342.576 414.278 341.78C414.378 341.78 414.737 342.543 415.598 343.644C416.7 345.072 418.156 346.172 419.815 346.828C421.473 347.483 423.274 347.672 425.028 347.373C426.391 347.153 427.195 346.786 427.238 346.903Z" fill="#455A64"/>
<path d="M448.926 358.192C448.926 358.28 448.237 358.456 447.261 357.942C446.666 357.564 446.155 357.063 445.76 356.472C445.364 355.88 445.093 355.211 444.964 354.507C444.556 353.137 444.685 351.658 445.323 350.382C445.869 349.413 446.529 349.134 446.572 349.223C446.615 349.311 446.156 349.722 445.797 350.691C445.364 351.883 445.329 353.189 445.696 354.405C445.917 355.645 446.57 356.761 447.534 357.546C448.294 358.075 448.94 358.104 448.926 358.192Z" fill="#455A64"/>
<path d="M314.325 172.299C314.325 172.299 297.289 210.599 298.293 217.103C299.298 223.606 304.278 249.56 304.278 249.56L307.881 291.78C307.881 291.78 372.224 283.808 373.559 283.808C374.894 283.808 371.55 248.885 371.55 248.885L381.353 181.768C381.353 181.768 376.86 172.622 356.594 169.451C344.466 167.528 314.325 172.299 314.325 172.299Z" fill="#93278F"/>
<path d="M361.359 223.914C362.181 230.742 364.239 237.353 367.431 243.409C368.665 245.684 369.813 248.885 371.851 250.441C375.038 252.892 379.616 250.588 382.501 247.784C385.386 244.98 388.314 241.427 392.29 241.28C394.83 241.192 397.184 242.543 399.667 243.086C402.15 243.629 405.408 242.793 405.939 240.268C406.099 238.776 405.755 237.274 404.963 236.01C398.874 223.637 394.212 210.582 391.07 197.108C389.745 193.282 388.052 189.599 386.017 186.113C384.582 183.632 380.879 180.036 377.233 177.011" fill="#93278F"/>
<path d="M326.468 169.759C308.757 170.391 295.481 182.37 291.706 191.001C287.271 201.131 283.826 213.374 278.63 223.121C277.464 224.936 276.56 226.914 275.946 228.993C275.66 230.046 275.693 231.163 276.042 232.196C276.39 233.229 277.038 234.129 277.898 234.777C280.568 236.392 284.443 234.293 286.898 236.245C288.247 237.302 288.649 239.181 289.768 240.502C291.203 242.073 293.457 242.396 295.509 242.631L307.465 243.952" fill="#93278F"/>
<path d="M357.384 207.135C357.094 206.678 356.862 206.184 356.695 205.667C356.182 204.289 355.825 202.856 355.633 201.395C354.93 196.509 355.899 191.524 358.376 187.284C360.853 183.045 364.685 179.81 369.225 178.127C370.573 177.615 371.974 177.26 373.401 177.07C373.924 176.987 374.457 176.987 374.98 177.07C373.086 177.474 371.224 178.023 369.411 178.714C365.061 180.463 361.401 183.639 359.004 187.743C356.607 191.847 355.608 196.648 356.164 201.395C356.438 203.335 356.846 205.253 357.384 207.135Z" fill="#263238"/>
<path d="M308.743 192.132C308.494 192.795 308.187 193.434 307.824 194.04C307.494 194.642 307.107 195.376 306.719 196.257C306.332 197.138 305.815 198.107 305.37 199.193C304.265 201.814 303.33 204.506 302.571 207.252C301.66 210.621 301.003 214.057 300.605 217.528C300.248 221 300.143 224.493 300.289 227.98C300.429 230.827 300.75 233.662 301.251 236.465C301.437 237.669 301.71 238.726 301.911 239.68C302.112 240.635 302.327 241.427 302.514 242.088C302.726 242.764 302.884 243.456 302.987 244.158C302.67 243.525 302.416 242.861 302.227 242.176C301.947 241.392 301.708 240.593 301.509 239.783C301.265 238.844 300.949 237.772 300.734 236.568C300.153 233.747 299.774 230.887 299.6 228.01C299.169 220.947 299.951 213.862 301.911 207.076C302.709 204.313 303.707 201.614 304.896 199.002C305.326 197.999 305.805 197.019 306.332 196.066C306.7 195.32 307.107 194.595 307.552 193.893C307.894 193.27 308.293 192.68 308.743 192.132Z" fill="#263238"/>
<path d="M404.891 235.086C404.891 235.086 404.891 235.247 404.747 235.511C404.543 235.897 404.264 236.236 403.929 236.51C402.618 237.447 401 237.821 399.422 237.552C397.413 237.317 395.332 236.084 392.906 235.643C391.581 235.47 390.235 235.599 388.965 236.02C387.695 236.442 386.531 237.145 385.557 238.08C383.304 239.93 381.467 242.176 379.3 243.688C378.295 244.45 377.154 245.003 375.941 245.318C374.879 245.535 373.792 245.604 372.712 245.523C371.15 245.453 369.63 244.983 368.291 244.158C367.935 243.912 367.62 243.61 367.358 243.262C367.205 243.008 367.133 242.876 367.143 242.866C367.549 243.245 367.986 243.589 368.449 243.894C369.782 244.592 371.257 244.964 372.755 244.98C373.781 245.021 374.809 244.927 375.812 244.701C376.938 244.378 377.995 243.84 378.927 243.116C380.965 241.648 382.759 239.402 385.113 237.478C386.256 236.524 387.546 235.77 388.93 235.247C390.253 234.774 391.676 234.672 393.05 234.953C395.633 235.526 397.657 236.744 399.508 237.009C400.983 237.321 402.518 237.06 403.814 236.275C404.227 235.933 404.59 235.533 404.891 235.086Z" fill="#FAFAFA"/>
<path d="M400.787 226.498C400.785 226.641 400.751 226.782 400.686 226.909C400.525 227.281 400.285 227.612 399.983 227.878C399.394 228.338 398.712 228.658 397.987 228.813C397.261 228.968 396.511 228.954 395.792 228.773C393.955 228.465 392.06 227.232 389.792 227.114C387.279 227.153 384.84 227.995 382.817 229.522C380.578 231.063 378.655 232.884 376.66 234.264C374.921 235.563 372.903 236.419 370.775 236.759C369.316 236.989 367.823 236.79 366.469 236.187C365.97 235.991 365.523 235.68 365.163 235.276C365.163 235.276 365.651 235.57 366.598 235.922C367.91 236.377 369.314 236.478 370.675 236.216C372.701 235.831 374.609 234.961 376.243 233.676C378.167 232.311 380.061 230.476 382.372 228.891C384.521 227.271 387.123 226.401 389.792 226.41C390.944 226.518 392.073 226.811 393.137 227.276C394.021 227.668 394.932 227.991 395.864 228.245C396.519 228.436 397.206 228.481 397.879 228.377C398.553 228.273 399.197 228.023 399.768 227.643C400.162 227.316 400.506 226.93 400.787 226.498Z" fill="#FAFAFA"/>
<path d="M300.231 237.655C300.231 237.655 299.973 238.051 299.198 238.227C298.656 238.314 298.103 238.283 297.574 238.136C297.044 237.989 296.551 237.73 296.127 237.376C294.967 236.279 294.056 234.936 293.457 233.441C293.146 232.588 292.659 231.812 292.03 231.166C291.402 230.52 290.645 230.02 289.811 229.698C287.998 229.404 286.145 229.504 284.372 229.992C282.819 230.378 281.19 230.302 279.678 229.771C279.168 229.568 278.704 229.261 278.312 228.87C277.92 228.48 277.608 228.012 277.396 227.496C277.124 226.747 277.267 226.292 277.296 226.307C277.324 226.322 277.296 226.733 277.655 227.379C278.146 228.26 278.93 228.932 279.865 229.272C281.302 229.679 282.82 229.679 284.257 229.272C286.123 228.728 288.085 228.617 289.998 228.949C291.019 229.229 291.927 229.83 292.596 230.667C293.166 231.419 293.648 232.236 294.031 233.104C294.57 234.534 295.38 235.841 296.414 236.95C297.157 237.617 298.124 237.964 299.112 237.919C299.491 237.858 299.865 237.77 300.231 237.655Z" fill="#FAFAFA"/>
<path d="M298.064 229.008C298.064 229.008 297.748 229.184 297.202 229.008C296.449 228.712 295.817 228.164 295.408 227.452C294.949 226.472 294.294 225.602 293.485 224.898C292.3 224.363 290.97 224.269 289.725 224.633C288.343 224.935 286.915 224.935 285.534 224.633C284.401 224.363 283.332 223.864 282.39 223.165C281.48 222.606 280.751 221.784 280.295 220.802C280.41 220.714 281.099 221.727 282.692 222.725C284.772 224.005 287.255 224.415 289.624 223.87C291.034 223.475 292.537 223.627 293.844 224.296C294.741 225.092 295.436 226.1 295.868 227.232C296.189 227.881 296.688 228.422 297.303 228.788C297.748 229.008 298.064 229.008 298.064 229.008Z" fill="#FAFAFA"/>
<path d="M365.507 236.598C365.507 236.598 364.603 236.407 362.981 236.025C361.359 235.644 359.005 235.071 356.077 234.557C354.642 234.293 353.006 234.014 351.283 233.794C349.459 233.526 347.612 233.452 345.772 233.574C343.76 233.854 341.815 234.506 340.031 235.497C338.136 236.466 336.227 237.64 334.161 238.682C332.152 239.76 329.949 240.409 327.687 240.591C325.588 240.677 323.488 240.44 321.458 239.886C318.136 238.83 314.752 237.992 311.325 237.376C309.015 237.02 306.655 237.247 304.45 238.036C303.674 238.396 302.917 238.798 302.183 239.24C302.183 239.24 302.326 239.064 302.671 238.77C303.19 238.375 303.748 238.035 304.336 237.757C306.565 236.842 308.985 236.524 311.368 236.833C314.836 237.374 318.26 238.168 321.616 239.211C323.585 239.719 325.615 239.936 327.644 239.857C329.806 239.658 331.909 239.025 333.83 237.992C335.854 236.979 337.763 235.805 339.701 234.821C341.566 233.81 343.593 233.149 345.686 232.869C347.576 232.762 349.471 232.86 351.341 233.163C353.092 233.412 354.699 233.72 356.163 234.029C359.034 234.66 361.431 235.306 363.038 235.776C363.842 236.025 364.474 236.216 364.875 236.378C365.277 236.539 365.521 236.568 365.507 236.598Z" fill="#FAFAFA"/>
<path d="M366.985 243.967C366.985 243.967 366.124 243.615 364.603 242.954C363.081 242.294 360.842 241.383 358.029 240.503C356.502 240.006 354.937 239.643 353.35 239.416C351.54 239.257 349.719 239.503 348.011 240.136C344.351 241.413 340.835 244.158 336.529 245.89C334.418 246.714 332.171 247.113 329.912 247.065C327.84 247.019 325.775 246.793 323.741 246.389C320.366 245.601 316.942 245.057 313.493 244.76C311.176 244.61 308.852 244.914 306.646 245.655C305.096 246.228 304.336 246.771 304.293 246.712C304.25 246.653 304.465 246.536 304.824 246.286C305.366 245.933 305.937 245.628 306.532 245.376C308.753 244.501 311.129 244.111 313.507 244.231C316.989 244.445 320.448 244.935 323.855 245.699C327.673 246.36 332.094 246.888 336.256 245.185C340.418 243.483 343.92 240.781 347.738 239.475C349.542 238.829 351.464 238.603 353.365 238.814C354.985 239.054 356.58 239.447 358.13 239.989C360.359 240.756 362.54 241.663 364.66 242.705C365.406 243.072 365.981 243.38 366.354 243.6C366.579 243.695 366.791 243.818 366.985 243.967Z" fill="#FAFAFA"/>
<path d="M347.81 241.339C347.81 241.339 347.452 241.457 346.777 241.515C345.82 241.595 344.858 241.571 343.907 241.442C342.486 241.27 341.089 240.93 339.744 240.429C338.103 239.806 336.542 238.983 335.094 237.978C333.662 236.935 332.357 235.723 331.204 234.366C330.276 233.253 329.481 232.031 328.836 230.726C328.382 229.858 328.021 228.942 327.76 227.995C327.587 227.335 327.501 226.953 327.559 226.938C327.616 226.924 328.104 228.406 329.295 230.476C329.993 231.699 330.805 232.85 331.721 233.911C332.869 235.188 334.144 236.339 335.525 237.346C336.922 238.322 338.418 239.139 339.988 239.783C341.284 240.293 342.625 240.671 343.993 240.914C346.318 241.31 347.81 241.193 347.81 241.339Z" fill="#263238"/>
<g opacity="0.3">
<path opacity="0.3" d="M327.603 228.524C328.579 233.985 330.617 239.431 334.506 243.306C338.396 247.182 344.41 249.178 349.462 247.109C350.014 246.953 350.522 246.664 350.942 246.266C351.361 245.867 351.681 245.37 351.873 244.818C351.937 244.147 351.779 243.473 351.426 242.904C351.072 242.335 350.542 241.903 349.921 241.677C348.659 241.274 347.339 241.091 346.017 241.134C342.251 240.876 338.612 239.64 335.445 237.541C332.278 235.442 329.687 232.55 327.918 229.14" fill="black"/>
</g>
<path d="M369.683 250.309C369.407 249.854 369.199 249.359 369.066 248.841C368.708 247.916 368.22 246.565 367.631 244.892C366.483 241.53 365.004 236.877 363.512 231.68C362.019 226.483 360.828 221.727 360.024 218.277C359.622 216.545 359.321 215.15 359.134 214.167C359.007 213.687 358.935 213.195 358.919 212.699C359.152 213.162 359.321 213.656 359.421 214.167C359.737 215.282 360.11 216.618 360.541 218.204C361.459 221.624 362.751 226.336 364.229 231.533C365.708 236.73 367.1 241.398 368.133 244.745C368.593 246.316 368.995 247.681 369.325 248.767C369.5 249.266 369.62 249.783 369.683 250.309Z" fill="#263238"/>
<path d="M304.896 292.338C304.896 292.338 317.297 278.744 328.147 276.072C338.998 273.4 377.865 259.352 377.865 259.352L375.411 251.439C377.912 251.167 380.232 249.978 381.941 248.092L384.453 245.538C387.869 241.721 391.988 239.666 397.959 241.736L401.72 242.881L405.638 254.625C406.551 257.363 406.861 260.275 406.545 263.15C406.228 266.026 405.294 268.794 403.808 271.257C402.322 273.719 400.322 275.815 397.951 277.394C395.58 278.973 392.897 279.995 390.094 280.388L304.896 292.338Z" fill="#AD6359"/>
<path d="M393.983 261.04C391.411 260.163 388.77 259.514 386.089 259.102C383.399 258.936 380.7 259.015 378.023 259.337C380.632 258.385 383.416 258.044 386.171 258.339C388.925 258.633 391.58 259.556 393.94 261.04H393.983Z" fill="#AD6359"/>
<path d="M306.761 106.518C305.714 88.0801 329.195 75.1323 345.227 79.7565C360.283 84.1605 366.756 91.7648 369.181 102.07C371.607 112.375 371.535 123.532 367.588 133.353C365.636 138.183 362.134 143.101 357.053 143.629" fill="#263238"/>
<path d="M354.829 95.1999C356.101 95.3359 357.277 95.9565 358.122 96.9383C358.968 97.9201 359.422 99.1913 359.393 100.499L356.522 171.184C356.422 179.536 344.495 184.249 335.768 184.058C326.941 183.867 326.64 179.448 326.511 171.507C326.31 158.295 326.31 153.259 326.31 153.333C326.31 153.406 315.129 151.439 312.89 136.524C311.742 129.184 312.101 116.985 312.718 107.076C313.263 98.1506 319.047 87.1846 327.745 88.1388L354.829 95.1999Z" fill="#AD6359"/>
<path d="M316.422 116.75C316.421 117.245 316.608 117.722 316.942 118.08C317.276 118.438 317.732 118.651 318.216 118.673C318.453 118.693 318.692 118.664 318.918 118.588C319.144 118.512 319.353 118.39 319.533 118.23C319.712 118.07 319.858 117.875 319.962 117.656C320.066 117.437 320.127 117.199 320.139 116.956C320.147 116.457 319.964 115.975 319.628 115.613C319.293 115.251 318.832 115.037 318.345 115.018C318.107 115 317.868 115.031 317.642 115.109C317.416 115.186 317.207 115.31 317.028 115.471C316.849 115.632 316.703 115.828 316.599 116.048C316.495 116.268 316.435 116.506 316.422 116.75Z" fill="#263238"/>
<path d="M315.216 113.418C315.446 113.667 316.867 112.61 318.862 112.61C320.857 112.61 322.349 113.638 322.565 113.388C322.78 113.139 322.435 112.83 321.79 112.346C320.921 111.732 319.888 111.409 318.833 111.421C317.801 111.417 316.795 111.751 315.962 112.375C315.316 112.86 315.101 113.315 315.216 113.418Z" fill="#263238"/>
<path d="M336.042 116.75C336.042 117.248 336.23 117.726 336.568 118.085C336.905 118.443 337.365 118.654 337.851 118.673C338.088 118.691 338.326 118.661 338.551 118.584C338.776 118.507 338.985 118.385 339.163 118.225C339.342 118.066 339.489 117.871 339.593 117.653C339.698 117.435 339.76 117.198 339.774 116.956C339.778 116.458 339.594 115.978 339.259 115.617C338.925 115.255 338.466 115.041 337.98 115.018C337.741 115 337.501 115.031 337.274 115.108C337.047 115.186 336.838 115.309 336.657 115.47C336.477 115.631 336.33 115.827 336.224 116.047C336.119 116.267 336.057 116.506 336.042 116.75Z" fill="#263238"/>
<path d="M334.951 113.814C335.18 114.064 336.601 112.992 338.596 112.992C340.591 112.992 342.084 114.02 342.299 113.77C342.515 113.521 342.17 113.212 341.524 112.728C340.653 112.12 339.622 111.797 338.568 111.803C337.536 111.799 336.53 112.133 335.697 112.757C335.051 113.242 334.836 113.697 334.951 113.814Z" fill="#263238"/>
<path d="M327.659 129.037C326.603 128.696 325.508 128.494 324.401 128.435C323.885 128.435 323.411 128.274 323.325 127.922C323.273 127.38 323.388 126.836 323.655 126.366L325.176 122.373C327.286 116.691 328.808 112.008 328.578 111.92C326.924 115.186 325.518 118.578 324.373 122.064C323.87 123.532 323.382 124.809 322.937 126.087C322.61 126.717 322.518 127.447 322.679 128.142C322.749 128.327 322.861 128.493 323.006 128.625C323.151 128.758 323.324 128.854 323.511 128.905C323.798 128.98 324.091 129.024 324.387 129.037C325.474 129.175 326.573 129.175 327.659 129.037Z" fill="#263238"/>
<path d="M326.282 153.333C333.13 153.439 339.873 151.599 345.759 148.018C345.759 148.018 341.037 158.294 326.469 156.826L326.282 153.333Z" fill="#AD6359"/>
<path d="M328.506 133.984C328.888 133.492 329.386 133.108 329.954 132.866C330.521 132.625 331.139 132.535 331.75 132.604C332.194 132.646 332.625 132.78 333.017 132.997C333.409 133.214 333.754 133.51 334.032 133.867C334.301 134.206 334.461 134.623 334.489 135.06C334.518 135.496 334.413 135.931 334.189 136.304C333.87 136.675 333.448 136.939 332.98 137.062C332.512 137.185 332.018 137.161 331.563 136.994C330.613 136.649 329.74 136.115 328.994 135.423C328.771 135.256 328.577 135.053 328.42 134.821C328.35 134.707 328.313 134.574 328.312 134.439C328.313 134.304 328.35 134.172 328.42 134.058" fill="#AD6359"/>
<path d="M333.572 130.461C333.242 130.461 333.242 132.663 331.376 134.249C329.51 135.834 327.185 135.584 327.171 135.893C327.156 136.201 327.687 136.333 328.606 136.363C329.886 136.376 331.131 135.929 332.122 135.1C333.068 134.308 333.675 133.171 333.816 131.929C333.96 130.99 333.716 130.446 333.572 130.461Z" fill="#263238"/>
<path d="M334.046 110.217C334.247 110.775 336.242 110.511 338.596 110.79C340.95 111.069 342.902 111.744 343.174 111.245C343.318 111.01 342.988 110.482 342.213 109.939C341.19 109.275 340.033 108.859 338.829 108.721C337.625 108.584 336.407 108.729 335.266 109.146C334.419 109.513 333.96 109.953 334.046 110.217Z" fill="#263238"/>
<path d="M315.948 107.487C316.306 107.942 317.684 107.487 319.349 107.487C321.014 107.487 322.421 107.795 322.751 107.311C322.894 107.076 322.665 106.606 322.048 106.166C321.228 105.627 320.265 105.36 319.292 105.402C318.313 105.411 317.362 105.74 316.579 106.342C315.991 106.768 315.761 107.252 315.948 107.487Z" fill="#263238"/>
<path d="M334.921 83.221C329.974 83.4663 325.167 84.9808 320.942 87.625C318.568 88.8687 316.458 90.5803 314.734 92.6614C313.01 94.7424 311.705 97.1517 310.895 99.7507C310.692 100.288 310.597 100.861 310.617 101.436C310.637 102.012 310.77 102.577 311.01 103.098C311.47 103.697 312.121 104.112 312.849 104.273C313.578 104.434 314.338 104.33 315 103.979C316.303 103.24 317.416 102.193 318.243 100.925C318.596 102.299 319.388 103.513 320.493 104.374C321.598 105.235 322.953 105.693 324.342 105.677C325.731 105.66 327.074 105.168 328.159 104.281C329.244 103.393 330.007 102.161 330.328 100.778C330.438 102.205 331.081 103.533 332.124 104.487C333.166 105.441 334.528 105.948 335.926 105.902C337.325 105.779 338.658 105.24 339.76 104.35C340.862 103.46 341.685 102.259 342.126 100.896C342.458 103.5 343.329 106.003 344.681 108.236C345.372 109.328 346.375 110.177 347.553 110.668C348.731 111.159 350.028 111.268 351.269 110.981C350.741 113.169 350.776 115.46 351.369 117.631C352.13 119.745 355.675 165.282 357.771 164.607C359.866 163.932 359.292 117.631 359.766 115.488C360.795 111.417 361.316 107.229 361.316 103.024C361.453 98.7005 360.085 94.4673 357.457 91.0777C354.829 87.6881 351.111 85.3619 346.963 84.5128C342.815 83.5364 338.557 83.1365 334.304 83.3237" fill="#263238"/>
<path d="M284.285 142.147C284.285 142.147 284.128 141.882 283.711 141.471C283.113 140.866 282.346 140.466 281.515 140.326C280.873 140.2 280.212 140.208 279.572 140.352C278.933 140.496 278.329 140.772 277.798 141.163C277.146 141.737 276.65 142.474 276.358 143.303C276.066 144.131 275.989 145.022 276.133 145.89C276.263 146.907 276.638 147.876 277.224 148.709C277.889 149.587 278.757 150.283 279.75 150.734C280.857 151.228 282.052 151.482 283.259 151.482C284.467 151.482 285.661 151.228 286.768 150.734C289.243 149.591 291.377 147.798 292.955 145.538C294.7 143.133 296.044 140.45 296.93 137.596C298.825 131.724 299.341 125.764 300.131 120.42C300.72 115.644 301.956 110.975 303.805 106.548C305.078 103.548 306.968 100.865 309.345 98.6791C310.007 98.0906 310.712 97.5556 311.455 97.079C311.701 96.9062 311.966 96.7633 312.245 96.6532C312.245 96.6532 311.197 97.3285 309.546 98.8406C307.278 101.063 305.484 103.742 304.279 106.709C302.515 111.111 301.347 115.739 300.805 120.464C300.045 125.793 299.557 131.782 297.619 137.772C296.712 140.707 295.329 143.466 293.529 145.934C291.859 148.284 289.617 150.146 287.027 151.336C285.836 151.867 284.551 152.141 283.252 152.141C281.953 152.141 280.668 151.867 279.477 151.336C278.399 150.825 277.462 150.048 276.75 149.076C276.114 148.159 275.714 147.094 275.588 145.978C275.448 145.024 275.555 144.05 275.898 143.151C276.24 142.252 276.806 141.461 277.54 140.855C278.118 140.443 278.775 140.16 279.467 140.023C280.159 139.887 280.872 139.9 281.558 140.062C282.427 140.249 283.215 140.711 283.812 141.383C284.021 141.6 284.182 141.861 284.285 142.147Z" fill="#263238"/>
<path d="M361.446 166.545C361.446 166.457 362.293 166.075 363.7 165.077C365.654 163.628 367.324 161.815 368.623 159.733C370.545 156.643 371.802 153.17 372.311 149.545C372.852 145.082 372.663 140.557 371.752 136.157C370.862 131.46 369.541 127.07 368.407 123.063C367.273 119.055 366.298 115.4 365.723 112.287C365.254 109.828 364.976 107.334 364.891 104.83C364.891 103.949 364.891 103.259 364.891 102.789C364.876 102.552 364.9 102.314 364.963 102.085C365.034 102.085 364.963 103.068 365.149 104.815C365.335 107.283 365.685 109.736 366.197 112.155C366.843 115.223 367.833 118.835 369.068 122.828C370.429 127.168 371.569 131.578 372.484 136.04C373.422 140.517 373.592 145.126 372.986 149.663C372.439 153.379 371.102 156.927 369.068 160.056C367.701 162.162 365.928 163.961 363.858 165.341C363.298 165.717 362.708 166.041 362.092 166.31C361.884 166.408 361.668 166.486 361.446 166.545Z" fill="#263238"/>
<path d="M364.043 156.988C363.887 157.105 363.712 157.195 363.526 157.252C363.015 157.442 362.486 157.575 361.947 157.649C359.916 157.862 357.87 157.426 356.091 156.401C353.46 154.851 351.466 152.38 350.48 149.442C349.296 145.896 348.909 142.123 349.346 138.403C349.69 134.469 350.393 130.814 350.709 127.452C351.025 124.09 351.212 121.051 351.269 118.497C351.326 115.943 351.269 113.873 351.269 112.434C351.207 111.697 351.207 110.955 351.269 110.217C351.428 110.941 351.519 111.678 351.542 112.419C351.656 113.887 351.771 115.928 351.786 118.512C351.799 121.521 351.665 124.529 351.384 127.525C351.097 130.916 350.422 134.601 350.078 138.477C349.65 142.083 350.003 145.741 351.111 149.193C352.023 152.002 353.879 154.39 356.35 155.931C358.022 156.962 359.953 157.472 361.904 157.399C363.297 157.238 364.014 156.915 364.043 156.988Z" fill="#263238"/>
<path d="M270.163 170.405C270.152 169.906 270.23 169.409 270.393 168.937C270.844 167.636 271.676 166.509 272.775 165.708C274.507 164.416 276.576 163.68 278.717 163.594C281.186 163.359 283.985 163.726 287.013 163.594C290.325 163.289 293.518 162.182 296.328 160.364C299.539 158.248 302.285 155.474 304.394 152.217C306.702 148.6 308.323 144.571 309.174 140.341C310.087 135.784 310.468 131.132 310.308 126.483C310.308 121.697 309.662 117.058 309.389 112.508C308.97 108.127 309.241 103.706 310.193 99.413C311.076 95.7546 312.952 92.4264 315.607 89.8131C318.261 87.1997 321.584 85.408 325.192 84.645C327.954 84.0834 330.805 84.1687 333.53 84.8945C335.57 85.4354 337.509 86.3131 339.272 87.4929C340.385 88.2312 341.415 89.0927 342.343 90.0619C342.673 90.3995 342.874 90.6784 343.032 90.8546C343.19 91.0308 343.262 91.1335 343.247 91.1482C341.99 89.8675 340.605 88.726 339.114 87.7424C337.339 86.6222 335.401 85.7995 333.373 85.3056C330.703 84.6462 327.923 84.601 325.235 85.1734C321.99 85.8991 318.988 87.4778 316.522 89.7536C313.675 92.3646 311.673 95.8004 310.781 99.6039C309.875 103.824 309.623 108.163 310.035 112.464C310.336 116.97 310.911 121.639 310.997 126.468C311.141 131.177 310.746 135.887 309.82 140.502C308.943 144.822 307.272 148.931 304.897 152.613C302.723 155.941 299.892 158.766 296.587 160.908C293.685 162.756 290.392 163.864 286.985 164.137C283.856 164.313 281.086 163.902 278.674 164.137C276.62 164.202 274.627 164.87 272.933 166.06C271.846 166.805 271.005 167.869 270.522 169.114C270.221 169.906 270.221 170.405 270.163 170.405Z" fill="#455A64"/>
<path d="M342.113 80.0941C342.113 80.0207 342.816 80.3437 343.548 81.2391C344.549 82.4314 345.157 83.9159 345.285 85.4817C345.415 87.0495 345.064 88.6198 344.28 89.9738C343.663 90.9867 343.075 91.4418 343.017 91.4418C342.96 91.4418 343.362 90.7958 343.807 89.7829C344.414 88.489 344.671 87.0526 344.553 85.6225C344.434 84.1925 343.944 82.821 343.132 81.6502C342.558 80.6519 342.041 80.1822 342.113 80.0941Z" fill="#455A64"/>
<path d="M370.775 118.159C370.596 117.575 370.466 116.976 370.388 116.368C370.173 115.194 369.871 113.521 369.426 111.451C368.981 109.381 368.45 106.915 367.733 104.228C367.374 102.878 366.972 101.468 366.47 100.044C365.995 98.5855 365.298 97.213 364.403 95.9779C362.69 93.5529 360.349 91.6664 357.643 90.5316C355.43 89.6229 353.009 89.3834 350.667 89.8417C349.077 90.1283 347.563 90.748 346.218 91.662C345.758 92.0446 345.279 92.4023 344.783 92.7336C344.783 92.7336 344.869 92.5868 345.07 92.3519C345.374 92.0107 345.711 91.701 346.074 91.4271C347.402 90.3842 348.942 89.6616 350.581 89.3132C353.026 88.7545 355.578 88.9486 357.915 89.871C360.762 91.0246 363.226 92.9854 365.02 95.5228C365.961 96.8171 366.688 98.2602 367.173 99.7947C367.675 101.263 368.063 102.731 368.422 104.037C369.096 106.768 369.599 109.249 369.957 111.377C370.316 113.506 370.575 115.165 370.689 116.354C370.795 116.949 370.824 117.556 370.775 118.159Z" fill="#455A64"/>
<path d="M343.605 91.9409C342.032 91.7634 340.488 91.3786 339.012 90.7959C337.411 90.2512 335.77 89.8437 334.103 89.5774C332.084 89.2779 330.024 89.5103 328.118 90.2527C326.212 90.981 324.521 92.1995 323.209 93.7906C322.142 95.0786 321.346 96.5778 320.87 98.1946C320.485 99.7303 320.278 101.307 320.253 102.892C320.088 102.483 320.01 102.043 320.023 101.6C319.952 100.406 320.064 99.2073 320.353 98.0478C320.772 96.3006 321.566 94.6707 322.678 93.2768C324.044 91.5571 325.832 90.2398 327.86 89.46C329.882 88.6793 332.069 88.4516 334.204 88.7994C335.905 89.1286 337.572 89.6201 339.184 90.2674C341.911 91.339 343.633 91.8381 343.605 91.9409Z" fill="#455A64"/>
<path d="M632.553 589.696C633.831 585.204 636.543 580.888 640.763 578.994C644.983 577.1 650.207 578.157 654.685 579.831C659.163 581.504 663.569 583.721 668.32 584.014C673.071 584.308 678.453 582.018 679.874 577.364C681.209 572.96 678.625 568.322 675.41 565.136C671.998 561.784 667.816 559.363 663.249 558.097C658.682 556.83 653.877 556.759 649.276 557.889C644.675 559.019 640.426 561.314 636.919 564.563C633.413 567.813 630.761 571.912 629.209 576.484" fill="#263238"/>
<path d="M594.863 609.22C587.888 602.438 588.232 590.635 591.72 581.445C595.208 572.256 602.8 565.224 611.283 560.57C619.57 556.124 628.734 553.654 638.088 553.346C647.442 553.039 656.742 554.901 665.292 558.794C661.107 558.977 657.03 560.206 653.417 562.374C649.804 564.541 646.765 567.581 644.567 571.228C640.749 577.731 639.888 585.615 636.73 592.485C633.169 600.223 626.844 606.27 619.056 609.383C611.268 612.496 602.61 612.438 594.863 609.22Z" fill="#455A64"/>
<path d="M591.52 568.498C583.784 559.176 582.75 544.202 583.898 532.033C585.047 519.863 587.788 507.605 585.908 495.523C584.803 488.374 582.09 481.548 581.171 474.355C580.253 467.162 581.559 459.058 586.999 454.419C593.256 449.091 603.102 450.353 609.604 455.344C616.106 460.335 619.881 468.219 622.636 476.043C628.65 493.248 630.904 512.332 625.938 529.948C620.972 547.564 609.303 563.227 592.18 568.527" fill="#455A64"/>
<path d="M587.802 645.054C587.764 644.698 587.764 644.338 587.802 643.982C587.802 643.278 587.802 642.235 587.802 640.899C587.888 638.213 588.132 634.337 588.72 629.596C589.395 624.023 590.382 618.494 591.677 613.037C593.277 606.334 595.759 599.885 599.054 593.865C602.365 587.851 606.428 582.305 611.139 577.364C614.964 573.318 619.209 569.71 623.798 566.604C625.721 565.239 627.602 564.211 629.209 563.242C630.817 562.273 632.295 561.642 633.515 561.07L636.299 559.881C636.617 559.726 636.949 559.604 637.29 559.514C637.002 559.713 636.694 559.88 636.371 560.013L633.644 561.334C632.496 561.95 631.075 562.714 629.453 563.624C627.831 564.534 626.037 565.664 624.128 567.059C619.619 570.201 615.444 573.818 611.67 577.849C607.041 582.775 603.038 588.28 599.757 594.232C592.581 606.945 590.701 620.289 589.28 629.655C588.634 634.396 588.304 638.242 588.132 640.914C588.046 642.177 587.988 643.204 587.945 643.982C587.937 644.344 587.889 644.703 587.802 645.054Z" fill="#263238"/>
<path d="M521.148 531.695C506.795 540.503 506.896 548.548 509.293 556.137C511.69 563.727 520.445 568.982 527.722 566.149C531.841 564.534 534.812 560.879 537.367 557.209C539.921 553.539 542.29 549.605 545.863 546.933C549.437 544.261 554.59 543.292 558.178 545.905" fill="#263238"/>
<path d="M510.455 541.369C514.186 536.084 523.372 534.558 529.257 537.2C535.141 539.842 539.304 545.068 543.179 550.28C547.054 555.491 550.728 561.011 556.025 564.637C561.321 568.263 568.712 569.584 573.994 565.929C575.68 564.647 577.09 563.026 578.14 561.165C579.189 559.304 579.854 557.243 580.094 555.11C580.563 550.845 580.281 546.53 579.262 542.367C577.999 536.231 575.932 529.831 571.138 525.926C565.799 521.595 558.378 521.39 551.546 521.61C543.71 521.874 535.758 522.476 528.424 525.25C521.09 528.025 513.569 534.058 510.455 541.398" fill="#455A64"/>
<path d="M575.917 633.339C575.85 632.922 575.816 632.5 575.816 632.077L575.687 628.451C575.601 625.221 575.457 620.685 575.299 615.107C575.141 609.528 574.883 602.761 574.496 595.318C574.108 587.875 573.534 579.699 572.429 571.199C571.968 567.06 571.181 562.965 570.075 558.956C568.938 555.254 567.473 551.667 565.697 548.239C562.744 542.389 558.837 537.097 554.143 532.59C550.963 529.576 547.365 527.058 543.465 525.118C542.41 524.57 541.327 524.08 540.221 523.65C539.827 523.519 539.447 523.347 539.087 523.136C539.487 523.233 539.88 523.356 540.264 523.503C541.403 523.863 542.516 524.304 543.594 524.825C547.58 526.679 551.259 529.155 554.502 532.165C559.295 536.662 563.287 541.977 566.3 547.872C568.117 551.327 569.611 554.95 570.764 558.691C571.902 562.741 572.708 566.88 573.175 571.067C574.28 579.61 574.811 587.802 575.185 595.259C575.558 602.717 575.716 609.411 575.83 615.063C575.945 620.714 575.974 625.265 575.974 628.407V632.047C575.99 632.479 575.971 632.911 575.917 633.339Z" fill="#263238"/>
<path d="M581.07 639.945C580.375 637.903 579.842 635.807 579.477 633.677C578.484 627.862 578.257 621.937 578.803 616.061C579.671 607.345 581.496 598.757 584.242 590.459C587.185 581.049 591.16 570.979 594.562 560.174C596.239 554.923 597.609 549.575 598.667 544.158C599.607 539.105 600.282 534.003 600.69 528.876C601.346 520.178 601.504 511.448 601.164 502.731C600.92 495.288 600.547 489.27 600.303 485.115C600.188 483.089 600.102 481.475 600.045 480.33C600.045 479.816 600.045 479.405 600.045 479.082C600.02 478.941 600.02 478.797 600.045 478.656C600.051 478.793 600.051 478.93 600.045 479.067C600.045 479.39 600.116 479.801 600.174 480.315C600.274 481.46 600.403 483.06 600.576 485.101C600.906 489.255 601.365 495.274 601.681 502.717C602.095 511.455 601.989 520.21 601.365 528.935C600.973 534.092 600.307 539.223 599.37 544.305C598.323 549.768 596.952 555.16 595.265 560.453C591.849 571.301 587.845 581.343 584.888 590.723C582.126 598.969 580.259 607.5 579.319 616.164C578.726 622.006 578.871 627.902 579.75 633.706C580.094 635.761 580.41 637.347 580.697 638.404C580.812 638.903 580.898 639.299 580.984 639.622C581.023 639.727 581.052 639.835 581.07 639.945Z" fill="#263238"/>
<path d="M616.507 646.551H549.379L547.844 633.339H616.507V646.551Z" fill="#263238"/>
<path d="M556.585 645.054L564.982 684.705H601.452L609.303 645.054H556.585Z" fill="#263238"/>
<path d="M616.508 646.551C616.508 646.771 601.753 646.904 583.496 646.845C565.239 646.786 550.485 646.581 550.485 646.36C550.485 646.14 565.239 646.023 583.496 646.081C601.753 646.14 616.508 646.346 616.508 646.551Z" fill="#455A64"/>
<path d="M604.982 666.12C603.146 664.751 601.162 663.603 599.068 662.699C596.78 661.78 594.35 661.283 591.892 661.231C588.877 661.243 585.888 661.804 583.065 662.89C580.008 663.947 577.152 665.18 574.353 665.826C571.876 666.375 569.321 666.45 566.818 666.046C565.13 665.798 563.495 665.262 561.981 664.461C561.577 664.234 561.188 663.979 560.818 663.697C560.574 663.507 560.445 663.389 560.46 663.375C562.457 664.497 564.643 665.224 566.904 665.518C569.342 665.823 571.813 665.698 574.21 665.151C576.879 664.461 579.735 663.213 582.821 662.141C585.731 661.061 588.811 660.538 591.906 660.6C594.437 660.683 596.929 661.251 599.255 662.274C600.824 662.942 602.297 663.826 603.633 664.901C603.998 665.185 604.343 665.494 604.666 665.826C604.896 665.973 605.011 666.105 604.982 666.12Z" fill="#455A64"/>
<path d="M604.479 668.777C602.687 667.444 600.762 666.307 598.738 665.386C596.539 664.466 594.194 663.968 591.82 663.918C588.91 663.928 586.024 664.459 583.294 665.488C580.337 666.501 577.553 667.676 574.898 668.424C572.569 669.117 570.142 669.395 567.721 669.247C566.066 669.146 564.448 668.696 562.971 667.925C562.577 667.714 562.203 667.468 561.851 667.191C561.607 667 561.492 666.883 561.507 666.868C561.521 666.854 562.066 667.191 563.1 667.661C564.574 668.298 566.151 668.651 567.75 668.703C570.129 668.778 572.505 668.455 574.783 667.749C577.366 667.001 580.122 665.811 583.107 664.813C585.919 663.754 588.895 663.226 591.891 663.257C596.015 663.372 599.989 664.867 603.201 667.514C603.646 667.896 603.976 668.204 604.192 668.424C604.407 668.645 604.493 668.747 604.479 668.777Z" fill="white"/>
<path d="M605.685 663.536C603.778 662.13 601.739 660.921 599.599 659.925C597.263 658.899 594.773 658.288 592.236 658.119C589.127 658.054 586.036 658.612 583.137 659.763C580.193 660.948 577.183 661.953 574.123 662.773C571.55 663.23 568.918 663.23 566.344 662.773C564.61 662.485 562.926 661.936 561.349 661.143C560.929 660.914 560.526 660.654 560.144 660.365C559.885 660.16 559.756 660.042 559.771 660.027C559.785 660.013 560.373 660.365 561.479 660.879C563.064 661.553 564.728 662.012 566.43 662.244C568.943 662.611 571.498 662.556 573.994 662.083C576.764 661.466 579.735 660.13 582.893 659.044C585.882 657.859 589.075 657.305 592.28 657.414C594.888 657.624 597.439 658.305 599.815 659.426C601.41 660.156 602.91 661.088 604.278 662.2C604.654 662.498 605.013 662.817 605.355 663.154C605.556 663.345 605.685 663.536 605.685 663.536Z" fill="white"/>
<path d="M136.35 621.316C133.479 625.544 127.839 624.135 125.227 621.551C122.614 618.967 121.524 615.239 120.519 611.672C118.222 603.524 115.912 594.98 117.648 586.716C118.042 584.175 119.126 581.8 120.777 579.86C121.602 578.908 122.656 578.196 123.836 577.794C125.015 577.392 126.277 577.315 127.494 577.57C130.365 578.333 132.102 581.166 133.379 583.868C137.12 591.852 139.081 600.586 139.12 609.44C139.12 613.565 138.661 617.881 136.379 621.287" fill="#93278F"/>
<g opacity="0.2">
<path opacity="0.2" d="M136.35 621.316C133.479 625.544 127.839 624.135 125.227 621.551C122.614 618.967 121.524 615.239 120.519 611.672C118.222 603.524 115.912 594.98 117.648 586.716C118.042 584.175 119.126 581.8 120.777 579.86C121.602 578.908 122.656 578.196 123.836 577.794C125.015 577.392 126.277 577.315 127.494 577.57C130.365 578.333 132.102 581.166 133.379 583.868C137.12 591.852 139.081 600.586 139.12 609.44C139.12 613.565 138.661 617.881 136.379 621.287" fill="black"/>
</g>
<path d="M125.557 642.72C120.705 640.395 115.254 639.716 109.999 640.782C107.123 641.04 104.415 642.275 102.306 644.291C100.397 646.463 100.024 650.28 102.306 652.144C103.726 653.126 105.437 653.567 107.143 653.392C111.262 653.392 115.826 652.614 119.113 655.139C120.979 656.607 122.227 658.985 124.481 659.69C125.601 659.956 126.775 659.842 127.826 659.366C128.878 658.889 129.749 658.075 130.308 657.047C131.378 654.938 131.614 652.489 130.968 650.207C130.694 648.615 130.063 647.111 129.124 645.812C128.185 644.513 126.964 643.454 125.557 642.72Z" fill="#93278F"/>
<path d="M144.345 627.379C142.858 625.394 141.867 623.067 141.46 620.6C141.052 618.134 141.239 615.603 142.006 613.228C143.586 608.475 146.423 604.262 150.201 601.058C154.489 597.173 159.476 594.181 164.884 592.25C166.978 591.384 169.231 590.993 171.486 591.105C172.613 591.167 173.708 591.512 174.674 592.108C175.64 592.705 176.448 593.535 177.027 594.525C178.562 597.535 177.027 601.19 175.476 604.17C172.661 609.429 169.44 614.451 165.846 619.188C162.975 623.005 159.645 626.763 155.239 628.48C150.833 630.198 146.254 629.948 143.929 626.88" fill="#93278F"/>
<path d="M136.594 685.072C136.437 684.448 136.35 683.807 136.336 683.163C136.192 681.695 136.034 680.007 135.833 677.908C135.632 675.808 135.274 673.078 134.685 670.23C134.01 667.131 133.093 664.092 131.944 661.143C130.824 658.203 129.302 655.44 127.423 652.937C125.884 650.899 123.923 649.235 121.682 648.063C120.16 647.315 118.533 646.819 116.859 646.595C116.23 646.559 115.606 646.466 114.993 646.316C115.627 646.237 116.268 646.237 116.902 646.316C118.642 646.446 120.344 646.898 121.926 647.652C124.286 648.789 126.355 650.473 127.968 652.57C129.933 655.103 131.515 657.924 132.661 660.938C133.831 663.927 134.739 667.017 135.374 670.171C135.864 672.741 136.2 675.34 136.379 677.952C136.537 680.183 136.608 681.974 136.637 683.222C136.69 683.838 136.676 684.459 136.594 685.072Z" fill="#263238"/>
<path d="M136.235 681.049C136.198 680.752 136.198 680.451 136.235 680.154V677.599C136.235 675.397 136.235 672.197 136.135 668.234C135.934 660.336 135.274 649.414 133.982 637.406C132.69 625.397 130.968 614.622 129.404 606.871C129.045 604.933 128.672 603.186 128.313 601.66C127.954 600.133 127.696 598.797 127.423 597.74C127.15 596.683 126.992 595.905 126.834 595.259C126.754 594.972 126.706 594.677 126.691 594.378C126.827 594.642 126.929 594.924 126.992 595.215L127.71 597.652C128.04 598.709 128.37 600.03 128.743 601.557C129.117 603.084 129.547 604.816 129.949 606.754C132.088 616.846 133.693 627.049 134.757 637.317C136.049 649.34 136.623 660.292 136.68 668.219C136.68 672.182 136.68 675.383 136.537 677.599C136.537 678.627 136.422 679.478 136.393 680.139C136.382 680.448 136.329 680.755 136.235 681.049Z" fill="#263238"/>
<path d="M136.193 659.939C136.124 659.05 136.124 658.157 136.193 657.268C136.293 655.565 136.523 653.084 136.996 650.06C138.272 642.166 140.484 634.461 143.584 627.115C146.559 619.687 150.835 612.876 156.2 607.018C157.13 606.014 158.123 605.073 159.171 604.199C159.616 603.803 160.018 603.407 160.434 603.098L161.583 602.291C162.273 601.74 163.008 601.249 163.779 600.823C161.261 602.857 158.865 605.043 156.602 607.37C151.429 613.288 147.27 620.058 144.302 627.394C142.605 631.404 141.167 635.523 139.996 639.725C138.877 643.586 138.13 647.138 137.556 650.133C136.982 653.128 136.709 655.579 136.523 657.268C136.471 658.165 136.361 659.057 136.193 659.939Z" fill="#263238"/>
</svg>
