<svg xmlns="http://www.w3.org/2000/svg" fill="none" viewBox="0 0 757 729" height="729" width="757">
<path fill="#EBEBEB" d="M757 557.124H0V557.488H757V557.124Z"></path>
<path fill="#EBEBEB" d="M135.5 567.046H79.4219V567.41H135.5V567.046Z"></path>
<path fill="#EBEBEB" d="M363.361 574.928H255.867V575.292H363.361V574.928Z"></path>
<path fill="#EBEBEB" d="M220.546 567.221H143.711V567.585H220.546V567.221Z"></path>
<path fill="#EBEBEB" d="M689.554 578.118H615.867V578.483H689.554V578.118Z"></path>
<path fill="#EBEBEB" d="M609.129 578.118H560.727V578.483H609.129V578.118Z"></path>
<path fill="#EBEBEB" d="M513.578 571.97H419.695V572.335H513.578V571.97Z"></path>
<path fill="#EBEBEB" d="M358.82 492.146H66.4814C64.1912 492.142 61.9962 491.264 60.3783 489.704C58.7603 488.145 57.8516 486.031 57.8516 483.827V88.3765C57.8715 86.1853 58.789 84.0902 60.4048 82.5463C62.0207 81.0023 64.2043 80.1341 66.4814 80.1304H358.82C361.112 80.1304 363.311 81.0068 364.933 82.5669C366.554 84.1271 367.465 86.243 367.465 88.4494V483.827C367.465 486.033 366.554 488.149 364.933 489.709C363.311 491.269 361.112 492.146 358.82 492.146ZM66.4814 80.4218C64.2916 80.4256 62.1929 81.2654 60.6459 82.7568C59.0989 84.2482 58.2301 86.2693 58.2301 88.3765V483.827C58.2301 485.934 59.0989 487.955 60.6459 489.447C62.1929 490.938 64.2916 491.778 66.4814 491.782H358.82C361.011 491.778 363.111 490.938 364.66 489.448C366.21 487.957 367.082 485.935 367.086 483.827V88.3765C367.082 86.268 366.21 84.2469 364.66 82.7559C363.111 81.2649 361.011 80.4256 358.82 80.4218H66.4814Z"></path>
<path fill="#EBEBEB" d="M686.311 492.146H393.957C391.666 492.142 389.469 491.264 387.849 489.705C386.229 488.146 385.317 486.032 385.312 483.827V88.3765C385.336 86.184 386.257 84.0889 387.876 82.5453C389.494 81.0018 391.679 80.1341 393.957 80.1304H686.311C688.585 80.138 690.765 81.0078 692.378 82.5514C693.99 84.0949 694.906 86.1879 694.925 88.3765V483.827C694.925 486.028 694.019 488.14 692.404 489.699C690.789 491.258 688.598 492.138 686.311 492.146ZM393.957 80.4218C391.766 80.4256 389.666 81.2649 388.117 82.7559C386.567 84.2469 385.695 86.268 385.691 88.3765V483.827C385.695 485.935 386.567 487.957 388.117 489.448C389.666 490.938 391.766 491.778 393.957 491.782H686.311C688.502 491.778 690.602 490.938 692.152 489.448C693.701 487.957 694.573 485.935 694.577 483.827V88.3765C694.573 86.268 693.701 84.2469 692.152 82.7559C690.602 81.2649 688.502 80.4256 686.311 80.4218H393.957Z"></path>
<path fill="#F0F0F0" d="M659.531 552.637H541.439C535.93 552.637 530.647 550.531 526.751 546.782C522.856 543.034 520.667 537.949 520.667 532.648V430.548C520.667 425.246 522.856 420.162 526.751 416.413C530.647 412.665 535.93 410.559 541.439 410.559H659.531V552.637Z"></path>
<path fill="#F5F5F5" d="M658.56 552.637H660.513C671.985 552.637 681.285 543.688 681.285 532.648V430.548C681.285 419.508 671.985 410.559 660.513 410.559H658.56C647.088 410.559 637.788 419.508 637.788 430.548V532.648C637.788 543.688 647.088 552.637 658.56 552.637Z"></path>
<path fill="#F0F0F0" d="M643.706 462.964H384.934V552.637H643.706V462.964Z"></path>
<path fill="#E0E0E0" d="M656.377 557.124H273.91C273.35 557.126 272.795 557.022 272.277 556.817C271.759 556.612 271.289 556.311 270.892 555.93C270.495 555.55 270.181 555.098 269.966 554.6C269.751 554.103 269.641 553.569 269.641 553.03V552.637H541.343L660.631 553.03C660.631 554.116 660.183 555.157 659.385 555.925C658.587 556.693 657.505 557.124 656.377 557.124Z"></path>
<path fill="#E0E0E0" d="M298.619 351.612H546.672C554.354 351.612 561.721 354.548 567.152 359.775C572.584 365.002 575.635 372.091 575.635 379.483V483.23H269.641V379.483C269.641 372.091 272.692 365.002 278.124 359.775C283.555 354.548 290.922 351.612 298.603 351.612H298.619Z"></path>
<path fill="#F5F5F5" d="M318.484 351.612H569.263C576.575 351.612 583.588 354.407 588.758 359.383C593.928 364.358 596.833 371.106 596.833 378.142V483.244H290.914V378.142C290.914 371.106 293.819 364.358 298.989 359.383C304.159 354.407 311.172 351.612 318.484 351.612Z"></path>
<path fill="#E0E0E0" d="M631.338 454.776H404.632C401.162 454.776 397.835 456.102 395.382 458.463C392.929 460.824 391.551 464.025 391.551 467.364V478.713C391.551 482.052 392.929 485.253 395.382 487.614C397.835 489.975 401.162 491.301 404.632 491.301H631.338C633.831 491.301 636.299 490.828 638.601 489.91C640.904 488.992 642.996 487.646 644.757 485.949C646.519 484.252 647.916 482.238 648.869 480.022C649.821 477.805 650.31 475.43 650.308 473.031C650.308 468.19 648.31 463.546 644.752 460.123C641.194 456.699 636.369 454.776 631.338 454.776Z"></path>
<path fill="#F0F0F0" d="M384.27 552.637H266.178C260.668 552.637 255.385 550.531 251.489 546.782C247.594 543.034 245.405 537.949 245.405 532.648L245.405 430.548C245.405 425.246 247.594 420.162 251.489 416.413C255.385 412.665 260.668 410.559 266.178 410.559H384.27V552.637Z"></path>
<path fill="#F5F5F5" d="M383.287 552.637H385.24C396.712 552.637 406.012 543.688 406.012 532.648V430.548C406.012 419.508 396.712 410.559 385.24 410.559H383.287C371.814 410.559 362.514 419.508 362.514 430.548V532.648C362.514 543.688 371.814 552.637 383.287 552.637Z"></path>
<path fill="#E0E0E0" d="M607.207 134.794H500.273V286.109H607.207V134.794Z"></path>
<path fill="#F5F5F5" d="M613.642 134.794H503.195V286.109H613.642V134.794Z"></path>
<path fill="white" d="M512.445 146.711V274.177H604.391V146.711H512.445Z"></path>
<path fill="#F5F5F5" d="M546.977 216.6V226.303C549.981 226.303 552.956 225.733 555.731 224.627C558.507 223.521 561.028 221.899 563.153 219.855C565.277 217.811 566.962 215.384 568.112 212.713C569.261 210.042 569.853 207.18 569.853 204.289V194.586C566.848 194.584 563.873 195.152 561.096 196.257C558.32 197.363 555.797 198.984 553.673 201.029C551.548 203.074 549.863 205.501 548.714 208.173C547.565 210.845 546.975 213.708 546.977 216.6Z"></path>
<path fill="#F5F5F5" d="M546.977 183.877V193.58C553.043 193.576 558.859 191.256 563.148 187.128C567.438 183.001 569.849 177.404 569.853 171.566V161.849C566.848 161.849 563.872 162.419 561.095 163.526C558.319 164.633 555.796 166.256 553.672 168.302C551.547 170.347 549.862 172.776 548.714 175.448C547.565 178.121 546.975 180.985 546.977 183.877Z"></path>
<path fill="#F5F5F5" d="M546.977 249.336V259.04C553.045 259.036 558.864 256.713 563.154 252.582C567.443 248.452 569.853 242.851 569.853 237.011V227.279C566.845 227.279 563.867 227.85 561.088 228.959C558.31 230.068 555.786 231.693 553.661 233.742C551.536 235.791 549.852 238.223 548.705 240.899C547.558 243.575 546.971 246.442 546.977 249.336Z"></path>
<path fill="#EBEBEB" d="M448.387 253.474V146.711L99.1674 146.711V253.474H448.387Z"></path>
<path fill="#E0E0E0" d="M99.168 253.474V146.711H97.0635V253.474H99.168Z"></path>
<path fill="#F5F5F5" d="M431.174 163.276H116.383V236.909H431.174V163.276Z"></path>
<path fill="white" d="M191.823 236.909H165.676L186.145 163.276H212.292L191.823 236.909Z"></path>
<path fill="white" d="M216.14 236.909H201.016L221.485 163.276H236.61L216.14 236.909Z"></path>
<path fill="white" d="M347.754 236.909H332.629L353.098 163.276H368.223L347.754 236.909Z"></path>
<path fill="#E6E6E6" d="M235.152 435.02H150.504L140.027 324.353H224.69L235.152 435.02Z"></path>
<path fill="#F0F0F0" d="M239.543 435.02H154.88L144.418 324.353H229.081L239.543 435.02Z"></path>
<path fill="white" d="M166.45 422.768L158.305 336.606H217.502L225.647 422.768H166.45Z"></path>
<path fill="#E6E6E6" d="M298.607 435.02H287.207V557.11H298.607V435.02Z"></path>
<path fill="#F5F5F5" d="M302.196 435.02H294.277V557.11H302.196V435.02Z"></path>
<path fill="#F5F5F5" d="M184.346 448.497H304.648V435.02H184.346V448.497Z"></path>
<path fill="#E6E6E6" d="M179.244 448.497H167.844V557.124H179.244V448.497Z"></path>
<path fill="#F5F5F5" d="M182.844 448.497H174.926V557.124H182.844V448.497Z"></path>
<path fill="#E6E6E6" d="M107.115 448.497H95.7148V557.124H107.115V448.497Z"></path>
<path fill="#F5F5F5" d="M110.715 448.497H102.797V557.124H110.715V448.497Z"></path>
<path fill="#E6E6E6" d="M226.479 448.497H215.078V557.124H226.479V448.497Z"></path>
<path fill="#F5F5F5" d="M230.071 448.497H222.152V557.124H230.071V448.497Z"></path>
<path fill="#E6E6E6" d="M184.344 435.02H95.7148V448.497H184.344V435.02Z"></path>
<path fill="#F5F5F5" d="M378.499 622.918C540.622 622.918 672.048 615.535 672.048 606.426C672.048 597.318 540.622 589.934 378.499 589.934C216.376 589.934 84.9492 597.318 84.9492 606.426C84.9492 615.535 216.376 622.918 378.499 622.918Z"></path>
<path fill="#263238" d="M497.134 198.14C491.35 194.658 474.741 198.14 477.452 215.623C480.162 233.106 458.814 228.634 463.477 248.972C468.14 269.311 505.975 299.527 529.276 279.014C552.576 258.5 532.94 249.453 533.379 225.108C533.682 210.641 526.869 184.737 497.134 198.14Z"></path>
<path fill="#263238" d="M531.41 278.14C531.302 278.139 531.199 278.097 531.123 278.023C531.086 277.989 531.057 277.948 531.037 277.903C531.017 277.858 531.007 277.81 531.007 277.761C531.007 277.712 531.017 277.663 531.037 277.618C531.057 277.573 531.086 277.533 531.123 277.499C545.475 263.774 542.16 255.412 537.966 244.835C535.634 239.007 533.015 232.363 532.788 223.753C532.561 214.458 529.033 201.768 519.843 196.538C513.333 192.837 504.976 193.478 495.014 198.446C494.923 198.488 494.819 198.495 494.723 198.465C494.628 198.435 494.547 198.371 494.499 198.286C494.473 198.243 494.457 198.194 494.451 198.144C494.446 198.095 494.451 198.044 494.467 197.996C494.482 197.948 494.508 197.904 494.542 197.866C494.577 197.828 494.619 197.798 494.666 197.776C504.885 192.677 513.485 192.051 520.252 195.897C529.7 201.287 533.333 214.254 533.575 223.724C533.787 232.218 536.391 238.774 538.693 244.558C542.977 255.397 546.384 263.964 531.668 278.067C531.593 278.118 531.502 278.144 531.41 278.14Z"></path>
<path fill="#AD6359" d="M534.77 276.144C534.77 276.144 535.013 276.479 535.179 276.697L535.785 277.484C536.229 278.028 536.698 278.567 537.193 279.101C538.207 280.201 539.289 281.243 540.433 282.219C542.777 284.285 545.311 286.143 548.003 287.77C550.736 289.444 553.578 290.948 556.511 292.272C558.025 292.986 559.539 293.554 561.053 294.195C561.341 294.326 561.053 294.195 560.857 294.311C560.66 294.428 560.493 294.53 560.66 294.443C561.402 293.834 561.992 293.072 562.386 292.213C563.055 290.929 563.627 289.6 564.097 288.236C565.113 285.193 565.937 282.094 566.564 278.956C567.246 275.75 567.776 272.472 568.245 269.165C568.714 265.858 569.138 262.507 569.517 259.229H575.679C576.183 266.196 576.127 273.191 575.512 280.15C575.229 283.757 574.657 287.337 573.801 290.859C573.342 292.771 572.714 294.643 571.924 296.453C570.968 298.758 569.488 300.829 567.594 302.514C566.198 303.689 564.498 304.48 562.673 304.801C560.866 305.093 559.011 304.937 557.284 304.35C555.512 303.738 553.711 303.228 551.954 302.528C548.389 301.189 544.937 299.586 541.629 297.735C538.269 295.813 535.093 293.61 532.136 291.15C530.637 289.87 529.221 288.503 527.897 287.056C527.216 286.328 526.549 285.599 525.913 284.754L524.975 283.472C524.642 282.991 524.415 282.656 523.945 281.869L534.77 276.144Z"></path>
<path fill="#263238" d="M532.698 270.753C546.854 279.495 545.703 284.798 545.703 284.798L536.801 297.211C536.801 297.211 514.091 288.469 512.683 281.607C511.199 274.454 525.825 266.528 532.698 270.753Z"></path>
<path fill="white" d="M532.698 270.753C546.854 279.495 545.703 284.798 545.703 284.798L536.801 297.211C536.801 297.211 514.091 288.469 512.683 281.607C511.199 274.454 525.825 266.528 532.698 270.753Z" opacity="0.1"></path>
<path fill="#BA68C8" d="M546.553 283.574C546.817 283.753 546.996 284.025 547.053 284.33C547.109 284.635 547.039 284.95 546.856 285.206L537.772 297.75C537.683 297.878 537.567 297.988 537.433 298.073C537.298 298.157 537.147 298.215 536.989 298.242C536.83 298.269 536.668 298.266 536.511 298.231C536.355 298.197 536.207 298.132 536.077 298.041C535.946 297.953 535.835 297.84 535.749 297.71C535.664 297.58 535.606 297.435 535.58 297.283C535.553 297.131 535.558 296.976 535.593 296.826C535.629 296.676 535.696 296.534 535.789 296.409L544.873 283.865C545.059 283.616 545.338 283.446 545.652 283.392C545.966 283.338 546.289 283.403 546.553 283.574Z"></path>
<path fill="#AD6359" d="M570.517 262.084L563.492 253.052L576.967 249.715C576.967 249.715 579.707 257.757 575.226 263.658L570.517 262.084Z"></path>
<path fill="#AD6359" d="M563.871 241.95L575.089 240.129L576.967 249.715L563.492 253.051L563.871 241.95Z"></path>
<path fill="#AD6359" d="M449.715 593.838L462.554 595.033L471.728 565.982L458.89 564.788L449.715 593.838Z"></path>
<path fill="#AD6359" d="M368.039 550.903L377.562 559.499L398.122 537.762L388.599 529.166L368.039 550.903Z"></path>
<path fill="#263238" d="M381.965 555.376L374.804 542.978C374.687 542.761 374.491 542.593 374.253 542.507C374.016 542.421 373.754 542.423 373.517 542.511L362.495 546.547C362.214 546.657 361.961 546.824 361.754 547.037C361.546 547.25 361.389 547.503 361.293 547.78C361.196 548.056 361.163 548.35 361.196 548.64C361.228 548.93 361.326 549.21 361.481 549.461C364.055 553.744 365.523 555.696 368.657 561.116C370.595 564.467 374.365 572.174 377.045 576.807C379.725 581.44 384.615 579.153 383.949 576.982C380.921 567.293 381.466 561.903 382.329 557.634C382.485 556.864 382.357 556.065 381.965 555.376Z"></path>
<path fill="#263238" d="M464.086 591.26H448.507C448.229 591.265 447.96 591.355 447.74 591.518C447.519 591.68 447.358 591.906 447.281 592.163L443.889 604.022C443.81 604.303 443.799 604.598 443.858 604.883C443.916 605.169 444.043 605.437 444.228 605.667C444.413 605.897 444.651 606.083 444.923 606.21C445.196 606.336 445.495 606.401 445.797 606.397C451.278 606.397 453.882 606.397 460.725 606.397H481.664C487.356 606.397 488.537 600.861 486.206 600.365C475.608 598.122 469.552 595.019 466.297 592.061C465.697 591.525 464.904 591.238 464.086 591.26Z"></path>
<path fill="black" d="M471.729 565.997L467.006 580.959H453.773L458.891 564.802L471.729 565.997Z" opacity="0.2"></path>
<path fill="black" d="M388.598 529.166L398.121 537.776L387.523 548.98L378 540.37L388.598 529.166Z" opacity="0.2"></path>
<path fill="#263238" d="M532.701 270.753C532.701 270.753 537.848 274.119 505.222 342.331L453.852 328.651C460.498 308.749 464.101 296.351 465.964 252.396C473.57 252.882 481.13 253.899 488.583 255.441C496.498 256.979 504.29 259.058 511.898 261.662C518.991 264.344 525.935 267.378 532.701 270.753Z"></path>
<path fill="white" d="M532.701 270.753C532.701 270.753 537.848 274.119 505.222 342.331L453.852 328.651C460.498 308.749 464.101 296.351 465.964 252.396C473.57 252.882 481.13 253.899 488.583 255.441C496.498 256.979 504.29 259.058 511.898 261.662C518.991 264.344 525.935 267.378 532.701 270.753Z" opacity="0.1"></path>
<path fill="#AD6359" d="M498.179 230.775C497.573 238.395 495.227 252.017 488.595 255.441C488.595 255.441 484.735 268.072 501.48 272.72C515.666 276.639 511.911 261.662 511.911 261.662C504.099 257.51 508.883 250.152 510.397 241.906L498.179 230.775Z"></path>
<path fill="black" d="M498.104 230.79C497.619 236.894 496.03 246.918 491.957 252.367C496.681 252.818 504.069 251.434 506.249 247.996C507.327 245.586 508.203 243.096 508.868 240.551L498.104 230.79Z" opacity="0.2"></path>
<path fill="#AD6359" d="M518.955 219.746C518.955 232.276 519.182 237.594 513.02 244.368C503.74 254.567 487.752 251.784 483.891 239.488C480.424 228.43 481.06 209.796 493.475 204.099C496.202 202.831 499.222 202.256 502.246 202.428C505.27 202.6 508.198 203.514 510.752 205.082C513.305 206.65 515.399 208.821 516.835 211.387C518.271 213.954 519.001 216.832 518.955 219.746Z"></path>
<path fill="#263238" d="M492.047 212.797C499.36 222.631 523.963 236.297 525.613 223.126C527.263 209.956 514.697 196.902 502.252 198.199C489.807 199.495 485.795 204.434 492.047 212.797Z"></path>
<path fill="#AD6359" d="M524.342 231.445C523.791 232.523 523.025 233.486 522.087 234.278C521.149 235.071 520.058 235.678 518.876 236.064C515.712 237.069 513.971 234.388 514.713 231.431C515.394 228.765 517.847 225.035 521.102 225.312C521.81 225.382 522.488 225.622 523.074 226.009C523.66 226.396 524.136 226.919 524.459 227.529C524.781 228.139 524.939 228.817 524.919 229.502C524.898 230.186 524.7 230.854 524.342 231.445Z"></path>
<path fill="#BA68C8" d="M505.218 342.375C505.218 342.375 523.507 413.662 511.516 467.582C503.477 503.699 474.499 576.661 474.499 576.661L451.789 576.108C451.789 576.108 473.727 499.547 478.254 469.432C486.021 417.916 467.535 332.351 467.535 332.351L505.218 342.375Z"></path>
<path fill="black" d="M484.829 352.573L473.504 369.765C476.894 390.15 479.043 410.708 479.938 431.334C495.911 403.901 488.371 367.143 484.829 352.573Z" opacity="0.2"></path>
<path fill="#263238" d="M478.557 577.754L449.715 577.069L451.653 567.191L480.661 569.289L478.557 577.754Z"></path>
<path fill="#BA68C8" d="M493.955 339.461C493.955 339.461 483.357 417.406 460.541 461.696C442.085 497.464 392.835 548.383 392.835 548.383L380.238 535.897C380.238 535.897 413.546 480.534 427.172 456.801C460.813 398.524 431.003 346.294 453.804 328.593L493.955 339.461Z"></path>
<path fill="#263238" d="M394.109 550.087L377.863 534.833L383.253 527.782L400.967 545.396L394.109 550.087Z"></path>
<path fill="#BA68C8" d="M453.912 325.533L450.324 329.35C450.051 329.642 450.324 330.108 450.96 330.268L504.843 344.619C505.297 344.735 505.751 344.619 505.857 344.356L507.599 339.986C507.72 339.694 507.387 339.33 506.887 339.184L454.866 325.329C454.702 325.28 454.528 325.273 454.361 325.309C454.194 325.345 454.039 325.422 453.912 325.533Z"></path>
<path fill="white" d="M453.912 325.533L450.324 329.35C450.051 329.642 450.324 330.108 450.96 330.268L504.843 344.619C505.297 344.735 505.751 344.619 505.857 344.356L507.599 339.986C507.72 339.694 507.387 339.33 506.887 339.184L454.866 325.329C454.702 325.28 454.528 325.273 454.361 325.309C454.194 325.345 454.039 325.422 453.912 325.533Z" opacity="0.5"></path>
<path fill="#BA68C8" d="M459.284 332.992L457.891 332.628C457.618 332.555 457.452 332.351 457.512 332.191L459.814 326.626C459.889 326.451 460.177 326.378 460.45 326.451L461.842 326.83C462.115 326.83 462.297 327.092 462.221 327.267L459.92 332.832C459.846 332.922 459.744 332.986 459.63 333.015C459.515 333.044 459.393 333.036 459.284 332.992Z"></path>
<path fill="#BA68C8" d="M500.785 344.05L499.392 343.686C499.119 343.613 498.938 343.409 499.013 343.249L501.315 337.669C501.388 337.579 501.49 337.515 501.605 337.486C501.719 337.457 501.841 337.465 501.951 337.509L503.343 337.888C503.616 337.96 503.782 338.15 503.722 338.31L501.421 343.832C501.345 344.05 501.133 344.123 500.785 344.05Z"></path>
<path fill="#BA68C8" d="M480.041 338.529L478.648 338.15C478.361 338.15 478.194 337.888 478.255 337.727L480.571 332.147C480.571 331.987 480.919 331.914 481.192 331.987L482.585 332.351C482.872 332.351 483.039 332.628 482.978 332.788L480.662 338.368C480.601 338.529 480.314 338.602 480.041 338.529Z"></path>
<path fill="#263238" d="M499.481 224.365C499.481 225.385 499.027 226.244 498.346 226.273C497.665 226.303 497.044 225.53 496.968 224.511C496.892 223.491 497.422 222.631 498.119 222.587C498.815 222.544 499.421 223.33 499.481 224.365Z"></path>
<path fill="#263238" d="M487.505 225.02C487.505 226.04 487.051 226.9 486.354 226.944C485.658 226.987 485.067 226.186 484.992 225.166C484.916 224.146 485.446 223.287 486.142 223.258C486.839 223.228 487.505 224.015 487.505 225.02Z"></path>
<path fill="#263238" d="M486.472 223.287L483.898 222.733C483.898 222.733 485.306 224.569 486.472 223.287Z"></path>
<path fill="#ED847E" d="M490.791 226.594C489.989 228.963 488.858 231.218 487.43 233.296C487.99 233.635 488.62 233.853 489.276 233.933C489.933 234.014 490.599 233.955 491.23 233.762L490.791 226.594Z"></path>
<path fill="#263238" d="M497.118 237.229C496.489 237.386 495.844 237.479 495.195 237.506C495.161 237.51 495.126 237.508 495.093 237.498C495.06 237.488 495.029 237.471 495.004 237.449C494.978 237.427 494.957 237.4 494.943 237.37C494.929 237.339 494.922 237.306 494.922 237.273C494.92 237.241 494.925 237.208 494.936 237.177C494.947 237.146 494.964 237.118 494.987 237.094C495.009 237.069 495.037 237.049 495.067 237.035C495.098 237.021 495.131 237.013 495.165 237.011C496.488 236.959 497.781 236.611 498.94 235.994C500.099 235.377 501.093 234.508 501.841 233.456C501.88 233.41 501.935 233.379 501.995 233.368C502.056 233.358 502.118 233.368 502.172 233.398C502.225 233.428 502.265 233.476 502.285 233.532C502.305 233.588 502.303 233.649 502.28 233.704C501.088 235.468 499.242 236.729 497.118 237.229Z"></path>
<path fill="#263238" d="M503.434 216.92C503.348 216.941 503.258 216.94 503.173 216.917C503.088 216.894 503.011 216.85 502.949 216.789C502.399 216.23 501.717 215.806 500.961 215.552C500.205 215.299 499.397 215.223 498.604 215.332C498.47 215.355 498.332 215.329 498.217 215.258C498.103 215.188 498.019 215.079 497.983 214.953C497.956 214.824 497.982 214.69 498.055 214.578C498.128 214.467 498.244 214.387 498.377 214.356C499.336 214.208 500.319 214.284 501.241 214.578C502.163 214.872 502.998 215.376 503.676 216.046C503.77 216.143 503.822 216.27 503.822 216.403C503.822 216.535 503.77 216.663 503.676 216.76C503.609 216.831 503.526 216.886 503.434 216.92Z"></path>
<path fill="#263238" d="M482.327 218.391C482.247 218.438 482.156 218.462 482.062 218.462C481.969 218.462 481.877 218.438 481.797 218.391C481.69 218.313 481.619 218.198 481.599 218.07C481.58 217.942 481.613 217.812 481.691 217.707C482.25 216.942 482.991 216.318 483.853 215.887C484.714 215.456 485.671 215.231 486.642 215.23C486.71 215.234 486.776 215.25 486.837 215.279C486.898 215.307 486.952 215.347 486.998 215.395C487.043 215.444 487.077 215.501 487.099 215.563C487.121 215.624 487.131 215.689 487.127 215.754C487.123 215.82 487.106 215.883 487.076 215.942C487.047 216.001 487.005 216.053 486.955 216.096C486.904 216.14 486.845 216.173 486.781 216.194C486.717 216.216 486.649 216.225 486.582 216.221C485.784 216.233 485 216.427 484.295 216.786C483.589 217.146 482.983 217.661 482.524 218.29C482.467 218.337 482.4 218.372 482.327 218.391Z"></path>
<path fill="#AD6359" d="M467.175 271.176C465.858 273.099 464.662 274.643 463.314 276.275C461.967 277.906 460.65 279.436 459.257 280.951C456.463 283.997 453.491 286.886 450.354 289.606C447.236 292.379 443.928 294.949 440.453 297.298C438.742 298.522 436.91 299.585 435.124 300.693L432.323 302.237L430.93 302.995C430.415 303.257 429.749 303.606 429.113 303.854C426.307 305.075 423.189 305.471 420.15 304.991C417.282 304.469 414.601 303.245 412.368 301.436C410.483 299.922 408.822 298.167 407.432 296.22C406.151 294.451 405.012 292.591 404.026 290.654C400.434 283.316 397.956 275.52 396.668 267.504L402.724 266.164C403.981 269.631 405.389 273.23 406.978 276.595C408.467 279.96 410.224 283.208 412.232 286.313C413.906 289.122 416.127 291.595 418.772 293.597C419.653 294.246 420.699 294.654 421.8 294.778C422.763 294.817 423.718 294.595 424.556 294.137C424.848 293.993 425.132 293.832 425.404 293.656L426.585 292.927L428.931 291.47C430.445 290.392 431.959 289.387 433.473 288.236C436.455 285.989 439.315 283.596 442.043 281.068C444.813 278.548 447.402 275.852 449.9 273.084C451.157 271.7 452.383 270.301 453.564 268.874C454.745 267.446 455.926 265.96 456.88 264.649L467.175 271.176Z"></path>
<path fill="#AD6359" d="M403.89 271.54L405.222 257.947L392.52 262.944C392.52 262.944 394.034 269.777 398.878 272.225L403.89 271.54Z"></path>
<path fill="#AD6359" d="M401.162 250.604L391.336 248.55L392.517 262.944L405.219 257.947L401.162 250.604Z"></path>
<path fill="#263238" d="M465.977 252.396C459.361 252.396 443.434 276.697 443.434 276.697L454.683 287.915C454.683 287.915 475.879 274.162 476.711 266.062C477.438 259.098 474.395 252.469 465.977 252.396Z"></path>
<path fill="white" d="M465.977 252.396C459.361 252.396 443.434 276.697 443.434 276.697L454.683 287.915C454.683 287.915 475.879 274.162 476.711 266.062C477.438 259.098 474.395 252.469 465.977 252.396Z" opacity="0.1"></path>
<path fill="#BA68C8" d="M455.712 288.469C455.485 288.687 455.177 288.81 454.857 288.81C454.536 288.81 454.228 288.687 454.001 288.469L442.631 277.746C442.405 277.528 442.277 277.232 442.277 276.923C442.277 276.614 442.405 276.318 442.631 276.1C442.861 275.881 443.171 275.758 443.494 275.758C443.817 275.758 444.127 275.881 444.357 276.1L455.712 286.808C455.939 287.029 456.067 287.328 456.067 287.639C456.067 287.95 455.939 288.248 455.712 288.469Z"></path>
<path fill="#BA68C8" d="M384.554 562.049C384.969 562.038 385.369 561.895 385.689 561.641C385.841 561.547 385.963 561.414 386.041 561.257C386.118 561.1 386.149 560.925 386.129 560.752C385.992 559.179 381.844 557.037 381.36 556.789C381.319 556.765 381.271 556.752 381.223 556.752C381.175 556.752 381.128 556.765 381.087 556.789C381.045 556.818 381.013 556.859 380.997 556.906C380.98 556.953 380.98 557.004 380.996 557.051C381.465 558.654 382.51 561.422 384.024 561.932C384.192 562.001 384.372 562.041 384.554 562.049ZM381.526 557.518C383.04 558.304 385.402 559.82 385.478 560.796C385.488 560.884 385.47 560.972 385.427 561.05C385.384 561.128 385.317 561.192 385.235 561.233C385.082 561.371 384.894 561.468 384.689 561.514C384.484 561.56 384.271 561.554 384.07 561.495C383.252 561.204 382.313 559.732 381.526 557.518Z"></path>
<path fill="#BA68C8" d="M385.111 558.144C385.766 558.192 386.42 558.033 386.974 557.692C387.156 557.548 387.28 557.346 387.324 557.123C387.368 556.899 387.33 556.668 387.216 556.469C387.136 556.259 387.007 556.07 386.839 555.916C386.671 555.762 386.468 555.647 386.247 555.58C384.475 554.983 381.175 556.716 381.039 556.789C380.999 556.812 380.967 556.844 380.943 556.882C380.919 556.92 380.905 556.963 380.902 557.008C380.902 557.051 380.913 557.093 380.934 557.132C380.956 557.17 380.986 557.202 381.023 557.226C382.297 557.823 383.694 558.136 385.111 558.144ZM385.369 555.944C385.611 555.944 385.852 555.983 386.08 556.061C386.23 556.103 386.368 556.18 386.481 556.284C386.594 556.387 386.68 556.516 386.731 556.658C386.898 557.037 386.731 557.212 386.64 557.314C385.868 557.94 383.143 557.59 381.735 557.008C382.862 556.428 384.097 556.067 385.369 555.944Z"></path>
<path fill="#BA68C8" d="M470.989 593.678C472.048 593.754 473.105 593.515 474.017 592.993C474.252 592.824 474.443 592.604 474.575 592.351C474.706 592.098 474.774 591.819 474.774 591.537C474.794 591.39 474.77 591.242 474.706 591.108C474.641 590.974 474.539 590.86 474.411 590.779C473.003 589.847 467.341 592.352 466.705 592.644C466.653 592.666 466.611 592.703 466.583 592.75C466.556 592.798 466.545 592.852 466.553 592.906C466.559 592.956 466.581 593.003 466.617 593.039C466.652 593.076 466.699 593.101 466.75 593.11C468.139 593.442 469.56 593.633 470.989 593.678ZM473.472 591.099C473.693 591.086 473.913 591.131 474.108 591.231C474.184 591.231 474.26 591.362 474.245 591.566C474.242 591.766 474.189 591.963 474.092 592.141C473.995 592.318 473.855 592.47 473.684 592.586C472.413 593.518 469.309 593.125 467.628 592.833C469.469 591.963 471.442 591.378 473.472 591.099Z"></path>
<path fill="#BA68C8" d="M466.793 593.168H466.884C468.595 592.498 472.153 589.745 471.956 588.375C471.956 588.084 471.714 587.719 470.942 587.632C467.914 587.297 466.596 592.644 466.536 592.877C466.527 592.922 466.531 592.969 466.547 593.012C466.563 593.056 466.59 593.095 466.627 593.125C466.677 593.154 466.735 593.169 466.793 593.168ZM470.669 588.098H470.851C471.381 588.098 471.411 588.346 471.426 588.419C471.547 589.293 469.004 591.522 467.157 592.454C467.565 591.216 468.716 588.098 470.669 588.098Z"></path>
<path fill="#263238" d="M498.425 222.617L495.852 222.063C495.852 222.063 497.26 223.899 498.425 222.617Z"></path>
<path fill="#BA68C8" d="M230.907 599.801L402.14 585.414C413.769 584.437 422.372 574.573 421.357 563.383L385.692 170.317C384.677 159.127 374.427 150.847 362.799 151.825L191.566 166.212C179.937 167.189 171.334 177.052 172.349 188.242L208.013 581.308C209.029 592.498 219.278 600.778 230.907 599.801Z"></path>
<path fill="#BA68C8" d="M185.164 304.335C186.751 304.191 188.214 303.451 189.237 302.275C190.26 301.1 190.76 299.584 190.63 298.056L185.921 246.219C185.775 244.692 185.01 243.283 183.791 242.296C182.573 241.309 180.999 240.823 179.411 240.945C177.822 241.085 176.355 241.824 175.329 243C174.303 244.175 173.8 245.694 173.93 247.224L178.654 299.061C178.8 300.587 179.566 301.997 180.784 302.984C182.003 303.971 183.576 304.456 185.164 304.335Z"></path>
<path fill="#263238" d="M394.302 263.335L396.398 263.159C398.856 262.952 400.674 260.868 400.459 258.503L397.586 226.834C397.371 224.469 395.205 222.72 392.748 222.926L390.651 223.102C388.194 223.309 386.376 225.393 386.59 227.758L389.464 259.427C389.679 261.792 391.845 263.541 394.302 263.335Z"></path>
<path fill="#263238" d="M396.761 316.649L398.866 316.467C401.332 316.253 403.152 314.156 402.93 311.782L399.957 279.992C399.735 277.618 397.555 275.867 395.089 276.081L392.984 276.263C390.517 276.477 388.698 278.574 388.92 280.948L391.893 312.738C392.115 315.111 394.295 316.862 396.761 316.649Z"></path>
<path fill="#263238" d="M234.505 599.489L405.738 585.102C417.366 584.125 425.97 574.262 424.955 563.072L389.29 170.005C388.275 158.815 378.025 150.536 366.396 151.513L195.163 165.9C183.535 166.877 174.931 176.741 175.946 187.931L211.611 580.997C212.626 592.187 222.876 600.466 234.505 599.489Z"></path>
<path fill="#BA68C8" d="M217.642 575.015L417.869 558.188C418.915 558.095 419.881 557.608 420.556 556.833C421.231 556.058 421.56 555.058 421.472 554.05L387.589 180.206C387.493 179.202 386.989 178.274 386.187 177.625C385.385 176.976 384.349 176.657 383.304 176.738L183.002 193.58C182.485 193.624 181.982 193.766 181.522 193.997C181.062 194.228 180.654 194.544 180.32 194.927C179.987 195.31 179.736 195.752 179.58 196.228C179.425 196.705 179.368 197.206 179.414 197.703L213.358 571.562C213.401 572.06 213.547 572.545 213.787 572.989C214.026 573.433 214.354 573.826 214.753 574.147C215.151 574.468 215.611 574.71 216.107 574.859C216.603 575.008 217.125 575.061 217.642 575.015Z" opacity="0.4"></path>
<path fill="#BA68C8" d="M356.838 178.967L331.675 565.429L289.828 568.954L314.991 182.479L356.838 178.967Z" opacity="0.3"></path>
<path fill="white" d="M302.988 166.565L260.228 170.157C259.237 170.241 258.504 171.082 258.59 172.035L258.742 173.705C258.828 174.658 259.702 175.364 260.693 175.281L303.453 171.688C304.444 171.605 305.177 170.764 305.091 169.81L304.939 168.141C304.853 167.187 303.979 166.482 302.988 166.565Z" opacity="0.2"></path>
<path fill="#BA68C8" d="M263.134 316.325H471.476C476.888 316.341 482.073 318.416 485.9 322.099C489.727 325.781 491.884 330.771 491.9 335.979V434.321C491.884 439.53 489.727 444.522 485.901 448.206C482.075 451.891 476.889 453.97 471.476 453.989H399.379L367.297 484.861L335.216 453.989H263.134C257.718 453.974 252.529 451.897 248.699 448.212C244.87 444.526 242.711 439.532 242.695 434.321V335.979C242.711 330.769 244.87 325.777 248.7 322.094C252.53 318.411 257.72 316.337 263.134 316.325Z"></path>
<path fill="white" d="M263.134 316.325H471.476C476.888 316.341 482.073 318.416 485.9 322.099C489.727 325.781 491.884 330.771 491.9 335.979V434.321C491.884 439.53 489.727 444.522 485.901 448.206C482.075 451.891 476.889 453.97 471.476 453.989H399.379L367.297 484.861L335.216 453.989H263.134C257.718 453.974 252.529 451.897 248.699 448.212C244.87 444.526 242.711 439.532 242.695 434.321V335.979C242.711 330.769 244.87 325.777 248.7 322.094C252.53 318.411 257.72 316.337 263.134 316.325Z" opacity="0.3"></path>
<path fill="white" d="M276.489 350.403V419.897C276.464 422.592 277.55 425.187 279.507 427.114C281.464 429.041 284.135 430.145 286.935 430.183H447.662C450.462 430.145 453.132 429.041 455.09 427.114C457.047 425.187 458.132 422.592 458.108 419.897V350.403C458.107 349.086 457.85 347.782 457.351 346.556C456.589 344.674 455.259 343.055 453.532 341.908C451.805 340.76 449.76 340.136 447.662 340.117H286.935C284.838 340.135 282.795 340.759 281.07 341.907C279.345 343.055 278.018 344.674 277.261 346.556C276.748 347.778 276.485 349.085 276.489 350.403Z"></path>
<path fill="black" d="M277.262 346.556L354.96 379.118C358.854 380.755 363.058 381.599 367.307 381.599C371.556 381.599 375.759 380.755 379.654 379.118L457.352 346.556C456.59 344.674 455.26 343.055 453.533 341.908C451.806 340.76 449.761 340.136 447.662 340.117H286.936C284.839 340.135 282.796 340.759 281.071 341.907C279.346 343.055 278.019 344.674 277.262 346.556Z" opacity="0.1"></path>
<path fill="#BA68C8" d="M433.566 139.747C432.488 139.739 431.449 139.362 430.634 138.684C429.818 138.006 429.28 137.071 429.115 136.047C427.037 122.912 419.633 111.106 408.525 103.216C397.417 95.3265 383.512 91.9966 369.857 93.9565C368.748 93.9845 367.667 93.6214 366.818 92.9355C365.968 92.2496 365.409 91.2884 365.245 90.2331C365.081 89.1778 365.324 88.1012 365.928 87.2064C366.532 86.3115 367.456 85.6602 368.524 85.3753C384.542 83.0774 400.854 86.9864 413.881 96.2451C426.908 105.504 435.588 119.356 438.017 134.765C438.182 135.899 437.879 137.051 437.171 137.972C436.463 138.893 435.408 139.509 434.232 139.689C434.012 139.729 433.789 139.749 433.566 139.747Z"></path>
<path fill="#BA68C8" d="M411.174 142.982C410.098 142.974 409.061 142.599 408.246 141.924C407.431 141.249 406.891 140.318 406.722 139.296C405.553 131.869 401.37 125.193 395.092 120.73C388.814 116.267 380.953 114.383 373.233 115.49C372.123 115.522 371.039 115.161 370.187 114.477C369.334 113.792 368.772 112.831 368.606 111.774C368.44 110.717 368.682 109.639 369.286 108.742C369.89 107.846 370.815 107.193 371.885 106.908C381.97 105.459 392.241 107.918 400.444 113.747C408.647 119.575 414.112 128.297 415.64 137.999C415.81 139.136 415.508 140.291 414.8 141.215C414.091 142.139 413.034 142.758 411.855 142.938C411.629 142.967 411.401 142.982 411.174 142.982Z"></path>
<path fill="#BA68C8" d="M388.799 146.231C387.722 146.222 386.682 145.845 385.867 145.167C385.051 144.49 384.513 143.555 384.348 142.53C384.217 141.678 383.912 140.859 383.451 140.12C382.99 139.382 382.381 138.738 381.661 138.227C380.941 137.715 380.123 137.345 379.253 137.139C378.384 136.932 377.481 136.893 376.596 137.023C375.498 137.037 374.431 136.668 373.593 135.983C372.756 135.299 372.205 134.345 372.042 133.3C371.88 132.254 372.116 131.187 372.709 130.296C373.301 129.406 374.209 128.752 375.264 128.456C377.325 128.157 379.426 128.253 381.448 128.739C383.47 129.224 385.372 130.09 387.046 131.285C388.719 132.481 390.129 133.983 391.197 135.705C392.264 137.428 392.967 139.336 393.265 141.321C393.431 142.455 393.127 143.607 392.419 144.528C391.711 145.449 390.656 146.065 389.48 146.245C389.253 146.262 389.025 146.257 388.799 146.231Z"></path>
</svg>
