<svg width="671" height="671" viewBox="0 0 671 671" fill="none" xmlns="http://www.w3.org/2000/svg">
<path d="M55.5857 399.54L66.0667 393.488C66.0667 393.488 72.307 367.547 69.8243 344.223C66.3217 311.411 44.7289 299.065 36.5158 301.896C28.3028 304.728 25.9275 314.27 39.5219 333.809C47.5337 345.337 57.3839 369.345 55.5857 399.54Z" fill="#BA68C8"/>
<g opacity="0.65">
<path opacity="0.65" d="M55.5857 399.54L66.0667 393.488C66.0667 393.488 72.307 367.547 69.8243 344.223C66.3217 311.411 44.7289 299.065 36.5158 301.896C28.3028 304.728 25.9275 314.27 39.5219 333.809C47.5337 345.337 57.3839 369.345 55.5857 399.54Z" fill="white"/>
</g>
<path d="M59.9338 386.805H59.8265C59.6379 386.769 59.4713 386.66 59.3631 386.501C59.2549 386.343 59.214 386.148 59.2494 385.959C64.9932 355.63 54.4316 321.678 41.3337 307.533C41.2038 307.39 41.1358 307.202 41.1446 307.01C41.1534 306.817 41.2383 306.636 41.3807 306.506C41.523 306.376 41.7112 306.308 41.9037 306.317C42.0962 306.326 42.2774 306.411 42.4073 306.553C55.7334 320.953 66.5633 355.509 60.6719 386.214C60.6399 386.385 60.5478 386.538 60.4124 386.646C60.277 386.755 60.1071 386.811 59.9338 386.805Z" fill="white"/>
<path d="M29.1883 414.772C27.6316 415.577 23.458 412.007 22.3039 411.149C20.3162 409.637 18.7498 407.641 17.7545 405.351C16.6324 402.756 16.3508 399.875 16.9493 397.111C17.2694 395.652 17.6909 394.217 18.2108 392.817C18.6805 391.475 19.1502 390.052 19.6333 388.657C20.1934 387.318 20.4765 385.88 20.4653 384.429C20.2372 381.531 17.7813 379.383 15.5402 377.518C13.0575 375.451 10.5077 372.781 10.6956 369.305C11.0213 366.615 12.2295 364.109 14.1311 362.179C15.8891 360.166 17.9558 358.395 19.5796 356.261C20.8466 354.755 21.5573 352.86 21.5926 350.893C21.4933 349.691 21.1509 348.522 20.5861 347.457C19.2829 345.234 18.1609 342.909 17.2311 340.506C16.5199 338.036 16.7883 335.017 18.7744 333.366C19.6562 332.781 20.6446 332.376 21.6831 332.173C22.7216 331.971 23.7899 331.975 24.8268 332.185C26.7879 332.529 28.6512 333.294 30.2888 334.426C35.6568 337.768 38.475 344.465 44.2053 347.122C46.4908 347.959 48.8259 348.653 51.1971 349.202C52.385 349.487 53.5006 350.016 54.4732 350.756C55.4458 351.495 56.2541 352.428 56.847 353.496C58.7794 357.898 54.5253 362.998 55.8002 367.627C56.9409 371.653 60.779 373.465 62.792 377.209C63.6153 378.871 63.8835 380.752 63.557 382.577C63.2099 385.652 62.3001 388.636 60.873 391.381C59.271 394.2 57.5008 396.92 55.5721 399.527C55.5721 399.527 29.4299 414.678 29.1883 414.772Z" fill="#BA68C8"/>
<g opacity="0.3">
<path opacity="0.3" d="M29.1883 414.772C27.6316 415.577 23.458 412.007 22.3039 411.149C20.3162 409.637 18.7498 407.641 17.7545 405.351C16.6324 402.756 16.3508 399.875 16.9493 397.111C17.2694 395.652 17.6909 394.217 18.2108 392.817C18.6805 391.475 19.1502 390.052 19.6333 388.657C20.1934 387.318 20.4765 385.88 20.4653 384.429C20.2372 381.531 17.7813 379.383 15.5402 377.518C13.0575 375.451 10.5077 372.781 10.6956 369.305C11.0213 366.615 12.2295 364.109 14.1311 362.179C15.8891 360.166 17.9558 358.395 19.5796 356.261C20.8466 354.755 21.5573 352.86 21.5926 350.893C21.4933 349.691 21.1509 348.522 20.5861 347.457C19.2829 345.234 18.1609 342.909 17.2311 340.506C16.5199 338.036 16.7883 335.017 18.7744 333.366C19.6562 332.781 20.6446 332.376 21.6831 332.173C22.7216 331.971 23.7899 331.975 24.8268 332.185C26.7879 332.529 28.6512 333.294 30.2888 334.426C35.6568 337.768 38.475 344.465 44.2053 347.122C46.4908 347.959 48.8259 348.653 51.1971 349.202C52.385 349.487 53.5006 350.016 54.4732 350.756C55.4458 351.495 56.2541 352.428 56.847 353.496C58.7794 357.898 54.5253 362.998 55.8002 367.627C56.9409 371.653 60.779 373.465 62.792 377.209C63.6153 378.871 63.8835 380.752 63.557 382.577C63.2099 385.652 62.3001 388.636 60.873 391.381C59.271 394.2 57.5008 396.92 55.5721 399.527C55.5721 399.527 29.4299 414.678 29.1883 414.772Z" fill="white"/>
</g>
<path d="M44.3663 406.868C44.1834 406.851 44.0147 406.762 43.8966 406.621C43.7785 406.481 43.7206 406.299 43.7356 406.116C46.2451 378.9 34.9186 348.142 26.0077 338.922C25.8814 338.79 25.8125 338.614 25.8163 338.431C25.8201 338.249 25.8962 338.076 26.0279 337.949C26.1596 337.823 26.3361 337.754 26.5185 337.758C26.701 337.761 26.8745 337.838 27.0008 337.969C36.0862 347.363 47.6542 378.645 45.1044 406.237C45.0976 406.327 45.0731 406.415 45.0323 406.495C44.9915 406.576 44.9352 406.647 44.8666 406.706C44.798 406.764 44.7184 406.809 44.6326 406.837C44.5467 406.864 44.4562 406.875 44.3663 406.868Z" fill="white"/>
<path d="M41.669 373.318H41.4677C35.0958 371.193 28.5132 369.762 21.8343 369.05C21.7448 369.043 21.6576 369.019 21.5778 368.978C21.498 368.937 21.4272 368.88 21.3697 368.811C21.3121 368.743 21.2689 368.663 21.2427 368.577C21.2165 368.491 21.2077 368.401 21.2169 368.312C21.2198 368.219 21.2421 368.128 21.2825 368.045C21.3229 367.962 21.3805 367.888 21.4515 367.828C21.5224 367.769 21.6052 367.725 21.6942 367.7C21.7833 367.674 21.8768 367.668 21.9685 367.681C28.7594 368.378 35.4548 369.809 41.9374 371.949C42.0863 372.011 42.2091 372.123 42.285 372.265C42.3608 372.407 42.3849 372.572 42.3533 372.73C42.3217 372.888 42.2362 373.03 42.1114 373.133C41.9867 373.235 41.8303 373.291 41.669 373.291V373.318Z" fill="white"/>
<path d="M615.414 399.54L604.933 393.488C604.933 393.488 598.693 367.547 601.176 344.223C604.678 311.411 626.271 299.065 634.484 301.896C642.697 304.728 645.072 314.27 631.478 333.809C623.466 345.337 613.616 369.345 615.414 399.54Z" fill="#BA68C8"/>
<g opacity="0.65">
<path opacity="0.65" d="M615.414 399.54L604.933 393.488C604.933 393.488 598.693 367.547 601.176 344.223C604.678 311.411 626.271 299.065 634.484 301.896C642.697 304.728 645.072 314.27 631.478 333.809C623.466 345.337 613.616 369.345 615.414 399.54Z" fill="white"/>
</g>
<path d="M611.066 386.805H611.174C611.362 386.769 611.529 386.66 611.637 386.501C611.745 386.343 611.786 386.148 611.751 385.959C606.007 355.697 616.569 321.691 629.666 307.546C629.796 307.404 629.864 307.216 629.856 307.023C629.847 306.831 629.762 306.65 629.619 306.52C629.477 306.39 629.289 306.322 629.096 306.33C628.904 306.339 628.723 306.424 628.593 306.567C615.267 320.966 604.437 355.523 610.328 386.228C610.363 386.396 610.456 386.546 610.591 386.652C610.727 386.757 610.895 386.812 611.066 386.805Z" fill="white"/>
<path d="M641.811 414.772C643.368 415.577 647.542 412.007 648.696 411.149C650.683 409.637 652.25 407.641 653.245 405.351C654.367 402.756 654.649 399.875 654.05 397.111C653.73 395.652 653.309 394.217 652.789 392.817C652.319 391.475 651.849 390.052 651.366 388.657C650.806 387.318 650.523 385.88 650.534 384.429C650.762 381.531 653.218 379.383 655.459 377.518C657.942 375.451 660.492 372.781 660.304 369.305C659.978 366.615 658.77 364.109 656.869 362.179C655.11 360.166 653.044 358.395 651.42 356.261C650.153 354.755 649.442 352.86 649.407 350.893C649.506 349.691 649.849 348.522 650.413 347.457C651.717 345.234 652.839 342.909 653.768 340.506C654.48 338.036 654.211 335.017 652.225 333.366C651.343 332.781 650.355 332.376 649.317 332.173C648.278 331.971 647.21 331.975 646.173 332.185C644.212 332.529 642.348 333.294 640.711 334.426C635.343 337.768 632.525 344.465 626.794 347.122C624.509 347.959 622.174 348.653 619.802 349.202C618.615 349.487 617.499 350.016 616.526 350.756C615.554 351.495 614.746 352.428 614.153 353.496C612.22 357.898 616.474 362.998 615.199 367.627C614.059 371.653 610.221 373.465 608.208 377.209C607.384 378.871 607.116 380.752 607.443 382.577C607.79 385.652 608.7 388.636 610.127 391.381C611.729 394.2 613.499 396.92 615.428 399.527C615.428 399.527 641.57 414.678 641.811 414.772Z" fill="#BA68C8"/>
<g opacity="0.3">
<path opacity="0.3" d="M641.811 414.772C643.368 415.577 647.542 412.007 648.696 411.149C650.683 409.637 652.25 407.641 653.245 405.351C654.367 402.756 654.649 399.875 654.05 397.111C653.73 395.652 653.309 394.217 652.789 392.817C652.319 391.475 651.849 390.052 651.366 388.657C650.806 387.318 650.523 385.88 650.534 384.429C650.762 381.531 653.218 379.383 655.459 377.518C657.942 375.451 660.492 372.781 660.304 369.305C659.978 366.615 658.77 364.109 656.869 362.179C655.11 360.166 653.044 358.395 651.42 356.261C650.153 354.755 649.442 352.86 649.407 350.893C649.506 349.691 649.849 348.522 650.413 347.457C651.717 345.234 652.839 342.909 653.768 340.506C654.48 338.036 654.211 335.017 652.225 333.366C651.343 332.781 650.355 332.376 649.317 332.173C648.278 331.971 647.21 331.975 646.173 332.185C644.212 332.529 642.348 333.294 640.711 334.426C635.343 337.768 632.525 344.465 626.794 347.122C624.509 347.959 622.174 348.653 619.802 349.202C618.615 349.487 617.499 350.016 616.526 350.756C615.554 351.495 614.746 352.428 614.153 353.496C612.22 357.898 616.474 362.998 615.199 367.627C614.059 371.653 610.221 373.465 608.208 377.209C607.384 378.871 607.116 380.752 607.443 382.577C607.79 385.652 608.7 388.636 610.127 391.381C611.729 394.2 613.499 396.92 615.428 399.527C615.428 399.527 641.57 414.678 641.811 414.772Z" fill="white"/>
</g>
<path d="M626.633 406.868C626.816 406.851 626.985 406.762 627.103 406.621C627.221 406.481 627.279 406.299 627.264 406.116C624.755 378.9 636.081 348.142 644.992 338.922C645.118 338.79 645.187 338.614 645.183 338.431C645.18 338.249 645.104 338.076 644.972 337.949C644.84 337.823 644.664 337.754 644.481 337.758C644.299 337.761 644.125 337.838 643.999 337.969C634.914 347.363 623.346 378.645 625.895 406.237C625.902 406.327 625.927 406.415 625.967 406.495C626.008 406.576 626.065 406.647 626.133 406.706C626.202 406.764 626.281 406.809 626.367 406.837C626.453 406.864 626.543 406.875 626.633 406.868Z" fill="white"/>
<path d="M629.398 373.318H629.599C635.95 371.198 642.509 369.767 649.166 369.05C649.255 369.043 649.342 369.019 649.422 368.978C649.502 368.937 649.573 368.88 649.63 368.811C649.688 368.743 649.731 368.663 649.757 368.577C649.783 368.491 649.792 368.401 649.783 368.312C649.78 368.219 649.758 368.128 649.717 368.045C649.677 367.962 649.619 367.888 649.548 367.828C649.477 367.769 649.395 367.725 649.306 367.7C649.217 367.674 649.123 367.668 649.031 367.681C642.241 368.378 635.545 369.809 629.062 371.949C628.914 372.011 628.791 372.123 628.715 372.265C628.639 372.407 628.615 372.572 628.647 372.73C628.678 372.888 628.764 373.03 628.888 373.133C629.013 373.235 629.17 373.291 629.331 373.291L629.398 373.318Z" fill="white"/>
<path d="M335.5 662.21C515.129 662.21 660.747 578.135 660.747 474.424C660.747 370.712 515.129 286.638 335.5 286.638C155.871 286.638 10.2527 370.712 10.2527 474.424C10.2527 578.135 155.871 662.21 335.5 662.21Z" fill="#F5F5F5"/>
<path d="M260.617 506.941L353.389 453.381L238.782 387.221L146.01 440.78L260.617 506.941Z" fill="#E0E0E0"/>
<path d="M393.555 623.654L479.886 573.812L393.555 523.971L307.238 573.812L393.555 623.654Z" fill="#E0E0E0"/>
<path d="M525.273 551.602C566.867 551.602 600.586 532.135 600.586 508.121C600.586 484.108 566.867 464.641 525.273 464.641C483.678 464.641 449.959 484.108 449.959 508.121C449.959 532.135 483.678 551.602 525.273 551.602Z" fill="#E0E0E0"/>
<path d="M133.583 559.319C186.028 559.319 228.543 534.775 228.543 504.498C228.543 474.221 186.028 449.677 133.583 449.677C81.1378 449.677 38.6228 474.221 38.6228 504.498C38.6228 534.775 81.1378 559.319 133.583 559.319Z" fill="#E0E0E0"/>
<path d="M27.8332 125.155C27.6731 125.156 27.5156 125.114 27.377 125.034C27.2335 124.954 27.1142 124.838 27.0315 124.696C26.9489 124.554 26.9059 124.393 26.9073 124.229V93.5642C26.9059 93.4001 26.9489 93.2388 27.0315 93.0971C27.1142 92.9554 27.2335 92.8386 27.377 92.759L53.7607 77.5273C53.9 77.4418 54.0602 77.3966 54.2237 77.3966C54.3871 77.3966 54.5473 77.4418 54.6867 77.5273C54.8267 77.6096 54.9425 77.7274 55.0226 77.8688C55.1027 78.0101 55.1442 78.17 55.1429 78.3324V109.011C55.1433 109.173 55.0998 109.332 55.0171 109.471C54.9344 109.611 54.8156 109.725 54.6732 109.802L28.3029 125.034C28.159 125.113 27.9975 125.155 27.8332 125.155ZM28.7592 94.0875V122.632L53.291 108.474V79.9294L28.7592 94.0875Z" fill="#E0E0E0"/>
<path d="M27.8332 177.292C27.671 177.295 27.5117 177.248 27.377 177.157C27.2346 177.08 27.1158 176.966 27.0331 176.826C26.9504 176.687 26.9069 176.528 26.9073 176.366V145.687C26.9059 145.523 26.9489 145.362 27.0315 145.22C27.1142 145.079 27.2335 144.962 27.377 144.882L53.7607 129.651C53.9023 129.572 54.0616 129.531 54.2237 129.531C54.3857 129.531 54.545 129.572 54.6867 129.651C54.8267 129.733 54.9425 129.851 55.0226 129.992C55.1027 130.133 55.1442 130.293 55.1429 130.456V161.134C55.1428 161.298 55.0993 161.458 55.0168 161.6C54.9343 161.741 54.8157 161.858 54.6732 161.939L28.3029 177.144C28.1641 177.238 28.0009 177.289 27.8332 177.292ZM28.7592 146.278V174.809L53.291 160.651V132.053L28.7592 146.278Z" fill="#E0E0E0"/>
<path d="M40.703 162.946L34.5701 157.041L36.6099 152.693L40.1125 156.048L55.2369 124.054L57.8806 126.591L40.703 162.946Z" fill="#BA68C8"/>
<path d="M27.8332 229.482C27.6731 229.483 27.5156 229.441 27.3769 229.361C27.2353 229.279 27.1175 229.162 27.0352 229.021C26.9528 228.88 26.9087 228.719 26.9072 228.556V197.811C26.9073 197.647 26.9509 197.486 27.0334 197.345C27.1159 197.203 27.2344 197.086 27.3769 197.006L53.7606 181.774C53.9002 181.704 54.0552 181.67 54.2113 181.676C54.3673 181.681 54.5194 181.727 54.6533 181.807C54.7873 181.887 54.8987 182 54.9773 182.135C55.0558 182.27 55.0989 182.423 55.1026 182.579V213.257C55.104 213.421 55.061 213.583 54.9784 213.724C54.8957 213.866 54.7764 213.983 54.6329 214.062L28.3029 229.294C28.1655 229.397 28.0035 229.462 27.8332 229.482ZM28.7592 198.415V226.946L53.2909 212.788V184.189L28.7592 198.415Z" fill="#E0E0E0"/>
<path d="M642.697 125.034L616.327 109.802C616.185 109.725 616.066 109.611 615.983 109.471C615.901 109.332 615.857 109.173 615.857 109.011V78.3324C615.856 78.17 615.898 78.0101 615.978 77.8688C616.058 77.7274 616.174 77.6096 616.314 77.5273C616.453 77.4418 616.613 77.3966 616.777 77.3966C616.94 77.3966 617.1 77.4418 617.24 77.5273L643.623 92.759C643.767 92.8386 643.886 92.9554 643.969 93.0971C644.052 93.2388 644.094 93.4001 644.093 93.5642V124.229C644.094 124.393 644.052 124.554 643.969 124.696C643.886 124.838 643.767 124.954 643.623 125.034C643.485 125.114 643.327 125.156 643.167 125.155C643.003 125.155 642.841 125.113 642.697 125.034ZM617.709 79.9294V108.474L642.241 122.632V94.0875L617.709 79.9294Z" fill="#E0E0E0"/>
<path d="M642.697 177.144L616.327 161.926C616.185 161.845 616.066 161.728 615.984 161.586C615.901 161.445 615.858 161.284 615.857 161.12V130.456C615.856 130.293 615.898 130.133 615.978 129.992C616.058 129.851 616.174 129.733 616.314 129.651C616.455 129.572 616.615 129.531 616.777 129.531C616.939 129.531 617.098 129.572 617.24 129.651L643.623 144.936C643.767 145.016 643.886 145.132 643.969 145.274C644.052 145.416 644.094 145.577 644.093 145.741V176.419C644.093 176.581 644.05 176.74 643.967 176.88C643.885 177.019 643.766 177.134 643.623 177.211C643.489 177.301 643.329 177.348 643.167 177.345C642.994 177.327 642.83 177.257 642.697 177.144ZM617.709 132.053V160.597L642.241 174.755V146.278L617.709 132.053Z" fill="#E0E0E0"/>
<path d="M642.697 229.294L616.327 214.062C616.184 213.983 616.064 213.866 615.982 213.724C615.899 213.583 615.856 213.421 615.857 213.257V182.579C615.861 182.423 615.904 182.27 615.983 182.135C616.061 182 616.173 181.887 616.307 181.807C616.441 181.727 616.593 181.681 616.749 181.676C616.905 181.67 617.06 181.704 617.199 181.774L643.623 197.006C643.766 197.086 643.884 197.203 643.967 197.345C644.05 197.486 644.093 197.647 644.093 197.811V228.489C644.092 228.652 644.048 228.813 643.965 228.954C643.883 229.095 643.765 229.212 643.623 229.294C643.485 229.374 643.327 229.416 643.167 229.415C643.003 229.415 642.841 229.373 642.697 229.294ZM617.709 184.189V212.72L642.241 226.879V198.348L617.709 184.189Z" fill="#E0E0E0"/>
<path d="M628.727 213.204L622.594 200.213L625.426 197.502L629.519 206.225L643.852 192.403L645.905 196.684L628.727 213.204Z" fill="#BA68C8"/>
<path d="M265.918 91.256L239.534 76.0511C239.395 75.9709 239.28 75.8554 239.2 75.7164C239.119 75.5774 239.077 75.4198 239.078 75.2593V44.5812C239.079 44.4177 239.123 44.2574 239.206 44.1162C239.288 43.975 239.406 43.8577 239.547 43.776C239.689 43.6973 239.848 43.6559 240.01 43.6559C240.172 43.6559 240.332 43.6973 240.473 43.776L266.844 59.048C266.984 59.1304 267.099 59.2481 267.18 59.3895C267.26 59.5308 267.301 59.6907 267.3 59.8532V90.4776C267.301 90.64 267.26 90.8 267.18 90.9413C267.099 91.0826 266.984 91.2004 266.844 91.2828C266.701 91.3659 266.539 91.4121 266.374 91.417C266.21 91.4041 266.053 91.3486 265.918 91.256ZM240.93 46.1782V74.7225L265.448 88.8806V60.39L240.93 46.1782Z" fill="#E0E0E0"/>
<path d="M252.766 76.9368L246.633 63.9462L249.464 61.2354L253.558 69.9584L267.89 56.1358L269.943 60.4168L252.766 76.9368Z" fill="#BA68C8"/>
<path d="M306.822 114.889L280.478 99.6569C280.336 99.5795 280.217 99.4651 280.134 99.3257C280.052 99.1863 280.008 99.0272 280.009 98.8651V68.187C280.007 68.0246 280.049 67.8647 280.129 67.7233C280.209 67.582 280.325 67.4642 280.465 67.3818C280.606 67.3031 280.766 67.2618 280.928 67.2618C281.09 67.2618 281.249 67.3031 281.391 67.3818L307.775 82.6135C307.918 82.6931 308.037 82.8099 308.12 82.9516C308.203 83.0933 308.246 83.2547 308.244 83.4187V114.07C308.238 114.315 308.138 114.548 307.967 114.722C307.795 114.897 307.563 114.999 307.318 115.009C307.145 115.013 306.974 114.972 306.822 114.889ZM281.82 69.784V98.3283L306.352 112.486V83.9421L281.82 69.784Z" fill="#E0E0E0"/>
<path d="M347.685 138.494L321.315 123.276C321.173 123.195 321.054 123.078 320.972 122.937C320.889 122.795 320.846 122.635 320.845 122.471V91.7927C320.844 91.6303 320.886 91.4704 320.966 91.3291C321.046 91.1877 321.162 91.0699 321.302 90.9876C321.443 90.9088 321.603 90.8675 321.765 90.8675C321.927 90.8675 322.086 90.9088 322.228 90.9876L348.611 106.219C348.755 106.299 348.874 106.416 348.957 106.557C349.04 106.699 349.082 106.86 349.081 107.024V137.703C349.081 137.865 349.038 138.024 348.955 138.163C348.873 138.303 348.754 138.417 348.611 138.494C348.476 138.583 348.317 138.63 348.155 138.629C347.989 138.63 347.826 138.584 347.685 138.494ZM322.697 93.3897V121.934L347.229 136.092V107.561L322.697 93.3897Z" fill="#E0E0E0"/>
<path d="M243.211 216.585L169.092 436.083L163.791 439.143L237.923 219.645L243.211 216.585Z" fill="#455A64"/>
<path d="M163.791 439.143L161.174 437.64L235.293 218.129L237.923 219.645L163.791 439.143Z" fill="#263238"/>
<path d="M237.923 396.346L235.293 394.843L161.174 260.938L163.791 262.442L237.923 396.346Z" fill="#263238"/>
<path d="M169.092 259.382L243.211 393.287L237.923 396.346L163.791 262.442L169.092 259.382Z" fill="#455A64"/>
<path d="M261.771 312.901V319.02L341.19 273.164V267.058L261.771 312.901Z" fill="#455A64"/>
<path d="M261.771 312.901V319.02L161.174 260.938V254.819L261.771 312.901Z" fill="#37474F"/>
<path d="M341.19 273.164L267.071 492.675L261.771 495.721L335.903 276.224L341.19 273.164Z" fill="#455A64"/>
<path d="M261.771 495.721L259.154 494.218L333.272 274.707L335.903 276.224L261.771 495.721Z" fill="#263238"/>
<path d="M335.903 452.925L333.272 451.422L259.154 317.517L261.771 319.02L335.903 452.925Z" fill="#263238"/>
<path d="M267.071 315.961L341.19 449.865L335.903 452.925L261.771 319.02L267.071 315.961Z" fill="#455A64"/>
<path d="M240.594 98.9188L219.39 111.158C201.685 121.382 186.983 136.087 176.764 153.795C166.544 171.504 161.168 191.591 161.174 212.036V254.859L166.462 257.919L245.881 212.036V101.992L240.594 98.9188Z" fill="#BA68C8"/>
<path opacity="0.6" d="M240.594 98.9188L219.39 111.158C201.685 121.382 186.983 136.087 176.764 153.795C166.544 171.504 161.168 191.591 161.174 212.036V254.859L166.462 257.919L245.881 212.036V101.992L240.594 98.9188Z" fill="white"/>
<path opacity="0.6" d="M169.776 168.086L245.881 212.036V101.992L240.594 98.9323L219.39 111.171C196.987 124.103 179.53 144.128 169.776 168.086Z" fill="white"/>
<path d="M166.408 257.879V215.055C166.408 194.615 171.79 174.535 182.011 156.834C192.233 139.134 206.934 124.435 224.637 114.218L245.881 101.992V212.036L166.408 257.879Z" fill="#BA68C8"/>
<path opacity="0.7" d="M166.408 257.879V215.055C166.408 194.615 171.79 174.535 182.011 156.834C192.233 139.134 206.934 124.435 224.637 114.218L245.881 101.992V212.036L166.408 257.879Z" fill="white"/>
<path d="M256.483 303.735L166.462 251.759L245.881 205.917L335.903 257.879L256.483 303.735Z" fill="#BA68C8"/>
<path opacity="0.8" d="M256.483 303.735L166.462 251.759L245.881 205.917L335.903 257.879L256.483 303.735Z" fill="white"/>
<path d="M256.483 309.854V303.735L166.462 251.759V257.879L256.483 309.854Z" fill="#BA68C8"/>
<path opacity="0.6" d="M256.483 309.854V303.735L166.462 251.759V257.879L256.483 309.854Z" fill="white"/>
<path opacity="0.3" d="M196.335 254.269L233.401 275.674L281.055 248.163L243.989 226.758L196.335 254.269Z" fill="#BA68C8"/>
<path d="M196.335 252.095L233.401 273.486L281.055 245.975L243.989 224.584L196.335 252.095Z" fill="#FAFAFA"/>
<path d="M259.865 252.417C259.812 252.429 259.757 252.429 259.704 252.417L254.417 249.357C254.366 249.329 254.324 249.288 254.295 249.239C254.266 249.189 254.25 249.133 254.25 249.075C254.25 249.018 254.266 248.961 254.295 248.912C254.324 248.862 254.366 248.821 254.417 248.793L259.704 245.734C259.754 245.707 259.809 245.693 259.865 245.693C259.921 245.693 259.977 245.707 260.026 245.734L265.394 248.793C265.445 248.821 265.487 248.862 265.516 248.912C265.545 248.961 265.56 249.018 265.56 249.075C265.56 249.133 265.545 249.189 265.516 249.239C265.487 249.288 265.445 249.329 265.394 249.357L260.026 252.417C259.973 252.43 259.918 252.43 259.865 252.417ZM255.222 249.035L259.865 251.719L264.508 249.035L259.865 246.351L255.222 249.035Z" fill="#BA68C8"/>
<path d="M249.277 258.536H249.116L243.828 255.477C243.778 255.448 243.736 255.407 243.705 255.358C243.675 255.308 243.657 255.252 243.654 255.195C243.653 255.136 243.669 255.078 243.7 255.028C243.731 254.979 243.775 254.938 243.828 254.913L249.116 251.853C249.163 251.82 249.219 251.803 249.277 251.803C249.334 251.803 249.391 251.82 249.438 251.853L254.739 254.913C254.788 254.941 254.829 254.983 254.857 255.032C254.886 255.082 254.9 255.138 254.9 255.195C254.897 255.251 254.881 255.306 254.853 255.355C254.825 255.404 254.786 255.445 254.739 255.477L249.438 258.536C249.385 258.55 249.33 258.55 249.277 258.536ZM244.633 255.154L249.277 257.838L253.92 255.154L249.277 252.47L244.633 255.154Z" fill="#BA68C8"/>
<path d="M238.688 264.642C238.635 264.655 238.58 264.655 238.527 264.642L233.159 261.583C233.11 261.554 233.069 261.513 233.04 261.464C233.012 261.414 232.998 261.358 232.998 261.301C233.001 261.245 233.017 261.19 233.045 261.141C233.073 261.092 233.112 261.05 233.159 261.019L238.527 257.959C238.576 257.932 238.632 257.918 238.688 257.918C238.744 257.918 238.8 257.932 238.849 257.959L244.217 261.019C244.264 261.05 244.303 261.092 244.331 261.141C244.359 261.19 244.375 261.245 244.378 261.301C244.379 261.358 244.364 261.414 244.336 261.464C244.308 261.513 244.267 261.554 244.217 261.583L238.849 264.642C238.796 264.656 238.741 264.656 238.688 264.642ZM234.045 261.261L238.688 263.945L243.331 261.261L238.688 258.577L234.045 261.261Z" fill="#BA68C8"/>
<path d="M251.88 245.157C251.768 245.156 251.658 245.128 251.558 245.076L235.669 235.91C235.52 235.821 235.412 235.677 235.367 235.509C235.322 235.342 235.343 235.163 235.427 235.011C235.517 234.862 235.661 234.754 235.83 234.711C235.998 234.669 236.177 234.694 236.326 234.783L252.202 243.949C252.328 244.018 252.427 244.128 252.483 244.26C252.54 244.392 252.55 244.54 252.513 244.678C252.476 244.817 252.394 244.94 252.279 245.026C252.164 245.113 252.024 245.159 251.88 245.157Z" fill="#E0E0E0"/>
<path d="M241.332 251.222C241.219 251.216 241.109 251.184 241.01 251.128L225.134 241.963C224.999 241.869 224.903 241.729 224.866 241.569C224.829 241.409 224.853 241.241 224.934 241.097C225.015 240.954 225.146 240.847 225.303 240.796C225.459 240.745 225.629 240.754 225.778 240.822L241.667 250.001C241.741 250.044 241.805 250.101 241.856 250.169C241.908 250.237 241.945 250.314 241.966 250.397C241.987 250.479 241.992 250.565 241.98 250.649C241.968 250.733 241.939 250.814 241.896 250.887C241.841 250.989 241.76 251.075 241.661 251.134C241.561 251.193 241.448 251.224 241.332 251.222Z" fill="#E0E0E0"/>
<path d="M230.824 257.261C230.708 257.262 230.592 257.234 230.489 257.181L214.613 248.015C214.464 247.926 214.356 247.782 214.311 247.614C214.266 247.447 214.287 247.268 214.371 247.116C214.414 247.043 214.471 246.978 214.539 246.927C214.607 246.876 214.684 246.839 214.767 246.817C214.849 246.796 214.935 246.791 215.019 246.804C215.103 246.816 215.184 246.844 215.257 246.888L231.146 256.054C231.294 256.141 231.402 256.282 231.447 256.447C231.492 256.613 231.471 256.789 231.388 256.939C231.331 257.038 231.249 257.12 231.15 257.177C231.051 257.233 230.938 257.262 230.824 257.261Z" fill="#E0E0E0"/>
<path d="M245.881 101.979L335.903 153.941L330.602 157.001L240.594 105.025L245.881 101.979Z" fill="#BA68C8"/>
<path opacity="0.8" d="M245.881 101.979L335.903 153.941L330.602 157.001L240.594 105.025L245.881 101.979Z" fill="white"/>
<path d="M240.594 105.025V208.976L330.602 260.938V157.001L240.594 105.025Z" fill="#BA68C8"/>
<path opacity="0.6" d="M240.594 105.025V208.976L330.602 260.938V157.001L240.594 105.025Z" fill="white"/>
<path d="M335.903 153.941L314.699 166.18C296.995 176.406 282.295 191.112 272.076 208.82C261.857 226.527 256.479 246.613 256.483 267.058V309.881L261.771 312.928L341.19 267.058V157.014L335.903 153.941Z" fill="#BA68C8"/>
<path opacity="0.6" d="M335.903 153.941L314.699 166.18C296.995 176.406 282.295 191.112 272.076 208.82C261.857 226.527 256.479 246.613 256.483 267.058V309.881L261.771 312.928L341.19 267.058V157.014L335.903 153.941Z" fill="white"/>
<path opacity="0.6" d="M265.085 223.107L341.19 267.058V157.014L335.903 153.954L314.699 166.193C292.299 179.128 274.843 199.152 265.085 223.107Z" fill="white"/>
<path d="M261.771 312.901V270.078C261.771 249.637 267.153 229.557 277.374 211.856C287.596 194.156 302.297 179.457 320 169.24L341.19 157.014V267.058L261.771 312.901Z" fill="#BA68C8"/>
<path opacity="0.8" d="M261.771 312.901V270.078C261.771 249.637 267.153 229.557 277.374 211.856C287.596 194.156 302.297 179.457 320 169.24L341.19 157.014V267.058L261.771 312.901Z" fill="white"/>
<path d="M296.475 223.846L294.073 230.019V233.508L293.71 233.723V230.193L291.295 226.812L291.751 226.557L293.496 229.066L293.898 229.697L294.274 228.623L296.032 224.087L296.475 223.846Z" fill="#455A64"/>
<path d="M299.589 230.462C297.804 231.482 296.905 230.462 296.905 227.778C296.808 226.65 297.004 225.516 297.475 224.486C297.945 223.456 298.673 222.566 299.589 221.9C301.373 220.88 302.273 222.047 302.273 224.584C302.382 225.713 302.192 226.851 301.721 227.884C301.25 228.916 300.514 229.805 299.589 230.462ZM299.589 222.41C298.781 223.005 298.14 223.798 297.727 224.712C297.313 225.626 297.141 226.631 297.227 227.63C297.227 229.67 297.898 231.012 299.589 230.019C300.391 229.444 301.031 228.67 301.445 227.774C301.859 226.878 302.033 225.89 301.95 224.906C301.95 222.879 301.306 221.43 299.589 222.396V222.41Z" fill="#455A64"/>
<path d="M308.284 217.042V221.551C308.284 224.128 307.506 225.886 305.842 226.852C304.178 227.818 303.386 226.959 303.386 224.382V219.86L303.735 219.659V224.221C303.735 226.275 304.325 227.281 305.842 226.409C306.579 225.904 307.163 225.206 307.532 224.393C307.901 223.579 308.041 222.68 307.935 221.792V217.243L308.284 217.042Z" fill="#455A64"/>
<path d="M314.484 221.752L314.082 221.994L313.33 220.249C312.995 219.444 312.485 219.269 311.599 219.779L309.949 220.732V224.315L309.6 224.517V216.223L312.136 214.76C313.21 214.143 314.028 214.411 314.028 215.995C314.031 216.565 313.913 217.128 313.681 217.649C313.45 218.169 313.111 218.635 312.686 219.014C313.169 219.014 313.478 219.35 313.679 219.806L314.484 221.752ZM312.163 215.23L309.935 216.572V220.236V220.316L312.082 219.082C312.571 218.79 312.976 218.378 313.258 217.884C313.54 217.39 313.69 216.832 313.693 216.263C313.693 214.894 313.022 214.72 312.163 215.23Z" fill="#455A64"/>
<path d="M280.599 265.099L275.593 249.317L279.418 247.116L281.579 254.725C282.437 257.718 282.786 258.966 282.8 259.033H282.867C282.867 258.939 283.216 257.302 284.061 253.41L286.249 243.211L289.886 241.104L284.88 262.67L280.599 265.099Z" fill="#BA68C8"/>
<path d="M297.441 236.326C301.736 233.857 304.836 236.071 304.836 241.775C304.836 247.478 301.736 253.276 297.441 255.745C293.147 258.214 290.06 256.013 290.06 250.377C290.06 244.741 293.16 238.876 297.441 236.326ZM297.441 251.504C298.711 250.652 299.746 249.493 300.45 248.135C301.154 246.777 301.503 245.263 301.467 243.734C301.467 240.366 299.776 239.212 297.441 240.54C296.167 241.398 295.13 242.564 294.426 243.929C293.723 245.294 293.375 246.815 293.415 248.351C293.442 251.679 295.12 252.846 297.441 251.504Z" fill="#BA68C8"/>
<path d="M313.169 231.79V246.297L309.814 248.243V233.723L305.52 236.205V232.045L317.45 225.147V229.321L313.169 231.79Z" fill="#BA68C8"/>
<path d="M319.195 224.114L329.394 218.223V222.383L322.55 226.328V229.536L327.596 226.624V230.354L322.55 233.267V236.675L329.502 232.649V236.823L319.195 242.768V224.114Z" fill="#BA68C8"/>
<path d="M289.778 273.969L289.443 274.157V266.911L289.014 268.575L286.96 275.701L284.894 270.923L284.464 269.782V277.056L284.115 277.244V268.95L284.437 268.776L286.652 273.889L286.974 274.708L287.282 273.527L289.51 265.85L289.819 265.662L289.778 273.969Z" fill="#455A64"/>
<path d="M296.233 270.239L295.844 270.467L295.133 268.682L291.644 270.695L290.946 273.285L290.557 273.513L293.241 263.676L293.549 263.488L296.233 270.239ZM295.012 268.279L293.67 264.777L293.509 264.146L293.321 264.965L291.979 270.064V270.145L295.012 268.279Z" fill="#455A64"/>
<path d="M300.608 259.852L298.354 261.194V268.991L298.005 269.192V261.381L295.75 262.723V262.294L300.608 259.409V259.852Z" fill="#455A64"/>
<path d="M305.735 256.899L303.48 258.241V266.038L303.131 266.239V258.375L300.89 259.717V259.274L305.694 256.497L305.735 256.899Z" fill="#455A64"/>
<path d="M310.767 261.851L306.58 264.267V255.973L310.767 253.558V254L306.889 256.228V259.61V259.677L310.391 257.651V258.094L306.889 260.12V263.515V263.582L310.767 261.341V261.851Z" fill="#455A64"/>
<path d="M316.847 258.335L316.444 258.577L315.692 256.832C315.357 256.027 314.847 255.852 313.961 256.362L312.311 257.315V260.898L311.962 261.1V252.806L314.498 251.343C315.572 250.726 316.39 250.994 316.39 252.578C316.393 253.147 316.275 253.711 316.043 254.232C315.812 254.752 315.473 255.218 315.048 255.597C315.531 255.597 315.853 255.933 316.041 256.389L316.847 258.335ZM314.525 251.826L312.297 253.101V256.765V256.845L314.444 255.611C314.933 255.32 315.338 254.907 315.62 254.413C315.902 253.92 316.052 253.361 316.055 252.793C316.055 251.477 315.37 251.33 314.525 251.826Z" fill="#455A64"/>
<path d="M319.651 256.819C319.314 257.073 318.912 257.226 318.491 257.259C318.07 257.293 317.649 257.205 317.276 257.006L317.558 256.47C317.874 256.661 318.24 256.755 318.61 256.741C318.98 256.727 319.337 256.604 319.638 256.389C320.181 256.124 320.645 255.722 320.987 255.224C321.328 254.725 321.533 254.146 321.584 253.544C321.584 252.793 321.154 252.403 320.242 252.591L319.101 252.819C317.974 253.021 317.37 252.819 317.37 251.746C317.424 251.033 317.661 250.346 318.059 249.751C318.456 249.156 319 248.674 319.638 248.351C319.932 248.124 320.287 247.99 320.657 247.966C321.028 247.942 321.397 248.029 321.718 248.216L321.45 248.74C321.186 248.556 320.872 248.457 320.55 248.457C320.229 248.457 319.915 248.556 319.651 248.74C319.131 248.989 318.682 249.366 318.347 249.835C318.011 250.304 317.8 250.851 317.732 251.424C317.732 252.309 318.349 252.35 319.329 252.162L320.376 251.961C321.557 251.746 321.986 252.283 321.986 253.209C321.963 253.966 321.733 254.702 321.321 255.339C320.91 255.975 320.332 256.487 319.651 256.819Z" fill="#455A64"/>
<path d="M322.147 208.735L323.154 210.869L325.408 210.01L323.771 213.056L324.16 215.821L322.147 215.579L320.134 218.142L320.523 214.935L318.9 213.767L321.141 212.036L322.147 208.735Z" fill="#BA68C8"/>
<path d="M283.43 231.092L282.424 234.394L280.169 236.125L281.793 237.293L281.417 240.5L283.43 237.937L285.43 238.178L285.054 235.414L286.678 232.367L284.437 233.226L283.43 231.092Z" fill="#BA68C8"/>
<path d="M450.134 458.011L398.614 614.837L393.542 617.776L445.061 460.937L450.134 458.011Z" fill="#455A64"/>
<path d="M393.542 617.776L391.032 616.327L442.538 459.501L445.061 460.937L393.542 617.776Z" fill="#263238"/>
<path d="M464.627 576.724L462.118 575.289L411.35 478.557L413.873 480.007L464.627 576.724Z" fill="#263238"/>
<path d="M418.946 477.068L469.713 573.799L464.641 576.725L413.873 479.993L418.946 477.068Z" fill="#455A64"/>
<path d="M379.061 416.973L327.542 573.799L322.469 576.724L373.989 419.898L379.061 416.973Z" fill="#455A64"/>
<path d="M322.469 576.725L319.959 575.289L371.479 418.449L373.988 419.898L322.469 576.725Z" fill="#263238"/>
<path d="M393.555 535.686L391.045 534.237L340.278 437.505L342.801 438.955L393.555 535.686Z" fill="#263238"/>
<path d="M347.873 436.016L398.641 532.747L393.555 535.686L342.8 438.955L347.873 436.016Z" fill="#455A64"/>
<path d="M388.482 497.587L307.238 450.684L393.555 400.842L474.813 447.745L388.482 497.587Z" fill="#455A64"/>
<path d="M388.482 503.451V497.587L474.813 447.745V453.609L388.482 503.451Z" fill="#37474F"/>
<path d="M388.482 503.451V497.587L307.238 450.684L307.264 456.522L388.482 503.451Z" fill="#263238"/>
<path d="M388.522 491.722V421.375L319.329 381.557V451.905L388.522 491.722Z" fill="#BA68C8"/>
<path d="M388.522 421.375L462.735 378.498V448.859L388.522 491.722V421.375Z" fill="#BA68C8"/>
<path opacity="0.15" d="M388.522 421.375L462.735 378.498V448.859L388.522 491.722V421.375Z" fill="white"/>
<path d="M388.522 421.375L317.383 380.43L393.542 336.426L464.668 377.37L388.522 421.375Z" fill="#BA68C8"/>
<path opacity="0.3" d="M388.522 421.375L317.383 380.43L393.542 336.426L464.668 377.37L388.522 421.375Z" fill="white"/>
<path d="M388.522 421.375V433.936L317.383 393.005V380.43L388.522 421.375Z" fill="#BA68C8"/>
<path d="M464.668 377.37L388.522 421.375V433.936L464.668 389.945V377.37Z" fill="#BA68C8"/>
<path opacity="0.15" d="M464.668 377.37L388.522 421.375V433.936L464.668 389.945V377.37Z" fill="white"/>
<path opacity="0.1" d="M319.396 394.119V396.883L388.59 436.7V433.936L319.396 394.119ZM462.802 391.059L388.59 434.003V436.767L462.802 393.823V391.059Z" fill="black"/>
<path d="M368.164 386.187L378.323 392.052L413.873 371.519L403.714 365.668L368.164 386.187Z" fill="#BA68C8"/>
<path opacity="0.2" d="M411.336 372.995L413.873 371.519L403.714 365.668L403.727 368.62L411.336 372.995Z" fill="black"/>
<path opacity="0.1" d="M370.714 387.65L403.714 368.594V365.668L368.164 386.187L370.714 387.65Z" fill="black"/>
<path d="M404.345 462.091L399.554 446.953L403.217 444.846L405.284 452.133C406.116 455.005 406.438 456.159 406.452 456.267H406.519C406.519 456.173 406.854 454.602 407.659 450.899L409.753 441.115L413.242 439.102L408.451 459.783L404.345 462.091Z" fill="#FAFAFA"/>
<path d="M420.502 434.499C424.609 432.137 427.575 434.258 427.575 439.733C427.575 445.208 424.609 450.751 420.502 453.153C416.396 455.555 413.417 453.395 413.417 447.933C413.417 442.471 416.396 436.875 420.502 434.499ZM420.502 449.06C421.717 448.238 422.705 447.124 423.376 445.82C424.047 444.516 424.378 443.064 424.34 441.598C424.34 438.378 422.73 437.264 420.502 438.539C419.285 439.364 418.295 440.482 417.624 441.791C416.953 443.1 416.623 444.557 416.664 446.027C416.664 449.221 418.275 450.348 420.502 449.06Z" fill="#FAFAFA"/>
<path d="M435.586 430.138V444.054L432.352 445.92V432.003L428.259 434.378V430.352L439.679 423.75V427.776L435.586 430.138Z" fill="#FAFAFA"/>
<path d="M441.357 422.824L451.14 417.174V421.2L444.578 424.985V428.058L449.409 425.266V428.849L444.578 431.641V434.915L451.288 431.064V435.09L441.411 440.793L441.357 422.824Z" fill="#FAFAFA"/>
<path d="M412.705 367.332L409.511 373.988L378.323 392.052L371.815 388.294L389.288 351.403L412.705 367.332Z" fill="#FAFAFA"/>
<path d="M573.034 474.276C573.651 477.309 574.792 480.812 575.718 486.998C576.644 493.185 575.208 493.44 579.663 508.954C582.347 518.254 581.851 521.958 575.637 529.808C568.927 538.223 561.962 536.518 557.4 527.205C553.508 519.247 553.736 515.543 553.722 507.29C553.709 499.036 553.629 496.634 553.213 490.085C552.85 484.314 553.374 480.369 552.984 475.954L573.034 474.276Z" fill="#37474F"/>
<path d="M575.101 496.889C573.853 488.837 573.557 480.61 573.101 475.202C572.081 463.124 574.779 439.169 572.886 420.959L539.189 417.885C540.316 424.985 549.629 457.085 553.011 476.464C553.011 476.464 554.353 502.767 556.192 514.348C556.271 514.706 556.429 515.042 556.655 515.331C556.88 515.62 557.167 515.856 557.495 516.02C557.822 516.185 558.183 516.274 558.549 516.282C558.916 516.29 559.279 516.216 559.614 516.066C564.468 514.121 569.819 513.797 574.872 515.14C575.226 515.274 575.606 515.322 575.982 515.281C576.357 515.24 576.718 515.111 577.035 514.904C577.351 514.698 577.614 514.419 577.803 514.092C577.991 513.764 578.1 513.397 578.12 513.02C578.053 508.739 576.04 502.888 575.101 496.889Z" fill="#B16668"/>
<path d="M478.423 411.377C479.671 436.204 479.926 455.139 479.658 465.835C479.669 471.124 478.671 476.366 476.719 481.281C474.934 485.817 471.834 492.366 469.257 495.252C469.257 495.252 460.95 504.149 462.547 504.981C464.144 505.813 481.268 506.873 488.045 504.981C494.822 503.089 497.439 497.385 500.016 486.985C502.592 476.584 504.901 461.353 504.901 461.353C504.601 460.791 504.379 460.19 504.243 459.568C503.424 456.522 506.672 441.276 507.558 433.694L478.423 411.377Z" fill="#B16668"/>
<path d="M510.993 476.679C510.725 479.255 508.779 482.302 508.122 486.328C507.35 490.915 507.035 495.568 507.182 500.217C507.33 505.907 507.343 506.712 507.343 506.712H505.585C505.585 506.712 505.37 498.499 505.29 494.889C505.209 491.279 503.465 488.112 501.734 487.763C501.734 487.804 502.458 476.893 510.993 476.679Z" fill="#263238"/>
<path d="M504.673 459.944C505.693 462.856 508.323 466.654 509.839 469.472C510.737 471.09 511.29 472.877 511.463 474.719C511.449 475.7 511.233 476.667 510.829 477.56C510.425 478.453 509.841 479.254 509.115 479.913C507.706 481.255 506.686 482.369 504.995 483.939C501.465 487.186 499.989 490.045 497.641 497.573C496.299 502.056 494.004 506.122 490.032 508.309C486.931 510 478.423 512.872 467.969 512.429C459.286 512.067 455.891 508.283 459.259 505.021C462.628 501.76 468.251 495.976 469.257 495.292C472.413 495.304 475.538 495.919 478.463 497.104C483.268 499.305 484.744 502.163 489.897 499.788C494.567 497.587 497.037 489.548 497.439 476.759C497.882 462.735 504.673 459.944 504.673 459.944Z" fill="#37474F"/>
<path d="M549.522 242.687C550.126 245.854 550.797 248.807 551.951 250.377C558.983 259.986 566.163 271.607 567.559 289.59C570.941 332.977 571.088 374.874 571.088 374.874C571.437 378.699 576.027 386.952 575.45 410.075C575.007 427.521 573.732 454.187 573.732 454.187C573.732 454.187 558.406 460.413 547.509 456.374C543.014 439.787 535.82 400.319 531.405 381.316C526.722 361.307 523.501 337.151 523.501 337.151L513.879 374.727C515.36 383.453 515.739 392.33 515.006 401.151C513.771 412.813 506.283 447.758 506.283 447.758C506.283 447.758 488.086 451.664 478.678 445.249C478.678 445.249 476.397 387.18 476.222 374.364C476.048 361.548 474.048 290.919 481.684 257.355C482.033 255.799 483.093 245.183 483.093 245.183C492.286 252.658 537.364 251.021 549.522 242.687Z" fill="#37474F"/>
<path d="M574.027 447.758C569.317 452.147 551.576 453.556 545.845 450.577L548.14 459.971C552.53 461.715 557.284 462.342 561.976 461.796C570.31 460.977 573.745 457.26 573.745 457.26L574.027 447.758Z" fill="#455A64"/>
<path d="M507.571 441.961C502.659 443.652 483.63 442.498 478.208 439.277L478.544 447.06C483.541 449.204 488.827 450.596 494.232 451.194C502.525 451.972 506.068 449.61 506.068 449.61L507.571 441.961Z" fill="#455A64"/>
<path d="M523.461 337.151L517.516 294.274C513.341 294.372 509.2 293.504 505.415 291.74C501.63 289.976 498.304 287.362 495.695 284.101C495.695 284.101 495.48 294.837 513.141 299.548L520.119 339.056L513.798 374.7L523.461 337.151Z" fill="#263238"/>
<path d="M443.061 214.452C438.083 210.707 434.298 207.916 428.541 198.723C426.936 196.548 425.06 194.586 422.958 192.886C420.959 190.984 419.318 188.739 418.114 186.256C417.59 185.008 414.41 186.35 415.027 190.671C415.497 193.879 417.443 196.804 418.221 198.629C416.53 198.629 413.819 198.401 410.169 198.629C406.519 198.858 399.205 198.468 400.547 202.655C400.842 203.595 401.607 204.387 401.634 205.339C401.602 205.793 401.526 206.243 401.406 206.681C401.244 207.558 401.322 208.462 401.631 209.299C401.941 210.135 402.47 210.872 403.164 211.432C403.51 211.64 403.807 211.919 404.036 212.251C404.412 212.975 404.13 213.861 404.291 214.626C404.498 215.501 404.939 216.304 405.566 216.948C406.465 217.914 406.76 217.578 407.659 218.545C408.25 219.175 408.371 220.571 409.753 221.497C410.786 222.182 413.269 222.262 415.913 222.222C418.556 222.182 420.06 223.054 423.576 222.946C426.34 222.866 428.944 224.423 433.547 229.146C443.853 238.97 445.168 242.177 454.415 249.679C455.231 250.354 456.082 250.986 456.965 251.571C465.714 257.597 469.177 252.913 476.088 240.741C484.583 225.778 488.985 217.297 488.985 217.297L502.619 176.647C494.218 177.6 484.341 187.102 476.88 197.878C473.377 202.937 458.87 225.214 458.87 225.214C453.932 222.141 448.054 218.196 443.061 214.452Z" fill="#B16668"/>
<path d="M413.712 201.112C414.081 201.214 414.44 201.349 414.786 201.515C415.143 201.688 415.469 201.92 415.752 202.199H415.645C417.325 201.874 419.067 202.145 420.57 202.964C420.945 203.194 421.281 203.484 421.563 203.823C421.879 204.196 422.042 204.676 422.019 205.165C422.005 205.424 421.921 205.674 421.777 205.89C421.595 206.09 421.357 206.23 421.093 206.292C420.664 206.386 420.274 206.44 419.872 206.52C419.08 206.681 418.302 206.95 417.483 207.138C416.656 207.327 415.806 207.39 414.96 207.326C413.302 207.204 411.665 206.875 410.089 206.346C410.892 206.532 411.709 206.658 412.531 206.722C413.35 206.816 414.155 206.91 414.974 206.923C415.777 206.933 416.579 206.848 417.362 206.668C418.154 206.48 418.932 206.198 419.751 206.01C420.167 205.916 420.596 205.849 420.959 205.755C421.321 205.662 421.429 205.527 421.482 205.125C421.549 204.454 420.945 203.783 420.301 203.407C418.898 202.606 417.277 202.272 415.671 202.454H415.604C415.366 202.173 415.08 201.937 414.759 201.756C414.429 201.512 414.079 201.296 413.712 201.112Z" fill="#9A4A4D"/>
<path d="M419.455 206.292C419.807 206.175 420.187 206.176 420.539 206.295C420.89 206.414 421.193 206.644 421.401 206.95C421.605 207.282 421.707 207.666 421.692 208.056C421.678 208.445 421.549 208.821 421.321 209.137C420.621 210.447 419.527 211.503 418.194 212.157C417.482 212.376 416.737 212.467 415.993 212.425C415.277 212.425 414.566 212.398 413.859 212.345C412.437 212.251 411.028 212.157 409.605 211.996C411.028 211.929 412.45 211.915 413.873 211.902C415.256 212.019 416.649 211.928 418.006 211.633C418.623 211.359 419.187 210.977 419.67 210.506C420.167 210.022 420.617 209.492 421.012 208.923C421.222 208.67 421.353 208.36 421.389 208.034C421.425 207.707 421.364 207.376 421.214 207.084C421.047 206.778 420.785 206.536 420.467 206.393C420.15 206.25 419.795 206.215 419.455 206.292Z" fill="#9A4A4D"/>
<path d="M418.838 211.499C419.144 211.363 419.476 211.292 419.811 211.292C420.146 211.292 420.478 211.363 420.784 211.499C420.946 211.583 421.087 211.7 421.198 211.844C421.309 211.988 421.388 212.154 421.428 212.331C421.489 212.678 421.489 213.032 421.428 213.378C421.195 214.021 420.803 214.593 420.288 215.042C419.844 215.57 419.283 215.989 418.65 216.263C417.992 216.39 417.319 216.426 416.651 216.371C416.021 216.41 415.394 216.482 414.772 216.585C413.51 216.787 412.236 217.001 410.961 217.176C412.195 216.773 413.43 216.451 414.691 216.169C415.33 216.011 415.981 215.908 416.637 215.861C417.253 215.895 417.871 215.85 418.476 215.727C419.03 215.495 419.525 215.141 419.925 214.693C420.385 214.302 420.755 213.817 421.012 213.271C421.067 212.982 421.067 212.687 421.012 212.398C420.995 212.26 420.945 212.128 420.869 212.011C420.792 211.895 420.69 211.798 420.569 211.727C420.043 211.432 419.423 211.35 418.838 211.499Z" fill="#9A4A4D"/>
<path d="M419.107 215.713C419.24 215.764 419.361 215.841 419.462 215.94C419.564 216.039 419.644 216.159 419.697 216.29C419.802 216.563 419.835 216.859 419.791 217.149C419.673 217.68 419.488 218.194 419.241 218.679C419.106 218.919 418.958 219.152 418.798 219.377C418.632 219.612 418.417 219.809 418.167 219.954C417.719 220.241 417.237 220.471 416.731 220.638L417.912 219.605C418.093 219.454 418.252 219.278 418.382 219.081C418.516 218.87 418.637 218.65 418.744 218.424C418.988 217.995 419.194 217.546 419.362 217.082C419.464 216.855 419.494 216.602 419.448 216.358C419.403 216.113 419.284 215.888 419.107 215.713Z" fill="#9A4A4D"/>
<path d="M421.751 205.098C421.536 207.447 422.25 209.787 423.74 211.616C425.23 213.445 427.378 214.617 429.722 214.881C428.003 214.935 426.297 214.561 424.757 213.794C423.481 213.2 422.364 212.312 421.496 211.204L421.241 212.278C420.905 211.714 420.744 211.231 419.214 211.378C419.901 210.741 420.506 210.02 421.013 209.231C421.469 208.346 422.126 206.95 420.248 206.118C420.639 206.07 421.023 205.97 421.388 205.823C421.53 205.771 421.646 205.667 421.713 205.532C421.781 205.397 421.794 205.242 421.751 205.098Z" fill="#9A4A4D"/>
<path d="M503.76 175.48C491.87 177.654 487.656 177.748 475.39 197.61C467.835 209.808 458.655 224.691 458.655 224.691L449.852 219.323C451.489 220.974 454.696 229.469 452.536 234.702C451.148 237.911 448.685 240.535 445.571 242.124C448.585 245.268 451.809 248.205 455.22 250.914C459.997 254.551 462.534 255.101 465.432 254.242C468.331 253.383 471.163 250.216 478.195 241.882C485.428 233.307 493.896 220.678 493.896 220.678L503.76 175.48Z" fill="#BA68C8"/>
<path opacity="0.55" d="M503.76 175.48C491.87 177.654 487.656 177.748 475.39 197.61C467.835 209.808 458.655 224.691 458.655 224.691L449.852 219.323C451.489 220.974 454.696 229.469 452.536 234.702C451.148 237.911 448.685 240.535 445.571 242.124C448.585 245.268 451.809 248.205 455.22 250.914C459.997 254.551 462.534 255.101 465.432 254.242C468.331 253.383 471.163 250.216 478.195 241.882C485.428 233.307 493.896 220.678 493.896 220.678L503.76 175.48Z" fill="white"/>
<path opacity="0.35" d="M458.655 224.691C463.339 227.55 467.835 233.615 468.626 237.199C468.611 234.186 467.831 231.226 466.359 228.597C464.887 225.968 462.772 223.756 460.212 222.168L458.655 224.691Z" fill="#BA68C8"/>
<path opacity="0.35" d="M449.946 246.23C450.733 245.815 451.475 245.321 452.16 244.754C453.564 243.641 454.747 242.275 455.649 240.728C457.343 237.712 457.994 234.221 457.501 230.797C457.501 230.623 457.662 230.623 457.703 230.797C458.595 234.445 458.027 238.298 456.119 241.533C455.147 243.148 453.887 244.572 452.402 245.734C451.797 246.199 451.16 246.62 450.496 246.995L449.839 246.405L449.946 246.23Z" fill="#BA68C8"/>
<path d="M529.835 170.635L548.838 176.54C552.099 177.654 564.432 185.183 560.124 203.729C558.702 209.875 556.756 218.491 554.998 227.093C553.656 233.669 558.581 246.324 562.553 266.481C562.553 266.481 546.261 279.445 513.879 275.794C489.173 273.003 479.886 262.374 479.886 262.374C479.644 243.144 483.724 230.972 485.549 223.644C485.549 223.644 482.785 220.195 482.624 212.372C482.476 204.172 487.401 196.992 494.702 187.706C498.63 182.622 503.133 178.011 508.122 173.963L529.835 170.635Z" fill="#FAFAFA"/>
<path d="M487.482 147.472C486.663 144.788 483.577 144.493 482.919 140.762C482.261 137.032 484.261 134.616 487.24 132.979C490.22 131.342 490.85 128.376 490.246 122.243C489.642 116.11 494.017 112.419 499.077 111.668C501.573 111.306 504.445 111.56 506.23 109.735C506.914 108.862 507.478 107.901 507.907 106.877C510.323 102.421 514.805 100.476 520.804 100.516C523.497 100.482 526.17 100.984 528.668 101.992C531.54 103.087 534.131 104.811 536.25 107.038C539.538 106.515 545.725 107.226 549.08 110.178C550.542 111.217 551.781 112.539 552.724 114.064C553.666 115.59 554.294 117.29 554.568 119.062C555.132 122.699 554.797 124.766 556.367 126.739C559.561 130.765 563.546 130.765 565.358 134.146C567.935 138.978 561.587 143.124 564.821 148.908C565.494 150.041 565.902 151.311 566.017 152.623C566.132 153.935 565.95 155.256 565.485 156.488C565.019 157.721 564.283 158.832 563.329 159.741C562.376 160.65 561.23 161.332 559.977 161.738C557.158 162.811 554.743 161.362 550.717 162.865C546.691 164.368 546.53 167.441 541.403 169.575C537.216 171.253 533.633 168.233 530.238 167.79C525.595 167.254 527.084 168.783 522.508 165.844C520.938 164.838 519.998 163.04 518.415 162.047C513.396 159.04 511.705 160.705 505.666 162.852C504.082 163.429 498.822 164.892 495.239 160.919C493.096 158.316 491.988 155.015 492.125 151.646C491.105 155.001 483.402 154.934 482.624 149.606C482.968 150.148 483.494 150.548 484.108 150.735C484.721 150.921 485.381 150.882 485.969 150.624C486.556 150.366 487.031 149.907 487.309 149.329C487.586 148.75 487.648 148.092 487.482 147.472Z" fill="#263238"/>
<path d="M537.095 166.542C537.095 163.482 537.713 155.699 537.713 155.699C538.84 158.571 544.047 158.678 546.597 155.135C549.818 150.653 549.804 145.325 547.617 142.078C545.188 138.481 539.417 138.387 536.881 143.956C533.069 144.668 531.634 138.83 534.76 133.475C534.828 120.686 517.449 124.994 513.946 113.506C510.942 114.059 508.104 115.294 505.652 117.116C503.2 118.938 501.198 121.298 499.801 124.014C498.459 126.859 498.231 128.604 498.553 134.361C498.674 136.602 497.131 139.206 496.688 142.172C494.635 155.766 498.634 161.188 503.089 163.831C505.465 165.173 508.551 166.153 514.228 166.515C514.228 166.515 514.12 169.065 514.013 170.756C513.906 172.447 513.718 173.185 511.678 173.44C510.98 173.534 510.202 173.588 510.202 173.588C510.202 173.588 500.808 182.257 513.181 184.525C531.647 187.907 539.028 176.648 539.847 173.789C537.002 173.199 536.961 171.669 537.095 166.542Z" fill="#B16668"/>
<path d="M519.73 151.646L512.913 153.471C513.004 153.933 513.188 154.371 513.455 154.76C513.721 155.148 514.064 155.478 514.462 155.729C514.86 155.98 515.306 156.147 515.771 156.221C516.236 156.294 516.711 156.272 517.167 156.155C518.101 155.892 518.894 155.271 519.374 154.427C519.854 153.583 519.982 152.584 519.73 151.646Z" fill="#9A4A4D"/>
<path d="M519.234 153.149C518.338 153.082 517.448 153.328 516.714 153.844C515.98 154.361 515.447 155.116 515.208 155.981C515.845 156.183 516.529 156.183 517.167 155.981C517.815 155.796 518.4 155.435 518.855 154.937C519.31 154.439 519.617 153.825 519.743 153.162C519.569 153.203 519.354 153.162 519.234 153.149Z" fill="#B16668"/>
<path d="M501.975 131.046L506.981 128.966C506.858 128.637 506.67 128.337 506.428 128.083C506.186 127.829 505.895 127.627 505.573 127.489C505.25 127.351 504.903 127.28 504.552 127.28C504.201 127.28 503.854 127.352 503.532 127.49C502.87 127.775 502.342 128.301 502.053 128.961C501.764 129.621 501.736 130.367 501.975 131.046Z" fill="#263238"/>
<path d="M526.333 132.71L521.475 130.174C521.633 129.855 521.853 129.57 522.122 129.337C522.391 129.103 522.704 128.926 523.043 128.815C523.381 128.703 523.738 128.661 524.094 128.689C524.449 128.717 524.795 128.816 525.111 128.98C525.746 129.335 526.223 129.916 526.45 130.607C526.676 131.298 526.634 132.049 526.333 132.71Z" fill="#263238"/>
<path d="M514.201 166.489C522.83 166.032 532.546 162.986 535.673 158.302C535.673 158.302 534.411 163.066 530.909 165.079C525.765 167.896 519.985 169.346 514.12 169.293L514.201 166.489Z" fill="#9A4A4D"/>
<path d="M523.461 138.535C523.463 138.989 523.331 139.434 523.08 139.813C522.83 140.192 522.473 140.489 522.053 140.664C521.634 140.84 521.172 140.887 520.726 140.8C520.28 140.713 519.87 140.496 519.548 140.176C519.226 139.855 519.006 139.446 518.916 139.001C518.827 138.555 518.871 138.093 519.044 137.673C519.218 137.253 519.512 136.894 519.89 136.641C520.267 136.388 520.711 136.253 521.166 136.253C521.772 136.253 522.354 136.493 522.784 136.921C523.214 137.348 523.457 137.928 523.461 138.535Z" fill="#263238"/>
<path d="M506.981 137.474C506.981 137.929 506.846 138.373 506.593 138.751C506.34 139.128 505.981 139.423 505.561 139.596C505.141 139.769 504.679 139.814 504.233 139.724C503.788 139.635 503.379 139.415 503.059 139.092C502.738 138.77 502.521 138.36 502.434 137.914C502.347 137.468 502.394 137.006 502.57 136.587C502.745 136.168 503.042 135.81 503.421 135.56C503.8 135.309 504.245 135.177 504.699 135.18C505 135.18 505.298 135.239 505.576 135.355C505.853 135.47 506.105 135.639 506.317 135.853C506.529 136.066 506.697 136.319 506.811 136.597C506.925 136.876 506.983 137.174 506.981 137.474Z" fill="#263238"/>
<path d="M504.31 146.439L511.691 149.566L513.637 134.844L504.31 146.439Z" fill="#9A4A4D"/>
<path d="M543.617 153.78C543.599 154.027 543.532 154.267 543.42 154.488C543.309 154.709 543.155 154.906 542.967 155.067C542.78 155.228 542.562 155.351 542.327 155.429C542.092 155.506 541.844 155.536 541.598 155.518C541.351 155.499 541.11 155.432 540.889 155.321C540.669 155.209 540.472 155.055 540.31 154.868C540.149 154.68 540.026 154.463 539.949 154.228C539.872 153.993 539.841 153.745 539.86 153.498C539.897 153 540.131 152.537 540.51 152.211C540.888 151.885 541.381 151.723 541.879 151.76C542.378 151.797 542.841 152.031 543.167 152.41C543.493 152.789 543.655 153.282 543.617 153.78Z" fill="#EBEBEB"/>
<path d="M513.838 171.91C512.953 172.232 507.021 174.111 503.76 175.48C495.992 181.754 489.496 189.457 484.623 198.173C481.214 204.655 479.443 210.251 479.255 220.826C479.107 230.019 477.994 257.329 476.168 272.52C477.162 276.076 487.092 280.304 487.092 280.304C487.602 266.642 487.844 223.832 490.796 209.312C494.299 192.08 509.732 176.339 513.328 173.87L513.838 171.91Z" fill="#BA68C8"/>
<path d="M537.109 170.85V173.668C528.574 195.865 530.251 206.037 531.338 220.638C533.928 255.53 538.048 285.671 538.048 285.671C538.048 285.671 562.419 285.926 571.102 274.184C571.102 274.184 563.291 256.55 560.366 238.742C558.635 228.18 563.56 206.534 561.708 191.248C560.956 184.86 558.541 178.486 553.75 176.983C549.791 175.735 546.355 174.728 546.355 174.728L537.109 170.85Z" fill="#BA68C8"/>
<path d="M567.411 292.999C571.276 294.099 576.201 289.295 577.557 287.631C578.912 285.967 577.167 281.995 576.349 278.653C575.53 275.311 576.349 269.662 572.216 271.245C568.082 272.829 559.373 283.994 567.411 292.999Z" fill="#9A4A4D"/>
<path d="M554.528 177.828C567.035 180.432 568.257 180.056 574.161 191.933C581.046 205.755 590.789 228.328 593.245 233.535C595.7 238.742 598.076 242.647 591.46 250.766C585.568 258 568.163 278.827 565.573 281.807C563.291 284.491 565.854 292.221 573.705 291.093C573.705 291.093 567.733 296.381 564.445 295.79C561.614 295.294 554.461 290.932 550.368 282.37C547.791 277.002 549.952 272.694 553.87 266.655C558.554 259.449 570.149 240.164 570.149 240.164L552.904 205.715C552.904 205.715 545.389 187.357 554.528 177.828Z" fill="#B16668"/>
<path d="M553.776 176.983C550.743 180.002 545.926 191.329 552.636 207.701L569.531 240.218L562.003 252.296C562.003 252.296 567.371 259.288 571.893 262.482C573.123 263.409 574.533 264.068 576.033 264.417C577.534 264.766 579.09 264.797 580.603 264.508C580.603 264.508 590.279 253.772 593.701 249.062C597.123 244.351 597.727 242.996 593.365 232.421C589.151 222.222 575.758 191.168 572.886 186.417C570.014 181.667 566.324 178.486 553.776 176.983Z" fill="#BA68C8"/>
<path opacity="0.55" d="M553.776 176.983C550.743 180.002 545.926 191.329 552.636 207.701L569.531 240.218L562.003 252.296C562.003 252.296 567.371 259.288 571.893 262.482C573.123 263.409 574.533 264.068 576.033 264.417C577.534 264.766 579.09 264.797 580.603 264.508C580.603 264.508 590.279 253.772 593.701 249.062C597.123 244.351 597.727 242.996 593.365 232.421C589.151 222.222 575.758 191.168 572.886 186.417C570.014 181.667 566.324 178.486 553.776 176.983Z" fill="white"/>
<path opacity="0.35" d="M573.034 253.41C571.768 252.439 570.579 251.371 569.478 250.216C568.395 249.098 567.403 247.896 566.512 246.619C566.365 246.405 566.19 246.096 566.056 245.868L565.479 246.78C565.585 246.927 565.683 247.08 565.774 247.237C566.672 248.504 567.659 249.706 568.726 250.833C569.815 251.983 570.996 253.042 572.256 254C573.568 255.094 575.027 255.997 576.591 256.684C577.02 256.845 577.047 256.255 576.778 256.054C575.49 255.114 574.188 254.336 573.034 253.41Z" fill="#BA68C8"/>
<path d="M216.397 515.529C217.444 515.435 217.471 517.985 216.813 519.206C214.961 522.722 209.781 526.507 202.199 528.184C194.617 529.862 179.787 527.862 175.359 527.688C170.93 527.513 163.106 529.808 158.624 530.519C150.465 531.861 144.882 529.58 142.211 526.963C141.772 526.431 141.447 525.815 141.256 525.153C141.064 524.49 141.01 523.796 141.098 523.111C141.178 520.011 141.446 519.381 141.795 519.408L216.397 515.529Z" fill="#37474F"/>
<path d="M142.614 510.363C141.831 514.034 141.587 517.8 141.889 521.541C142.842 523.85 145.365 525.165 147.378 525.796C152.746 527.473 157.953 527.138 163.818 525.903C167.595 524.934 171.487 524.482 175.386 524.561C180.029 524.816 190.269 525.903 194.925 525.903C199.271 525.969 203.584 525.137 207.594 523.46C210.667 522.025 215.324 518.871 216.37 516.482C217.377 510.913 216.8 507.585 213.593 505.746C210.385 503.907 205.326 503.344 198.616 502.834C196.616 502.686 194.08 502.566 193.006 502.445C188.98 502.002 185.156 501.707 182.082 501.505C179.463 501.528 176.873 500.964 174.5 499.855C173.407 499.366 172.522 498.505 172.004 497.426C171.36 496.003 171.373 493.923 170.125 493.802C170.125 493.802 147.177 497.707 145.325 497.895C143.205 498.11 144.6 501.183 142.614 510.363Z" fill="#455A64"/>
<path d="M194.818 502.243C195.512 502.788 196.087 503.468 196.509 504.243C196.972 505.089 197.324 505.991 197.556 506.927C197.864 508.095 196.415 508.269 195.851 506.927C195.432 505.807 194.882 504.739 194.214 503.746C193.735 503.053 193.027 502.549 192.214 502.324L191.06 502.203C191.369 501.371 193.919 501.653 194.818 502.243Z" fill="#FAFAFA"/>
<path d="M184.458 501.036C184.844 500.982 185.237 501.013 185.611 501.126C185.984 501.24 186.328 501.433 186.618 501.693C187.372 502.334 187.934 503.17 188.242 504.109C188.643 505.236 188.953 506.394 189.168 507.571C189.249 508.323 187.477 508.296 187.289 507.477C187.101 506.659 186.699 505.169 186.377 504.324C186.175 503.8 185.263 501.827 184.042 501.64H183.491C183.491 501.371 183.827 501.197 184.069 501.143C184.194 501.094 184.325 501.058 184.458 501.036Z" fill="#FAFAFA"/>
<path d="M178.378 500.848C178.901 500.948 179.374 501.222 179.72 501.626C180.134 502.179 180.456 502.796 180.673 503.451C181.039 504.651 181.22 505.9 181.21 507.155C181.21 508.121 179.465 507.866 179.412 507.155C179.224 505.115 179.224 503.773 178.244 502.284C177.878 501.635 177.357 501.086 176.728 500.687C176.728 500.512 177.036 500.485 177.211 500.526C177.606 500.612 177.995 500.72 178.378 500.848Z" fill="#FAFAFA"/>
<path d="M142.749 473.176C142.749 473.176 144.735 494.285 145.231 499.157C145.392 500.714 148.345 501.344 149.861 502.002C151.755 502.709 153.519 503.724 155.082 505.008C158.933 508.833 161.792 509.732 164.167 503.022C164.244 502.698 164.39 502.394 164.594 502.13C164.798 501.867 165.056 501.65 165.351 501.493C165.645 501.337 165.97 501.246 166.302 501.224C166.635 501.203 166.968 501.253 167.28 501.371C168.574 501.814 169.941 502.005 171.306 501.935C171.508 501.801 171.387 501.492 171.306 501.291C170.708 500.546 170.279 499.68 170.047 498.754C169.816 497.827 169.787 496.861 169.964 495.923C170.622 487.28 170.984 478.624 171.481 469.968L142.749 473.176Z" fill="#B16668"/>
<path d="M68.8311 457.689C71.5151 453.328 72.4142 445.222 74.3735 430.165L99.1871 442.954L88.5719 469.016C88.1339 470.147 87.7971 471.314 87.5654 472.505C84.5459 476.786 68.8311 457.689 68.8311 457.689Z" fill="#B16668"/>
<path d="M60.5912 467.016C60.5912 466.761 60.4838 464.694 60.5912 464.453C61.1682 462.238 62.5371 461.621 64.2951 460.427C66.058 459.238 67.675 457.846 69.1129 456.28C69.7033 455.461 69.8107 455.045 70.7233 454.67C72.28 454.039 74.7493 453.985 77.8627 455.609C82.9221 458.293 84.4653 461.46 84.1701 464.922C83.9554 467.606 83.7272 471.069 86.0623 472.639C87.0286 473.297 88.5584 469.069 88.5584 469.069C89.9944 471.485 87.9814 474.813 86.9212 479.684C86.3143 482.38 86.2686 485.171 86.787 487.884C87.297 492.165 87.8874 492.138 90.1554 492.447C92.1147 492.702 97.6706 492.326 101.039 494.688C105.696 497.936 104.448 502.257 104.448 502.257C103.844 503.908 98.7845 511.879 80.2917 508.9C74.9237 508.041 63.6509 499.613 63.8254 498.821C63.9192 498.014 63.9192 497.199 63.8254 496.392C63.8254 494.514 63.6778 492.621 63.5972 490.729C63.6564 488.934 63.5486 487.137 63.2752 485.361C62.9384 483.895 62.7097 482.406 62.5907 480.906C62.2418 477.108 61.8795 473.31 61.5306 469.512C61.3964 468.358 60.3899 468.076 60.5912 467.016Z" fill="#455A64"/>
<path d="M58.2561 466.251C56.431 468.009 57.5448 473.136 59.9873 479.282C61.0743 481.966 63.0873 486.69 62.4968 491.682C61.9063 496.674 61.7989 499.023 63.0873 501.371C65.1003 505.021 75.8497 509.705 82.1839 511.168C78.3515 505.802 76.118 499.46 75.7423 492.876C75.0982 481.858 74.2661 474.759 69.2336 469.888C62.8591 463.701 58.2561 466.251 58.2561 466.251Z" fill="black"/>
<path d="M104.448 502.203C104.448 502.203 100.744 509.155 86.4379 508.913C80.8015 508.819 77.7954 506.082 77.6478 497.52C77.4867 487.2 76.6547 476.786 73.3265 471.673C69.9984 466.56 64.6706 464.064 60.5507 464.426C59.5857 464.721 58.7667 465.367 58.2559 466.238C58.2559 466.238 62.3758 464.896 68.804 470.264C73.5412 474.196 74.8161 482.409 74.749 492.608C74.749 496.996 74.4538 502.002 75.7421 505.303C76.3339 506.767 77.2598 508.071 78.4459 509.113C79.632 510.154 81.0453 510.904 82.5729 511.302C90.3431 513.476 100.985 509.879 103.683 506.591C104.135 505.966 104.438 505.246 104.571 504.486C104.704 503.725 104.661 502.945 104.448 502.203Z" fill="#37474F"/>
<path d="M87.2297 490.514C87.8091 490.923 88.2194 491.529 88.3838 492.219C88.4442 493.099 88.2667 493.98 87.8701 494.768C87.4735 495.557 86.8722 496.224 86.1293 496.701C85.2704 497.238 84.5189 497.05 85.8877 495.238C86.768 493.82 87.2329 492.183 87.2297 490.514Z" fill="#FAFAFA"/>
<path d="M86.4916 485.173C86.4916 485.173 86.9479 485.468 87.0687 486.904C87.0687 487.669 85.928 490.769 84.3847 491.507C82.8414 492.246 83.7003 490.501 84.3847 489.655C85.4185 488.341 86.1391 486.808 86.4916 485.173Z" fill="#FAFAFA"/>
<path d="M87.0016 479.282C87.0016 479.282 87.4981 479.416 87.0016 481.389C86.2884 482.608 85.1876 483.553 83.8747 484.073C82.9085 484.18 82.4388 483.697 83.6332 482.838C84.5457 482.207 86.8271 480.235 87.0016 479.282Z" fill="#FAFAFA"/>
<path d="M96.2615 452.925C96.2615 452.925 100.811 442.256 117.009 406.035C121.907 395.071 123.182 386.939 124.417 381.557C125.759 375.961 131.234 348.383 131.234 348.383L138.293 394.253C136.923 400.206 136.084 406.268 135.783 412.37C135.783 419.939 136.736 431.44 138.883 447.047C142.158 470.894 143.044 483.281 143.044 483.281C144.721 484.489 150.049 486.837 159.148 486.327C163.307 485.9 167.364 484.77 171.145 482.986C171.145 482.986 173.212 458.172 174.071 440.874C174.862 424.904 176.178 406.854 176.849 397.218C178.191 379.128 178.54 371.331 178.727 342.814C178.915 313.29 176.661 269.755 176.661 269.755L92.7723 267.823C92.7723 267.823 87.2567 280.142 88.9476 305.614C88.29 330.481 84.5996 377.813 84.5996 377.813C79.9829 389.009 76.9956 400.809 75.7289 412.853C74.4943 424.609 72.6289 440.095 72.6289 440.095C81.5666 439.773 91.3364 445.544 96.2615 452.925Z" fill="#BA68C8"/>
<path opacity="0.2" d="M131.301 348.625L126.671 315.759C126.671 315.759 115.787 314.914 102.716 304.03C102.716 304.03 104.434 313.773 122.981 320.429L127.825 354.637L124.309 382.47C124.309 382.47 131.22 349.255 131.301 348.625Z" fill="black"/>
<path d="M196.737 237.413L199.649 237.91L201.381 240.339C201.125 240.885 200.993 241.48 200.993 242.083C200.993 242.686 201.125 243.282 201.381 243.828C202.28 245.613 203.581 245.049 203.581 245.049L204.923 241.815L205.46 237.319L201.797 234.085L198.2 233.374L196.737 237.413Z" fill="#B16668"/>
<path d="M207.312 235.937C207.695 237.205 207.741 238.551 207.446 239.842C207.126 241.01 206.714 242.149 206.212 243.251C205.836 244.043 204.36 244.043 203.447 242.057C202.696 240.419 203.756 236.769 203.756 236.769L207.312 235.937Z" fill="#B16668"/>
<path d="M212.801 231.428C213.204 233.495 214.438 237.373 214.666 238.876C214.895 240.379 213.029 240.218 213.029 240.218L208.627 233.884L212.801 231.428Z" fill="#B16668"/>
<path d="M196.294 216.062C198.267 215.257 198.227 215.23 200.938 216.666C204.618 218.723 208.131 221.065 211.446 223.671C213.271 225.308 212.788 228.489 212.788 231.227C212.788 233.964 213.284 236.917 212.788 237.682C212.721 237.791 212.632 237.886 212.528 237.96C212.423 238.035 212.305 238.087 212.179 238.115C212.054 238.143 211.925 238.145 211.798 238.121C211.672 238.097 211.552 238.048 211.446 237.977L196.294 216.062Z" fill="#B16668"/>
<path d="M213.485 240.822L215.847 249.062C215.86 249.115 215.856 249.171 215.837 249.221C215.817 249.272 215.782 249.316 215.737 249.347C215.692 249.377 215.638 249.393 215.584 249.393C215.529 249.392 215.476 249.375 215.431 249.344L208.52 244.244L213.485 240.822Z" fill="#FFA8A7"/>
<path d="M215.472 249.357L208.52 244.244L211.204 242.446L211.808 243.318L215.659 249.102L215.472 249.357Z" fill="#B16668"/>
<path d="M215.431 249.344C215.476 249.375 215.529 249.392 215.584 249.393C215.638 249.393 215.692 249.377 215.737 249.347C215.782 249.316 215.817 249.272 215.837 249.221C215.857 249.171 215.86 249.115 215.847 249.062L215.378 247.451C215.254 247.698 215.062 247.905 214.824 248.045C214.585 248.185 214.312 248.254 214.036 248.243H213.888L215.431 249.344Z" fill="#263238"/>
<path d="M184.633 209.808L185.089 210.452L185.626 211.244L208.52 244.244C209.464 244.433 210.444 244.266 211.271 243.774C211.844 243.498 212.343 243.09 212.728 242.584C213.113 242.078 213.373 241.488 213.486 240.862L190.564 207.876L189.517 206.373C190.175 207.393 185.263 210.815 184.633 209.808Z" fill="#455A64"/>
<path d="M184.633 209.808L185.089 210.452L185.626 211.244L208.52 244.244C209.095 244.355 209.687 244.339 210.254 244.197C210.822 244.056 211.352 243.792 211.808 243.425L187.974 208.681C188.068 208.614 188.068 208.56 187.974 208.533C186.686 209.54 184.981 210.372 184.633 209.808Z" fill="#37474F"/>
<path d="M186.337 212.291L187.357 213.74C187.638 214.17 188.699 213.821 189.826 213.19C191.289 212.371 192.644 210.868 192.268 210.291L191.53 209.218L191.262 208.842C191.624 209.419 190.269 210.922 188.806 211.741C187.746 212.345 186.699 212.693 186.377 212.331L186.337 212.291Z" fill="#EBEBEB"/>
<path d="M186.538 212.653C187.196 213.66 192.107 210.197 191.463 209.204L190.564 207.742C191.208 208.748 186.296 212.197 185.639 211.19L186.538 212.653Z" fill="#37474F"/>
<path d="M184.633 209.808L185.626 211.244C186.256 212.237 190.994 208.949 190.604 207.876L189.585 206.426C190.175 207.393 185.263 210.815 184.633 209.808Z" fill="#EBEBEB"/>
<path d="M215.726 249.357C215.689 249.377 215.648 249.387 215.606 249.387C215.563 249.387 215.522 249.377 215.485 249.357C215.522 249.377 215.563 249.387 215.606 249.387C215.648 249.387 215.689 249.377 215.726 249.357Z" fill="#FFA8A7"/>
<path d="M182.512 206.829L184.619 209.808C184.887 210.238 185.961 209.889 187.061 209.271C188.524 208.453 189.906 206.95 189.544 206.373L187.424 203.38C186.578 202.159 183.908 203.581 182.78 205.111C182.568 205.337 182.429 205.622 182.381 205.929C182.333 206.235 182.379 206.549 182.512 206.829Z" fill="#B16668"/>
<path opacity="0.1" d="M184.551 207.043C185.23 206.823 185.85 206.447 186.36 205.947C186.87 205.446 187.256 204.834 187.49 204.158C187.536 203.995 187.541 203.823 187.506 203.657C187.471 203.491 187.396 203.336 187.288 203.205C186.309 202.32 183.853 203.662 182.793 205.111C182.585 205.334 182.448 205.613 182.398 205.914C182.348 206.215 182.387 206.523 182.511 206.802C182.833 207.258 183.598 207.379 184.551 207.043Z" fill="black"/>
<path d="M196.818 227.375C198.871 229.482 201.166 230.059 205.125 231.146C206.996 231.884 208.768 232.854 210.399 234.031C211.969 235.092 212.707 237.051 209.701 238.447C207.688 239.386 205.138 238.218 202.991 237.802C201.917 237.598 200.824 237.508 199.73 237.534C196.617 237.722 196.08 238.715 192.564 239.507C189.048 240.299 186.243 239.426 184.284 239.762C182.324 240.097 136.589 253.799 136.589 253.799L136.106 228.301C136.106 228.301 174.34 225.429 180.499 224.369C185.492 223.497 191.396 219.417 191.396 219.417L196.818 227.375Z" fill="#B16668"/>
<path d="M184.351 223.215C183.091 223.753 181.777 224.153 180.432 224.409C174.272 225.469 136.039 228.341 136.039 228.341L136.522 253.839C136.522 253.839 182.257 240.151 184.216 239.802C184.663 239.756 185.112 239.756 185.558 239.802L184.351 223.215Z" fill="#B16668"/>
<path d="M207.084 224.396C206.774 224.824 206.324 225.131 205.811 225.261C205.298 225.391 204.756 225.336 204.279 225.107C203.474 224.678 200.804 222.571 200.804 222.571L207.514 232.193C207.295 231.347 207.328 230.457 207.608 229.63C207.806 229.334 208.061 229.081 208.359 228.885C208.656 228.689 208.989 228.555 209.339 228.489C208.587 228.372 207.818 228.534 207.178 228.945C206.693 228.683 206.278 228.309 205.968 227.854C205.657 227.398 205.46 226.875 205.393 226.328C207.111 225.134 207.084 224.396 207.084 224.396Z" fill="#B16668"/>
<path d="M92.182 163.12C86.6261 173.735 87.0421 185.76 88.6525 200.696C90.1287 214.411 91.1621 222.92 92.4236 239.896C93.94 259.234 91.256 271.473 91.256 271.473C91.256 271.473 102.515 287.107 126.698 293.267C169.186 304.084 178.151 290.087 178.151 290.087C178.151 290.087 177.775 275.325 177.828 263.851C177.828 253.504 177.641 241.251 177.292 231.066C176.473 207.674 176.205 188.242 173.494 179.908C171.494 175.292 169.401 173.467 164.288 171.145C160.074 169.226 152.035 165.334 146.036 163.013C135.008 159.024 123.784 155.602 112.406 152.76C108.386 152.273 104.313 153 100.709 154.846C97.1052 156.692 94.1357 159.574 92.182 163.12Z" fill="#37474F"/>
<path d="M149.123 152.76L146.064 163.013C138.844 163.241 122.458 160.329 119.049 157.041L122.203 144.936L149.123 152.76Z" fill="#B16668"/>
<path d="M173.198 123.585C173.198 123.585 175.976 126.604 176.862 135.488L171.494 138.172C170.971 131.905 170.434 125.558 173.198 123.585Z" fill="#B16668"/>
<path d="M165.24 97.7244C174.044 99.9655 177.318 108.823 172.299 127.141C172.917 147.097 165.777 153.632 162.905 155.685C156.759 157.645 150.988 157.027 143.648 153.659C138.052 150.975 123.961 143.876 119.492 133.529C114.124 121.303 115.291 104.408 124.242 99.6971C136.723 93.0006 160.584 96.5434 165.24 97.7244Z" fill="#B16668"/>
<path d="M164.57 142.655C164.672 142.702 164.764 142.77 164.838 142.856C164.838 142.856 164.838 143.003 164.945 143.071C165.027 143.227 165.116 143.38 165.214 143.527C165.428 143.843 165.68 144.132 165.965 144.386C166.499 144.838 167.095 145.208 167.737 145.486C167.76 145.496 167.781 145.513 167.795 145.535C167.809 145.556 167.817 145.581 167.817 145.607C167.834 145.636 167.842 145.668 167.842 145.701C167.842 145.734 167.834 145.766 167.817 145.795C167.683 145.902 167.442 145.795 167.281 145.795C167.095 145.746 166.916 145.678 166.744 145.594C166.37 145.416 166.019 145.195 165.697 144.936C165.383 144.687 165.104 144.398 164.865 144.077C164.745 143.92 164.638 143.754 164.543 143.581L164.409 143.339C164.354 143.187 164.354 143.021 164.409 142.869C164.409 142.869 164.462 142.601 164.57 142.655Z" fill="#B16668"/>
<path d="M162.838 155.672C161.215 156.813 152.814 157.859 148.076 156.423L149.177 152.746C153.576 154.341 158.172 155.325 162.838 155.672Z" fill="#B16668"/>
<path d="M120.538 95.282L114.432 90.1555C115.128 89.3499 116.114 88.8525 117.175 88.772C118.236 88.6916 119.286 89.0346 120.095 89.7261C120.495 90.058 120.824 90.4665 121.063 90.9275C121.302 91.3886 121.447 91.8929 121.488 92.4107C121.53 92.9284 121.467 93.4492 121.304 93.9424C121.14 94.4355 120.88 94.891 120.538 95.282Z" fill="#263238"/>
<path d="M242.124 279.431C240.54 277.848 238.957 276.438 237.641 275.19C236.554 274.157 235.145 272.735 232.73 270.077C231.71 268.937 230.583 269.5 228.462 268.803C226.342 268.105 226.973 266.427 225.644 265.796C224.087 265.045 223.55 265.515 222.047 264.817C220.195 263.971 219.243 261.985 216.975 262.831C212.882 264.347 211.607 266.239 205.93 261.019C191.946 248.095 183.331 239.842 183.331 239.842C183.331 239.842 180.647 204.454 179.546 196.294C178.003 185.223 178.352 177.506 163.872 172.782C163.872 172.782 152.263 178.15 153.136 199.153C153.927 217.31 156.048 235.199 157.162 243.949C158.061 251.33 159.376 252.256 168.622 258.644C191.329 274.345 194.832 276.855 197.69 278.693C201.528 281.162 205.487 284.061 209.768 284.343C213.7 284.544 219.337 281.968 222.088 280.465C226.503 278.062 230.14 276.814 231.549 277.163C232.958 277.512 235.575 280.303 238.259 281.028C240.943 281.753 242.902 280.196 242.124 279.431Z" fill="#B16668"/>
<path d="M164.315 171.145C171.025 174.192 173.709 175.789 177.225 181.519C179.546 185.303 179.909 189.41 180.915 199.448C181.761 208.225 182.928 224.946 182.928 224.946C182.928 224.946 181.425 228.972 171.669 232.153C166.034 234.085 159.905 234.014 154.317 231.951C154.317 231.951 152.398 214.438 151.74 207.191C150.841 197.368 150.103 178.486 164.315 171.145Z" fill="#BA68C8"/>
<path d="M415.631 86.1161L454.844 108.796C455.609 109.252 456.186 110.339 456.186 112.433V160.356C456.186 160.034 455.555 161.121 454.777 161.55L449.207 164.717C448.772 164.935 448.292 165.049 447.805 165.049C447.318 165.049 446.838 164.935 446.403 164.717L407.189 142.037C406.792 141.765 406.464 141.403 406.231 140.981C405.998 140.56 405.867 140.09 405.847 139.608V91.6854C405.873 91.1998 406.015 90.7273 406.26 90.3072C406.505 89.8871 406.847 89.5315 407.256 89.2698L412.826 86.1027C413.263 85.8894 413.743 85.7797 414.23 85.782C414.716 85.7843 415.195 85.8987 415.631 86.1161Z" fill="#BA68C8"/>
<path opacity="0.2" d="M446.457 164.704C446.893 164.919 447.373 165.031 447.859 165.031C448.345 165.031 448.825 164.919 449.261 164.704L454.831 161.537C455.609 161.107 456.24 160.02 456.24 160.342V112.433C456.366 111.514 456.212 110.578 455.797 109.749L447.436 114.553C447.705 114.983 447.852 115.479 447.852 114.728V162.637C447.852 164.717 447.275 165.187 446.457 164.704Z" fill="black"/>
<path opacity="0.3" d="M405.86 91.4303C405.981 90.7191 406.558 90.4775 407.202 90.8667L446.402 113.56C446.817 113.814 447.156 114.175 447.381 114.607L455.742 109.802C455.51 109.39 455.178 109.044 454.776 108.796L415.576 86.116C415.141 85.8976 414.661 85.7839 414.174 85.7839C413.687 85.7839 413.206 85.8976 412.771 86.116L407.202 89.2831C406.843 89.5295 406.538 89.8473 406.307 90.2168C406.076 90.5862 405.924 90.9994 405.86 91.4303Z" fill="white"/>
<path d="M460.078 146.761C460.95 146.238 467.66 142.467 467.875 142.333C468.032 142.227 468.165 142.089 468.265 141.928C468.364 141.767 468.429 141.587 468.454 141.4C468.48 141.212 468.465 141.021 468.412 140.84C468.358 140.658 468.267 140.49 468.143 140.346L456.28 126.685L447.852 131.516L460.306 144.802C460.427 144.942 460.517 145.106 460.571 145.284C460.626 145.461 460.642 145.647 460.621 145.831C460.6 146.015 460.54 146.193 460.447 146.353C460.353 146.513 460.228 146.652 460.078 146.761Z" fill="#BA68C8"/>
<path opacity="0.3" d="M460.078 146.761C460.95 146.238 467.66 142.467 467.875 142.333C468.032 142.227 468.165 142.089 468.265 141.928C468.364 141.767 468.429 141.587 468.454 141.4C468.48 141.212 468.465 141.021 468.412 140.84C468.358 140.658 468.267 140.49 468.143 140.346L456.28 126.685L447.852 131.516L460.306 144.802C460.427 144.942 460.517 145.106 460.571 145.284C460.626 145.461 460.642 145.647 460.621 145.831C460.6 146.015 460.54 146.193 460.447 146.353C460.353 146.513 460.228 146.652 460.078 146.761Z" fill="white"/>
<path d="M407.243 90.8802L446.456 113.56C446.854 113.829 447.183 114.188 447.416 114.608C447.649 115.027 447.78 115.496 447.798 115.976V131.516L460.306 144.802C460.476 144.973 460.593 145.19 460.644 145.426C460.695 145.662 460.677 145.908 460.592 146.134C460.507 146.36 460.359 146.557 460.166 146.701C459.972 146.846 459.742 146.932 459.501 146.949L447.839 146.09V163.898C447.839 164.784 447.221 165.147 446.497 164.704L407.283 142.024C406.886 141.751 406.558 141.39 406.325 140.968C406.093 140.546 405.961 140.076 405.941 139.595V91.6854C405.847 90.7863 406.478 90.424 407.243 90.8802Z" fill="#BA68C8"/>
<path d="M422.341 141.38H421.938C421.44 141.31 420.967 141.118 420.562 140.821C420.157 140.523 419.832 140.13 419.616 139.675L414.785 129.503C414.445 128.781 414.406 127.953 414.677 127.201C414.947 126.45 415.505 125.837 416.228 125.497C416.95 125.157 417.778 125.118 418.53 125.389C419.281 125.659 419.894 126.217 420.234 126.94L423.092 132.858L436.901 116.754C437.435 116.142 438.19 115.767 439.001 115.711C439.811 115.656 440.61 115.925 441.223 116.459C441.835 116.993 442.21 117.748 442.265 118.558C442.321 119.369 442.052 120.168 441.518 120.78L424.676 140.387C424.382 140.712 424.021 140.97 423.618 141.142C423.215 141.313 422.779 141.394 422.341 141.38Z" fill="#FAFAFA"/>
<path fill-rule="evenodd" clip-rule="evenodd" d="M174.572 113.3C174.698 111.623 174.47 109.67 174.306 108.014C174.094 105.879 173.475 103.847 172.725 101.89C171.311 98.2059 169.384 94.7168 167.062 91.6409C162.822 86.0224 156.678 81.8597 149.829 81.0064C146.371 80.5755 142.795 81.0322 139.495 82.4531C136.513 83.7369 133.402 85.9456 130.107 85.3384C126.521 84.6776 124.055 80.7818 121.699 78.1682C119.043 75.2215 116.037 72.8076 112.457 71.2681C106.461 68.6894 100.066 69.3185 94.4906 73.3277C88.5575 77.594 83.247 84.696 84.4706 92.6141C84.6981 94.0859 85.1379 95.3887 85.9391 96.5772C86.6738 97.6672 87.8946 98.9362 87.9387 100.396C87.9853 101.948 86.2999 103.514 85.501 104.705C84.3564 106.41 83.3098 108.239 82.9995 110.326C82.4901 113.753 83.8151 117.476 85.5069 120.233C87.2285 123.039 89.7142 125.022 92.5633 126.361C94.4658 127.255 96.4564 127.982 98.5269 128.341C99.5548 128.519 100.515 128.464 101.548 128.486C102.553 128.509 103.022 128.891 103.7 129.61C106.85 132.947 110.649 134.881 115.067 135.603C118.796 136.212 123.226 136.385 126.824 134.647C130.821 132.716 131.703 128.9 131.936 124.647C132.66 125.258 134.88 126.078 133.919 124.122C133.538 123.347 132.582 122.832 131.983 122.283C131.284 121.644 130.606 120.873 130.157 120.002C128.345 116.485 132.366 111.249 135.79 111.074C140.875 110.815 140.282 117.705 143.229 120.26C144.923 121.729 147.289 120.888 149.085 119.875C151.492 118.518 153.428 116.408 155.193 114.21C156.647 112.4 158.042 110.544 159.512 108.749C160.198 107.91 162.423 105.611 161.91 104.342C165.463 104.517 168.886 106.851 171.346 109.407C172.363 110.464 173.074 111.527 173.384 113.022C173.45 113.342 173.538 114.267 173.906 114.395C174.591 114.635 174.54 113.721 174.572 113.3Z" fill="#191847"/>
</svg>
