<svg width="519" height="384" viewBox="0 0 519 384" fill="none" xmlns="http://www.w3.org/2000/svg">
<path d="M54 45C54.5898 46.8689 55.3496 48.6798 56.27 50.41" stroke="#263238" stroke-linecap="round" stroke-linejoin="round"/>
<path d="M1 91C2.82697 91.478 4.52977 92.3434 5.9929 93.5374C7.45604 94.7313 8.6453 96.226 9.48 97.92" stroke="#263238" stroke-linecap="round" stroke-linejoin="round"/>
<path d="M175.87 197.88L88.2598 197.75C88.2598 197.75 92.6198 192.08 97.4298 191.38C97.4298 191.38 106.81 163.59 122.43 163.38C136.96 163.22 142.76 180.52 142.76 180.52C142.76 180.52 149.51 172.77 155.94 176.33C162.37 179.89 166 190.07 166 190.07C166 190.07 173.25 194 175.87 197.88Z" fill="#EBEBEB"/>
<path d="M391 61.4L501.79 61.57C501.79 61.57 501.79 54.49 486.54 53.08C486.54 53.08 472.65 22.08 451.37 26.24C438.07 28.81 431.27 47 431.27 47C431.27 47 421.27 32.67 413.27 35.43C405.27 38.19 400.48 53.43 400.48 53.43C400.48 53.43 392.21 57.4 391 61.4Z" fill="#EBEBEB"/>
<path d="M147.479 295.83L258.269 296C258.269 296 258.269 288.92 243.019 287.51C243.019 287.51 229.129 256.51 207.849 260.67C194.599 263.24 187.849 281.42 187.849 281.42C187.849 281.42 177.849 267.09 169.849 269.85C161.849 272.61 157.059 287.85 157.059 287.85C157.059 287.85 148.739 291.83 147.479 295.83Z" fill="#EBEBEB"/>
<path d="M202.88 28.63L278.21 28.75C278.21 28.75 271.11 22.12 267.95 22.11C264.79 22.1 255.61 -0.119984 243.82 0.810016C232.03 1.74002 225.76 18.27 225.76 18.27C225.76 18.27 211.44 13.76 202.88 28.63Z" fill="#EBEBEB"/>
<path d="M357.87 331.91L433.2 332.02C433.2 332.02 426.11 325.4 422.95 325.39C419.79 325.38 410.6 303.16 398.81 304.08C387.02 305 380.75 321.54 380.75 321.54C380.75 321.54 366.44 317 357.87 331.91Z" fill="#EBEBEB"/>
<path d="M377.66 194.62L442.08 194.72C442.08 194.72 438.88 190.54 435.35 190.02C435.35 190.02 428.52 169.56 417.02 169.39C406.33 169.24 402.02 181.95 402.02 181.95C402.02 181.95 397.08 176.24 392.34 178.84C387.6 181.44 384.92 188.9 384.92 188.9C384.92 188.9 379.59 191.75 377.66 194.62Z" fill="#EBEBEB"/>
<path d="M211.129 236.37C204.499 241.46 197.809 246.47 191.129 251.46L170.959 266.34L150.629 281L140.429 288.28L130.159 295.47L140.159 287.88L150.159 280.38L170.329 265.5L190.639 250.81C197.459 246 204.259 241.13 211.129 236.37Z" fill="#263238"/>
<path d="M177.77 339.4C172.89 343.21 167.95 346.94 163 350.66C158.05 354.38 153 358.02 148.07 361.66C143.14 365.3 138.05 369 133 372.57L125.41 377.94C122.87 379.69 120.34 381.48 117.77 383.22C120.2 381.3 122.68 379.43 125.13 377.54L132.55 372C137.55 368.28 142.55 364.64 147.48 360.95C152.41 357.26 157.48 353.68 162.55 350.09C167.62 346.5 172.65 342.88 177.77 339.4Z" fill="#263238"/>
<path d="M379.51 254.86C374.63 258.68 369.69 262.41 364.74 266.13C359.79 269.85 354.79 273.49 349.81 277.18C344.83 280.87 339.81 284.45 334.75 288.04L327.17 293.4C324.62 295.16 322.09 296.95 319.52 298.68C321.96 296.77 324.43 294.9 326.88 293.01L334.29 287.42C339.29 283.7 344.29 280.05 349.22 276.37C354.15 272.69 359.22 269.1 364.29 265.51C369.36 261.92 374.39 258.35 379.51 254.86Z" fill="#263238"/>
<path d="M464.099 127.34C459.219 131.16 454.279 134.89 449.329 138.6C444.379 142.31 439.329 145.97 434.399 149.65C429.469 153.33 424.399 156.93 419.329 160.51L411.749 165.88C409.199 167.64 406.679 169.42 404.109 171.16C406.539 169.24 409.009 167.38 411.459 165.48L418.879 159.89C423.829 156.18 428.829 152.53 433.809 148.89C438.789 145.25 443.809 141.61 448.869 138.02C453.929 134.43 458.999 130.82 464.099 127.34Z" fill="#263238"/>
<path d="M168.13 122.86C163.25 126.68 158.31 130.41 153.36 134.12C148.41 137.83 143.36 141.49 138.43 145.12C133.5 148.75 128.43 152.4 123.37 155.98L115.79 161.35C113.24 163.11 110.71 164.89 108.14 166.63C110.58 164.71 113.05 162.85 115.5 160.95L122.91 155.36C127.91 151.65 132.91 148 137.84 144.36C142.77 140.72 147.84 137.08 152.91 133.5C157.98 129.92 163 126.34 168.13 122.86Z" fill="#263238"/>
<path d="M452.4 122.52C449.47 124.91 446.48 127.22 443.48 129.52C440.48 131.82 437.42 134.03 434.4 136.3C431.38 138.57 428.28 140.72 425.18 142.89L420.52 146.12C418.95 147.12 417.4 148.24 415.81 149.26C417.26 148.05 418.76 146.9 420.24 145.72L424.73 142.26C427.73 139.97 430.73 137.75 433.81 135.49C436.89 133.23 439.93 131.06 443.03 128.9C446.13 126.74 449.23 124.58 452.4 122.52Z" fill="#263238"/>
<path d="M163.67 113.92C160.75 116.31 157.75 118.62 154.75 120.92C151.75 123.22 148.75 125.44 145.67 127.7C142.59 129.96 139.55 132.13 136.45 134.29L131.8 137.52C130.22 138.57 128.67 139.64 127.08 140.66C128.54 139.46 130.08 138.3 131.51 137.12L136 133.66C139 131.37 142 129.14 145.08 126.88C148.16 124.62 151.2 122.45 154.3 120.29C157.4 118.13 160.5 116 163.67 113.92Z" fill="#263238"/>
<path d="M210.63 218.81C205.75 222.62 200.81 226.35 195.86 230.07C190.91 233.79 185.86 237.43 180.93 241.12C176 244.81 170.93 248.39 165.87 251.98L158.29 257.35C155.74 259.11 153.21 260.89 150.64 262.63C153.08 260.71 155.55 258.84 158 256.95L165.41 251.36C170.41 247.64 175.41 244 180.34 240.31C185.27 236.62 190.34 233.04 195.41 229.45C200.48 225.86 205.51 222.29 210.63 218.81Z" fill="#263238"/>
<path d="M333.699 270.38L317.749 282.36L301.729 294.26L269.599 317.92L237.339 341.4L221.159 353.07L204.909 364.66L220.869 352.68L236.879 340.78L269.009 317.12L301.279 293.64L317.459 281.97L333.699 270.38Z" fill="#263238"/>
<path d="M387.56 81.77C379.81 89.1 371.74 99.2 361.15 102.38C352.84 104.85 343.95 102.69 336.32 99.09C319.56 91.16 303.32 73.82 308.32 53.82C310.32 45.82 320.39 36.07 329.41 38.67C334.04 40.02 337.64 43.26 341.56 45.91C343.929 47.626 346.654 48.7867 349.533 49.3061C352.412 49.8254 355.371 49.69 358.19 48.91C370.02 45.91 375.36 39.84 384.99 32.91C385.895 32.1558 386.949 31.5997 388.082 31.2776C389.215 30.9555 390.404 30.8746 391.57 31.04C394.285 31.2625 396.888 32.2201 399.1 33.81C401.321 34.8756 403.242 36.4771 404.69 38.47C407.69 42.79 407.33 49.75 407.69 54.78C408.05 59.81 406.88 63.38 403.19 66.98C398 72 392.76 76.84 387.56 81.77Z" fill="#263238"/>
<path d="M384.62 86.05C391.29 78.87 397.82 71.58 404.39 64.32C404.39 64.32 404.39 64.21 404.33 64.25C398.75 70.07 393.09 75.8 387.58 81.69C382.07 87.58 377 93.77 371.13 99.05C357.92 110.9 340.52 101.8 331.32 89.81C330.9 89.27 330.08 90 330.52 90.53C338.93 100.81 352.72 109.84 366.25 103.44C373.66 100 379.16 91.91 384.62 86.05Z" fill="#263238"/>
<path d="M386.38 45.2458C386.52 45.1258 386.33 44.9158 386.18 45.0358C378.5 51.0358 370.11 58.8358 360.05 60.1858C355.092 60.8451 350.051 59.9875 345.59 57.7258C342.06 55.9358 339.42 53.0758 336.35 50.6658C324.35 41.2458 308.92 54.3558 310.06 67.7558C310.06 68.0358 310.57 68.0058 310.56 67.7558C310.17 57.9658 316.93 48.7558 327.18 48.1958C335.41 47.7258 340.18 56.3658 347.27 59.1958C362.07 65.1258 375.84 54.7058 386.38 45.2458Z" fill="#263238"/>
<path d="M175.24 51.87C178.03 47.03 246.47 52.38 304.51 58.31H304.56C330.75 60.99 356.15 61.48 371.88 64.13C381.88 65.81 386.88 70.13 387.88 71.64C391.22 76.76 396.62 92.54 367.65 108.36C345.75 120.36 321.01 130.43 301.22 150.36C281.43 170.29 268.55 196.7 267.62 215.62C266.69 234.54 278.26 254.06 277.13 251.95C276.78 251.31 271.68 251.03 265.07 246.1C256.96 240.1 248.07 228.23 241.61 224.32C228.38 216.32 209.37 215.21 196.35 198.57C182.61 181 182 152.83 177.12 130C171.19 102.28 151.18 93.66 175.24 51.87Z" fill="#37474F"/>
<path d="M179.05 140.3C178.46 136.79 177.84 133.3 177.12 130C175.618 123.563 173.449 117.299 170.65 111.31C170.65 111.31 233.5 103.14 250.46 112.6C259.74 117.77 230.86 117 179.05 140.3Z" fill="#263238"/>
<path d="M251.54 233.2C247.93 229.46 244.54 226.08 241.6 224.31C238.192 222.343 234.622 220.671 230.93 219.31C237.77 194.38 244.23 177.36 256.53 167C264.41 160.35 241.8 201.11 251.54 233.2Z" fill="#263238"/>
<path d="M182.21 159.87C181.65 156.7 181.14 153.51 180.64 150.32C201.26 144.63 219.26 135.06 219.15 137.77C219 140.72 196.1 152.84 182.21 159.87Z" fill="#263238"/>
<path d="M150.71 105.4C150.71 105.4 148 79.72 168.6 51.54C170.6 48.8 201.11 39.73 220.73 40.34C240.35 40.95 254.47 48.4 277.17 54.43C299.87 60.46 362.17 60.08 376.6 64.96C386.55 68.31 387.84 71.66 387.84 71.66C387.84 71.66 376.35 66.52 369.16 65.81C340.75 63.01 288.69 72.23 275.5 70.52C259.41 68.42 241.63 64.9 228.19 66.52C213.13 68.36 160.33 97.22 150.71 105.4Z" fill="#455A64"/>
<path d="M376.82 125.86C375.53 132.997 372.911 139.829 369.1 146C352.49 172.75 318.05 216.49 310.2 228.69C295.92 250.94 228.6 296 228.6 296L207.6 263.37C207.6 263.37 272.01 206.05 272.83 204.56C277.5 196.1 314.59 141.83 314.69 140.09C315.59 122.29 331 107 331 107L376.82 125.86Z" fill="#263238"/>
<path d="M376.81 125.86C375.658 132.345 373.398 138.582 370.13 144.3C348.35 145.73 323.05 139.91 314.84 137.83C316.88 121 331 107 331 107L376.81 125.86Z" fill="#455A64"/>
<path d="M197.43 343.78C195.78 342.13 175.26 283.37 175.55 280.53C175.55 280.04 182.89 276.97 194.87 272.25C195.7 271.92 255.03 219.47 255.03 219.47L283.3 258.88L209.07 309.7C209.07 309.7 205.21 334.7 204.55 337.77C203.89 340.84 199.08 345.43 197.43 343.78Z" fill="#93278F"/>
<path opacity="0.3" d="M283.3 258.88L273.09 265.88L245.42 228L255.03 219.51L283.3 258.88Z" fill="white"/>
<path opacity="0.1" d="M283.31 258.88L248.48 282.71L248.69 225.08C252.59 221.63 255.04 219.48 255.04 219.48L283.31 258.88Z" fill="black"/>
<path opacity="0.1" d="M316.18 144.77C313.473 149.717 310.65 154.593 307.71 159.4C304.8 164.22 301.79 168.98 298.76 173.73C295.73 178.48 292.61 183.16 289.42 187.8C286.23 192.44 283 197.06 279.51 201.51L283.76 194.2C285.2 191.77 286.64 189.35 288.11 186.95C291.03 182.14 294.05 177.39 297.11 172.65C300.17 167.91 303.26 163.21 306.43 158.56C309.6 153.91 312.82 149.3 316.18 144.77Z" fill="white"/>
<path d="M295.69 249.39L290.54 211C290.54 211 351.39 192.95 352.95 189.49C353.57 188.14 314.12 162.21 314.51 133.17C314.71 118.67 330.77 107.01 330.77 107.01L367.37 122.31C367.37 122.31 362.14 135.07 363.75 137.22C367.24 141.9 413.15 178.22 410.57 201.03C407.89 224.67 295.69 249.39 295.69 249.39Z" fill="#263238"/>
<path d="M363.75 137.2C347.01 131.48 328.22 138.2 316.18 144.2C315.053 140.643 314.489 136.931 314.51 133.2C314.71 118.7 330.77 107.04 330.77 107.04L367.38 122.34C367.38 122.34 362.15 135 363.75 137.2Z" fill="#455A64"/>
<path d="M350.89 126.69C353.525 127.694 355.96 129.16 358.08 131.02C359.154 131.924 360.172 132.893 361.13 133.92C362.085 134.945 362.961 136.041 363.75 137.2C361.6 135.41 359.56 133.55 357.44 131.78C356.39 130.89 355.32 130.03 354.23 129.18C353.14 128.33 352.05 127.48 350.89 126.69Z" fill="#263238"/>
<path d="M357.55 128.72C358.367 129.024 359.12 129.479 359.77 130.06C360.43 130.628 361.021 131.273 361.53 131.98C362.542 133.398 363.191 135.043 363.42 136.77C362.93 136.05 362.52 135.32 362.07 134.62C361.62 133.92 361.18 133.23 360.71 132.56C359.751 131.205 358.695 129.922 357.55 128.72Z" fill="#263238"/>
<path d="M353 189.47C354.357 189.964 355.649 190.619 356.85 191.42C358.058 192.207 359.211 193.075 360.3 194.02C361.387 194.956 362.415 195.958 363.38 197.02C364.343 198.09 365.225 199.23 366.02 200.43C363.84 198.54 361.79 196.6 359.65 194.75C358.59 193.82 357.5 192.92 356.4 192.03C355.3 191.14 354.14 190.29 353 189.47Z" fill="#37474F"/>
<path d="M316.18 144.18C316.739 146.075 317.482 147.91 318.4 149.66C318.83 150.55 319.3 151.42 319.77 152.29C320.24 153.16 320.77 154 321.28 154.83C321.79 155.66 322.33 156.5 322.88 157.32L324.55 159.76C325.74 161.34 326.89 162.94 328.16 164.46C330.59 167.58 333.28 170.46 335.96 173.38L340.11 177.62C341.52 179.01 342.96 180.37 344.36 181.77C342.84 180.5 341.36 179.18 339.85 177.89L335.54 173.78C332.725 170.964 330.054 168.007 327.54 164.92C325.031 161.831 322.758 158.559 320.74 155.13C318.675 151.732 317.137 148.04 316.18 144.18Z" fill="#37474F"/>
<path opacity="0.1" d="M328.87 111C326.377 113.946 324.335 117.245 322.81 120.79C321.273 124.269 320.365 127.994 320.13 131.79C319.944 135.556 320.533 139.32 321.86 142.85C322.537 144.61 323.349 146.315 324.29 147.95C325.22 149.62 326.23 151.25 327.29 152.84C329.419 156.033 331.73 159.101 334.21 162.03C336.67 165.03 339.29 167.82 341.97 170.6C344.65 173.38 347.45 176.05 350.3 178.65C353.15 181.25 356.08 183.81 359.07 186.28C352.598 181.952 346.512 177.074 340.88 171.7C335.169 166.374 330.058 160.438 325.64 154C324.553 152.373 323.533 150.707 322.58 149C321.6 147.268 320.764 145.459 320.08 143.59C318.728 139.809 318.213 135.78 318.57 131.78C319.435 123.852 323.084 116.489 328.87 111Z" fill="white"/>
<path d="M254.93 281.67C254.01 279.52 256.84 217.35 258.18 214.82C258.4 214.38 266.31 214.25 279.18 214.33C280.08 214.33 338.56 194.95 338.56 194.95L359 235.49L278.44 254.38C278.44 254.38 265.56 276.13 263.8 278.75C262.04 281.37 255.85 283.81 254.93 281.67Z" fill="#93278F"/>
<path opacity="0.3" d="M359 235.49L346.21 238.49L327.53 198.61L338.56 195L359 235.49Z" fill="white"/>
<path d="M379.999 82.57C390.689 105.46 405.089 126.97 412.749 128C423.059 129.38 446.259 121.26 457.909 115.94C461.329 114.37 448.609 87.94 444.909 89.64C440.479 91.64 417.759 102.46 417.269 102.52C416.269 102.65 394.269 83.64 389.109 78.97C380.549 71.17 375.239 72.41 379.999 82.57Z" fill="#AD6359"/>
<path d="M475 107.05C470.5 111.4 457.81 116.68 454.26 116.78C450.71 116.88 441 95.6 442.67 92.37C444.34 89.14 460.67 75.68 467.03 75.1C473.39 74.52 479.64 102.54 475 107.05Z" fill="#AD6359"/>
<path d="M457.43 78C456.58 81.2 460.84 80.37 460.84 80.37C460.84 80.37 454.99 83.05 455.39 86.69C455.79 90.33 460.9 89.02 461.27 88.94C460.96 89.08 455.65 91.68 456.43 95.3C457.21 98.92 462.18 96.99 462.5 96.86C462.25 97.08 459.02 100.15 460.23 102.77C462.33 107.26 470.81 99.65 474.81 100.03C474.81 100.03 474.93 106.88 474.97 107.08C474.97 107.08 483.19 100 483.41 94.58C483.453 93.7916 483.225 93.0121 482.765 92.3703C482.305 91.7285 481.64 91.2628 480.88 91.05C480.88 91.05 483.78 89.05 483.26 86.19C482.99 84.72 480.39 83.85 480.39 83.85C481.023 83.3581 481.508 82.7012 481.792 81.9514C482.076 81.2016 482.148 80.388 482 79.6C481.51 77.6 479 77.03 479 77.03C479 77.03 480.41 74.4 479.24 72.5C476.88 68.67 459.25 71.1 457.43 78Z" fill="#AD6359"/>
<path d="M478.61 76.88C478.623 76.88 478.636 76.8747 478.646 76.8653C478.655 76.856 478.66 76.8432 478.66 76.83C478.66 76.8167 478.655 76.804 478.646 76.7946C478.636 76.7853 478.623 76.78 478.61 76.78C472.386 76.1235 466.109 77.3719 460.61 80.36C460.43 80.46 460.52 80.78 460.73 80.71C466.473 78.5741 472.496 77.284 478.61 76.88Z" fill="#263238"/>
<path d="M480.47 83.77C480.54 83.77 480.53 83.65 480.47 83.64C473.598 82.978 466.716 84.7978 461.07 88.77C460.87 88.91 460.85 89.24 461.07 89.09C465 86.57 474.73 84.07 480.47 83.77Z" fill="#263238"/>
<path d="M462.2 97.26C467.76 93.43 473.99 91.77 480.63 90.98C480.71 90.98 480.69 90.85 480.63 90.84C477.27 90.34 473.09 91.28 469.9 92.29C466.923 93.1719 464.227 94.8161 462.08 97.06C462 97.15 462.09 97.34 462.2 97.26Z" fill="#263238"/>
<path d="M460.84 80.34C459.779 80.9602 458.775 81.673 457.84 82.47C456.89 83.2107 456.155 84.1909 455.71 85.31C455.537 85.834 455.562 86.4031 455.78 86.91C456.002 87.4129 456.346 87.8527 456.78 88.19C457.252 88.4852 457.781 88.6771 458.333 88.753C458.884 88.8288 459.446 88.7869 459.98 88.63L462.62 87.98L460.37 89.51C459.361 90.179 458.469 91.0102 457.73 91.97C457.364 92.3938 457.092 92.8895 456.93 93.4252C456.768 93.9609 456.72 94.5247 456.79 95.08C456.853 95.6036 457.096 96.0892 457.477 96.4539C457.858 96.8186 458.354 97.0398 458.88 97.08C460.048 97.1403 461.212 96.8993 462.26 96.38L465.2 95L462.86 97.19C462.211 97.8039 461.64 98.4958 461.16 99.25C460.678 99.9467 460.416 100.773 460.41 101.62C460.421 102.001 460.539 102.371 460.749 102.689C460.959 103.007 461.254 103.26 461.6 103.42C462.426 103.661 463.304 103.661 464.13 103.42C465.929 102.922 467.688 102.287 469.39 101.52C470.26 101.17 471.13 100.81 472.03 100.52C472.908 100.146 473.856 99.9651 474.81 99.99C473.872 100.072 472.959 100.333 472.12 100.76C471.27 101.14 470.43 101.57 469.58 101.99C467.9 102.891 466.139 103.631 464.32 104.2C463.35 104.518 462.308 104.55 461.32 104.29C460.79 104.088 460.331 103.735 460 103.275C459.67 102.814 459.482 102.267 459.46 101.7C459.436 100.636 459.736 99.5897 460.32 98.7C460.836 97.8518 461.458 97.0723 462.17 96.38L462.78 97.26C461.545 97.8916 460.166 98.1881 458.78 98.12C458.027 98.0537 457.32 97.7286 456.78 97.2C456.25 96.6513 455.901 95.9532 455.78 95.2C455.687 94.4964 455.746 93.7812 455.951 93.1019C456.156 92.4225 456.503 91.7946 456.97 91.26C457.796 90.2164 458.789 89.3175 459.91 88.6L460.3 89.48C459.63 89.6463 458.931 89.6654 458.253 89.5359C457.574 89.4065 456.932 89.1315 456.37 88.73C455.838 88.2917 455.428 87.7233 455.18 87.08C454.937 86.4354 454.937 85.7246 455.18 85.08C455.722 83.9023 456.581 82.8983 457.66 82.18C458.647 81.4479 459.714 80.8306 460.84 80.34Z" fill="#263238"/>
<path d="M445 89.59C445 89.59 455.31 65.11 462.9 73.83C465.16 76.42 471.33 89.75 468.68 91.05C465.25 92.71 461.68 87.63 459.88 84.05C459.88 84.05 457.54 92.87 450.88 93.05C449.677 93.0658 448.493 92.7516 447.457 92.1416C446.42 91.5316 445.57 90.6491 445 89.59Z" fill="#AD6359"/>
<path d="M462.27 73.15C463.275 74.0582 464.141 75.1095 464.84 76.27C465.587 77.4133 466.255 78.606 466.84 79.84C468.024 82.2907 468.991 84.8404 469.73 87.46C469.923 88.1567 470.018 88.8771 470.01 89.6C470.003 90.0165 469.904 90.4264 469.72 90.8C469.618 91.002 469.487 91.1874 469.33 91.35C469.169 91.5112 468.979 91.6401 468.77 91.73C468.032 92.0765 467.195 92.1475 466.41 91.93C465.69 91.7157 465.013 91.3773 464.41 90.93C463.292 90.069 462.328 89.0241 461.56 87.84C460.804 86.7061 460.135 85.5159 459.56 84.28L460.43 84.18C460.13 85.1755 459.734 86.14 459.25 87.06C458.775 87.978 458.209 88.8457 457.56 89.65C456.903 90.4493 456.131 91.1469 455.27 91.72C454.416 92.2861 453.462 92.6864 452.46 92.9C453.405 92.5654 454.287 92.0753 455.07 91.45C455.831 90.8239 456.504 90.0972 457.07 89.29C457.641 88.4856 458.133 87.6284 458.54 86.73C458.956 85.8389 459.291 84.9117 459.54 83.96L459.82 82.78L460.41 83.86C461.03 85.025 461.721 86.1504 462.48 87.23C463.171 88.2787 464.021 89.2133 465 90C466 90.7 467.26 91.17 468.19 90.7C469.12 90.23 468.89 88.89 468.61 87.7C468.304 86.4112 467.93 85.1394 467.49 83.89C467.06 82.62 466.62 81.36 466.12 80.12C465.206 77.6112 463.907 75.2598 462.27 73.15Z" fill="#263238"/>
<path d="M428.62 96.74L437.8 125.93C437.8 125.93 416.93 130.68 410.65 127.62C404.37 124.56 388.15 102.93 381.11 86.81C374.07 70.69 379.47 69.31 392.81 81.2C406.15 93.09 416.81 101.58 417.29 101.44C417.77 101.3 428.62 96.74 428.62 96.74Z" fill="#93278F"/>
<path d="M424.079 100.37C424.079 100.28 423.9 100.32 423.92 100.37C425.587 108.9 427.72 117.333 430.31 125.63C430.31 125.72 430.49 125.68 430.47 125.63C428.802 117.1 426.669 108.667 424.079 100.37Z" fill="#263238"/>
<path opacity="0.1" d="M400.56 117.79C393.62 109.29 385.56 96.96 381.11 86.79C375.4 73.79 377.86 70.35 386.11 75.84L400.56 117.79Z" fill="black"/>
<path d="M380.21 114.59L376.82 125.86L364.47 130.55L331 107C331 107 349.29 75 369.25 69.14C379.25 66.2 386.03 70.95 387.81 78.25C388.25 80.1 391.96 97.82 389.26 105.58C388.48 107.639 387.269 109.509 385.708 111.062C384.147 112.616 382.273 113.819 380.21 114.59Z" fill="#93278F"/>
<path d="M367.31 106.55C369.284 107.449 371.166 108.538 372.93 109.8C373.81 110.45 374.65 111.15 375.48 111.89C375.9 112.25 376.32 112.59 376.75 112.94C377.179 113.305 377.661 113.602 378.18 113.82C378.23 113.82 378.18 113.93 378.18 113.92C377.672 113.795 377.177 113.624 376.7 113.41C376.235 113.179 375.793 112.904 375.38 112.59C374.48 111.95 373.62 111.24 372.72 110.59C370.93 109.26 369.13 107.93 367.24 106.78C367.12 106.72 367.21 106.51 367.31 106.55Z" fill="#263238"/>
<path d="M361.52 107.38C363.266 107.672 364.988 108.097 366.67 108.65C367.507 108.939 368.328 109.273 369.13 109.65L370.27 110.22C370.69 110.43 371.07 110.72 371.49 110.93C371.54 110.93 371.49 111.04 371.49 111.02C371.09 110.85 370.65 110.76 370.24 110.61L368.99 110.17C368.16 109.88 367.32 109.59 366.5 109.29C364.84 108.68 363.18 108.1 361.5 107.56C361.37 107.54 361.43 107.36 361.52 107.38Z" fill="#263238"/>
<path opacity="0.1" d="M379.09 103.02L369.22 88.47L370.07 83.48L388.95 91.63V94.82L379.09 103.02Z" fill="black"/>
<path opacity="0.1" d="M379.09 101.44L370.82 89.25L371.52 85.06L387.36 91.89V94.56L379.09 101.44Z" fill="black"/>
<path d="M348.17 64.8592C323.72 69.6337 305.53 78.5047 302.149 84.9076C299.357 90.2144 291.811 112.497 289.337 125.679C288.652 129.383 318.462 136.469 318.691 132.415C319.07 126.198 326.088 95.0997 326.132 94.6039C326.205 93.5331 348.862 78.7471 354.636 75.1997C365.415 68.7644 361.137 62.3289 348.17 64.8592Z" fill="#AD6359"/>
<path d="M293.66 148.14C297.6 145.21 300.45 141.28 303.52 137.51C303.59 137.43 303.46 137.32 303.39 137.41C300.39 141.19 296.66 144.32 293.5 147.97C293.41 148.07 293.56 148.22 293.66 148.14Z" fill="#263238"/>
<path d="M287.06 142.66C287.891 141.91 288.617 141.052 289.22 140.11C289.92 139.11 290.61 138.19 291.28 137.22C292.62 135.22 293.92 133.27 295.16 131.22C295.21 131.13 295.09 131.02 295.03 131.12C293.69 133.06 292.32 134.99 290.89 136.88C290.184 137.82 289.464 138.76 288.73 139.7C287.987 140.535 287.34 141.451 286.8 142.43C286.77 142.464 286.754 142.51 286.757 142.556C286.76 142.602 286.781 142.644 286.815 142.675C286.85 142.705 286.895 142.721 286.941 142.718C286.987 142.715 287.03 142.694 287.06 142.66Z" fill="#263238"/>
<path d="M279.61 135.86C280.35 135.171 280.966 134.359 281.43 133.46C282.03 132.56 282.62 131.66 283.23 130.76C284.43 128.97 285.64 127.17 286.91 125.42C286.97 125.34 286.84 125.23 286.78 125.32C285.48 127.09 284.16 128.85 282.88 130.63C282.25 131.51 281.62 132.38 281 133.27C280.36 134.022 279.859 134.882 279.52 135.81C279.5 135.86 279.57 135.89 279.61 135.86Z" fill="#263238"/>
<path d="M320.96 115.282L290.709 106.92C290.709 106.92 295.933 84.4833 300.729 79.4188C305.524 74.3543 328.441 65.5856 345.717 62.4605C363.309 59.2779 365.342 66.0709 349.999 75.2344C334.657 84.3978 325.092 91.8673 325.089 92.3607C325.086 92.854 320.96 115.282 320.96 115.282Z" fill="#93278F"/>
<path d="M328.29 105.57C329.84 102.79 337.29 88.13 337.5 88.03C337.93 87.82 344.67 85.45 346.67 84.75C348.37 84.15 350.08 83.58 351.79 83.02C353.2 82.89 354.61 82.76 356 82.5C356.021 82.5 356.042 82.4916 356.057 82.4766C356.072 82.4616 356.08 82.4412 356.08 82.42C356.08 82.3988 356.072 82.3785 356.057 82.3635C356.042 82.3484 356.021 82.34 356 82.34C355.026 82.3588 354.054 82.4423 353.09 82.59C354.97 81.98 356.85 81.38 358.72 80.76C358.72 80.76 358.72 80.69 358.72 80.7C354.53 81.64 337.17 87.07 337.11 87.31C337.05 87.55 328.22 104.92 328.11 105.31C328.08 105.42 328.24 105.65 328.29 105.57Z" fill="#263238"/>
<path d="M327.24 101C327.32 101.05 327.4 100.91 327.32 100.86C320.198 95.8826 312.81 91.2959 305.19 87.12C305.171 87.114 305.15 87.1146 305.131 87.1218C305.112 87.129 305.096 87.1423 305.086 87.1596C305.076 87.1769 305.071 87.1972 305.074 87.2172C305.076 87.2372 305.086 87.2558 305.1 87.27C312.224 92.2477 319.615 96.8313 327.24 101Z" fill="#263238"/>
<path d="M369.65 66.22C369.65 66.22 374.17 82.59 380.91 84.37C387.65 86.15 390.48 79.19 390.48 79.19C390.48 79.19 382.7 67.72 369.65 66.22Z" fill="#AD6359"/>
<path d="M377.53 69.89C377.39 70.94 379.63 79 384.14 80.48C385.61 80.96 388.58 73.05 388.58 73.05L388.94 72.51L393.87 65.04L386.62 55.23L385.54 53.89C385.54 53.89 384.32 56.02 382.84 58.69L382.63 59.07C382.539 59.2123 382.455 59.3592 382.38 59.51C382.15 59.9 381.92 60.31 381.7 60.72C381.48 61.13 381.36 61.33 381.2 61.66L380.68 62.66C379.471 64.9977 378.419 67.413 377.53 69.89Z" fill="#AD6359"/>
<path d="M382.84 58.69C382.79 61.2988 383.309 63.8871 384.363 66.2742C385.417 68.6613 386.979 70.7894 388.94 72.51L393.87 65.04L386.62 55.23L385.54 53.89C385.54 53.89 384.32 56 382.84 58.69Z" fill="#263238"/>
<path d="M409.85 51.08C411.21 66.74 401.99 69.32 398.61 69.61C395.54 69.88 385.07 70.39 382.09 54.95C379.11 39.51 385.96 33.95 392.94 32.95C399.92 31.95 408.48 35.41 409.85 51.08Z" fill="#AD6359"/>
<path d="M402.33 59C401.95 59.6821 401.402 60.2567 400.74 60.67C400.369 60.8776 399.943 60.9683 399.52 60.93C398.6 60.83 398.45 60.02 398.52 59.29C398.551 58.9079 398.632 58.5314 398.76 58.17C399.833 58.816 401.082 59.1066 402.33 59Z" fill="#263238"/>
<path d="M400.74 60.68C400.369 60.8876 399.943 60.9782 399.52 60.94C398.6 60.84 398.45 60.03 398.52 59.3C398.991 59.2489 399.465 59.357 399.868 59.6071C400.27 59.8572 400.577 60.235 400.74 60.68Z" fill="#FF9BBC"/>
<path d="M405.31 48.89C404.96 49.01 404.61 49.07 404.26 49.16C403.901 49.3055 403.506 49.3335 403.13 49.24C403.018 49.1848 402.928 49.0939 402.873 48.9816C402.819 48.8692 402.804 48.742 402.83 48.62C402.912 48.3883 403.054 48.1827 403.242 48.0244C403.431 47.8662 403.658 47.7611 403.9 47.72C404.383 47.5656 404.906 47.5941 405.37 47.8C405.472 47.8534 405.556 47.935 405.613 48.0351C405.67 48.1351 405.697 48.2494 405.69 48.3643C405.684 48.4791 405.645 48.5898 405.577 48.683C405.51 48.7762 405.417 48.848 405.31 48.89Z" fill="#263238"/>
<path d="M394.47 49.56C394.811 49.4382 395.144 49.298 395.47 49.14C395.845 49.042 396.177 48.82 396.41 48.51C396.467 48.4 396.485 48.274 396.461 48.1524C396.438 48.0308 396.374 47.9207 396.28 47.84C396.074 47.7049 395.835 47.628 395.588 47.6175C395.342 47.6069 395.097 47.6631 394.88 47.78C394.394 47.9606 393.994 48.3176 393.76 48.78C393.724 48.882 393.717 48.9917 393.739 49.0975C393.76 49.2034 393.81 49.3014 393.883 49.3813C393.956 49.4612 394.048 49.5199 394.152 49.5514C394.255 49.5828 394.365 49.5858 394.47 49.56Z" fill="#263238"/>
<path d="M396.73 52.56C396.73 52.56 396.65 52.62 396.66 52.66C396.81 53.72 396.81 54.96 395.88 55.42C395.88 55.42 395.88 55.49 395.88 55.48C397.06 55.19 397 53.54 396.73 52.56Z" fill="#263238"/>
<path d="M395.66 51.56C393.93 51.62 394.18 55.06 395.78 55.01C397.38 54.96 397.1 51.5 395.66 51.56Z" fill="#263238"/>
<path d="M395 51.79C394.72 52 394.45 52.37 394.08 52.43C393.71 52.49 393.32 52.16 393.03 51.84H392.97C392.97 52.5 393.31 53.16 394.03 53.21C394.75 53.26 395.1 52.63 395.22 51.96C395.23 51.87 395.11 51.7 395 51.79Z" fill="#263238"/>
<path d="M403.3 51.61C403.3 51.61 403.38 51.61 403.38 51.69C403.38 52.77 403.64 53.99 404.63 54.28V54.34C403.43 54.25 403.16 52.63 403.3 51.61Z" fill="#263238"/>
<path d="M404.18 50.43C405.89 50.19 406.24 53.62 404.66 53.85C403.08 54.08 402.74 50.63 404.18 50.43Z" fill="#263238"/>
<path d="M404.92 50.58C405.21 50.73 405.51 51.04 405.84 51.03C406.17 51.02 406.46 50.61 406.66 50.23C406.66 50.23 406.66 50.23 406.72 50.23C406.8 50.89 406.66 51.59 406.04 51.78C405.42 51.97 404.99 51.44 404.77 50.78C404.73 50.71 404.8 50.52 404.92 50.58Z" fill="#263238"/>
<path d="M402.37 56.76C402.37 56.76 402.73 58.34 402.79 59.09C402.79 59.16 402.62 59.21 402.36 59.24C401.729 59.4181 401.061 59.4191 400.429 59.2427C399.798 59.0663 399.227 58.7193 398.78 58.24C398.72 58.18 398.78 58.09 398.89 58.13C399.903 58.703 401.074 58.9344 402.23 58.79C402.23 58.58 401.53 56.11 401.65 56.1C402.238 56.1021 402.823 56.1828 403.39 56.34C402.74 53.04 401.58 49.87 400.99 46.57C400.99 46.45 401.14 46.4 401.18 46.5C402.526 49.8642 403.531 53.3551 404.18 56.92C404.28 57.3 402.68 56.86 402.37 56.76Z" fill="#263238"/>
<path d="M383.43 55.68C385.98 55.68 386.15 50.32 386.15 50.32C386.15 50.32 391.3 49.95 392.44 42.41C392.462 44.6427 391.829 46.8328 390.62 48.71C390.62 48.71 399.62 47.05 402.87 39.17C402.87 39.17 401.64 43.17 400.32 44.64C402.572 43.7596 404.458 42.1414 405.67 40.05C405.67 40.05 407.59 44.32 408.9 45.43C408.9 45.43 407.32 29.58 392.73 32.43C392.73 32.43 383.57 33.74 380.81 41.29C378.05 48.84 383.43 55.68 383.43 55.68Z" fill="#263238"/>
<path d="M385.2 55.73C385.2 55.73 382 50.66 379.72 51.73C377.44 52.8 379.72 60.07 382.24 61.17C382.559 61.3335 382.909 61.4307 383.267 61.4556C383.625 61.4805 383.985 61.4327 384.324 61.3149C384.663 61.1972 384.975 61.012 385.24 60.7706C385.506 60.5291 385.72 60.2364 385.87 59.91L385.2 55.73Z" fill="#AD6359"/>
<path d="M380.41 53.84C380.41 53.84 380.36 53.84 380.41 53.91C382.2 54.73 383.09 56.48 383.68 58.27C383.581 58.0819 383.443 57.9173 383.275 57.7873C383.107 57.6573 382.913 57.5649 382.707 57.5166C382.5 57.4682 382.285 57.4649 382.077 57.5069C381.868 57.5489 381.672 57.6352 381.5 57.76C381.45 57.76 381.5 57.87 381.55 57.86C381.877 57.7756 382.222 57.7936 382.539 57.9116C382.855 58.0296 383.128 58.242 383.32 58.52C383.64 58.9881 383.905 59.4914 384.11 60.02C384.19 60.18 384.49 60.11 384.43 59.92C384.57 57.54 382.91 54.19 380.41 53.84Z" fill="#263238"/>
<path d="M378.91 67.58C378.37 65.73 375.91 69.22 377.27 71.58C379.27 75.06 383.33 79.39 384.27 79.52C385.21 79.65 388.92 76.06 389.4 75.24C389.88 74.42 389.23 72.37 388.9 72.52C388.57 72.67 385.33 76.58 384.9 76.73C384.47 76.88 380.08 71.57 378.91 67.58Z" fill="#455A64"/>
<path d="M240.21 296.02L245.95 297.09L247.23 303.14L248.51 297.09L254.25 296.02L248.54 294.63L247.23 288.91L245.92 294.63L240.21 296.02Z" fill="#93278F"/>
<path d="M283.56 46.6801L289.3 47.7401L290.59 53.7901L291.87 47.7401L297.61 46.6701L291.89 45.2801L290.59 39.5601L289.28 45.2801L283.56 46.6801Z" fill="#93278F"/>
<path d="M448.54 239.44L454.28 240.5L455.56 246.55L456.84 240.5L462.58 239.44L456.87 238.04L455.56 232.33L454.25 238.04L448.54 239.44Z" fill="#93278F"/>
<path d="M395.22 174.28L400.96 175.34L402.24 181.4L403.52 175.34L409.26 174.28L403.55 172.88L402.24 167.17L400.93 172.88L395.22 174.28Z" fill="#93278F"/>
<path d="M156.09 174.28L159.3 174.88L160.01 178.26L160.73 174.88L163.94 174.28L160.74 173.5L160.01 170.31L159.28 173.5L156.09 174.28Z" fill="#93278F"/>
<path d="M462.44 155.49L465.65 156.09L466.37 159.47L467.08 156.09L470.29 155.49L467.1 154.71L466.37 151.52L465.63 154.71L462.44 155.49Z" fill="#93278F"/>
<path d="M241.62 63.07L244.83 63.67L245.55 67.05L246.26 63.67L249.47 63.07L246.28 62.29L245.55 59.1L244.82 62.29L241.62 63.07Z" fill="#93278F"/>
<path d="M174.6 235.12L177.81 235.71L178.53 239.09L179.24 235.71L182.45 235.12L179.25 234.33L178.53 231.14L177.79 234.33L174.6 235.12Z" fill="#93278F"/>
<path d="M119.71 102.94L122.92 103.53L123.63 106.91L124.35 103.53L127.56 102.94L124.36 102.16L123.63 98.96L122.9 102.16L119.71 102.94Z" fill="#93278F"/>
<path d="M213.05 106.92L216.26 107.51L216.98 110.89L217.7 107.51L220.91 106.91L217.71 106.13L216.98 102.94L216.25 106.13L213.05 106.92Z" fill="#93278F"/>
<path d="M378.85 38.49L382.05 39.09L382.77 42.47L383.49 39.09L386.7 38.49L383.5 37.71L382.77 34.52L382.04 37.71L378.85 38.49Z" fill="#93278F"/>
<path d="M422.11 90.8401L425.31 91.4401L426.03 94.8201L426.75 91.4401L429.95 90.8401L426.76 90.0601L426.03 86.8701L425.3 90.0601L422.11 90.8401Z" fill="#93278F"/>
<path d="M372.92 260.58L376.13 261.17L376.85 264.56L377.56 261.17L380.77 260.58L377.58 259.8L376.85 256.6L376.11 259.8L372.92 260.58Z" fill="#93278F"/>
<path d="M217.27 239.79C217.517 239.79 217.753 239.888 217.927 240.062C218.102 240.237 218.2 240.473 218.2 240.72C218.2 240.967 218.102 241.203 217.927 241.378C217.753 241.552 217.517 241.65 217.27 241.65C217.023 241.65 216.787 241.552 216.612 241.378C216.438 241.203 216.34 240.967 216.34 240.72C216.34 240.473 216.438 240.237 216.612 240.062C216.787 239.888 217.023 239.79 217.27 239.79Z" fill="#93278F"/>
<path d="M219.6 124C219.847 124 220.083 124.098 220.258 124.272C220.432 124.447 220.53 124.683 220.53 124.93C220.53 125.177 220.432 125.413 220.258 125.588C220.083 125.762 219.847 125.86 219.6 125.86C219.353 125.86 219.117 125.762 218.942 125.588C218.768 125.413 218.67 125.177 218.67 124.93C218.67 124.683 218.768 124.447 218.942 124.272C219.117 124.098 219.353 124 219.6 124Z" fill="#93278F"/>
<path d="M348.44 55.76C348.669 55.7838 348.881 55.8915 349.035 56.0624C349.189 56.2332 349.274 56.455 349.274 56.685C349.274 56.915 349.189 57.1368 349.035 57.3076C348.881 57.4785 348.669 57.5862 348.44 57.61C348.211 57.5862 348 57.4785 347.846 57.3076C347.692 57.1368 347.606 56.915 347.606 56.685C347.606 56.455 347.692 56.2332 347.846 56.0624C348 55.8915 348.211 55.7838 348.44 55.76Z" fill="#93278F"/>
<path d="M396.8 154.56C397.047 154.56 397.283 154.658 397.458 154.832C397.632 155.007 397.73 155.243 397.73 155.49C397.73 155.737 397.632 155.973 397.458 156.148C397.283 156.322 397.047 156.42 396.8 156.42C396.553 156.42 396.317 156.322 396.143 156.148C395.968 155.973 395.87 155.737 395.87 155.49C395.87 155.243 395.968 155.007 396.143 154.832C396.317 154.658 396.553 154.56 396.8 154.56Z" fill="#93278F"/>
<path d="M430.52 208C430.766 208 431.003 208.098 431.177 208.272C431.352 208.447 431.45 208.683 431.45 208.93C431.45 209.177 431.352 209.413 431.177 209.588C431.003 209.762 430.766 209.86 430.52 209.86C430.273 209.86 430.037 209.762 429.862 209.588C429.688 209.413 429.59 209.177 429.59 208.93C429.59 208.683 429.688 208.447 429.862 208.272C430.037 208.098 430.273 208 430.52 208Z" fill="#93278F"/>
<path d="M463.77 197.73C463.945 197.73 464.113 197.8 464.237 197.923C464.361 198.047 464.43 198.215 464.43 198.39C464.43 198.565 464.361 198.733 464.237 198.857C464.113 198.98 463.945 199.05 463.77 199.05C463.595 199.05 463.427 198.98 463.304 198.857C463.18 198.733 463.11 198.565 463.11 198.39C463.11 198.215 463.18 198.047 463.304 197.923C463.427 197.8 463.595 197.73 463.77 197.73Z" fill="#93278F"/>
<path d="M413.76 78.86C413.935 78.86 414.103 78.9296 414.226 79.0534C414.35 79.1771 414.42 79.345 414.42 79.5201C414.42 79.6951 414.35 79.863 414.226 79.9867C414.103 80.1105 413.935 80.18 413.76 80.18C413.585 80.18 413.417 80.1105 413.293 79.9867C413.169 79.863 413.1 79.6951 413.1 79.5201C413.1 79.345 413.169 79.1771 413.293 79.0534C413.417 78.9296 413.585 78.86 413.76 78.86Z" fill="#93278F"/>
<path d="M313.93 150.3C314.089 150.32 314.236 150.397 314.343 150.518C314.45 150.639 314.508 150.794 314.508 150.955C314.508 151.116 314.45 151.272 314.343 151.392C314.236 151.513 314.089 151.59 313.93 151.61C313.77 151.59 313.623 151.513 313.516 151.392C313.409 151.272 313.351 151.116 313.351 150.955C313.351 150.794 313.409 150.639 313.516 150.518C313.623 150.397 313.77 150.32 313.93 150.3Z" fill="#93278F"/>
<path d="M397.35 280.8C397.525 280.8 397.693 280.87 397.817 280.993C397.941 281.117 398.01 281.285 398.01 281.46C398.01 281.635 397.941 281.803 397.817 281.927C397.693 282.051 397.525 282.12 397.35 282.12C397.175 282.12 397.008 282.051 396.884 281.927C396.76 281.803 396.69 281.635 396.69 281.46C396.69 281.285 396.76 281.117 396.884 280.993C397.008 280.87 397.175 280.8 397.35 280.8Z" fill="#93278F"/>
<path d="M293.38 268.56C293.83 268.594 294.251 268.796 294.558 269.128C294.866 269.459 295.036 269.893 295.036 270.345C295.036 270.797 294.866 271.232 294.558 271.563C294.251 271.894 293.83 272.096 293.38 272.13C292.93 272.096 292.509 271.894 292.201 271.563C291.894 271.232 291.724 270.797 291.724 270.345C291.724 269.893 291.894 269.459 292.201 269.128C292.509 268.796 292.93 268.594 293.38 268.56Z" fill="#93278F"/>
<path d="M178.52 182.06C178.992 182.06 179.445 182.248 179.779 182.581C180.113 182.915 180.3 183.368 180.3 183.84C180.3 184.312 180.113 184.765 179.779 185.099C179.445 185.433 178.992 185.62 178.52 185.62C178.048 185.62 177.595 185.433 177.262 185.099C176.928 184.765 176.74 184.312 176.74 183.84C176.74 183.368 176.928 182.915 177.262 182.581C177.595 182.248 178.048 182.06 178.52 182.06Z" fill="#93278F"/>
<path d="M271.73 34.1C272.202 34.1 272.655 34.2876 272.989 34.6214C273.323 34.9552 273.51 35.408 273.51 35.88C273.51 36.3521 273.323 36.8049 272.989 37.1387C272.655 37.4725 272.202 37.66 271.73 37.66C271.258 37.66 270.805 37.4725 270.472 37.1387C270.138 36.8049 269.95 36.3521 269.95 35.88C269.95 35.408 270.138 34.9552 270.472 34.6214C270.805 34.2876 271.258 34.1 271.73 34.1Z" fill="#93278F"/>
<path d="M368.72 29.29C369.17 29.3238 369.591 29.5265 369.898 29.8575C370.205 30.1885 370.376 30.6234 370.376 31.075C370.376 31.5266 370.205 31.9615 369.898 32.2926C369.591 32.6236 369.17 32.8263 368.72 32.86C368.269 32.8263 367.849 32.6236 367.541 32.2926C367.234 31.9615 367.063 31.5266 367.063 31.075C367.063 30.6234 367.234 30.1885 367.541 29.8575C367.849 29.5265 368.269 29.3238 368.72 29.29Z" fill="#93278F"/>
<path d="M339.89 281.91C340.34 281.944 340.761 282.146 341.068 282.478C341.375 282.809 341.546 283.243 341.546 283.695C341.546 284.147 341.375 284.582 341.068 284.913C340.761 285.244 340.34 285.446 339.89 285.48C339.439 285.446 339.018 285.244 338.711 284.913C338.404 284.582 338.233 284.147 338.233 283.695C338.233 283.243 338.404 282.809 338.711 282.478C339.018 282.146 339.439 281.944 339.89 281.91Z" fill="#93278F"/>
<rect x="293.038" y="129.834" width="160.71" height="113.864" transform="rotate(-14.2675 293.038 129.834)" fill="white"/>
<path d="M396.392 107.963L453.841 95.5457C454.503 95.4023 455.188 95.3983 455.852 95.5337C456.516 95.6691 457.145 95.9411 457.699 96.3324C458.252 96.7238 458.718 97.2258 459.067 97.8068C459.416 98.3877 459.64 99.0349 459.726 99.7072C459.726 99.7072 478.071 204.253 475.451 204.651L316.878 234.543C314.205 234.962 299.769 133.326 299.769 133.326C299.578 132.091 299.866 130.829 300.574 129.798C301.282 128.767 302.356 128.045 303.578 127.78L334.131 120.914" stroke="#263238" stroke-linecap="round" stroke-linejoin="round"/>
<path opacity="0.38" d="M429.548 74.0378C429.548 74.0378 440.61 74.9164 442.889 78.0726C445.168 81.2287 445.785 97.6243 445.785 97.6243L443.429 98.3206C443.429 98.3206 430.473 91.2622 427.145 85.685C423.816 80.1078 420.81 70.0324 410.053 64.4415C410.072 64.4494 417.414 64.5353 429.548 74.0378Z" fill="white"/>
<path d="M431.828 79.9805C427.081 65.1409 406.275 63.4599 406.275 63.4599C413.615 65.5258 418.485 68.7068 425.05 81.748C430.177 91.9291 439.64 96.3764 443.442 97.7601" stroke="#263238" stroke-linecap="round" stroke-linejoin="round"/>
<path d="M411.407 160.227L475.225 199.199L475.072 204.216L410.766 162.226L411.407 160.227Z" fill="#93278F"/>
<path opacity="0.6" d="M411.407 160.227L475.225 199.199L475.072 204.216L410.766 162.226L411.407 160.227Z" fill="white"/>
<path d="M364.336 172.479L315.123 227.912L316.941 234.244L364.427 174.673L364.336 172.479Z" fill="#93278F"/>
<path opacity="0.6" d="M364.336 172.479L315.123 227.912L316.941 234.244L364.427 174.673L364.336 172.479Z" fill="white"/>
<path d="M458.204 96.9957L390.131 194.468L299.77 133.327L300.039 131.483L389.184 188.238L458.204 96.9957Z" fill="#93278F"/>
<path opacity="0.6" d="M458.204 96.9957L390.131 194.468L299.77 133.327L300.039 131.483L389.184 188.238L458.204 96.9957Z" fill="white"/>
<path d="M438.473 140.199C446.79 140.134 453.48 133.339 453.415 125.022C453.35 116.705 446.555 110.015 438.238 110.08C429.921 110.144 423.231 116.939 423.296 125.256C423.361 133.574 430.156 140.263 438.473 140.199Z" fill="#93278F"/>
<path d="M446.365 112.056L457.862 96.6748" stroke="#263238" stroke-linecap="round" stroke-linejoin="round"/>
<path d="M316.952 234.042L366.057 173.185" stroke="#263238" stroke-linecap="round" stroke-linejoin="round"/>
<path d="M409.3 161.509L475.373 204.225" stroke="#263238" stroke-linecap="round" stroke-linejoin="round"/>
<path d="M370.226 129.241L415.124 119.31" stroke="#263238" stroke-linecap="round" stroke-linejoin="round"/>
<path d="M369.878 135.089L415.836 124.896" stroke="#263238" stroke-linecap="round" stroke-linejoin="round"/>
<path d="M370.288 145.05C374.086 147.052 379.803 146.211 383.419 143.977C387.034 141.743 390.404 138.816 394.601 137.964C397.347 137.583 400.135 137.632 402.866 138.108C405.603 138.577 408.408 138.475 411.104 137.806C413.739 136.968 416.11 134.82 416.368 132.09" stroke="#263238" stroke-linecap="round" stroke-linejoin="round"/>
<path d="M371.261 149.321C374.933 151.618 379.724 150.422 383.517 148.384C387.31 146.346 390.776 143.547 394.996 142.617C398.332 141.774 401.813 141.672 405.192 142.319C410.796 143.638 415.639 141.943 417.152 138.903" stroke="#263238" stroke-linecap="round" stroke-linejoin="round"/>
<path d="M432.441 138.735C440.062 142.01 448.896 138.487 452.171 130.865C455.446 123.244 451.922 114.411 444.301 111.136C436.679 107.861 427.846 111.384 424.571 119.005C421.296 126.627 424.819 135.46 432.441 138.735Z" stroke="#263238" stroke-linecap="round" stroke-linejoin="round"/>
<path d="M391.497 185.031L428.082 136.166" stroke="#263238" stroke-linecap="round" stroke-linejoin="round"/>
<path d="M299.786 131.386L366.279 173.226" stroke="#263238" stroke-linecap="round" stroke-linejoin="round"/>
<path opacity="0.2" d="M353.877 148.011L367.509 169.63L368.221 181.321L366.263 171.794L346.609 147.446L353.877 148.011Z" fill="black"/>
<path d="M337.666 120.692C338.663 127.281 341.553 133.438 345.984 138.416" stroke="#263238" stroke-linecap="round" stroke-linejoin="round"/>
<path d="M337.418 112.379C337.222 114.329 337.205 116.292 337.368 118.245" stroke="#263238" stroke-linecap="round" stroke-linejoin="round"/>
<path d="M347.084 146.594C347.084 146.594 359.147 152.159 369.642 140.299" stroke="#263238" stroke-linecap="round" stroke-linejoin="round"/>
<path d="M381.928 79.2612C387.635 74.6531 394.647 71.9549 401.971 71.5478" stroke="#263238" stroke-linecap="round" stroke-linejoin="round"/>
<path d="M361.032 105.068C362.522 106.228 363.745 107.696 364.618 109.37C365.491 111.045 365.993 112.888 366.091 114.774" stroke="#263238" stroke-linecap="round" stroke-linejoin="round"/>
<path d="M319.329 238.819L305.572 242.844" stroke="#263238" stroke-linecap="round" stroke-linejoin="round"/>
<path d="M398.364 107.544L455.814 95.1266C456.476 94.9833 457.161 94.9792 457.825 95.1146C458.489 95.2501 459.118 95.5221 459.671 95.9134C460.225 96.3047 460.691 96.8067 461.04 97.3877C461.389 97.9687 461.613 98.6158 461.699 99.2881C461.699 99.2881 480.044 203.834 477.424 204.232L318.85 234.124C316.178 234.543 301.742 132.907 301.742 132.907C301.551 131.672 301.839 130.41 302.547 129.379C303.255 128.348 304.329 127.626 305.551 127.361L336.103 120.495" stroke="#263238" stroke-linecap="round" stroke-linejoin="round"/>
<path d="M314.159 164.167C313.267 164.367 312.334 164.29 311.486 163.945C310.639 163.601 309.917 163.006 309.417 162.239C308.357 163.374 306.935 164.104 305.395 164.302C302.664 164.5 301.154 160.307 301.154 160.307C299.798 161.245 298.193 161.755 296.545 161.772C293.914 161.706 291.785 157.684 291.785 157.684C290.068 157.863 288.345 157.419 286.928 156.433C283.245 153.635 283.884 146.621 284.241 142.145C284.597 137.668 289.815 125.338 290.568 122.884L319.283 124.856C319.283 124.856 323.371 145.36 322.195 150.56C321.167 154.954 317.513 163.234 314.159 164.167Z" fill="#AD6359"/>
</svg>
