<svg width="24" height="24" viewBox="0 0 24 24" fill="none" xmlns="http://www.w3.org/2000/svg">
<path d="M14.6796 10.8H16.2012C16.3603 10.8 16.5129 10.8632 16.6254 10.9757C16.738 11.0883 16.8012 11.2409 16.8012 11.4C16.8012 11.5591 16.738 11.7117 16.6254 11.8243C16.5129 11.9368 16.3603 12 16.2012 12H7.80117C7.64204 12 7.48943 11.9368 7.37691 11.8243C7.26439 11.7117 7.20117 11.5591 7.20117 11.4C7.20117 11.2409 7.26439 11.0883 7.37691 10.9757C7.48943 10.8632 7.64204 10.8 7.80117 10.8H8.70957C8.53975 10.6116 8.43399 10.3743 8.40747 10.122C8.38095 9.86976 8.43504 9.61559 8.56197 9.396L11.562 4.2C11.7211 3.9244 11.9832 3.72329 12.2906 3.64092C12.598 3.55856 12.9256 3.60168 13.2012 3.7608L16.3188 5.5608C16.5944 5.71994 16.7955 5.98204 16.8779 6.28945C16.9602 6.59685 16.9171 6.92439 16.758 7.2L14.6796 10.8ZM15.7188 6.6L12.6012 4.8L9.60117 9.996L10.9932 10.8H13.2948L15.7188 6.6Z" fill="#16042A" fill-opacity="0.8"/>
<path d="M16.7524 9.60002L17.4448 8.40002C17.6235 8.40674 17.7985 8.45332 17.9569 8.53637C18.1153 8.61942 18.2532 8.73684 18.3604 8.88002L21.3604 12.8796C21.5162 13.0873 21.6004 13.34 21.6004 13.5996V19.2C21.6004 19.5183 21.474 19.8235 21.2489 20.0486C21.0239 20.2736 20.7186 20.4 20.4004 20.4H3.60039C3.28213 20.4 2.97691 20.2736 2.75186 20.0486C2.52682 19.8235 2.40039 19.5183 2.40039 19.2V13.5996C2.40039 13.34 2.4846 13.0873 2.64039 12.8796L5.64039 8.88002C5.75217 8.73099 5.89711 8.61002 6.06373 8.52671C6.23036 8.4434 6.4141 8.40002 6.60039 8.40002H7.75599L7.18119 9.39602C7.14372 9.46097 7.11239 9.52927 7.08759 9.60002H6.60039L3.90039 13.2H20.1004L17.4004 9.60002H16.7524ZM3.60039 19.2H20.4004V14.4H3.60039V19.2Z" fill="#16042A" fill-opacity="0.8"/>
</svg>
