<svg xmlns="http://www.w3.org/2000/svg" fill="none" viewBox="0 0 232 198" height="198" width="232">
<path fill="#F5F5F5" d="M34.1401 177.8C-11.0649 151.7 -11.0649 109.38 34.1401 83.3C79.3451 57.22 152.64 57.2 197.86 83.3C243.08 109.4 243.065 151.72 197.86 177.8C152.655 203.88 79.3501 203.905 34.1401 177.8Z"></path>
<path fill="#E0E0E0" d="M70.3208 179.06C89.9379 179.06 105.841 169.88 105.841 158.555C105.841 147.23 89.9379 138.05 70.3208 138.05C50.7036 138.05 34.8008 147.23 34.8008 158.555C34.8008 169.88 50.7036 179.06 70.3208 179.06Z"></path>
<path fill="#E0E0E0" d="M152.417 148.971C177.047 135.687 191.655 114.982 185.044 102.725C178.434 90.4685 153.108 91.3014 128.478 104.586C103.848 117.87 89.2398 138.575 95.8505 150.832C102.461 163.088 127.787 162.256 152.417 148.971Z"></path>
<path fill="#BA68C8" d="M176.925 119.855C181.85 113.985 189.565 110.16 198.24 107.9C206.81 105.675 208.345 100.4 202.665 98.695C196.23 96.755 188.2 100.315 183.02 105.27C174 113.905 172.865 120.5 172.865 120.5L176.925 119.855Z"></path>
<path fill="black" d="M176.925 119.855C181.85 113.985 189.565 110.16 198.24 107.9C206.81 105.675 208.345 100.4 202.665 98.695C196.23 96.755 188.2 100.315 183.02 105.27C174 113.905 172.865 120.5 172.865 120.5L176.925 119.855Z" opacity="0.15"></path>
<path fill="white" d="M174.389 119.5C174.353 119.508 174.316 119.508 174.279 119.5C174.25 119.486 174.223 119.466 174.201 119.441C174.18 119.416 174.163 119.388 174.152 119.356C174.142 119.325 174.137 119.292 174.139 119.26C174.141 119.227 174.15 119.195 174.164 119.165C181.474 104.165 197.664 100.475 201.584 100.755C201.65 100.76 201.711 100.791 201.754 100.84C201.797 100.89 201.818 100.954 201.814 101.02C201.808 101.086 201.776 101.147 201.726 101.19C201.675 101.233 201.61 101.254 201.544 101.25C197.704 100.96 181.809 104.615 174.614 119.385C174.59 119.422 174.556 119.452 174.517 119.472C174.477 119.492 174.433 119.502 174.389 119.5Z"></path>
<path fill="#BA68C8" d="M172.865 121.415C172.866 121.656 172.93 121.893 173.051 122.101C173.173 122.31 173.348 122.482 173.557 122.601C173.767 122.72 174.005 122.781 174.246 122.778C174.487 122.775 174.723 122.709 174.93 122.585C179.51 119.92 186.19 118.445 197 121.525C202.75 123.16 205.58 122.065 206.79 119.725C208.14 117.125 205.29 114.61 202.04 113.425C190.975 109.38 180.99 112.14 172.865 120.21V121.415Z"></path>
<path fill="white" d="M173.5 121.63C173.465 121.631 173.429 121.624 173.397 121.61C173.364 121.596 173.335 121.576 173.31 121.55C173.264 121.502 173.238 121.439 173.238 121.373C173.238 121.306 173.264 121.243 173.31 121.195C182.865 112.655 197.665 114.32 203.265 117.65C203.322 117.683 203.363 117.738 203.38 117.802C203.397 117.865 203.388 117.933 203.355 117.99C203.321 118.047 203.266 118.089 203.201 118.105C203.137 118.122 203.068 118.113 203.01 118.08C197.51 114.815 183.01 113.19 173.645 121.58C173.603 121.61 173.552 121.628 173.5 121.63Z"></path>
<path fill="#BA68C8" d="M65.9592 141.325C61.7592 134.915 54.5492 130.205 46.1992 126.94C37.9592 123.72 37.0542 118.305 42.8942 117.275C49.5142 116.11 57.0692 120.595 61.6292 126.125C69.5692 135.765 69.9142 142.46 69.9142 142.46L65.9592 141.325Z"></path>
<path fill="black" d="M65.9592 141.325C61.7592 134.915 54.5492 130.205 46.1992 126.94C37.9592 123.72 37.0542 118.305 42.8942 117.275C49.5142 116.11 57.0692 120.595 61.6292 126.125C69.5692 135.765 69.9142 142.46 69.9142 142.46L65.9592 141.325Z" opacity="0.15"></path>
<path fill="white" d="M68.5004 141.285C68.5367 141.292 68.5741 141.292 68.6104 141.285C68.6728 141.262 68.7239 141.216 68.7528 141.156C68.7818 141.097 68.7863 141.028 68.7654 140.965C63.2654 125.21 47.6454 119.635 43.7054 119.465C43.6399 119.462 43.5759 119.485 43.5273 119.529C43.4787 119.573 43.4493 119.635 43.4454 119.7C43.4439 119.766 43.468 119.831 43.5126 119.88C43.5572 119.93 43.6191 119.96 43.6854 119.965C47.5354 120.125 62.8854 125.63 68.2904 141.145C68.3098 141.185 68.3395 141.219 68.3764 141.243C68.4133 141.268 68.4561 141.282 68.5004 141.285Z"></path>
<path fill="#BA68C8" d="M69.9494 142.155C69.9102 142.51 69.7801 142.85 69.5716 143.14C69.3631 143.43 69.0833 143.662 68.7592 143.813C68.4351 143.964 68.0775 144.028 67.7211 144.001C67.3647 143.973 67.0215 143.854 66.7244 143.655C62.4844 140.815 56.1694 138.97 45.8245 140.655C39.9245 141.6 37.2445 140.155 36.3245 137.71C35.2945 134.97 38.4245 132.815 41.7895 132.02C53.2544 129.31 62.8444 133.23 69.9594 142.195L69.9494 142.155Z"></path>
<path fill="white" d="M69.1593 143.5C69.1942 143.505 69.2298 143.502 69.2635 143.492C69.2972 143.481 69.3282 143.464 69.3543 143.44C69.4004 143.392 69.4262 143.329 69.4262 143.262C69.4262 143.196 69.4004 143.133 69.3543 143.085C60.8543 133.48 45.9793 133.385 40.0243 136.03C39.9633 136.057 39.9156 136.107 39.8917 136.17C39.8678 136.232 39.8696 136.301 39.8968 136.362C39.924 136.423 39.9743 136.471 40.0366 136.495C40.099 136.519 40.1683 136.517 40.2293 136.49C46.0643 133.895 60.6643 133.99 68.9793 143.415C69.001 143.442 69.0285 143.463 69.0596 143.478C69.0908 143.493 69.1249 143.5 69.1593 143.5Z"></path>
<path fill="#37474F" d="M164.988 31.8868L164.915 31.8431L147.673 20.0516L147.569 19.9912C139.473 15.0818 128.197 15.5898 115.628 22.6605C90.3817 36.8712 69.4944 72.2155 68.9737 101.605C68.7121 116.248 73.5666 126.648 81.6191 131.641L81.6871 131.684L98.9334 143.481L99.0149 143.535C107.111 148.444 118.395 147.956 130.973 140.876C156.22 126.666 177.107 91.3214 177.628 61.9324C177.9 47.2796 173.045 36.8801 164.988 31.8868Z"></path>
<path fill="#263238" d="M96.4423 146.859L80.7288 135.23L80.6521 135.171C73.043 130.079 68.4626 119.466 68.7098 104.524C68.936 91.1307 72.994 76.5295 79.5271 63.1748L79.6574 62.8792L95.825 75.1813C89.283 88.5353 85.2339 103.137 85.0077 116.53C84.7389 131.175 89.1222 141.651 96.4423 146.859Z"></path>
<path fill="#455A64" d="M131.795 140.834C156.885 126.56 177.647 91.0674 178.17 61.5587C178.692 32.05 158.774 19.7059 133.684 33.9798C108.595 48.2536 87.8281 83.7457 87.3058 113.25C86.7834 142.753 106.705 155.108 131.795 140.834Z"></path>
<path fill="#37474F" d="M158.85 26.5376L124.979 90.2935L118.555 82.653C116.636 80.4596 113.943 79.1145 111.055 78.9065C108.166 78.6986 105.312 79.6443 103.105 81.5407C100.899 83.437 99.5167 86.1327 99.2549 89.0487C98.9931 91.9646 99.8728 94.8683 101.705 97.136L118.63 117.271C120.491 119.491 123.138 120.886 126.004 121.156C126.208 121.165 126.411 121.173 126.615 121.182C127.151 121.204 127.688 121.186 128.222 121.131C130.015 120.942 131.736 120.313 133.233 119.297C134.73 118.282 135.958 116.911 136.811 115.304L175.654 42.2044C172.316 33.7682 166.408 28.3808 158.85 26.5376Z"></path>
<path fill="#BA68C8" d="M185.16 5.66534C184.971 5.54432 184.772 5.42781 184.572 5.32112C182.331 4.1036 179.704 3.83619 177.269 4.57756C174.833 5.31894 172.787 7.00855 171.581 9.27569L128.528 90.4415L126.368 87.8922C125.745 87.1434 125.011 86.4972 124.192 85.9767C123.037 85.24 118.123 82.0792 117.328 81.5689C115.39 80.3229 113.075 79.8221 110.803 80.1574C108.531 80.4927 106.454 81.6419 104.948 83.3963C103.442 85.1507 102.607 87.3941 102.594 89.719C102.582 92.044 103.393 94.2964 104.881 96.0673L121.788 116.21C122.422 116.967 123.167 117.62 123.997 118.147C125.124 118.858 130.019 122.013 130.823 122.528C131.936 123.245 133.183 123.721 134.486 123.927C135.789 124.133 137.12 124.065 138.395 123.728C139.671 123.39 140.864 122.789 141.9 121.964C142.936 121.138 143.793 120.105 144.418 118.929L195.351 22.9069C196.497 20.7427 196.792 18.2197 196.177 15.8442C195.563 13.4686 194.084 11.4161 192.038 10.0983L185.16 5.66534Z"></path>
<path fill="black" d="M185.16 5.66534C184.971 5.54432 184.772 5.42781 184.572 5.32112C182.331 4.1036 179.704 3.83619 177.269 4.57756C174.833 5.31894 172.787 7.00855 171.581 9.27569L128.528 90.4415L126.368 87.8922C125.745 87.1434 125.011 86.4972 124.192 85.9767C123.037 85.24 118.123 82.0792 117.328 81.5689C115.39 80.3229 113.075 79.8221 110.803 80.1574C108.531 80.4927 106.454 81.6419 104.948 83.3963C103.442 85.1507 102.607 87.3941 102.594 89.719C102.582 92.044 103.393 94.2964 104.881 96.0673L121.788 116.21C122.422 116.967 123.167 117.62 123.997 118.147C125.124 118.858 130.019 122.013 130.823 122.528C131.936 123.245 133.183 123.721 134.486 123.927C135.789 124.133 137.12 124.065 138.395 123.728C139.671 123.39 140.864 122.789 141.9 121.964C142.936 121.138 143.793 120.105 144.418 118.929L195.351 22.9069C196.497 20.7427 196.792 18.2197 196.177 15.8442C195.563 13.4686 194.084 11.4161 192.038 10.0983L185.16 5.66534Z" opacity="0.15"></path>
<path fill="black" d="M131.024 123.969C130.223 123.447 125.299 120.312 124.147 119.615C123.31 119.091 122.559 118.442 121.92 117.69L104.873 97.6739C104.122 96.7849 103.538 95.7673 103.15 94.6705L110.075 99.0463C110.461 100.146 111.049 101.165 111.808 102.05L128.85 122.066C129.477 122.804 130.209 123.445 131.024 123.969Z" opacity="0.15"></path>
<path fill="black" d="M180.358 10.2277C179.411 11.0337 178.626 12.0217 178.045 13.1367L134.285 97.0737L128.709 90.312L171.253 8.70706C171.833 7.59004 172.62 6.60165 173.571 5.79835L180.358 10.2277Z" opacity="0.15"></path>
<path fill="#BA68C8" d="M191.551 9.6295C189.312 8.41366 186.69 8.14755 184.259 8.88939C181.828 9.63124 179.785 11.3206 178.578 13.5878L134.36 97.1454L126.574 87.8412C124.903 85.9703 122.58 84.8331 120.098 84.6702C117.615 84.5074 115.168 85.3318 113.274 86.9688C111.38 88.6059 110.188 90.927 109.95 93.4407C109.713 95.9545 110.448 98.4635 112.001 100.436L128.878 120.601C129.889 121.806 131.174 122.743 132.621 123.33C134.069 123.916 135.636 124.136 137.186 123.969C138.736 123.801 140.223 123.253 141.517 122.37C142.811 121.488 143.873 120.298 144.611 118.904L195.471 22.7993C196.67 20.5251 196.93 17.8606 196.195 15.3913C195.46 12.922 193.79 10.8496 191.551 9.6295Z"></path>
</svg>
