<svg width="24" height="24" viewBox="0 0 24 24" fill="none" xmlns="http://www.w3.org/2000/svg">
<mask id="path-1-inside-1" fill="white">
<path d="M8.86992 6.94568H4.75169C4.67562 6.94568 4.60266 6.98392 4.54886 7.05198C4.49507 7.12005 4.46484 7.21237 4.46484 7.30863C4.46484 7.40489 4.49507 7.4972 4.54886 7.56527C4.60266 7.63334 4.67562 7.67158 4.75169 7.67158H8.86992C8.94599 7.67158 9.01896 7.63334 9.07275 7.56527C9.12655 7.4972 9.15677 7.40489 9.15677 7.30863C9.15677 7.21237 9.12655 7.12005 9.07275 7.05198C9.01896 6.98392 8.94599 6.94568 8.86992 6.94568Z"/>
</mask>
<path d="M8.86992 6.94568H4.75169C4.67562 6.94568 4.60266 6.98392 4.54886 7.05198C4.49507 7.12005 4.46484 7.21237 4.46484 7.30863C4.46484 7.40489 4.49507 7.4972 4.54886 7.56527C4.60266 7.63334 4.67562 7.67158 4.75169 7.67158H8.86992C8.94599 7.67158 9.01896 7.63334 9.07275 7.56527C9.12655 7.4972 9.15677 7.40489 9.15677 7.30863C9.15677 7.21237 9.12655 7.12005 9.07275 7.05198C9.01896 6.98392 8.94599 6.94568 8.86992 6.94568Z" fill="#16042A" fill-opacity="0.8"/>
<path d="M8.86992 5.94568H4.75169V7.94568H8.86992V5.94568ZM4.75169 5.94568C4.32426 5.94568 3.97763 6.16201 3.76431 6.43192L5.33341 7.67204C5.22768 7.80583 5.02697 7.94568 4.75169 7.94568V5.94568ZM3.76431 6.43192C3.5556 6.696 3.46484 7.01344 3.46484 7.30863H5.46484C5.46484 7.41129 5.43453 7.5441 5.33341 7.67204L3.76431 6.43192ZM3.46484 7.30863C3.46484 7.60381 3.5556 7.92125 3.76431 8.18533L5.33341 6.94521C5.43454 7.07316 5.46484 7.20597 5.46484 7.30863H3.46484ZM3.76431 8.18533C3.97764 8.45525 4.32427 8.67158 4.75169 8.67158V6.67158C5.02697 6.67158 5.22767 6.81142 5.33341 6.94521L3.76431 8.18533ZM4.75169 8.67158H8.86992V6.67158H4.75169V8.67158ZM8.86992 8.67158C9.29734 8.67158 9.64397 8.45526 9.85731 8.18533L8.2882 6.94521C8.39394 6.81142 8.59465 6.67158 8.86992 6.67158V8.67158ZM9.85731 8.18533C10.066 7.92125 10.1568 7.6038 10.1568 7.30863H8.15677C8.15677 7.20597 8.18708 7.07316 8.2882 6.94521L9.85731 8.18533ZM10.1568 7.30863C10.1568 7.01345 10.066 6.696 9.85731 6.43192L8.2882 7.67204C8.18708 7.5441 8.15677 7.41129 8.15677 7.30863H10.1568ZM9.85731 6.43192C9.64398 6.16201 9.29735 5.94568 8.86992 5.94568V7.94568C8.59464 7.94568 8.39393 7.80583 8.2882 7.67204L9.85731 6.43192Z" fill="#16042A" fill-opacity="0.8" mask="url(#path-1-inside-1)"/>
<mask id="path-3-inside-2" fill="white">
<path d="M2.59935 7.67158H3.50518C3.58126 7.67158 3.65422 7.63334 3.70801 7.56527C3.76181 7.4972 3.79203 7.40489 3.79203 7.30863C3.79203 7.21237 3.76181 7.12005 3.70801 7.05198C3.65422 6.98392 3.58126 6.94568 3.50518 6.94568H2.59935C2.52327 6.94568 2.45031 6.98392 2.39652 7.05198C2.34272 7.12005 2.3125 7.21237 2.3125 7.30863C2.3125 7.40489 2.34272 7.4972 2.39652 7.56527C2.45031 7.63334 2.52327 7.67158 2.59935 7.67158Z"/>
</mask>
<path d="M2.59935 7.67158H3.50518C3.58126 7.67158 3.65422 7.63334 3.70801 7.56527C3.76181 7.4972 3.79203 7.40489 3.79203 7.30863C3.79203 7.21237 3.76181 7.12005 3.70801 7.05198C3.65422 6.98392 3.58126 6.94568 3.50518 6.94568H2.59935C2.52327 6.94568 2.45031 6.98392 2.39652 7.05198C2.34272 7.12005 2.3125 7.21237 2.3125 7.30863C2.3125 7.40489 2.34272 7.4972 2.39652 7.56527C2.45031 7.63334 2.52327 7.67158 2.59935 7.67158Z" fill="#16042A" fill-opacity="0.8"/>
<path d="M2.3125 7.30863H1.3125H2.3125ZM2.59935 8.67158H3.50518V6.67158H2.59935V8.67158ZM3.50518 8.67158C3.9326 8.67158 4.27924 8.45525 4.49257 8.18533L2.92346 6.94521C3.0292 6.81142 3.22991 6.67158 3.50518 6.67158V8.67158ZM4.49257 8.18533C4.70128 7.92125 4.79203 7.60381 4.79203 7.30863H2.79203C2.79203 7.20597 2.82234 7.07316 2.92346 6.94521L4.49257 8.18533ZM4.79203 7.30863C4.79203 7.01344 4.70128 6.696 4.49257 6.43192L2.92346 7.67204C2.82234 7.5441 2.79203 7.41129 2.79203 7.30863H4.79203ZM4.49257 6.43192C4.27924 6.16201 3.93261 5.94568 3.50518 5.94568V7.94568C3.2299 7.94568 3.02919 7.80583 2.92346 7.67204L4.49257 6.43192ZM3.50518 5.94568H2.59935V7.94568H3.50518V5.94568ZM2.59935 5.94568C2.17192 5.94568 1.82529 6.16201 1.61196 6.43192L3.18107 7.67204C3.07534 7.80583 2.87463 7.94568 2.59935 7.94568V5.94568ZM1.61196 6.43192C1.40325 6.696 1.3125 7.01344 1.3125 7.30863H3.3125C3.3125 7.41129 3.28219 7.5441 3.18107 7.67204L1.61196 6.43192ZM1.3125 7.30863C1.3125 7.60381 1.40325 7.92125 1.61196 8.18533L3.18107 6.94521C3.28219 7.07316 3.3125 7.20597 3.3125 7.30863H1.3125ZM1.61196 8.18533C1.82529 8.45525 2.17193 8.67158 2.59935 8.67158V6.67158C2.87462 6.67158 3.07533 6.81142 3.18107 6.94521L1.61196 8.18533Z" fill="#16042A" fill-opacity="0.8" mask="url(#path-3-inside-2)"/>
<mask id="path-5-inside-3" fill="white">
<path d="M8.87161 10.7911H7.6306C7.55452 10.7911 7.48156 10.8294 7.42777 10.8974C7.37397 10.9655 7.34375 11.0578 7.34375 11.1541C7.34375 11.2503 7.37397 11.3427 7.42777 11.4107C7.48156 11.4788 7.55452 11.517 7.6306 11.517H8.87166C8.94774 11.517 9.0207 11.4788 9.07449 11.4107C9.12829 11.3427 9.15851 11.2503 9.15851 11.1541C9.15851 11.0578 9.12829 10.9655 9.07449 10.8974C9.0207 10.8294 8.94774 10.7911 8.87166 10.7911H8.87161Z"/>
</mask>
<path d="M8.87161 10.7911H7.6306C7.55452 10.7911 7.48156 10.8294 7.42777 10.8974C7.37397 10.9655 7.34375 11.0578 7.34375 11.1541C7.34375 11.2503 7.37397 11.3427 7.42777 11.4107C7.48156 11.4788 7.55452 11.517 7.6306 11.517H8.87166C8.94774 11.517 9.0207 11.4788 9.07449 11.4107C9.12829 11.3427 9.15851 11.2503 9.15851 11.1541C9.15851 11.0578 9.12829 10.9655 9.07449 10.8974C9.0207 10.8294 8.94774 10.7911 8.87166 10.7911H8.87161Z" fill="#16042A" fill-opacity="0.8"/>
<path d="M7.6306 10.7911V11.7911V10.7911ZM8.87166 11.517V12.517V11.517ZM8.87161 9.79114H7.6306V11.7911H8.87161V9.79114ZM7.6306 9.79114C7.20318 9.79114 6.85654 10.0075 6.64321 10.2774L8.21232 11.5175C8.10658 11.6513 7.90587 11.7911 7.6306 11.7911V9.79114ZM6.64321 10.2774C6.4345 10.5415 6.34375 10.8589 6.34375 11.1541H8.34375C8.34375 11.2567 8.31344 11.3896 8.21232 11.5175L6.64321 10.2774ZM6.34375 11.1541C6.34375 11.4493 6.4345 11.7667 6.64321 12.0308L8.21232 10.7907C8.31344 10.9186 8.34375 11.0514 8.34375 11.1541H6.34375ZM6.64321 12.0308C6.85654 12.3007 7.20318 12.517 7.6306 12.517V10.517C7.90587 10.517 8.10658 10.6569 8.21232 10.7907L6.64321 12.0308ZM7.6306 12.517H8.87166V10.517H7.6306V12.517ZM8.87166 12.517C9.29909 12.517 9.64572 12.3007 9.85905 12.0308L8.28994 10.7907C8.39568 10.6569 8.59639 10.517 8.87166 10.517V12.517ZM9.85905 12.0308C10.0678 11.7667 10.1585 11.4493 10.1585 11.1541H8.15851C8.15851 11.0514 8.18882 10.9186 8.28994 10.7907L9.85905 12.0308ZM10.1585 11.1541C10.1585 10.8589 10.0678 10.5415 9.85905 10.2774L8.28994 11.5175C8.18882 11.3896 8.15851 11.2567 8.15851 11.1541H10.1585ZM9.85905 10.2774C9.64572 10.0075 9.29909 9.79114 8.87166 9.79114V11.7911C8.59639 11.7911 8.39568 11.6513 8.28994 11.5175L9.85905 10.2774ZM8.87166 9.79114H8.87161V11.7911H8.87166V9.79114Z" fill="#16042A" fill-opacity="0.8" mask="url(#path-5-inside-3)"/>
<mask id="path-7-inside-4" fill="white">
<path d="M2.59935 11.517H6.40199C6.47807 11.517 6.55103 11.4788 6.60482 11.4107C6.65862 11.3427 6.68884 11.2503 6.68884 11.1541C6.68884 11.0578 6.65862 10.9655 6.60482 10.8974C6.55103 10.8294 6.47807 10.7911 6.40199 10.7911H2.59935C2.52327 10.7911 2.45031 10.8294 2.39652 10.8974C2.34272 10.9655 2.3125 11.0578 2.3125 11.1541C2.3125 11.2503 2.34272 11.3427 2.39652 11.4107C2.45031 11.4788 2.52327 11.517 2.59935 11.517Z"/>
</mask>
<path d="M2.59935 11.517H6.40199C6.47807 11.517 6.55103 11.4788 6.60482 11.4107C6.65862 11.3427 6.68884 11.2503 6.68884 11.1541C6.68884 11.0578 6.65862 10.9655 6.60482 10.8974C6.55103 10.8294 6.47807 10.7911 6.40199 10.7911H2.59935C2.52327 10.7911 2.45031 10.8294 2.39652 10.8974C2.34272 10.9655 2.3125 11.0578 2.3125 11.1541C2.3125 11.2503 2.34272 11.3427 2.39652 11.4107C2.45031 11.4788 2.52327 11.517 2.59935 11.517Z" fill="#16042A" fill-opacity="0.8"/>
<path d="M6.40199 11.517V12.517V11.517ZM2.59935 10.7911V11.7911V10.7911ZM2.3125 11.1541H1.3125H2.3125ZM2.59935 12.517H6.40199V10.517H2.59935V12.517ZM6.40199 12.517C6.82941 12.517 7.17605 12.3007 7.38938 12.0308L5.82027 10.7907C5.92601 10.6569 6.12672 10.517 6.40199 10.517V12.517ZM7.38938 12.0308C7.59809 11.7667 7.68884 11.4493 7.68884 11.1541H5.68884C5.68884 11.0514 5.71915 10.9186 5.82027 10.7907L7.38938 12.0308ZM7.68884 11.1541C7.68884 10.8589 7.59809 10.5415 7.38938 10.2774L5.82027 11.5175C5.71915 11.3896 5.68884 11.2567 5.68884 11.1541H7.68884ZM7.38938 10.2774C7.17605 10.0075 6.82941 9.79114 6.40199 9.79114V11.7911C6.12672 11.7911 5.92601 11.6513 5.82027 11.5175L7.38938 10.2774ZM6.40199 9.79114H2.59935V11.7911H6.40199V9.79114ZM2.59935 9.79114C2.17193 9.79114 1.82529 10.0075 1.61196 10.2774L3.18107 11.5175C3.07533 11.6513 2.87462 11.7911 2.59935 11.7911V9.79114ZM1.61196 10.2774C1.40325 10.5415 1.3125 10.8589 1.3125 11.1541H3.3125C3.3125 11.2567 3.28219 11.3896 3.18107 11.5175L1.61196 10.2774ZM1.3125 11.1541C1.3125 11.4493 1.40325 11.7667 1.61196 12.0308L3.18107 10.7907C3.28219 10.9186 3.3125 11.0514 3.3125 11.1541H1.3125ZM1.61196 12.0308C1.82529 12.3007 2.17193 12.517 2.59935 12.517V10.517C2.87462 10.517 3.07533 10.6569 3.18107 10.7907L1.61196 12.0308Z" fill="#16042A" fill-opacity="0.8" mask="url(#path-7-inside-4)"/>
<mask id="path-9-inside-5" fill="white">
<path d="M8.87118 14.6368H5.09154C5.01546 14.6368 4.9425 14.6751 4.8887 14.7431C4.83491 14.8112 4.80469 14.9035 4.80469 14.9998C4.80469 15.096 4.83491 15.1884 4.8887 15.2564C4.9425 15.3245 5.01546 15.3627 5.09154 15.3627H8.87104C8.94711 15.3627 9.02008 15.3245 9.07387 15.2564C9.12767 15.1884 9.15789 15.096 9.15789 14.9998C9.15789 14.9035 9.12767 14.8112 9.07387 14.7431C9.02008 14.6751 8.94711 14.6368 8.87104 14.6368H8.87118Z"/>
</mask>
<path d="M8.87118 14.6368H5.09154C5.01546 14.6368 4.9425 14.6751 4.8887 14.7431C4.83491 14.8112 4.80469 14.9035 4.80469 14.9998C4.80469 15.096 4.83491 15.1884 4.8887 15.2564C4.9425 15.3245 5.01546 15.3627 5.09154 15.3627H8.87104C8.94711 15.3627 9.02008 15.3245 9.07387 15.2564C9.12767 15.1884 9.15789 15.096 9.15789 14.9998C9.15789 14.9035 9.12767 14.8112 9.07387 14.7431C9.02008 14.6751 8.94711 14.6368 8.87104 14.6368H8.87118Z" fill="#16042A" fill-opacity="0.8"/>
<path d="M8.87118 13.6368H5.09154V15.6368H8.87118V13.6368ZM5.09154 13.6368C4.66411 13.6368 4.31748 13.8532 4.10415 14.1231L5.67326 15.3632C5.56752 15.497 5.36681 15.6368 5.09154 15.6368V13.6368ZM4.10415 14.1231C3.89544 14.3872 3.80469 14.7046 3.80469 14.9998H5.80469C5.80469 15.1024 5.77438 15.2353 5.67326 15.3632L4.10415 14.1231ZM3.80469 14.9998C3.80469 15.295 3.89544 15.6124 4.10415 15.8765L5.67326 14.6364C5.77438 14.7643 5.80469 14.8971 5.80469 14.9998H3.80469ZM4.10415 15.8765C4.31748 16.1464 4.66411 16.3627 5.09154 16.3627V14.3627C5.36681 14.3627 5.56752 14.5026 5.67326 14.6364L4.10415 15.8765ZM5.09154 16.3627H8.87104V14.3627H5.09154V16.3627ZM8.87104 16.3627C9.29846 16.3627 9.64509 16.1464 9.85843 15.8765L8.28932 14.6364C8.39506 14.5026 8.59577 14.3627 8.87104 14.3627V16.3627ZM9.85843 15.8765C10.0671 15.6124 10.1579 15.295 10.1579 14.9998H8.15789C8.15789 14.8971 8.1882 14.7643 8.28932 14.6364L9.85843 15.8765ZM10.1579 14.9998C10.1579 14.7046 10.0671 14.3872 9.85843 14.1231L8.28932 15.3632C8.1882 15.2353 8.15789 15.1024 8.15789 14.9998H10.1579ZM9.85843 14.1231C9.64509 13.8532 9.29846 13.6368 8.87104 13.6368V15.6368C8.59577 15.6368 8.39506 15.497 8.28932 15.3632L9.85843 14.1231ZM8.87104 15.6368H8.87118V13.6368H8.87104V15.6368Z" fill="#16042A" fill-opacity="0.8" mask="url(#path-9-inside-5)"/>
<mask id="path-11-inside-6" fill="white">
<path d="M2.59935 15.3627H3.84887C3.92495 15.3627 3.99791 15.3245 4.05171 15.2564C4.1055 15.1884 4.13572 15.096 4.13572 14.9998C4.13572 14.9035 4.1055 14.8112 4.05171 14.7431C3.99791 14.6751 3.92495 14.6368 3.84887 14.6368H2.59935C2.52327 14.6368 2.45031 14.6751 2.39652 14.7431C2.34272 14.8112 2.3125 14.9035 2.3125 14.9998C2.3125 15.096 2.34272 15.1884 2.39652 15.2564C2.45031 15.3245 2.52327 15.3627 2.59935 15.3627Z"/>
</mask>
<path d="M2.59935 15.3627H3.84887C3.92495 15.3627 3.99791 15.3245 4.05171 15.2564C4.1055 15.1884 4.13572 15.096 4.13572 14.9998C4.13572 14.9035 4.1055 14.8112 4.05171 14.7431C3.99791 14.6751 3.92495 14.6368 3.84887 14.6368H2.59935C2.52327 14.6368 2.45031 14.6751 2.39652 14.7431C2.34272 14.8112 2.3125 14.9035 2.3125 14.9998C2.3125 15.096 2.34272 15.1884 2.39652 15.2564C2.45031 15.3245 2.52327 15.3627 2.59935 15.3627Z" fill="#16042A" fill-opacity="0.8"/>
<path d="M2.3125 14.9998H1.3125H2.3125ZM2.59935 16.3627H3.84887V14.3627H2.59935V16.3627ZM3.84887 16.3627C4.2763 16.3627 4.62293 16.1464 4.83626 15.8765L3.26715 14.6364C3.37289 14.5026 3.5736 14.3627 3.84887 14.3627V16.3627ZM4.83626 15.8765C5.04497 15.6124 5.13572 15.295 5.13572 14.9998H3.13572C3.13572 14.8971 3.16603 14.7643 3.26715 14.6364L4.83626 15.8765ZM5.13572 14.9998C5.13572 14.7046 5.04497 14.3872 4.83626 14.1231L3.26715 15.3632C3.16603 15.2353 3.13572 15.1025 3.13572 14.9998H5.13572ZM4.83626 14.1231C4.62293 13.8532 4.2763 13.6368 3.84887 13.6368V15.6368C3.5736 15.6368 3.37289 15.497 3.26715 15.3632L4.83626 14.1231ZM3.84887 13.6368H2.59935V15.6368H3.84887V13.6368ZM2.59935 13.6368C2.17193 13.6368 1.82529 13.8532 1.61196 14.1231L3.18107 15.3632C3.07533 15.497 2.87462 15.6368 2.59935 15.6368V13.6368ZM1.61196 14.1231C1.40325 14.3872 1.3125 14.7046 1.3125 14.9998H3.3125C3.3125 15.1025 3.28219 15.2353 3.18107 15.3632L1.61196 14.1231ZM1.3125 14.9998C1.3125 15.295 1.40325 15.6124 1.61196 15.8765L3.18107 14.6364C3.28219 14.7643 3.3125 14.8971 3.3125 14.9998H1.3125ZM1.61196 15.8765C1.82529 16.1464 2.17193 16.3627 2.59935 16.3627V14.3627C2.87462 14.3627 3.07533 14.5026 3.18107 14.6364L1.61196 15.8765Z" fill="#16042A" fill-opacity="0.8" mask="url(#path-11-inside-6)"/>
<mask id="path-13-inside-7" fill="white">
<path d="M8.87123 18.4821H7.47044C7.39437 18.4821 7.32141 18.5203 7.26761 18.5884C7.21382 18.6564 7.18359 18.7487 7.18359 18.845C7.18359 18.9413 7.21382 19.0336 7.26761 19.1016C7.32141 19.1697 7.39437 19.208 7.47044 19.208H8.87123C8.94731 19.208 9.02027 19.1697 9.07407 19.1016C9.12786 19.0336 9.15808 18.9413 9.15808 18.845C9.15808 18.7487 9.12786 18.6564 9.07407 18.5884C9.02027 18.5203 8.94731 18.4821 8.87123 18.4821Z"/>
</mask>
<path d="M8.87123 18.4821H7.47044C7.39437 18.4821 7.32141 18.5203 7.26761 18.5884C7.21382 18.6564 7.18359 18.7487 7.18359 18.845C7.18359 18.9413 7.21382 19.0336 7.26761 19.1016C7.32141 19.1697 7.39437 19.208 7.47044 19.208H8.87123C8.94731 19.208 9.02027 19.1697 9.07407 19.1016C9.12786 19.0336 9.15808 18.9413 9.15808 18.845C9.15808 18.7487 9.12786 18.6564 9.07407 18.5884C9.02027 18.5203 8.94731 18.4821 8.87123 18.4821Z" fill="#16042A" fill-opacity="0.8"/>
<path d="M8.87123 17.4821H7.47044V19.4821H8.87123V17.4821ZM7.47044 17.4821C7.04302 17.4821 6.69639 17.6984 6.48306 17.9683L8.05217 19.2084C7.94643 19.3422 7.74572 19.4821 7.47044 19.4821V17.4821ZM6.48306 17.9683C6.27435 18.2324 6.18359 18.5498 6.18359 18.845H8.18359C8.18359 18.9477 8.15328 19.0805 8.05217 19.2084L6.48306 17.9683ZM6.18359 18.845C6.18359 19.1402 6.27435 19.4576 6.48306 19.7217L8.05217 18.4816C8.15328 18.6095 8.18359 18.7423 8.18359 18.845H6.18359ZM6.48306 19.7217C6.69639 19.9916 7.04302 20.208 7.47044 20.208V18.208C7.74572 18.208 7.94643 18.3478 8.05217 18.4816L6.48306 19.7217ZM7.47044 20.208H8.87123V18.208H7.47044V20.208ZM8.87123 20.208C9.29866 20.208 9.64529 19.9916 9.85862 19.7217L8.28951 18.4816C8.39525 18.3478 8.59596 18.208 8.87123 18.208V20.208ZM9.85862 19.7217C10.0673 19.4576 10.1581 19.1402 10.1581 18.845H8.15808C8.15808 18.7423 8.18839 18.6095 8.28951 18.4816L9.85862 19.7217ZM10.1581 18.845C10.1581 18.5498 10.0673 18.2324 9.85862 17.9683L8.28951 19.2084C8.18839 19.0805 8.15808 18.9477 8.15808 18.845H10.1581ZM9.85862 17.9683C9.64529 17.6984 9.29866 17.4821 8.87123 17.4821V19.4821C8.59596 19.4821 8.39525 19.3422 8.28951 19.2084L9.85862 17.9683Z" fill="#16042A" fill-opacity="0.8" mask="url(#path-13-inside-7)"/>
<mask id="path-15-inside-8" fill="white">
<path d="M6.25436 18.4821H2.59935C2.52327 18.4821 2.45031 18.5203 2.39652 18.5884C2.34272 18.6564 2.3125 18.7487 2.3125 18.845C2.3125 18.9413 2.34272 19.0336 2.39652 19.1016C2.45031 19.1697 2.52327 19.208 2.59935 19.208H6.25436C6.33043 19.208 6.4034 19.1697 6.45719 19.1016C6.51099 19.0336 6.54121 18.9413 6.54121 18.845C6.54121 18.7487 6.51099 18.6564 6.45719 18.5884C6.4034 18.5203 6.33043 18.4821 6.25436 18.4821Z"/>
</mask>
<path d="M6.25436 18.4821H2.59935C2.52327 18.4821 2.45031 18.5203 2.39652 18.5884C2.34272 18.6564 2.3125 18.7487 2.3125 18.845C2.3125 18.9413 2.34272 19.0336 2.39652 19.1016C2.45031 19.1697 2.52327 19.208 2.59935 19.208H6.25436C6.33043 19.208 6.4034 19.1697 6.45719 19.1016C6.51099 19.0336 6.54121 18.9413 6.54121 18.845C6.54121 18.7487 6.51099 18.6564 6.45719 18.5884C6.4034 18.5203 6.33043 18.4821 6.25436 18.4821Z" fill="#16042A" fill-opacity="0.8"/>
<path d="M2.3125 18.845H1.3125H2.3125ZM6.25436 17.4821H2.59935V19.4821H6.25436V17.4821ZM2.59935 17.4821C2.17193 17.4821 1.82529 17.6984 1.61196 17.9683L3.18107 19.2084C3.07533 19.3422 2.87462 19.4821 2.59935 19.4821V17.4821ZM1.61196 17.9683C1.40325 18.2324 1.3125 18.5498 1.3125 18.845H3.3125C3.3125 18.9477 3.28219 19.0805 3.18107 19.2084L1.61196 17.9683ZM1.3125 18.845C1.3125 19.1402 1.40325 19.4576 1.61196 19.7217L3.18107 18.4816C3.28219 18.6095 3.3125 18.7423 3.3125 18.845H1.3125ZM1.61196 19.7217C1.82529 19.9916 2.17193 20.208 2.59935 20.208V18.208C2.87462 18.208 3.07533 18.3478 3.18107 18.4816L1.61196 19.7217ZM2.59935 20.208H6.25436V18.208H2.59935V20.208ZM6.25436 20.208C6.68178 20.208 7.02842 19.9916 7.24175 19.7217L5.67264 18.4816C5.77838 18.3478 5.97909 18.208 6.25436 18.208V20.208ZM7.24175 19.7217C7.45046 19.4576 7.54121 19.1402 7.54121 18.845H5.54121C5.54121 18.7423 5.57152 18.6095 5.67264 18.4816L7.24175 19.7217ZM7.54121 18.845C7.54121 18.5498 7.45046 18.2324 7.24175 17.9683L5.67264 19.2084C5.57152 19.0805 5.54121 18.9477 5.54121 18.845H7.54121ZM7.24175 17.9683C7.02842 17.6984 6.68178 17.4821 6.25436 17.4821V19.4821C5.97909 19.4821 5.77838 19.3422 5.67264 19.2084L7.24175 17.9683Z" fill="#16042A" fill-opacity="0.8" mask="url(#path-15-inside-8)"/>
<mask id="path-17-inside-9" fill="white">
<path d="M15.4411 7.67158H17.3521C17.4282 7.67158 17.5012 7.63334 17.555 7.56527C17.6088 7.4972 17.639 7.40489 17.639 7.30863C17.639 7.21237 17.6088 7.12005 17.555 7.05198C17.5012 6.98392 17.4282 6.94568 17.3521 6.94568H15.4411C15.3651 6.94568 15.2921 6.98392 15.2383 7.05198C15.1845 7.12005 15.1543 7.21237 15.1543 7.30863C15.1543 7.40489 15.1845 7.4972 15.2383 7.56527C15.2921 7.63334 15.3651 7.67158 15.4411 7.67158Z"/>
</mask>
<path d="M15.4411 7.67158H17.3521C17.4282 7.67158 17.5012 7.63334 17.555 7.56527C17.6088 7.4972 17.639 7.40489 17.639 7.30863C17.639 7.21237 17.6088 7.12005 17.555 7.05198C17.5012 6.98392 17.4282 6.94568 17.3521 6.94568H15.4411C15.3651 6.94568 15.2921 6.98392 15.2383 7.05198C15.1845 7.12005 15.1543 7.21237 15.1543 7.30863C15.1543 7.40489 15.1845 7.4972 15.2383 7.56527C15.2921 7.63334 15.3651 7.67158 15.4411 7.67158Z" fill="#16042A" fill-opacity="0.8"/>
<path d="M15.4411 8.67158H17.3521V6.67158H15.4411V8.67158ZM17.3521 8.67158C17.7796 8.67158 18.1262 8.45526 18.3395 8.18533L16.7704 6.94521C16.8762 6.81142 17.0769 6.67158 17.3521 6.67158V8.67158ZM18.3395 8.18533C18.5482 7.92125 18.639 7.6038 18.639 7.30863H16.639C16.639 7.20597 16.6693 7.07316 16.7704 6.94521L18.3395 8.18533ZM18.639 7.30863C18.639 7.01345 18.5482 6.696 18.3395 6.43192L16.7704 7.67204C16.6693 7.5441 16.639 7.41129 16.639 7.30863H18.639ZM18.3395 6.43192C18.1262 6.16201 17.7796 5.94568 17.3521 5.94568V7.94568C17.0769 7.94568 16.8762 7.80583 16.7704 7.67204L18.3395 6.43192ZM17.3521 5.94568H15.4411V7.94568H17.3521V5.94568ZM15.4411 5.94568C15.0137 5.94568 14.6671 6.16201 14.4538 6.43192L16.0229 7.67204C15.9171 7.80583 15.7164 7.94568 15.4411 7.94568V5.94568ZM14.4538 6.43192C14.245 6.696 14.1543 7.01345 14.1543 7.30863H16.1543C16.1543 7.41129 16.124 7.5441 16.0229 7.67204L14.4538 6.43192ZM14.1543 7.30863C14.1543 7.6038 14.245 7.92125 14.4538 8.18533L16.0229 6.94521C16.124 7.07316 16.1543 7.20597 16.1543 7.30863H14.1543ZM14.4538 8.18533C14.6671 8.45526 15.0137 8.67158 15.4411 8.67158V6.67158C15.7164 6.67158 15.9171 6.81142 16.0229 6.94521L14.4538 8.18533Z" fill="#16042A" fill-opacity="0.8" mask="url(#path-17-inside-9)"/>
<mask id="path-19-inside-10" fill="white">
<path d="M13.5349 7.67158H14.209C14.2851 7.67158 14.358 7.63334 14.4118 7.56527C14.4656 7.4972 14.4958 7.40489 14.4958 7.30863C14.4958 7.21237 14.4656 7.12005 14.4118 7.05198C14.358 6.98392 14.2851 6.94568 14.209 6.94568H13.5349C13.4588 6.94568 13.3859 6.98392 13.3321 7.05198C13.2783 7.12005 13.248 7.21237 13.248 7.30863C13.248 7.40489 13.2783 7.4972 13.3321 7.56527C13.3859 7.63334 13.4588 7.67158 13.5349 7.67158Z"/>
</mask>
<path d="M13.5349 7.67158H14.209C14.2851 7.67158 14.358 7.63334 14.4118 7.56527C14.4656 7.4972 14.4958 7.40489 14.4958 7.30863C14.4958 7.21237 14.4656 7.12005 14.4118 7.05198C14.358 6.98392 14.2851 6.94568 14.209 6.94568H13.5349C13.4588 6.94568 13.3859 6.98392 13.3321 7.05198C13.2783 7.12005 13.248 7.21237 13.248 7.30863C13.248 7.40489 13.2783 7.4972 13.3321 7.56527C13.3859 7.63334 13.4588 7.67158 13.5349 7.67158Z" fill="#16042A" fill-opacity="0.8"/>
<path d="M13.5349 8.67158H14.209V6.67158H13.5349V8.67158ZM14.209 8.67158C14.6364 8.67158 14.9831 8.45526 15.1964 8.18533L13.6273 6.94521C13.733 6.81142 13.9337 6.67158 14.209 6.67158V8.67158ZM15.1964 8.18533C15.4051 7.92125 15.4958 7.6038 15.4958 7.30863H13.4958C13.4958 7.20597 13.5262 7.07316 13.6273 6.94521L15.1964 8.18533ZM15.4958 7.30863C15.4958 7.01345 15.4051 6.696 15.1964 6.43192L13.6273 7.67204C13.5262 7.5441 13.4958 7.41129 13.4958 7.30863H15.4958ZM15.1964 6.43192C14.9831 6.16201 14.6364 5.94568 14.209 5.94568V7.94568C13.9337 7.94568 13.733 7.80583 13.6273 7.67204L15.1964 6.43192ZM14.209 5.94568H13.5349V7.94568H14.209V5.94568ZM13.5349 5.94568C13.1075 5.94568 12.7608 6.16201 12.5475 6.43192L14.1166 7.67204C14.0109 7.80583 13.8102 7.94568 13.5349 7.94568V5.94568ZM12.5475 6.43192C12.3388 6.696 12.248 7.01344 12.248 7.30863H14.248C14.248 7.4113 14.2177 7.54411 14.1166 7.67204L12.5475 6.43192ZM12.248 7.30863C12.248 7.60382 12.3388 7.92126 12.5475 8.18533L14.1166 6.94521C14.2177 7.07315 14.248 7.20596 14.248 7.30863H12.248ZM12.5475 8.18533C12.7608 8.45525 13.1075 8.67158 13.5349 8.67158V6.67158C13.8102 6.67158 14.0109 6.81142 14.1166 6.94521L12.5475 8.18533Z" fill="#16042A" fill-opacity="0.8" mask="url(#path-19-inside-10)"/>
<mask id="path-21-inside-11" fill="white">
<path d="M17.7695 11.1541C17.7695 11.2503 17.7998 11.3427 17.8535 11.4107C17.9073 11.4788 17.9803 11.517 18.0564 11.517H19.8068C19.8829 11.517 19.9558 11.4788 20.0096 11.4107C20.0634 11.3427 20.0936 11.2503 20.0936 11.1541C20.0936 11.0578 20.0634 10.9655 20.0096 10.8974C19.9558 10.8294 19.8829 10.7911 19.8068 10.7911H18.0564C17.9803 10.7911 17.9073 10.8294 17.8535 10.8974C17.7998 10.9655 17.7695 11.0578 17.7695 11.1541Z"/>
</mask>
<path d="M17.7695 11.1541C17.7695 11.2503 17.7998 11.3427 17.8535 11.4107C17.9073 11.4788 17.9803 11.517 18.0564 11.517H19.8068C19.8829 11.517 19.9558 11.4788 20.0096 11.4107C20.0634 11.3427 20.0936 11.2503 20.0936 11.1541C20.0936 11.0578 20.0634 10.9655 20.0096 10.8974C19.9558 10.8294 19.8829 10.7911 19.8068 10.7911H18.0564C17.9803 10.7911 17.9073 10.8294 17.8535 10.8974C17.7998 10.9655 17.7695 11.0578 17.7695 11.1541Z" fill="#16042A" fill-opacity="0.8"/>
<path d="M19.8068 11.517V12.517V11.517ZM18.0564 10.7911V11.7911V10.7911ZM16.7695 11.1541C16.7695 11.4493 16.8603 11.7667 17.069 12.0308L18.6381 10.7907C18.7392 10.9186 18.7695 11.0514 18.7695 11.1541H16.7695ZM17.069 12.0308C17.2823 12.3007 17.629 12.517 18.0564 12.517V10.517C18.3317 10.517 18.5324 10.6569 18.6381 10.7907L17.069 12.0308ZM18.0564 12.517H19.8068V10.517H18.0564V12.517ZM19.8068 12.517C20.2342 12.517 20.5809 12.3007 20.7942 12.0308L19.2251 10.7907C19.3308 10.6569 19.5315 10.517 19.8068 10.517V12.517ZM20.7942 12.0308C21.0029 11.7667 21.0936 11.4493 21.0936 11.1541H19.0936C19.0936 11.0514 19.124 10.9186 19.2251 10.7907L20.7942 12.0308ZM21.0936 11.1541C21.0936 10.8589 21.0029 10.5415 20.7942 10.2774L19.2251 11.5175C19.124 11.3896 19.0936 11.2567 19.0936 11.1541H21.0936ZM20.7942 10.2774C20.5809 10.0075 20.2342 9.79114 19.8068 9.79114V11.7911C19.5315 11.7911 19.3308 11.6513 19.2251 11.5175L20.7942 10.2774ZM19.8068 9.79114H18.0564V11.7911H19.8068V9.79114ZM18.0564 9.79114C17.629 9.79114 17.2823 10.0075 17.069 10.2774L18.6381 11.5175C18.5324 11.6513 18.3317 11.7911 18.0564 11.7911V9.79114ZM17.069 10.2774C16.8603 10.5415 16.7695 10.8589 16.7695 11.1541H18.7695C18.7695 11.2567 18.7392 11.3896 18.6381 11.5175L17.069 10.2774Z" fill="#16042A" fill-opacity="0.8" mask="url(#path-21-inside-11)"/>
<mask id="path-23-inside-12" fill="white">
<path d="M13.5349 11.517H16.79C16.8661 11.517 16.939 11.4788 16.9928 11.4107C17.0466 11.3427 17.0768 11.2503 17.0768 11.1541C17.0768 11.0578 17.0466 10.9655 16.9928 10.8974C16.939 10.8294 16.8661 10.7911 16.79 10.7911H13.5349C13.4588 10.7911 13.3859 10.8294 13.3321 10.8974C13.2783 10.9655 13.248 11.0578 13.248 11.1541C13.248 11.2503 13.2783 11.3427 13.3321 11.4107C13.3859 11.4788 13.4588 11.517 13.5349 11.517Z"/>
</mask>
<path d="M13.5349 11.517H16.79C16.8661 11.517 16.939 11.4788 16.9928 11.4107C17.0466 11.3427 17.0768 11.2503 17.0768 11.1541C17.0768 11.0578 17.0466 10.9655 16.9928 10.8974C16.939 10.8294 16.8661 10.7911 16.79 10.7911H13.5349C13.4588 10.7911 13.3859 10.8294 13.3321 10.8974C13.2783 10.9655 13.248 11.0578 13.248 11.1541C13.248 11.2503 13.2783 11.3427 13.3321 11.4107C13.3859 11.4788 13.4588 11.517 13.5349 11.517Z" fill="#16042A" fill-opacity="0.8"/>
<path d="M16.79 11.517V12.517V11.517ZM13.5349 10.7911V11.7911V10.7911ZM13.5349 12.517H16.79V10.517H13.5349V12.517ZM16.79 12.517C17.2174 12.517 17.564 12.3007 17.7774 12.0308L16.2083 10.7907C16.314 10.6569 16.5147 10.517 16.79 10.517V12.517ZM17.7774 12.0308C17.9861 11.7667 18.0768 11.4493 18.0768 11.1541H16.0768C16.0768 11.0514 16.1071 10.9186 16.2083 10.7907L17.7774 12.0308ZM18.0768 11.1541C18.0768 10.8589 17.9861 10.5415 17.7774 10.2774L16.2083 11.5175C16.1071 11.3896 16.0768 11.2567 16.0768 11.1541H18.0768ZM17.7774 10.2774C17.564 10.0075 17.2174 9.79114 16.79 9.79114V11.7911C16.5147 11.7911 16.314 11.6513 16.2083 11.5175L17.7774 10.2774ZM16.79 9.79114H13.5349V11.7911H16.79V9.79114ZM13.5349 9.79114C13.1075 9.79114 12.7608 10.0075 12.5475 10.2774L14.1166 11.5175C14.0109 11.6513 13.8102 11.7911 13.5349 11.7911V9.79114ZM12.5475 10.2774C12.3388 10.5415 12.248 10.8589 12.248 11.1541H14.248C14.248 11.2568 14.2177 11.3896 14.1166 11.5175L12.5475 10.2774ZM12.248 11.1541C12.248 11.4493 12.3388 11.7667 12.5475 12.0308L14.1166 10.7907C14.2177 10.9186 14.248 11.0514 14.248 11.1541H12.248ZM12.5475 12.0308C12.7608 12.3007 13.1075 12.517 13.5349 12.517V10.517C13.8102 10.517 14.0109 10.6569 14.1166 10.7907L12.5475 12.0308Z" fill="#16042A" fill-opacity="0.8" mask="url(#path-23-inside-12)"/>
<mask id="path-25-inside-13" fill="white">
<path d="M19.8074 14.6368H15.7322C15.6561 14.6368 15.5831 14.6751 15.5293 14.7431C15.4755 14.8112 15.4453 14.9035 15.4453 14.9998C15.4453 15.096 15.4755 15.1884 15.5293 15.2564C15.5831 15.3245 15.6561 15.3627 15.7322 15.3627H19.8074C19.8835 15.3627 19.9564 15.3245 20.0102 15.2564C20.064 15.1884 20.0943 15.096 20.0943 14.9998C20.0943 14.9035 20.064 14.8112 20.0102 14.7431C19.9564 14.6751 19.8835 14.6368 19.8074 14.6368Z"/>
</mask>
<path d="M19.8074 14.6368H15.7322C15.6561 14.6368 15.5831 14.6751 15.5293 14.7431C15.4755 14.8112 15.4453 14.9035 15.4453 14.9998C15.4453 15.096 15.4755 15.1884 15.5293 15.2564C15.5831 15.3245 15.6561 15.3627 15.7322 15.3627H19.8074C19.8835 15.3627 19.9564 15.3245 20.0102 15.2564C20.064 15.1884 20.0943 15.096 20.0943 14.9998C20.0943 14.9035 20.064 14.8112 20.0102 14.7431C19.9564 14.6751 19.8835 14.6368 19.8074 14.6368Z" fill="#16042A" fill-opacity="0.8"/>
<path d="M19.8074 13.6368H15.7322V15.6368H19.8074V13.6368ZM15.7322 13.6368C15.3047 13.6368 14.9581 13.8532 14.7448 14.1231L16.3139 15.3632C16.2081 15.497 16.0074 15.6368 15.7322 15.6368V13.6368ZM14.7448 14.1231C14.5361 14.3872 14.4453 14.7046 14.4453 14.9998H16.4453C16.4453 15.1025 16.415 15.2353 16.3139 15.3632L14.7448 14.1231ZM14.4453 14.9998C14.4453 15.295 14.5361 15.6124 14.7448 15.8765L16.3139 14.6364C16.415 14.7643 16.4453 14.8971 16.4453 14.9998H14.4453ZM14.7448 15.8765C14.9581 16.1464 15.3047 16.3627 15.7322 16.3627V14.3627C16.0074 14.3627 16.2081 14.5026 16.3139 14.6364L14.7448 15.8765ZM15.7322 16.3627H19.8074V14.3627H15.7322V16.3627ZM19.8074 16.3627C20.2348 16.3627 20.5815 16.1464 20.7948 15.8765L19.2257 14.6364C19.3314 14.5026 19.5321 14.3627 19.8074 14.3627V16.3627ZM20.7948 15.8765C21.0035 15.6124 21.0943 15.295 21.0943 14.9998H19.0943C19.0943 14.8971 19.1246 14.7643 19.2257 14.6364L20.7948 15.8765ZM21.0943 14.9998C21.0943 14.7046 21.0035 14.3872 20.7948 14.1231L19.2257 15.3632C19.1246 15.2353 19.0943 15.1024 19.0943 14.9998H21.0943ZM20.7948 14.1231C20.5815 13.8532 20.2348 13.6368 19.8074 13.6368V15.6368C19.5321 15.6368 19.3314 15.497 19.2257 15.3632L20.7948 14.1231Z" fill="#16042A" fill-opacity="0.8" mask="url(#path-25-inside-13)"/>
<mask id="path-27-inside-14" fill="white">
<path d="M13.5349 15.3627H14.5107C14.5867 15.3627 14.6597 15.3245 14.7135 15.2564C14.7673 15.1884 14.7975 15.096 14.7975 14.9998C14.7975 14.9035 14.7673 14.8112 14.7135 14.7431C14.6597 14.6751 14.5867 14.6368 14.5107 14.6368H13.5349C13.4588 14.6368 13.3859 14.6751 13.3321 14.7431C13.2783 14.8112 13.248 14.9035 13.248 14.9998C13.248 15.096 13.2783 15.1884 13.3321 15.2564C13.3859 15.3245 13.4588 15.3627 13.5349 15.3627Z"/>
</mask>
<path d="M13.5349 15.3627H14.5107C14.5867 15.3627 14.6597 15.3245 14.7135 15.2564C14.7673 15.1884 14.7975 15.096 14.7975 14.9998C14.7975 14.9035 14.7673 14.8112 14.7135 14.7431C14.6597 14.6751 14.5867 14.6368 14.5107 14.6368H13.5349C13.4588 14.6368 13.3859 14.6751 13.3321 14.7431C13.2783 14.8112 13.248 14.9035 13.248 14.9998C13.248 15.096 13.2783 15.1884 13.3321 15.2564C13.3859 15.3245 13.4588 15.3627 13.5349 15.3627Z" fill="#16042A" fill-opacity="0.8"/>
<path d="M13.5349 16.3627H14.5107V14.3627H13.5349V16.3627ZM14.5107 16.3627C14.9381 16.3627 15.2847 16.1464 15.4981 15.8765L13.9289 14.6364C14.0347 14.5026 14.2354 14.3627 14.5107 14.3627V16.3627ZM15.4981 15.8765C15.7068 15.6124 15.7975 15.295 15.7975 14.9998H13.7975C13.7975 14.8971 13.8278 14.7643 13.9289 14.6364L15.4981 15.8765ZM15.7975 14.9998C15.7975 14.7046 15.7068 14.3872 15.4981 14.1231L13.9289 15.3632C13.8278 15.2353 13.7975 15.1024 13.7975 14.9998H15.7975ZM15.4981 14.1231C15.2847 13.8532 14.9381 13.6368 14.5107 13.6368V15.6368C14.2354 15.6368 14.0347 15.497 13.9289 15.3632L15.4981 14.1231ZM14.5107 13.6368H13.5349V15.6368H14.5107V13.6368ZM13.5349 13.6368C13.1075 13.6368 12.7608 13.8532 12.5475 14.1231L14.1166 15.3632C14.0109 15.497 13.8102 15.6368 13.5349 15.6368V13.6368ZM12.5475 14.1231C12.3388 14.3872 12.248 14.7046 12.248 14.9998H14.248C14.248 15.1025 14.2177 15.2353 14.1166 15.3632L12.5475 14.1231ZM12.248 14.9998C12.248 15.295 12.3388 15.6124 12.5475 15.8765L14.1166 14.6364C14.2177 14.7643 14.248 14.8971 14.248 14.9998H12.248ZM12.5475 15.8765C12.7608 16.1464 13.1075 16.3627 13.5349 16.3627V14.3627C13.8102 14.3627 14.0109 14.5026 14.1166 14.6364L12.5475 15.8765Z" fill="#16042A" fill-opacity="0.8" mask="url(#path-27-inside-14)"/>
<mask id="path-29-inside-15" fill="white">
<path d="M19.8055 18.4821H18.8845C18.8084 18.4821 18.7355 18.5203 18.6817 18.5884C18.6279 18.6564 18.5977 18.7487 18.5977 18.845C18.5977 18.9413 18.6279 19.0336 18.6817 19.1016C18.7355 19.1697 18.8084 19.208 18.8845 19.208H19.8055C19.8816 19.208 19.9546 19.1697 20.0084 19.1016C20.0622 19.0336 20.0924 18.9413 20.0924 18.845C20.0924 18.7487 20.0622 18.6564 20.0084 18.5884C19.9546 18.5203 19.8816 18.4821 19.8055 18.4821Z"/>
</mask>
<path d="M19.8055 18.4821H18.8845C18.8084 18.4821 18.7355 18.5203 18.6817 18.5884C18.6279 18.6564 18.5977 18.7487 18.5977 18.845C18.5977 18.9413 18.6279 19.0336 18.6817 19.1016C18.7355 19.1697 18.8084 19.208 18.8845 19.208H19.8055C19.8816 19.208 19.9546 19.1697 20.0084 19.1016C20.0622 19.0336 20.0924 18.9413 20.0924 18.845C20.0924 18.7487 20.0622 18.6564 20.0084 18.5884C19.9546 18.5203 19.8816 18.4821 19.8055 18.4821Z" fill="#16042A" fill-opacity="0.8"/>
<path d="M19.8055 17.4821H18.8845V19.4821H19.8055V17.4821ZM18.8845 17.4821C18.4571 17.4821 18.1104 17.6984 17.8971 17.9683L19.4662 19.2084C19.3605 19.3422 19.1598 19.4821 18.8845 19.4821V17.4821ZM17.8971 17.9683C17.6884 18.2324 17.5977 18.5498 17.5977 18.845H19.5977C19.5977 18.9477 19.5673 19.0805 19.4662 19.2084L17.8971 17.9683ZM17.5977 18.845C17.5977 19.1402 17.6884 19.4576 17.8971 19.7217L19.4662 18.4816C19.5673 18.6095 19.5977 18.7423 19.5977 18.845H17.5977ZM17.8971 19.7217C18.1104 19.9916 18.4571 20.208 18.8845 20.208V18.208C19.1598 18.208 19.3605 18.3478 19.4662 18.4816L17.8971 19.7217ZM18.8845 20.208H19.8055V18.208H18.8845V20.208ZM19.8055 20.208C20.233 20.208 20.5796 19.9916 20.7929 19.7217L19.2238 18.4816C19.3296 18.3478 19.5303 18.208 19.8055 18.208V20.208ZM20.7929 19.7217C21.0016 19.4576 21.0924 19.1402 21.0924 18.845H19.0924C19.0924 18.7423 19.1227 18.6095 19.2238 18.4816L20.7929 19.7217ZM21.0924 18.845C21.0924 18.5498 21.0016 18.2324 20.7929 17.9683L19.2238 19.2084C19.1227 19.0805 19.0924 18.9477 19.0924 18.845H21.0924ZM20.7929 17.9683C20.5796 17.6984 20.233 17.4821 19.8055 17.4821V19.4821C19.5303 19.4821 19.3296 19.3422 19.2238 19.2084L20.7929 17.9683Z" fill="#16042A" fill-opacity="0.8" mask="url(#path-29-inside-15)"/>
<mask id="path-31-inside-16" fill="white">
<path d="M17.6698 18.4821H13.5349C13.4588 18.4821 13.3859 18.5203 13.3321 18.5884C13.2783 18.6564 13.248 18.7487 13.248 18.845C13.248 18.9413 13.2783 19.0336 13.3321 19.1016C13.3859 19.1697 13.4588 19.208 13.5349 19.208H17.6698C17.7458 19.208 17.8188 19.1697 17.8726 19.1016C17.9264 19.0336 17.9566 18.9413 17.9566 18.845C17.9566 18.7487 17.9264 18.6564 17.8726 18.5884C17.8188 18.5203 17.7458 18.4821 17.6698 18.4821Z"/>
</mask>
<path d="M17.6698 18.4821H13.5349C13.4588 18.4821 13.3859 18.5203 13.3321 18.5884C13.2783 18.6564 13.248 18.7487 13.248 18.845C13.248 18.9413 13.2783 19.0336 13.3321 19.1016C13.3859 19.1697 13.4588 19.208 13.5349 19.208H17.6698C17.7458 19.208 17.8188 19.1697 17.8726 19.1016C17.9264 19.0336 17.9566 18.9413 17.9566 18.845C17.9566 18.7487 17.9264 18.6564 17.8726 18.5884C17.8188 18.5203 17.7458 18.4821 17.6698 18.4821Z" fill="#16042A" fill-opacity="0.8"/>
<path d="M17.6698 17.4821H13.5349V19.4821H17.6698V17.4821ZM13.5349 17.4821C13.1075 17.4821 12.7608 17.6984 12.5475 17.9683L14.1166 19.2084C14.0109 19.3422 13.8102 19.4821 13.5349 19.4821V17.4821ZM12.5475 17.9683C12.3388 18.2324 12.248 18.5498 12.248 18.845H14.248C14.248 18.9477 14.2177 19.0805 14.1166 19.2084L12.5475 17.9683ZM12.248 18.845C12.248 19.1402 12.3388 19.4576 12.5475 19.7217L14.1166 18.4816C14.2177 18.6095 14.248 18.7423 14.248 18.845H12.248ZM12.5475 19.7217C12.7608 19.9916 13.1075 20.208 13.5349 20.208V18.208C13.8102 18.208 14.0109 18.3478 14.1166 18.4816L12.5475 19.7217ZM13.5349 20.208H17.6698V18.208H13.5349V20.208ZM17.6698 20.208C18.0972 20.208 18.4438 19.9916 18.6571 19.7217L17.088 18.4816C17.1938 18.3478 17.3945 18.208 17.6698 18.208V20.208ZM18.6571 19.7217C18.8659 19.4576 18.9566 19.1402 18.9566 18.845H16.9566C16.9566 18.7423 16.9869 18.6095 17.088 18.4816L18.6571 19.7217ZM18.9566 18.845C18.9566 18.5498 18.8659 18.2324 18.6571 17.9683L17.088 19.2084C16.9869 19.0805 16.9566 18.9477 16.9566 18.845H18.9566ZM18.6571 17.9683C18.4438 17.6984 18.0972 17.4821 17.6698 17.4821V19.4821C17.3945 19.4821 17.1938 19.3422 17.088 19.2084L18.6571 17.9683Z" fill="#16042A" fill-opacity="0.8" mask="url(#path-31-inside-16)"/>
<mask id="path-33-inside-17" fill="white">
<path d="M1.49584 6.13403C1.41976 6.13403 1.3468 6.17227 1.293 6.24034C1.23921 6.30841 1.20898 6.40072 1.20898 6.49698V6.87778C1.20898 6.97404 1.23921 7.06635 1.293 7.13442C1.3468 7.20248 1.41976 7.24072 1.49584 7.24072C1.57191 7.24072 1.64487 7.20248 1.69867 7.13442C1.75246 7.06635 1.78269 6.97404 1.78269 6.87778V6.49698C1.78269 6.40072 1.75246 6.30841 1.69867 6.24034C1.64487 6.17227 1.57191 6.13403 1.49584 6.13403Z"/>
</mask>
<path d="M1.49584 6.13403C1.41976 6.13403 1.3468 6.17227 1.293 6.24034C1.23921 6.30841 1.20898 6.40072 1.20898 6.49698V6.87778C1.20898 6.97404 1.23921 7.06635 1.293 7.13442C1.3468 7.20248 1.41976 7.24072 1.49584 7.24072C1.57191 7.24072 1.64487 7.20248 1.69867 7.13442C1.75246 7.06635 1.78269 6.97404 1.78269 6.87778V6.49698C1.78269 6.40072 1.75246 6.30841 1.69867 6.24034C1.64487 6.17227 1.57191 6.13403 1.49584 6.13403Z" fill="#16042A" fill-opacity="0.8"/>
<path d="M1.78269 6.87778H2.78269H1.78269ZM1.78269 6.49698H2.78269H1.78269ZM1.49584 5.13403C1.0684 5.13403 0.721772 5.35036 0.508447 5.62028L2.07756 6.8604C1.97182 6.99418 1.77111 7.13403 1.49584 7.13403V5.13403ZM0.508447 5.62028C0.299737 5.88436 0.208984 6.2018 0.208984 6.49698H2.20898C2.20898 6.59964 2.17868 6.73245 2.07756 6.8604L0.508447 5.62028ZM0.208984 6.49698V6.87778H2.20898V6.49698H0.208984ZM0.208984 6.87778C0.208984 7.17295 0.299735 7.4904 0.508447 7.75448L2.07756 6.51436C2.17868 6.64231 2.20898 6.77512 2.20898 6.87778H0.208984ZM0.508447 7.75448C0.721777 8.0244 1.06841 8.24072 1.49584 8.24072V6.24072C1.77111 6.24072 1.97181 6.38057 2.07756 6.51436L0.508447 7.75448ZM1.49584 8.24072C1.92326 8.24072 2.26989 8.0244 2.48322 7.75448L0.914115 6.51436C1.01986 6.38057 1.22057 6.24072 1.49584 6.24072V8.24072ZM2.48322 7.75448C2.69194 7.4904 2.78269 7.17295 2.78269 6.87778H0.782686C0.782686 6.77512 0.812994 6.64231 0.914115 6.51436L2.48322 7.75448ZM2.78269 6.87778V6.49698H0.782686V6.87778H2.78269ZM2.78269 6.49698C2.78269 6.2018 2.69193 5.88436 2.48322 5.62028L0.914115 6.8604C0.812995 6.73245 0.782686 6.59964 0.782686 6.49698H2.78269ZM2.48322 5.62028C2.2699 5.35036 1.92327 5.13403 1.49584 5.13403V7.13403C1.22056 7.13403 1.01985 6.99418 0.914115 6.8604L2.48322 5.62028Z" fill="#16042A" fill-opacity="0.8" mask="url(#path-33-inside-17)"/>
<mask id="path-35-inside-18" fill="white">
<path d="M1.49584 7.90613C1.41976 7.90613 1.3468 7.94437 1.293 8.01243C1.23921 8.0805 1.20898 8.17282 1.20898 8.26908V12.08C1.20898 12.1763 1.23921 12.2686 1.293 12.3367C1.3468 12.4047 1.41976 12.443 1.49584 12.443C1.57191 12.443 1.64487 12.4047 1.69867 12.3367C1.75246 12.2686 1.78269 12.1763 1.78269 12.08V8.26908C1.78269 8.17282 1.75246 8.0805 1.69867 8.01243C1.64487 7.94437 1.57191 7.90613 1.49584 7.90613Z"/>
</mask>
<path d="M1.49584 7.90613C1.41976 7.90613 1.3468 7.94437 1.293 8.01243C1.23921 8.0805 1.20898 8.17282 1.20898 8.26908V12.08C1.20898 12.1763 1.23921 12.2686 1.293 12.3367C1.3468 12.4047 1.41976 12.443 1.49584 12.443C1.57191 12.443 1.64487 12.4047 1.69867 12.3367C1.75246 12.2686 1.78269 12.1763 1.78269 12.08V8.26908C1.78269 8.17282 1.75246 8.0805 1.69867 8.01243C1.64487 7.94437 1.57191 7.90613 1.49584 7.90613Z" fill="#16042A" fill-opacity="0.8"/>
<path d="M1.78269 12.08H2.78269H1.78269ZM1.78269 8.26908H2.78269H1.78269ZM1.49584 6.90613C1.0684 6.90613 0.721772 7.12246 0.508447 7.39237L2.07756 8.63249C1.97182 8.76628 1.77111 8.90613 1.49584 8.90613V6.90613ZM0.508447 7.39237C0.299737 7.65645 0.208984 7.9739 0.208984 8.26908H2.20898C2.20898 8.37174 2.17868 8.50455 2.07756 8.63249L0.508447 7.39237ZM0.208984 8.26908V12.08H2.20898V8.26908H0.208984ZM0.208984 12.08C0.208984 12.3752 0.299735 12.6927 0.508447 12.9567L2.07756 11.7166C2.17868 11.8446 2.20898 11.9774 2.20898 12.08H0.208984ZM0.508447 12.9567C0.721777 13.2267 1.06841 13.443 1.49584 13.443V11.443C1.77111 11.443 1.97181 11.5828 2.07756 11.7166L0.508447 12.9567ZM1.49584 13.443C1.92326 13.443 2.26989 13.2267 2.48322 12.9567L0.914115 11.7166C1.01986 11.5828 1.22057 11.443 1.49584 11.443V13.443ZM2.48322 12.9567C2.69194 12.6927 2.78269 12.3752 2.78269 12.08H0.782686C0.782686 11.9774 0.812994 11.8446 0.914115 11.7166L2.48322 12.9567ZM2.78269 12.08V8.26908H0.782686V12.08H2.78269ZM2.78269 8.26908C2.78269 7.9739 2.69193 7.65645 2.48322 7.39237L0.914115 8.63249C0.812995 8.50455 0.782686 8.37174 0.782686 8.26908H2.78269ZM2.48322 7.39237C2.2699 7.12246 1.92327 6.90613 1.49584 6.90613V8.90613C1.22056 8.90613 1.01985 8.76628 0.914115 8.63249L2.48322 7.39237Z" fill="#16042A" fill-opacity="0.8" mask="url(#path-35-inside-18)"/>
<mask id="path-37-inside-19" fill="white">
<path d="M20.5095 3.43445C20.4334 3.43445 20.3605 3.47269 20.3067 3.54075C20.2529 3.60882 20.2227 3.70114 20.2227 3.7974V6.44988C20.2227 6.54614 20.2529 6.63846 20.3067 6.70653C20.3605 6.77459 20.4334 6.81283 20.5095 6.81283C20.5856 6.81283 20.6585 6.77459 20.7123 6.70653C20.7661 6.63846 20.7964 6.54614 20.7964 6.44988V3.7974C20.7964 3.70114 20.7661 3.60882 20.7123 3.54075C20.6585 3.47269 20.5856 3.43445 20.5095 3.43445Z"/>
</mask>
<path d="M20.5095 3.43445C20.4334 3.43445 20.3605 3.47269 20.3067 3.54075C20.2529 3.60882 20.2227 3.70114 20.2227 3.7974V6.44988C20.2227 6.54614 20.2529 6.63846 20.3067 6.70653C20.3605 6.77459 20.4334 6.81283 20.5095 6.81283C20.5856 6.81283 20.6585 6.77459 20.7123 6.70653C20.7661 6.63846 20.7964 6.54614 20.7964 6.44988V3.7974C20.7964 3.70114 20.7661 3.60882 20.7123 3.54075C20.6585 3.47269 20.5856 3.43445 20.5095 3.43445Z" fill="#16042A" fill-opacity="0.8"/>
<path d="M20.5095 2.43445C20.0821 2.43445 19.7354 2.65077 19.5221 2.92069L21.0912 4.16081C20.9855 4.29461 20.7848 4.43445 20.5095 4.43445V2.43445ZM19.5221 2.92069C19.3134 3.18477 19.2227 3.50222 19.2227 3.7974H21.2227C21.2227 3.90005 21.1923 4.03286 21.0912 4.16081L19.5221 2.92069ZM19.2227 3.7974V6.44988H21.2227V3.7974H19.2227ZM19.2227 6.44988C19.2227 6.74506 19.3134 7.06251 19.5221 7.32659L21.0912 6.08647C21.1923 6.21442 21.2227 6.34723 21.2227 6.44988H19.2227ZM19.5221 7.32659C19.7354 7.59651 20.0821 7.81283 20.5095 7.81283V5.81283C20.7848 5.81283 20.9855 5.95268 21.0912 6.08647L19.5221 7.32659ZM20.5095 7.81283C20.9369 7.81283 21.2836 7.59651 21.4969 7.32659L19.9278 6.08647C20.0335 5.95268 20.2342 5.81283 20.5095 5.81283V7.81283ZM21.4969 7.32659C21.7056 7.06251 21.7964 6.74506 21.7964 6.44988H19.7964C19.7964 6.34723 19.8267 6.21442 19.9278 6.08647L21.4969 7.32659ZM21.7964 6.44988V3.7974H19.7964V6.44988H21.7964ZM21.7964 3.7974C21.7964 3.50222 21.7056 3.18477 21.4969 2.92069L19.9278 4.16081C19.8267 4.03286 19.7964 3.90005 19.7964 3.7974H21.7964ZM21.4969 2.92069C21.2836 2.65077 20.9369 2.43445 20.5095 2.43445V4.43445C20.2342 4.43445 20.0335 4.29461 19.9278 4.16081L21.4969 2.92069Z" fill="#16042A" fill-opacity="0.8" mask="url(#path-37-inside-19)"/>
<mask id="path-39-inside-20" fill="white">
<path d="M20.5104 2.25226C20.44 2.25225 20.3711 2.27866 20.3126 2.32816C20.254 2.37766 20.2084 2.44803 20.1814 2.53036C20.1545 2.61268 20.1474 2.70328 20.1611 2.79068C20.1749 2.87808 20.2088 2.95837 20.2586 3.02138C20.3084 3.08439 20.3718 3.1273 20.4409 3.14468C20.51 3.16207 20.5816 3.15314 20.6467 3.11903C20.7117 3.08492 20.7673 3.02717 20.8065 2.95307C20.8456 2.87897 20.8665 2.79185 20.8665 2.70274C20.8664 2.5833 20.8288 2.4688 20.7621 2.38434C20.6953 2.29989 20.6048 2.25239 20.5104 2.25226Z"/>
</mask>
<path d="M20.5104 2.25226C20.44 2.25225 20.3711 2.27866 20.3126 2.32816C20.254 2.37766 20.2084 2.44803 20.1814 2.53036C20.1545 2.61268 20.1474 2.70328 20.1611 2.79068C20.1749 2.87808 20.2088 2.95837 20.2586 3.02138C20.3084 3.08439 20.3718 3.1273 20.4409 3.14468C20.51 3.16207 20.5816 3.15314 20.6467 3.11903C20.7117 3.08492 20.7673 3.02717 20.8065 2.95307C20.8456 2.87897 20.8665 2.79185 20.8665 2.70274C20.8664 2.5833 20.8288 2.4688 20.7621 2.38434C20.6953 2.29989 20.6048 2.25239 20.5104 2.25226Z" fill="#16042A" fill-opacity="0.8"/>
<path d="M20.5104 2.25226L20.5118 1.25226L20.5106 1.25226L20.5104 2.25226ZM20.8665 2.70274L21.8665 2.70263L21.8665 2.70189L20.8665 2.70274ZM20.5106 1.25226C20.1821 1.2522 19.8889 1.3769 19.667 1.56444L20.9581 3.09189C20.8534 3.18043 20.6978 3.25229 20.5103 3.25226L20.5106 1.25226ZM19.667 1.56444C19.4492 1.74859 19.308 1.9841 19.2311 2.21918L21.1318 2.84153C21.1087 2.91196 21.0589 3.00674 20.9581 3.09189L19.667 1.56444ZM19.2311 2.21918C19.1538 2.45513 19.1355 2.70575 19.1733 2.94595L21.149 2.63541C21.1593 2.70081 21.1551 2.77024 21.1318 2.84153L19.2311 2.21918ZM19.1733 2.94595C19.2109 3.18552 19.3071 3.43018 19.474 3.64144L21.0431 2.40132C21.1105 2.48655 21.1388 2.57065 21.149 2.63541L19.1733 2.94595ZM19.474 3.64144C19.6422 3.85422 19.887 4.03648 20.1969 4.11445L20.6849 2.17492C20.8567 2.21813 20.9746 2.31456 21.0431 2.40132L19.474 3.64144ZM20.1969 4.11445C20.5125 4.19386 20.8356 4.14903 21.1109 4.00472L20.1824 2.23334C20.3276 2.15724 20.5075 2.13027 20.6849 2.17492L20.1969 4.11445ZM21.1109 4.00472C21.3795 3.86392 21.571 3.64692 21.6908 3.41996L19.9221 2.48618C19.9637 2.40742 20.0439 2.30593 20.1824 2.23334L21.1109 4.00472ZM21.6908 3.41996C21.8107 3.19281 21.8665 2.94387 21.8665 2.70263L19.8665 2.70284C19.8664 2.63983 19.8805 2.56513 19.9221 2.48618L21.6908 3.41996ZM21.8665 2.70189C21.8662 2.38379 21.7681 2.04449 21.5466 1.76428L19.9775 3.0044C19.8895 2.8931 19.8665 2.78282 19.8665 2.70359L21.8665 2.70189ZM21.5466 1.76428C21.3206 1.47827 20.957 1.25286 20.5118 1.25226L20.5091 3.25226C20.2527 3.25191 20.0701 3.12151 19.9775 3.0044L21.5466 1.76428Z" fill="#16042A" fill-opacity="0.8" mask="url(#path-39-inside-20)"/>
<mask id="path-41-inside-21" fill="white">
<path d="M20.3897 0.00268011C19.5627 0.0423903 18.7735 0.45134 18.162 1.15704C17.5505 1.86273 17.1562 2.81959 17.0491 3.85798H12.6812C12.3835 3.85819 12.0906 3.95278 11.8292 4.1331C11.5678 4.31343 11.3463 4.57374 11.1848 4.89027C11.0234 4.57375 10.8019 4.31345 10.5405 4.13313C10.2791 3.95281 9.98616 3.85821 9.68844 3.85798H1.40428C1.0318 3.85875 0.674777 4.04642 0.411519 4.37982C0.14826 4.71323 0.000265368 5.16514 0 5.63643V20.907C0.00025274 21.3783 0.148243 21.8302 0.411505 22.1636C0.674766 22.497 1.0318 22.6847 1.40428 22.6855H10.0715L11.0022 23.8335C11.0877 23.9402 11.203 24 11.3231 24C11.4433 24 11.5586 23.9402 11.6441 23.8335L12.5747 22.6855H21.1313C21.5038 22.6847 21.8609 22.497 22.1241 22.1636C22.3874 21.8302 22.5354 21.3783 22.5356 20.907V8.00697C23.1464 7.45661 23.6007 6.67185 23.8312 5.76906C24.0616 4.86627 24.056 3.89353 23.8151 2.9951C23.5743 2.09667 23.111 1.32039 22.4939 0.781372C21.8769 0.242357 21.139 -0.0306832 20.3896 0.00274057L20.3897 0.00268011ZM20.5102 8.10502C20.1631 8.10528 19.8188 8.02658 19.4937 7.87268C19.4418 7.84757 19.3854 7.84191 19.331 7.85636C19.2767 7.87081 19.2268 7.90477 19.1874 7.95416L19.187 7.95458C19.153 7.99756 19.1281 8.05065 19.1146 8.10899C19.101 8.16732 19.0993 8.22903 19.1095 8.28844C19.1197 8.34785 19.1416 8.40306 19.173 8.44901C19.2045 8.49495 19.2446 8.53016 19.2896 8.55139C19.7194 8.75517 20.1768 8.8493 20.6355 8.82837C21.0942 8.80744 21.545 8.67186 21.9621 8.42944V20.907C21.962 21.1859 21.8745 21.4533 21.7188 21.6507C21.563 21.848 21.3518 21.9591 21.1313 21.9596H12.5284C12.4085 21.9596 12.2934 22.0188 12.2075 22.1248L11.6031 22.8701L11.5079 19.8956C11.5076 19.848 11.4998 19.8009 11.485 19.757C11.4702 19.7132 11.4488 19.6734 11.4219 19.6401C11.395 19.6067 11.3632 19.5804 11.3282 19.5626C11.2933 19.5448 11.2559 19.5359 11.2182 19.5363C11.1805 19.5368 11.1433 19.5467 11.1087 19.5653C11.074 19.584 11.0426 19.6112 11.0162 19.6452C10.9898 19.6792 10.969 19.7195 10.955 19.7637C10.9409 19.808 10.9339 19.8552 10.9342 19.9029L11.0292 22.8533L10.4386 22.1247C10.3527 22.0188 10.2376 21.9596 10.1177 21.9596H1.40428C1.1839 21.959 0.972687 21.8479 0.816977 21.6506C0.661267 21.4533 0.573777 21.1858 0.573702 20.907V5.63643C0.57379 5.35759 0.661284 5.09018 0.816991 4.89286C0.972699 4.69554 1.1839 4.58442 1.40428 4.58388H9.68834C10.0093 4.58453 10.3169 4.74637 10.5435 5.03383C10.7702 5.32129 10.8974 5.71085 10.8972 6.11691L10.9152 17.4832C10.916 17.5795 10.947 17.6714 11.0013 17.7388C11.0556 17.8062 11.1289 17.8435 11.205 17.8426C11.281 17.8416 11.3537 17.8024 11.407 17.7337C11.4602 17.665 11.4897 17.5723 11.489 17.476L11.4709 6.11328H11.4725C11.4729 5.7078 11.6003 5.31906 11.8269 5.03234C12.0535 4.74562 12.3608 4.58434 12.6812 4.58388H17.0233C17.0479 5.41934 17.2606 6.2285 17.6365 6.91606C17.6804 6.99303 17.7463 7.04521 17.8201 7.06142C17.894 7.07763 17.97 7.05657 18.0317 7.00276C18.0934 6.94895 18.1361 6.86667 18.1504 6.77357C18.1648 6.68047 18.1497 6.58396 18.1085 6.50472C17.7397 5.8252 17.5615 5.00896 17.6023 4.18627C17.643 3.36359 17.9004 2.58189 18.3333 1.96595C18.7663 1.35 19.3498 0.935316 19.9908 0.788076C20.6318 0.640836 21.2933 0.76953 21.8697 1.15362C22.4461 1.53771 22.9043 2.15505 23.171 2.9071C23.4377 3.65916 23.4976 4.50259 23.3411 5.30276C23.1846 6.10293 22.8208 6.81372 22.3078 7.32168C21.7947 7.82964 21.1619 8.10549 20.5105 8.1052L20.5102 8.10502Z"/>
</mask>
<path d="M20.3897 0.00268011C19.5627 0.0423903 18.7735 0.45134 18.162 1.15704C17.5505 1.86273 17.1562 2.81959 17.0491 3.85798H12.6812C12.3835 3.85819 12.0906 3.95278 11.8292 4.1331C11.5678 4.31343 11.3463 4.57374 11.1848 4.89027C11.0234 4.57375 10.8019 4.31345 10.5405 4.13313C10.2791 3.95281 9.98616 3.85821 9.68844 3.85798H1.40428C1.0318 3.85875 0.674777 4.04642 0.411519 4.37982C0.14826 4.71323 0.000265368 5.16514 0 5.63643V20.907C0.00025274 21.3783 0.148243 21.8302 0.411505 22.1636C0.674766 22.497 1.0318 22.6847 1.40428 22.6855H10.0715L11.0022 23.8335C11.0877 23.9402 11.203 24 11.3231 24C11.4433 24 11.5586 23.9402 11.6441 23.8335L12.5747 22.6855H21.1313C21.5038 22.6847 21.8609 22.497 22.1241 22.1636C22.3874 21.8302 22.5354 21.3783 22.5356 20.907V8.00697C23.1464 7.45661 23.6007 6.67185 23.8312 5.76906C24.0616 4.86627 24.056 3.89353 23.8151 2.9951C23.5743 2.09667 23.111 1.32039 22.4939 0.781372C21.8769 0.242357 21.139 -0.0306832 20.3896 0.00274057L20.3897 0.00268011ZM20.5102 8.10502C20.1631 8.10528 19.8188 8.02658 19.4937 7.87268C19.4418 7.84757 19.3854 7.84191 19.331 7.85636C19.2767 7.87081 19.2268 7.90477 19.1874 7.95416L19.187 7.95458C19.153 7.99756 19.1281 8.05065 19.1146 8.10899C19.101 8.16732 19.0993 8.22903 19.1095 8.28844C19.1197 8.34785 19.1416 8.40306 19.173 8.44901C19.2045 8.49495 19.2446 8.53016 19.2896 8.55139C19.7194 8.75517 20.1768 8.8493 20.6355 8.82837C21.0942 8.80744 21.545 8.67186 21.9621 8.42944V20.907C21.962 21.1859 21.8745 21.4533 21.7188 21.6507C21.563 21.848 21.3518 21.9591 21.1313 21.9596H12.5284C12.4085 21.9596 12.2934 22.0188 12.2075 22.1248L11.6031 22.8701L11.5079 19.8956C11.5076 19.848 11.4998 19.8009 11.485 19.757C11.4702 19.7132 11.4488 19.6734 11.4219 19.6401C11.395 19.6067 11.3632 19.5804 11.3282 19.5626C11.2933 19.5448 11.2559 19.5359 11.2182 19.5363C11.1805 19.5368 11.1433 19.5467 11.1087 19.5653C11.074 19.584 11.0426 19.6112 11.0162 19.6452C10.9898 19.6792 10.969 19.7195 10.955 19.7637C10.9409 19.808 10.9339 19.8552 10.9342 19.9029L11.0292 22.8533L10.4386 22.1247C10.3527 22.0188 10.2376 21.9596 10.1177 21.9596H1.40428C1.1839 21.959 0.972687 21.8479 0.816977 21.6506C0.661267 21.4533 0.573777 21.1858 0.573702 20.907V5.63643C0.57379 5.35759 0.661284 5.09018 0.816991 4.89286C0.972699 4.69554 1.1839 4.58442 1.40428 4.58388H9.68834C10.0093 4.58453 10.3169 4.74637 10.5435 5.03383C10.7702 5.32129 10.8974 5.71085 10.8972 6.11691L10.9152 17.4832C10.916 17.5795 10.947 17.6714 11.0013 17.7388C11.0556 17.8062 11.1289 17.8435 11.205 17.8426C11.281 17.8416 11.3537 17.8024 11.407 17.7337C11.4602 17.665 11.4897 17.5723 11.489 17.476L11.4709 6.11328H11.4725C11.4729 5.7078 11.6003 5.31906 11.8269 5.03234C12.0535 4.74562 12.3608 4.58434 12.6812 4.58388H17.0233C17.0479 5.41934 17.2606 6.2285 17.6365 6.91606C17.6804 6.99303 17.7463 7.04521 17.8201 7.06142C17.894 7.07763 17.97 7.05657 18.0317 7.00276C18.0934 6.94895 18.1361 6.86667 18.1504 6.77357C18.1648 6.68047 18.1497 6.58396 18.1085 6.50472C17.7397 5.8252 17.5615 5.00896 17.6023 4.18627C17.643 3.36359 17.9004 2.58189 18.3333 1.96595C18.7663 1.35 19.3498 0.935316 19.9908 0.788076C20.6318 0.640836 21.2933 0.76953 21.8697 1.15362C22.4461 1.53771 22.9043 2.15505 23.171 2.9071C23.4377 3.65916 23.4976 4.50259 23.3411 5.30276C23.1846 6.10293 22.8208 6.81372 22.3078 7.32168C21.7947 7.82964 21.1619 8.10549 20.5105 8.1052L20.5102 8.10502Z" fill="#16042A" fill-opacity="0.8"/>
<path d="M20.3897 0.00268011L20.9215 0.849592L24.1527 -1.17915L20.3418 -0.996169L20.3897 0.00268011ZM17.0491 3.85798V4.85798H17.9512L18.0438 3.96062L17.0491 3.85798ZM12.6812 3.85798V2.85798L12.6805 2.85798L12.6812 3.85798ZM11.1848 4.89027L10.294 5.34462L11.1849 7.09128L12.0757 5.34458L11.1848 4.89027ZM9.68844 3.85798L9.68921 2.85798H9.68844V3.85798ZM1.40428 3.85798V2.85798L1.40221 2.85798L1.40428 3.85798ZM0 5.63643L-1 5.63586V5.63643H0ZM0 20.907H-1L-1 20.9075L0 20.907ZM1.40428 22.6855L1.40226 23.6855H1.40428V22.6855ZM10.0715 22.6855L10.8483 22.0557L10.5481 21.6855H10.0715V22.6855ZM11.0022 23.8335L11.7825 23.208L11.779 23.2037L11.0022 23.8335ZM11.6441 23.8335L10.8673 23.2037L10.8638 23.208L11.6441 23.8335ZM12.5747 22.6855V21.6855H12.0981L11.7979 22.0557L12.5747 22.6855ZM21.1313 22.6855V23.6855L21.1334 23.6854L21.1313 22.6855ZM22.5356 20.907L23.5356 20.9075V20.907H22.5356ZM22.5356 8.00697L21.8662 7.26409L21.5356 7.56198V8.00697H22.5356ZM20.3896 0.00274057L19.8579 -0.844171L16.6489 1.17059L20.4342 1.00175L20.3896 0.00274057ZM20.5102 8.10502L21.1133 7.30736L20.8454 7.10477L20.5095 7.10502L20.5102 8.10502ZM19.4937 7.87268L19.0579 8.77277L19.0658 8.77651L19.4937 7.87268ZM19.1874 7.95416L18.4061 7.3299L18.4035 7.33327L19.1874 7.95416ZM19.187 7.95458L18.4031 7.33369L18.4026 7.33431L19.187 7.95458ZM19.2896 8.55139L19.718 7.64781L19.7162 7.64692L19.2896 8.55139ZM21.9621 8.42944H22.9621V6.69154L21.4596 7.56487L21.9621 8.42944ZM21.9621 20.907L22.9621 20.9073V20.907H21.9621ZM21.1313 21.9596V22.9596L21.1335 22.9596L21.1313 21.9596ZM12.5284 21.9596V20.9596H12.5284L12.5284 21.9596ZM12.2075 22.1248L12.9842 22.7546L12.9844 22.7544L12.2075 22.1248ZM11.6031 22.8701L10.6036 22.9021L10.6895 25.5844L12.3798 23.4999L11.6031 22.8701ZM11.5079 19.8956L10.508 19.9036L10.5081 19.9156L10.5084 19.9276L11.5079 19.8956ZM10.9342 19.9029L9.93426 19.9108L9.93436 19.923L9.93475 19.9351L10.9342 19.9029ZM11.0292 22.8533L10.2524 23.4831L12.1244 25.7922L12.0287 22.8211L11.0292 22.8533ZM10.4386 22.1247L9.66173 22.7544L9.66175 22.7544L10.4386 22.1247ZM10.1177 21.9596V22.9596H10.1177L10.1177 21.9596ZM1.40428 21.9596L1.40188 22.9596H1.40428V21.9596ZM0.573702 20.907H-0.426298L-0.426298 20.9073L0.573702 20.907ZM0.573702 5.63643L-0.426298 5.63611V5.63643H0.573702ZM1.40428 4.58388V3.58387L1.40181 3.58388L1.40428 4.58388ZM9.68834 4.58388L9.69039 3.58388H9.68834V4.58388ZM10.8972 6.11691L9.89718 6.11638L9.89718 6.1185L10.8972 6.11691ZM10.9152 17.4832L9.91523 17.4848L9.91528 17.4912L10.9152 17.4832ZM11.489 17.476L10.4889 17.4776L10.489 17.4839L11.489 17.476ZM11.4709 6.11328V5.11328H10.4693L10.4709 6.11487L11.4709 6.11328ZM11.4725 6.11328V7.11328H12.4716L12.4725 6.11419L11.4725 6.11328ZM12.6812 4.58388V3.58388L12.6798 3.58388L12.6812 4.58388ZM17.0233 4.58388L18.0228 4.55444L17.9942 3.58388H17.0233V4.58388ZM17.6365 6.91606L16.7591 7.39577L16.7632 7.40332L16.7675 7.4108L17.6365 6.91606ZM18.1085 6.50472L18.9957 6.04322L18.9916 6.03545L18.9874 6.02775L18.1085 6.50472ZM20.5105 8.1052L19.9074 8.90287L20.1748 9.10505L20.51 9.1052L20.5105 8.1052ZM20.3418 -0.996169C19.2056 -0.941617 18.1716 -0.381101 17.4062 0.502171L18.9177 1.8119C19.3753 1.28378 19.9198 1.0264 20.4377 1.00153L20.3418 -0.996169ZM17.4062 0.502171C16.6446 1.38109 16.18 2.53782 16.0544 3.75534L18.0438 3.96062C18.1325 3.10136 18.4563 2.34437 18.9177 1.8119L17.4062 0.502171ZM17.0491 2.85798H12.6812V4.85798H17.0491V2.85798ZM12.6805 2.85798C12.1664 2.85835 11.6778 3.02268 11.2614 3.30996L12.397 4.95624C12.5034 4.88288 12.6006 4.85804 12.682 4.85798L12.6805 2.85798ZM11.2614 3.30996C10.8477 3.59529 10.5217 3.98945 10.294 4.43595L12.0757 5.34458C12.1708 5.15803 12.2878 5.03157 12.397 4.95624L11.2614 3.30996ZM12.0757 4.43591C11.8479 3.98944 11.5219 3.5953 11.1083 3.30999L9.97265 4.95627C10.0818 5.0316 10.1989 5.15806 10.294 5.34462L12.0757 4.43591ZM11.1083 3.30999C10.6919 3.02272 10.2033 2.85838 9.68921 2.85798L9.68766 4.85798C9.76904 4.85804 9.86629 4.88289 9.97265 4.95627L11.1083 3.30999ZM9.68844 2.85798H1.40428V4.85798H9.68844V2.85798ZM1.40221 2.85798C0.679035 2.85948 0.0490878 3.22516 -0.373312 3.76011L1.19635 4.99953C1.30047 4.86767 1.38457 4.85802 1.40634 4.85798L1.40221 2.85798ZM-0.373312 3.76011C-0.791142 4.28927 -0.999623 4.96593 -1 5.63586L1 5.63699C1.00015 5.36435 1.08766 5.13718 1.19635 4.99953L-0.373312 3.76011ZM-1 5.63643V20.907H1V5.63643H-1ZM-1 20.9075C-0.999641 21.5775 -0.791165 22.2542 -0.373326 22.7833L1.19634 21.5439C1.08765 21.4063 1.00015 21.1791 1 20.9065L-1 20.9075ZM-0.373326 22.7833C0.0490838 23.3183 0.679056 23.684 1.40226 23.6854L1.4063 21.6855C1.38454 21.6854 1.30045 21.6758 1.19634 21.5439L-0.373326 22.7833ZM1.40428 23.6855H10.0715V21.6855H1.40428V23.6855ZM9.29468 23.3152L10.2254 24.4632L11.779 23.2037L10.8483 22.0557L9.29468 23.3152ZM10.2219 24.4589C10.4675 24.7654 10.8551 25 11.3231 25V23C11.5509 23 11.7079 23.115 11.7824 23.208L10.2219 24.4589ZM11.3231 25C11.7912 25 12.1787 24.7654 12.4244 24.4589L10.8638 23.208C10.9384 23.115 11.0953 23 11.3231 23V25ZM12.4209 24.4632L13.3515 23.3152L11.7979 22.0557L10.8673 23.2037L12.4209 24.4632ZM12.5747 23.6855H21.1313V21.6855H12.5747V23.6855ZM21.1334 23.6854C21.8566 23.684 22.4865 23.3183 22.909 22.7833L21.3393 21.5439C21.2352 21.6758 21.1511 21.6854 21.1293 21.6855L21.1334 23.6854ZM22.909 22.7833C23.3268 22.2542 23.5353 21.5775 23.5356 20.9075L21.5356 20.9065C21.5355 21.1791 21.448 21.4063 21.3393 21.5439L22.909 22.7833ZM23.5356 20.907V8.00697H21.5356V20.907H23.5356ZM23.2051 8.74985C23.9813 8.05039 24.5275 7.084 24.8001 6.01642L22.8622 5.5217C22.6738 6.25969 22.3115 6.86282 21.8662 7.26409L23.2051 8.74985ZM24.8001 6.01642C25.0729 4.94769 25.0664 3.80059 24.781 2.73614L22.8493 3.25406C23.0456 3.98648 23.0503 4.78485 22.8622 5.5217L24.8001 6.01642ZM24.781 2.73614C24.496 1.67286 23.9379 0.714908 23.1518 0.0282561L21.836 1.53449C22.2841 1.92586 22.6526 2.52048 22.8493 3.25406L24.781 2.73614ZM23.1518 0.0282561C22.3605 -0.662969 21.3763 -1.04226 20.3451 -0.996266L20.4342 1.00175C20.9017 0.980896 21.3932 1.14768 21.836 1.53449L23.1518 0.0282561ZM20.9214 0.849652L20.9215 0.849592L19.858 -0.844231L19.8579 -0.844171L20.9214 0.849652ZM20.5095 7.10502C20.316 7.10517 20.1177 7.06168 19.9216 6.96884L19.0658 8.77651C19.5199 8.99148 20.0102 9.1054 20.511 9.10502L20.5095 7.10502ZM19.9294 6.97262C19.6679 6.84598 19.3659 6.8123 19.074 6.88997L19.5881 8.82275C19.4048 8.87152 19.2158 8.84917 19.0579 8.77273L19.9294 6.97262ZM19.074 6.88997C18.7873 6.96621 18.5618 7.13515 18.4061 7.3299L19.9686 8.57841C19.8919 8.67438 19.7661 8.77541 19.5881 8.82275L19.074 6.88997ZM18.4035 7.33327L18.4031 7.33369L19.9709 8.57547L19.9713 8.57505L18.4035 7.33327ZM18.4026 7.33431C18.2689 7.50348 18.1843 7.69427 18.1405 7.88281L20.0887 8.33516C20.072 8.40704 20.0372 8.49164 19.9714 8.57485L18.4026 7.33431ZM18.1405 7.88281C18.0966 8.07181 18.0913 8.26803 18.124 8.45786L20.0951 8.11901C20.1073 8.19002 20.1055 8.26283 20.0887 8.33516L18.1405 7.88281ZM18.124 8.45786C18.1565 8.64732 18.2286 8.83982 18.348 9.01412L19.9981 7.88389C20.0545 7.9663 20.0829 8.04838 20.0951 8.11901L18.124 8.45786ZM18.348 9.01412C18.4676 9.18876 18.639 9.35019 18.8631 9.45586L19.7162 7.64692C19.8502 7.71012 19.9414 7.80114 19.9981 7.88389L18.348 9.01412ZM18.8612 9.45497C19.4333 9.72622 20.053 9.85599 20.6811 9.82733L20.5899 7.82941C20.3006 7.84261 20.0055 7.78411 19.718 7.64781L18.8612 9.45497ZM20.6811 9.82733C21.3089 9.79868 21.9156 9.61314 22.4646 9.294L21.4596 7.56487C21.1745 7.73058 20.8795 7.8162 20.5899 7.82941L20.6811 9.82733ZM20.9621 8.42944V20.907H22.9621V8.42944H20.9621ZM20.9621 20.9067C20.9621 20.9427 20.9563 20.9743 20.9484 20.9984C20.9404 21.023 20.9326 21.0326 20.9338 21.0311L22.5037 22.2702C22.814 21.8771 22.962 21.3848 22.9621 20.9073L20.9621 20.9067ZM20.9338 21.0311C20.9354 21.0291 20.9498 21.0118 20.9839 20.9938C21.0191 20.9753 21.0694 20.9597 21.1292 20.9596L21.1335 22.9596C21.7047 22.9583 22.1889 22.6692 22.5037 22.2702L20.9338 21.0311ZM21.1313 20.9596H12.5284V22.9596H21.1313V20.9596ZM12.5284 20.9596C12.0632 20.9596 11.677 21.1911 11.4306 21.4951L12.9844 22.7544C12.9097 22.8465 12.7538 22.9595 12.5284 22.9596L12.5284 20.9596ZM11.4308 21.4949L10.8264 22.2402L12.3798 23.4999L12.9842 22.7546L11.4308 21.4949ZM12.6026 22.8381L12.5074 19.8637L10.5084 19.9276L10.6036 22.9021L12.6026 22.8381ZM12.5079 19.8877C12.5067 19.7375 12.4823 19.5851 12.4327 19.438L10.5373 20.0761C10.5173 20.0166 10.5084 19.9585 10.508 19.9036L12.5079 19.8877ZM12.4327 19.438C12.3833 19.291 12.3072 19.1449 12.2004 19.0124L10.6434 20.2677C10.5904 20.202 10.5572 20.1354 10.5373 20.0761L12.4327 19.438ZM12.2004 19.0124C12.0933 18.8796 11.9538 18.759 11.7821 18.6715L10.8743 20.4536C10.7725 20.4017 10.6966 20.3338 10.6434 20.2677L12.2004 19.0124ZM11.7821 18.6715C11.6088 18.5833 11.412 18.5338 11.2056 18.5364L11.2309 20.5362C11.0998 20.5379 10.9777 20.5063 10.8743 20.4536L11.7821 18.6715ZM11.2056 18.5364C10.9992 18.539 10.8043 18.5934 10.6342 18.6851L11.5831 20.4456C11.4824 20.4999 11.3619 20.5346 11.2309 20.5362L11.2056 18.5364ZM10.6342 18.6851C10.4655 18.776 10.3295 18.8988 10.2257 19.0328L11.8068 20.2576C11.7557 20.3235 11.6825 20.3921 11.5831 20.4456L10.6342 18.6851ZM10.2257 19.0328C10.1221 19.1665 10.0489 19.3133 10.002 19.4606L11.9079 20.0669C11.8892 20.1258 11.8576 20.1919 11.8068 20.2576L10.2257 19.0328ZM10.002 19.4606C9.9551 19.6081 9.93307 19.7605 9.93426 19.9108L11.9342 19.895C11.9346 19.95 11.9267 20.0078 11.9079 20.0669L10.002 19.4606ZM9.93475 19.9351L10.0297 22.8855L12.0287 22.8211L11.9337 19.8707L9.93475 19.9351ZM11.806 22.2236L11.2154 21.495L9.66175 22.7544L10.2524 23.4831L11.806 22.2236ZM11.2154 21.495C10.969 21.191 10.5828 20.9595 10.1177 20.9596L10.1177 22.9596C9.8924 22.9596 9.73644 22.8466 9.66173 22.7544L11.2154 21.495ZM10.1177 20.9596H1.40428V22.9596H10.1177V20.9596ZM1.40668 20.9596C1.46653 20.9597 1.51676 20.9753 1.55196 20.9939C1.58603 21.0118 1.60041 21.0291 1.602 21.0311L0.0319552 22.2701C0.346725 22.6689 0.830788 22.9582 1.40188 22.9596L1.40668 20.9596ZM1.602 21.0311C1.60319 21.0326 1.59543 21.0229 1.5874 20.9984C1.5795 20.9742 1.57371 20.9427 1.5737 20.9067L-0.426298 20.9073C-0.426169 21.3848 -0.278251 21.8769 0.0319552 22.2701L1.602 21.0311ZM1.5737 20.907V5.63643H-0.426298V20.907H1.5737ZM1.5737 5.63674C1.57371 5.60081 1.5795 5.56922 1.58741 5.54505C1.59544 5.52051 1.6032 5.51083 1.60201 5.51233L0.0319692 4.27339C-0.278223 4.66649 -0.426147 5.15863 -0.426298 5.63611L1.5737 5.63674ZM1.60201 5.51233C1.60043 5.51433 1.58606 5.53165 1.552 5.54957C1.51681 5.56808 1.4666 5.58373 1.40675 5.58387L1.40181 3.58388C0.830747 3.58529 0.346722 3.87452 0.0319692 4.27339L1.60201 5.51233ZM1.40428 5.58388H9.68834V3.58388H1.40428V5.58388ZM9.68629 5.58388C9.67656 5.58386 9.67542 5.5809 9.68565 5.58628C9.69701 5.59226 9.7244 5.61005 9.75828 5.65302L11.3288 4.41465C10.943 3.92544 10.3624 3.58526 9.69039 3.58388L9.68629 5.58388ZM9.75828 5.65302C9.83043 5.74451 9.89729 5.90913 9.89718 6.11638L11.8972 6.11744C11.8975 5.51257 11.71 4.89806 11.3288 4.41465L9.75828 5.65302ZM9.89718 6.1185L9.91525 17.4848L11.9152 17.4817L11.8972 6.11532L9.89718 6.1185ZM9.91528 17.4912C9.91761 17.7863 10.0109 18.1037 10.2228 18.3665L11.7798 17.1111C11.883 17.2392 11.9144 17.3727 11.9152 17.4753L9.91528 17.4912ZM10.2228 18.3665C10.4397 18.6355 10.7898 18.8479 11.2176 18.8425L11.1923 16.8426C11.468 16.8392 11.6715 16.9769 11.7798 17.1111L10.2228 18.3665ZM11.2176 18.8425C11.6445 18.8371 11.9877 18.6169 12.1975 18.3461L10.6164 17.1213C10.7197 16.988 10.9176 16.8461 11.1923 16.8426L11.2176 18.8425ZM12.1975 18.3461C12.403 18.0808 12.4913 17.7633 12.4889 17.4681L10.489 17.4839C10.4882 17.3812 10.5174 17.2491 10.6164 17.1213L12.1975 18.3461ZM12.489 17.4744L12.4709 6.11169L10.4709 6.11487L10.489 17.4776L12.489 17.4744ZM11.4709 7.11328H11.4725V5.11328H11.4709V7.11328ZM12.4725 6.11419C12.4727 5.90736 12.5396 5.74338 12.6115 5.6524L11.0424 4.41228C10.6611 4.89474 10.4731 5.50824 10.4725 6.11238L12.4725 6.11419ZM12.6115 5.6524C12.6453 5.60969 12.6725 5.59206 12.6837 5.58618C12.6938 5.58089 12.6925 5.58386 12.6827 5.58388L12.6798 3.58388C12.0086 3.58485 11.4283 3.92402 11.0424 4.41228L12.6115 5.6524ZM12.6812 5.58388H17.0233V3.58388H12.6812V5.58388ZM16.0237 4.61331C16.0526 5.59562 16.3026 6.56069 16.7591 7.39577L18.514 6.43636C18.2187 5.89631 18.0431 5.24305 18.0228 4.55444L16.0237 4.61331ZM16.7675 7.4108C16.9252 7.68772 17.2073 7.95075 17.6058 8.03819L18.0344 6.08465C18.2852 6.13968 18.4356 6.29835 18.5056 6.42132L16.7675 7.4108ZM17.6058 8.03819C18.0177 8.12855 18.4112 7.99846 18.6887 7.75662L17.3747 6.24889C17.5287 6.11467 17.7703 6.0267 18.0344 6.08465L17.6058 8.03819ZM18.6887 7.75662C18.9548 7.52474 19.0941 7.21533 19.1387 6.92602L17.1621 6.62113C17.178 6.51802 17.2321 6.37316 17.3747 6.24889L18.6887 7.75662ZM19.1387 6.92602C19.1836 6.63497 19.1406 6.32185 18.9957 6.04322L17.2214 6.96622C17.1589 6.84606 17.1459 6.72597 17.1621 6.62113L19.1387 6.92602ZM18.9874 6.02775C18.7119 5.52003 18.5687 4.88775 18.601 4.23575L16.6035 4.1368C16.5543 5.13017 16.7676 6.13037 17.2296 6.9817L18.9874 6.02775ZM18.601 4.23575C18.6334 3.58339 18.8373 2.98792 19.1515 2.54099L17.5152 1.3909C16.9635 2.17587 16.6527 3.14379 16.6035 4.1368L18.601 4.23575ZM19.1515 2.54099C19.4644 2.09578 19.8491 1.84667 20.2147 1.76269L19.7669 -0.186542C18.8505 0.0239608 18.0682 0.604223 17.5152 1.3909L19.1515 2.54099ZM20.2147 1.76269C20.5721 1.6806 20.954 1.74509 21.3152 1.9858L22.4242 0.321437C21.6326 -0.206032 20.6915 -0.398926 19.7669 -0.186542L20.2147 1.76269ZM21.3152 1.9858C21.6854 2.23249 22.0225 2.66059 22.2285 3.24133L24.1135 2.57288C23.786 1.6495 23.2069 0.842919 22.4242 0.321437L21.3152 1.9858ZM22.2285 3.24133C22.434 3.82085 22.4826 4.48237 22.3597 5.11086L24.3225 5.49466C24.5125 4.52281 24.4413 3.49748 24.1135 2.57288L22.2285 3.24133ZM22.3597 5.11086C22.2366 5.74053 21.9568 6.262 21.6042 6.61105L23.0113 8.03232C23.6849 7.36544 24.1327 6.46533 24.3225 5.49466L22.3597 5.11086ZM21.6042 6.61105C21.2563 6.9555 20.8691 7.10536 20.5109 7.1052L20.51 9.1052C21.4548 9.10563 22.3331 8.70378 23.0113 8.03232L21.6042 6.61105ZM21.1136 7.30754L21.1133 7.30736L19.9071 8.90269L19.9074 8.90287L21.1136 7.30754Z" fill="#16042A" fill-opacity="0.8" mask="url(#path-41-inside-21)"/>
</svg>
