<svg width="300" height="300" viewBox="0 0 300 300" fill="none" xmlns="http://www.w3.org/2000/svg">
<path d="M300 229.44H0V229.59H300V229.44Z" fill="#EBEBEB"/>
<path d="M269.94 239.094H250.068V239.244H269.94V239.094Z" fill="#EBEBEB"/>
<path d="M198.732 240.726H193.518V240.876H198.732V240.726Z" fill="#EBEBEB"/>
<path d="M249.467 233.526H237.953V233.676H249.467V233.526Z" fill="#EBEBEB"/>
<path d="M57.3906 234.534H31.4766V234.684H57.3906V234.534Z" fill="#EBEBEB"/>
<path d="M66.5343 234.534H62.7363V234.684H66.5343V234.534Z" fill="#EBEBEB"/>
<path d="M135.089 237.066H78.8809V237.216H135.089V237.066Z" fill="#EBEBEB"/>
<path d="M142.2 202.68H26.3458C25.4382 202.678 24.5683 202.317 23.9271 201.674C23.2859 201.032 22.9258 200.162 22.9258 199.254V36.396C22.9337 35.4936 23.2973 34.6308 23.9376 33.9949C24.578 33.3591 25.4434 33.0015 26.3458 33H142.2C143.108 33 143.98 33.361 144.622 34.0035C145.265 34.646 145.626 35.5174 145.626 36.426V199.254C145.626 200.163 145.265 201.034 144.622 201.677C143.98 202.319 143.108 202.68 142.2 202.68ZM26.3458 33.12C25.478 33.1216 24.6463 33.4674 24.0332 34.0816C23.4201 34.6958 23.0758 35.5282 23.0758 36.396V199.254C23.0758 200.122 23.4201 200.954 24.0332 201.568C24.6463 202.183 25.478 202.528 26.3458 202.53H142.2C143.068 202.528 143.9 202.183 144.515 201.569C145.129 200.955 145.474 200.122 145.476 199.254V36.396C145.474 35.5276 145.129 34.6953 144.515 34.0813C143.9 33.4672 143.068 33.1216 142.2 33.12H26.3458Z" fill="#EBEBEB"/>
<path d="M271.985 202.68H156.125C155.217 202.678 154.347 202.317 153.704 201.675C153.062 201.033 152.701 200.162 152.699 199.254V36.396C152.709 35.4931 153.074 34.6302 153.715 33.9946C154.356 33.3589 155.222 33.0015 156.125 33H271.985C272.887 33.0031 273.75 33.3613 274.389 33.997C275.029 34.6327 275.391 35.4947 275.399 36.396V199.254C275.399 200.161 275.04 201.03 274.4 201.672C273.76 202.314 272.892 202.677 271.985 202.68ZM156.125 33.12C155.257 33.1216 154.425 33.4672 153.81 34.0813C153.196 34.6953 152.851 35.5276 152.849 36.396V199.254C152.851 200.122 153.196 200.955 153.81 201.569C154.425 202.183 155.257 202.528 156.125 202.53H271.985C272.854 202.528 273.686 202.183 274.3 201.569C274.914 200.955 275.26 200.122 275.261 199.254V36.396C275.26 35.5276 274.914 34.6953 274.3 34.0813C273.686 33.4672 272.854 33.1216 271.985 33.12H156.125Z" fill="#EBEBEB"/>
<path d="M154.865 197.022H197.688L197.687 74.298H154.865V197.022Z" fill="#FAFAFA"/>
<path d="M153.87 78.654H198.672V72.63H153.87V78.654Z" fill="#F0F0F0"/>
<path d="M153.87 82.338H198.672V79.326H153.87V82.338Z" fill="#F0F0F0"/>
<path d="M153.87 86.802H198.672V83.79H153.87V86.802Z" fill="#F0F0F0"/>
<path d="M153.87 91.272H198.672V88.26H153.87V91.272Z" fill="#F0F0F0"/>
<path d="M153.87 95.742H198.672V92.73H153.87V95.742Z" fill="#F0F0F0"/>
<path d="M153.87 100.206H198.672V97.194H153.87V100.206Z" fill="#F0F0F0"/>
<path d="M153.87 104.676H198.672V101.664H153.87V104.676Z" fill="#F0F0F0"/>
<path d="M153.87 109.152H198.672V106.14H153.87V109.152Z" fill="#F0F0F0"/>
<path d="M153.87 113.616H198.672V110.604H153.87V113.616Z" fill="#F0F0F0"/>
<path d="M153.87 118.086H198.672V115.074H153.87V118.086Z" fill="#F0F0F0"/>
<path d="M153.87 122.55H198.672V119.538H153.87V122.55Z" fill="#F0F0F0"/>
<path d="M153.87 127.02H198.672V124.008H153.87V127.02Z" fill="#F0F0F0"/>
<path d="M153.87 131.496H198.672V128.484H153.87V131.496Z" fill="#F0F0F0"/>
<path d="M153.87 135.96H198.672V132.948H153.87V135.96Z" fill="#F0F0F0"/>
<path d="M153.87 140.43H198.672V137.418H153.87V140.43Z" fill="#F0F0F0"/>
<path d="M153.87 144.9H198.672V141.888H153.87V144.9Z" fill="#F0F0F0"/>
<path d="M153.87 149.364H198.672V146.352H153.87V149.364Z" fill="#F0F0F0"/>
<path d="M153.87 153.834H198.672V150.822H153.87V153.834Z" fill="#F0F0F0"/>
<path d="M153.87 158.31H198.672V155.298H153.87V158.31Z" fill="#F0F0F0"/>
<path d="M153.87 162.774H198.672V159.762H153.87V162.774Z" fill="#F0F0F0"/>
<path d="M153.87 167.244H198.672V164.232H153.87V167.244Z" fill="#F0F0F0"/>
<path d="M153.87 171.714H198.672V168.702H153.87V171.714Z" fill="#F0F0F0"/>
<path d="M153.87 176.178H198.672V173.166H153.87V176.178Z" fill="#F0F0F0"/>
<path d="M153.87 180.648H198.672V177.636H153.87V180.648Z" fill="#F0F0F0"/>
<path d="M153.87 185.124H198.672V182.112H153.87V185.124Z" fill="#F0F0F0"/>
<path d="M153.87 189.588H198.672V186.576H153.87V189.588Z" fill="#F0F0F0"/>
<path d="M153.87 194.058H198.672V191.046H153.87V194.058Z" fill="#F0F0F0"/>
<path d="M153.87 198.522H198.672V195.51H153.87V198.522Z" fill="#F0F0F0"/>
<path d="M208.387 197.022H251.209L251.209 74.298H208.387V197.022Z" fill="#FAFAFA"/>
<path d="M207.395 78.654H252.197V72.63H207.395V78.654Z" fill="#F0F0F0"/>
<path d="M207.395 82.338H252.197V79.326H207.395V82.338Z" fill="#F0F0F0"/>
<path d="M207.395 86.802H252.197V83.79H207.395V86.802Z" fill="#F0F0F0"/>
<path d="M207.395 91.272H252.197V88.26H207.395V91.272Z" fill="#F0F0F0"/>
<path d="M207.395 95.742H252.197V92.73H207.395V95.742Z" fill="#F0F0F0"/>
<path d="M207.395 100.206H252.197V97.194H207.395V100.206Z" fill="#F0F0F0"/>
<path d="M207.395 104.676H252.197V101.664H207.395V104.676Z" fill="#F0F0F0"/>
<path d="M207.395 109.152H252.197V106.14H207.395V109.152Z" fill="#F0F0F0"/>
<path d="M207.395 113.616H252.197V110.604H207.395V113.616Z" fill="#F0F0F0"/>
<path d="M207.395 118.086H252.197V115.074H207.395V118.086Z" fill="#F0F0F0"/>
<path d="M207.395 122.55H252.197V119.538H207.395V122.55Z" fill="#F0F0F0"/>
<path d="M207.395 127.02H252.197V124.008H207.395V127.02Z" fill="#F0F0F0"/>
<path d="M207.395 131.496H252.197V128.484H207.395V131.496Z" fill="#F0F0F0"/>
<path d="M207.395 135.96H252.197V132.948H207.395V135.96Z" fill="#F0F0F0"/>
<path d="M207.395 140.43H252.197V137.418H207.395V140.43Z" fill="#F0F0F0"/>
<path d="M207.395 144.9H252.197V141.888H207.395V144.9Z" fill="#F0F0F0"/>
<path d="M207.395 149.364H252.197V146.352H207.395V149.364Z" fill="#F0F0F0"/>
<path d="M207.395 153.834H252.197V150.822H207.395V153.834Z" fill="#F0F0F0"/>
<path d="M207.395 158.31H252.197V155.298H207.395V158.31Z" fill="#F0F0F0"/>
<path d="M207.395 162.774H252.197V159.762H207.395V162.774Z" fill="#F0F0F0"/>
<path d="M207.395 167.244H252.197V164.232H207.395V167.244Z" fill="#F0F0F0"/>
<path d="M207.395 171.714H252.197V168.702H207.395V171.714Z" fill="#F0F0F0"/>
<path d="M207.395 176.178H252.197V173.166H207.395V176.178Z" fill="#F0F0F0"/>
<path d="M207.395 180.648H252.197V177.636H207.395V180.648Z" fill="#F0F0F0"/>
<path d="M207.395 185.124H252.197V182.112H207.395V185.124Z" fill="#F0F0F0"/>
<path d="M207.395 189.588H252.197V186.576H207.395V189.588Z" fill="#F0F0F0"/>
<path d="M207.395 194.058H252.197V191.046H207.395V194.058Z" fill="#F0F0F0"/>
<path d="M207.395 198.522H252.197V195.51H207.395V198.522Z" fill="#F0F0F0"/>
<path d="M101.34 197.772H144.162L144.162 75.048H101.34L101.34 197.772Z" fill="#FAFAFA"/>
<path d="M100.35 79.41H145.152V73.386H100.35V79.41Z" fill="#F0F0F0"/>
<path d="M100.35 80.628H145.152V80.076H100.35V80.628Z" fill="#F0F0F0"/>
<path d="M100.35 81.888H145.152V81.336H100.35V81.888Z" fill="#F0F0F0"/>
<path d="M100.35 83.142H145.152V82.59H100.35V83.142Z" fill="#F0F0F0"/>
<path d="M100.35 84.396H145.152V83.844H100.35V84.396Z" fill="#F0F0F0"/>
<path d="M100.35 85.662H145.152V85.11H100.35V85.662Z" fill="#F0F0F0"/>
<path d="M100.35 86.916H145.152V86.364H100.35V86.916Z" fill="#F0F0F0"/>
<path d="M100.35 88.176H145.152V87.624H100.35V88.176Z" fill="#F0F0F0"/>
<path d="M100.35 89.43H145.152V88.878H100.35V89.43Z" fill="#F0F0F0"/>
<path d="M100.35 90.69H145.152V90.138H100.35V90.69Z" fill="#F0F0F0"/>
<path d="M100.35 91.944H145.152V91.392H100.35V91.944Z" fill="#F0F0F0"/>
<path d="M100.35 93.204H145.152V92.652H100.35V93.204Z" fill="#F0F0F0"/>
<path d="M100.35 94.458H145.152V93.906H100.35V94.458Z" fill="#F0F0F0"/>
<path d="M100.35 95.718H145.152V95.166H100.35V95.718Z" fill="#F0F0F0"/>
<path d="M100.35 96.978H145.152V96.426H100.35V96.978Z" fill="#F0F0F0"/>
<path d="M100.35 98.232H145.152V97.68H100.35V98.232Z" fill="#F0F0F0"/>
<path d="M100.35 99.492H145.152V98.94H100.35V99.492Z" fill="#F0F0F0"/>
<path d="M100.35 100.746H145.152V100.194H100.35V100.746Z" fill="#F0F0F0"/>
<path d="M100.35 102.006H145.152V101.454H100.35V102.006Z" fill="#F0F0F0"/>
<path d="M47.8206 197.772H90.6426L90.6426 75.048H47.8206L47.8206 197.772Z" fill="#FAFAFA"/>
<path d="M46.823 79.41H91.625V73.386H46.823V79.41Z" fill="#F0F0F0"/>
<path d="M46.823 80.628H91.625V80.076H46.823V80.628Z" fill="#F0F0F0"/>
<path d="M46.823 81.888H91.625V81.336H46.823V81.888Z" fill="#F0F0F0"/>
<path d="M46.823 83.142H91.625V82.59H46.823V83.142Z" fill="#F0F0F0"/>
<path d="M46.823 84.396H91.625V83.844H46.823V84.396Z" fill="#F0F0F0"/>
<path d="M46.823 85.662H91.625V85.11H46.823V85.662Z" fill="#F0F0F0"/>
<path d="M46.823 86.916H91.625V86.364H46.823V86.916Z" fill="#F0F0F0"/>
<path d="M46.823 88.176H91.625V87.624H46.823V88.176Z" fill="#F0F0F0"/>
<path d="M46.823 89.43H91.625V88.878H46.823V89.43Z" fill="#F0F0F0"/>
<path d="M46.823 90.69H91.625V90.138H46.823V90.69Z" fill="#F0F0F0"/>
<path d="M46.823 91.944H91.625V91.392H46.823V91.944Z" fill="#F0F0F0"/>
<path d="M46.823 93.204H91.625V92.652H46.823V93.204Z" fill="#F0F0F0"/>
<path d="M46.823 94.458H91.625V93.906H46.823V94.458Z" fill="#F0F0F0"/>
<path d="M46.823 95.718H91.625V95.166H46.823V95.718Z" fill="#F0F0F0"/>
<path d="M46.823 96.978H91.625V96.426H46.823V96.978Z" fill="#F0F0F0"/>
<path d="M46.823 98.232H91.625V97.68H46.823V98.232Z" fill="#F0F0F0"/>
<path d="M46.823 99.492H91.625V98.94H46.823V99.492Z" fill="#F0F0F0"/>
<path d="M46.823 100.746H91.625V100.194H46.823V100.746Z" fill="#F0F0F0"/>
<path d="M46.823 102.006H91.625V101.454H46.823V102.006Z" fill="#F0F0F0"/>
<path d="M158.371 58.0857C159.525 53.1932 156.495 48.291 151.603 47.1363C146.71 45.9815 141.808 49.0116 140.653 53.904C139.499 58.7965 142.529 63.6987 147.421 64.8535C152.314 66.0082 157.216 62.9781 158.371 58.0857Z" fill="#F0F0F0"/>
<path d="M157.161 57.2471C157.846 53.0276 154.98 49.0519 150.761 48.3669C146.541 47.682 142.566 50.5473 141.881 54.7668C141.196 58.9862 144.061 62.962 148.281 63.6469C152.5 64.3319 156.476 61.4665 157.161 57.2471Z" fill="#FAFAFA"/>
<path d="M149.148 56.7C149.045 56.7015 148.944 56.6767 148.854 56.628L145.254 54.594C145.116 54.5158 145.014 54.3861 144.971 54.2331C144.929 54.0802 144.948 53.9165 145.026 53.778C145.065 53.7087 145.117 53.6478 145.179 53.5988C145.241 53.5498 145.313 53.5137 145.389 53.4925C145.466 53.4713 145.546 53.4654 145.624 53.4753C145.703 53.4852 145.779 53.5106 145.848 53.55L148.536 55.074V50.694C148.536 50.5349 148.599 50.3823 148.712 50.2697C148.824 50.1572 148.977 50.094 149.136 50.094C149.295 50.094 149.448 50.1572 149.56 50.2697C149.673 50.3823 149.736 50.5349 149.736 50.694V56.094C149.736 56.1997 149.709 56.3037 149.656 56.3953C149.604 56.487 149.528 56.5631 149.436 56.616C149.349 56.6679 149.25 56.6968 149.148 56.7Z" fill="#E0E0E0"/>
<path d="M150 256.536C214.25 256.536 266.334 253.495 266.334 249.744C266.334 245.993 214.25 242.952 150 242.952C85.7505 242.952 33.666 245.993 33.666 249.744C33.666 253.495 85.7505 256.536 150 256.536Z" fill="#F5F5F5"/>
<path d="M86.4004 222.81C86.4004 222.81 91.0564 217.272 94.0324 219.852C97.0084 222.432 95.5024 227.91 92.0704 228.09C90.0349 228.2 88.0262 227.586 86.4004 226.356V222.81Z" fill="#93278F"/>
<path opacity="0.2" d="M86.4004 222.81C86.4004 222.81 91.0564 217.272 94.0324 219.852C97.0084 222.432 95.5024 227.91 92.0704 228.09C90.0349 228.2 88.0262 227.586 86.4004 226.356V222.81Z" fill="white"/>
<path d="M67.4466 208.764C67.4466 208.764 63.5406 204.672 61.1226 205.368C58.7046 206.064 58.9506 215.838 66.4566 211.878L67.4466 208.764Z" fill="#93278F"/>
<path opacity="0.3" d="M67.4466 208.764C67.4466 208.764 63.5406 204.672 61.1226 205.368C58.7046 206.064 58.9506 215.838 66.4566 211.878L67.4466 208.764Z" fill="white"/>
<path d="M81.4023 239.298C81.4023 239.298 94.2423 221.736 83.8023 218.178C73.3623 214.62 71.5203 232.308 74.5023 237.234C77.4843 242.16 81.4023 239.298 81.4023 239.298Z" fill="#93278F"/>
<path d="M75.4515 203.34C75.4515 203.34 67.4835 184.848 79.2795 184.29C91.0754 183.732 92.3654 202.626 78.7875 205.368L75.4515 203.34Z" fill="#93278F"/>
<path opacity="0.3" d="M81.4023 239.298C81.4023 239.298 94.2423 221.736 83.8023 218.178C73.3623 214.62 71.5203 232.308 74.5023 237.234C77.4843 242.16 81.4023 239.298 81.4023 239.298Z" fill="white"/>
<path opacity="0.3" d="M75.4515 203.34C75.4515 203.34 67.4835 184.848 79.2795 184.29C91.0754 183.732 92.3654 202.626 78.7875 205.368L75.4515 203.34Z" fill="white"/>
<path d="M78.2761 218.478C78.2761 218.478 82.1461 202.152 74.6761 200.85C67.2062 199.548 59.8862 214.302 75.2761 221.718C75.3121 221.718 77.9521 220.08 78.2761 218.478Z" fill="#93278F"/>
<path opacity="0.2" d="M78.2761 218.478C78.2761 218.478 82.1461 202.152 74.6761 200.85C67.2062 199.548 59.8862 214.302 75.2761 221.718C75.3121 221.718 77.9521 220.08 78.2761 218.478Z" fill="white"/>
<path d="M90.6438 236.808H69.0918L70.8918 250.602H88.8438L90.6438 236.808Z" fill="#263238"/>
<path d="M79.4355 202.02C79.9155 201.516 80.3835 201.012 80.8095 200.466C81.2524 199.94 81.6651 199.389 82.0455 198.816C82.8152 197.689 83.4609 196.482 83.9715 195.216C84.4669 193.954 84.7586 192.621 84.8355 191.268V190.248C84.8055 189.906 84.7515 189.57 84.7155 189.228C84.7155 189.06 84.7155 188.886 84.6675 188.718L84.5415 188.22C84.4575 187.884 84.3855 187.548 84.3075 187.2C84.9167 188.473 85.246 189.863 85.2735 191.274C85.289 192.697 85.0282 194.109 84.5055 195.432C83.9787 196.742 83.2676 197.971 82.3935 199.08C81.5478 200.192 80.5524 201.181 79.4355 202.02Z" fill="#93278F"/>
<path d="M82.2607 186.15C81.0284 186.63 79.9071 187.357 78.9652 188.285C78.0233 189.214 77.2806 190.325 76.7827 191.55L76.4407 192.474C76.3387 192.786 76.2847 193.11 76.2007 193.428C76.0489 194.073 75.9367 194.726 75.8647 195.384C75.7987 196.044 75.7987 196.71 75.7687 197.382C75.7387 198.054 75.8227 198.72 75.8227 199.404C75.6847 198.738 75.5887 198.072 75.4747 197.4C75.3607 196.728 75.3967 196.038 75.4027 195.354C75.4444 193.972 75.7245 192.608 76.2307 191.322C76.7652 190.036 77.586 188.889 78.6307 187.968C79.1512 187.515 79.7231 187.124 80.3347 186.804C80.9441 186.5 81.592 186.28 82.2607 186.15Z" fill="#93278F"/>
<path d="M73.2378 202.02C72.4342 202.434 71.719 203.001 71.1318 203.688C70.5389 204.355 70.0714 205.123 69.7518 205.956C69.4263 206.78 69.2241 207.647 69.1518 208.53C69.134 208.748 69.134 208.966 69.1518 209.184C69.1518 209.4 69.1518 209.622 69.1518 209.838C69.2051 210.271 69.2975 210.699 69.4278 211.116C69.9835 212.817 70.8412 214.405 71.9598 215.802C72.5011 216.528 73.0799 217.225 73.6938 217.89C74.2938 218.574 74.9298 219.216 75.5898 219.852C74.1133 218.763 72.7736 217.5 71.5998 216.09C71.0018 215.384 70.4601 214.631 69.9798 213.84C69.5035 213.036 69.1248 212.178 68.8518 211.284C68.7188 210.831 68.6244 210.367 68.5698 209.898C68.5548 209.658 68.5548 209.418 68.5698 209.178C68.5609 208.941 68.5729 208.704 68.6058 208.47C68.7043 207.539 68.9514 206.629 69.3378 205.776C69.7069 204.923 70.2417 204.152 70.9111 203.507C71.5806 202.862 72.3715 202.357 73.2378 202.02Z" fill="#93278F"/>
<path d="M75.4514 203.34C75.3494 203.97 75.2534 204.594 75.1994 205.224C75.1266 205.847 75.0865 206.474 75.0794 207.102C75.0708 207.72 75.1109 208.338 75.1994 208.95C75.2626 209.542 75.4529 210.113 75.7574 210.624C75.937 210.902 76.0954 211.192 76.2314 211.494C76.3653 211.798 76.4737 212.114 76.5554 212.436C76.7031 213.07 76.7836 213.717 76.7954 214.368C76.827 215.651 76.6878 216.932 76.3814 218.178C76.3814 217.542 76.4354 216.912 76.4234 216.276C76.4294 215.649 76.3993 215.022 76.3334 214.398C76.2719 213.172 75.8981 211.983 75.2474 210.942C74.9123 210.354 74.7077 209.702 74.6474 209.028C74.5785 208.38 74.5785 207.726 74.6474 207.078C74.7512 205.802 75.0215 204.546 75.4514 203.34Z" fill="#93278F"/>
<path d="M80.6886 219.852C80.4054 220.023 80.1717 220.265 80.0106 220.554C79.842 220.836 79.6956 221.131 79.5726 221.436C79.3224 222.044 79.1119 222.667 78.9426 223.302C78.5946 224.574 78.2886 225.862 78.0246 227.166C77.7486 228.462 77.5086 229.77 77.2626 231.072C77.1366 231.726 77.0226 232.38 76.9146 233.04C76.8066 233.7 76.6866 234.348 76.5966 235.014C76.562 233.673 76.6302 232.331 76.8006 231C76.9446 229.668 77.1606 228.348 77.4306 227.034C77.6972 225.719 78.054 224.424 78.4986 223.158C78.7239 222.519 78.9946 221.898 79.3086 221.298C79.4749 221.003 79.6656 220.722 79.8786 220.458C80.0834 220.181 80.3651 219.97 80.6886 219.852Z" fill="#93278F"/>
<path d="M84.3304 220.422C84.8891 221.553 85.2523 222.77 85.4044 224.022C85.5636 225.285 85.5149 226.566 85.2604 227.814C85.2065 228.128 85.1282 228.437 85.0264 228.738C84.9304 229.038 84.8524 229.338 84.7324 229.644C84.2486 230.819 83.5801 231.908 82.7524 232.872C82.5477 233.109 82.3272 233.331 82.0924 233.538C81.8644 233.754 81.6363 233.97 81.4023 234.174C82.1954 233.23 82.8854 232.204 83.4604 231.114C84.0304 230.041 84.435 228.888 84.6604 227.694C84.9077 226.501 84.9965 225.28 84.9244 224.064C84.8607 222.832 84.6615 221.611 84.3304 220.422Z" fill="#93278F"/>
<path d="M64.4167 210.762C64.0775 210.897 63.7131 210.956 63.3487 210.936C62.9772 210.921 62.6113 210.84 62.2687 210.696C61.9207 210.55 61.6094 210.328 61.3567 210.048C61.1091 209.767 60.9468 209.422 60.8887 209.052C61.1338 209.288 61.3966 209.504 61.6747 209.7C61.9374 209.875 62.2167 210.024 62.5087 210.144C63.1307 210.391 63.768 210.597 64.4167 210.762Z" fill="#93278F"/>
<path d="M65.2153 208.062L64.2613 207.6C63.9643 207.462 63.6574 207.345 63.3433 207.252C63.0465 207.168 62.7396 207.126 62.4313 207.126C62.095 207.153 61.764 207.226 61.4473 207.342C61.658 207.017 61.9768 206.777 62.3473 206.664C62.7286 206.562 63.13 206.562 63.5113 206.664C63.8747 206.773 64.2131 206.952 64.5073 207.192C64.8041 207.427 65.0458 207.724 65.2153 208.062Z" fill="#93278F"/>
<path d="M88.5547 223.632C88.773 223.172 89.0626 222.748 89.4127 222.378C89.7618 221.996 90.1663 221.668 90.6127 221.406C91.0759 221.117 91.615 220.973 92.1607 220.992C92.4294 221.003 92.6923 221.073 92.9301 221.199C93.1678 221.325 93.3745 221.502 93.5347 221.718C93.116 221.5 92.6422 221.41 92.1727 221.46C91.7221 221.524 91.2904 221.683 90.9067 221.928C90.0847 222.442 89.2988 223.011 88.5547 223.632Z" fill="#93278F"/>
<path d="M88.5547 226.356C89.7088 226.339 90.8608 226.252 92.0047 226.098C92.5613 226.025 93.1013 225.857 93.6007 225.6C94.0928 225.337 94.4801 224.913 94.6987 224.4C94.6936 224.714 94.615 225.023 94.4691 225.301C94.3232 225.579 94.1141 225.819 93.8587 226.002C93.3509 226.373 92.7593 226.612 92.1367 226.698C91.5415 226.792 90.9369 226.812 90.3367 226.758C89.727 226.707 89.1273 226.571 88.5547 226.356Z" fill="#93278F"/>
<path d="M153.06 108.324H112.014V165.684H153.06V108.324Z" fill="#93278F"/>
<path d="M180.905 165.684H153.059V108.324L180.905 118.332V165.684Z" fill="#93278F"/>
<path opacity="0.2" d="M180.905 165.684H153.059V108.324L180.905 118.332V165.684Z" fill="white"/>
<path d="M180.906 157.962H112.014V165.684H180.906V157.962Z" fill="#263238"/>
<path opacity="0.3" d="M180.906 157.962H112.014V165.684H180.906V157.962Z" fill="white"/>
<path d="M151.643 149.028L159.569 139.776L172.961 151.272L161.363 160.092L144.629 159.876L136.355 146.748L151.643 149.028Z" fill="#93278F"/>
<path d="M151.643 149.028L161.363 160.092L144.629 159.876L136.355 146.748L151.643 149.028Z" fill="white"/>
<path opacity="0.8" d="M151.643 149.028L159.569 139.776L172.961 151.272L161.363 160.092L151.643 149.028Z" fill="white"/>
<path d="M139.86 165.684H112.014V108.324L139.86 118.332V165.684Z" fill="#93278F"/>
<path opacity="0.6" d="M139.86 165.684H112.014V108.324L139.86 118.332V165.684Z" fill="white"/>
<path opacity="0.5" d="M124.031 119.724L136.103 145.98L114.107 152.358L124.031 119.724Z" fill="white"/>
<path d="M118 135.048L118.678 134.604L119.35 138.804L121.264 137.562L121.39 138.342L118.798 140.028L118 135.048Z" fill="#93278F"/>
<path d="M124.192 134.73L122.002 136.152C122.17 136.656 122.566 136.794 123.052 136.476C123.378 136.26 123.623 135.941 123.748 135.57L124.186 135.894C124.008 136.446 123.646 136.92 123.16 137.238C122.224 137.838 121.486 137.424 121.306 136.296C121.215 135.759 121.272 135.207 121.47 134.699C121.669 134.192 122.002 133.748 122.434 133.416C123.25 132.888 123.97 133.278 124.162 134.46C124.174 134.532 124.186 134.646 124.192 134.73ZM121.906 135.57L123.49 134.538C123.346 134.028 122.98 133.848 122.548 134.13C122.324 134.299 122.146 134.523 122.034 134.781C121.921 135.038 121.877 135.32 121.906 135.6V135.57Z" fill="#93278F"/>
<path d="M126.738 134.634C126.6 134.905 126.393 135.135 126.138 135.3C125.538 135.696 125.106 135.48 124.974 134.646L124.68 132.846L124.217 133.146L124.104 132.438L124.566 132.138L124.428 131.268L125.081 130.848L125.22 131.712L125.963 131.226L126.078 131.934L125.334 132.42L125.622 134.22C125.682 134.592 125.85 134.7 126.102 134.538C126.248 134.438 126.366 134.302 126.444 134.142L126.738 134.634Z" fill="#93278F"/>
<path d="M127.187 129.336C127.219 129.563 127.219 129.793 127.187 130.02L127.079 131.22L126.653 131.496L126.689 130.296C126.527 130.296 126.401 130.194 126.359 129.93C126.329 129.77 126.343 129.605 126.402 129.454C126.46 129.302 126.56 129.17 126.689 129.072C126.917 128.868 127.133 129 127.187 129.336Z" fill="#93278F"/>
<path d="M128.116 133.548L128.26 132.714C128.624 132.759 128.992 132.667 129.292 132.456C129.706 132.186 129.85 131.922 129.808 131.658C129.694 130.932 128.074 132.738 127.834 131.22C127.8 130.824 127.879 130.427 128.063 130.075C128.247 129.723 128.528 129.432 128.872 129.234C129.192 129.004 129.576 128.882 129.97 128.886L129.826 129.72C129.524 129.696 129.224 129.781 128.98 129.96C128.584 130.218 128.428 130.518 128.464 130.764C128.59 131.532 130.204 129.726 130.444 131.214C130.475 131.615 130.389 132.016 130.198 132.369C130.006 132.723 129.717 133.013 129.364 133.206C129.007 133.476 128.56 133.599 128.116 133.548Z" fill="#93278F"/>
<path d="M120.64 141.9L119.65 149.364L118.822 149.904L115.822 145.014L116.734 144.414L119.014 148.2L119.77 142.446L120.64 141.9Z" fill="#93278F"/>
<path d="M121.247 144.918C121.102 144.023 121.206 143.106 121.546 142.265C121.887 141.425 122.452 140.695 123.179 140.154C124.589 139.236 125.843 139.908 126.137 141.738C126.289 142.639 126.188 143.564 125.846 144.411C125.504 145.259 124.934 145.995 124.199 146.538C122.801 147.42 121.541 146.742 121.247 144.918ZM125.285 142.29C125.087 141.03 124.259 140.562 123.341 141.156C122.861 141.526 122.49 142.021 122.27 142.587C122.05 143.153 121.989 143.768 122.093 144.366C122.297 145.626 123.125 146.094 124.037 145.5C124.521 145.132 124.893 144.637 125.113 144.071C125.334 143.504 125.393 142.888 125.285 142.29Z" fill="#93278F"/>
<path d="M127.547 138.486L126.041 139.464L125.891 138.492L129.743 135.99L129.899 136.962L128.393 137.94L129.227 143.142L128.387 143.688L127.547 138.486Z" fill="#93278F"/>
<path d="M134.621 138.6L134.777 139.56L131.369 141.774L130.379 135.6L133.691 133.446L133.847 134.406L131.375 136.014L131.633 137.622L133.823 136.194L133.979 137.136L131.801 138.54L132.077 140.244L134.621 138.6Z" fill="#93278F"/>
<path d="M182.021 164.352V250.602H179.243V167.19H154.421V250.602H151.643V167.19H141.221V250.602H138.443V167.19H113.339V250.602H110.555V164.352H182.021Z" fill="#263238"/>
<path opacity="0.3" d="M139.859 164.352V250.602H138.443V167.19H112.013V250.602H110.555V164.352H139.859Z" fill="white"/>
<path opacity="0.3" d="M153.059 167.19H151.643V250.602H153.059V167.19Z" fill="white"/>
<path opacity="0.3" d="M180.635 167.19H179.219V250.602H180.635V167.19Z" fill="white"/>
<path d="M171.773 186.75L170.981 189.15L170.033 192L168.359 197.04L168.065 197.952L166.331 203.172L163.397 212.07C162.989 225.678 155.537 244.092 155.537 244.092L152.885 243.372C153.857 230.028 156.485 213.924 158.699 201.852C159.047 199.956 159.383 198.168 159.707 196.5L160.157 194.214C160.389 193.014 160.609 191.906 160.817 190.89C161.231 188.826 161.579 187.152 161.831 185.97C162.101 184.68 162.257 183.972 162.257 183.972L171.773 186.75Z" fill="#E4897B"/>
<path d="M185.352 184.2L184.752 188.298L183.942 193.698L183.852 194.298L183.678 195.498L183.078 199.596L181.404 210.6C183.318 224.076 179.112 243.492 179.112 243.492L176.376 243.234C174.948 228.762 174.894 210.738 175.092 198.234C175.122 196.296 175.158 194.478 175.194 192.834C175.191 192.784 175.191 192.734 175.194 192.684V192.594C175.272 189.336 175.362 186.744 175.422 185.106C175.476 183.816 175.5 183.114 175.5 183.114L185.352 184.2Z" fill="#E4897B"/>
<path opacity="0.2" d="M162.257 183.99L171.773 186.75L170.981 189.15L170.033 192L160.799 190.908C161.213 188.844 161.561 187.17 161.813 185.988C162.101 184.698 162.257 183.99 162.257 183.99Z" fill="black"/>
<path opacity="0.2" d="M185.351 184.2L184.751 188.298L183.941 193.698L175.199 192.642V192.552C175.277 189.294 175.367 186.702 175.427 185.064C175.481 183.774 175.505 183.072 175.505 183.072L185.351 184.2Z" fill="black"/>
<path d="M172.715 142.494C172.715 142.494 168.875 148.008 167.417 148.968C165.959 149.928 155.567 149.154 155.567 149.154L155.039 151.422C155.039 151.422 165.707 153.372 167.951 152.172C170.195 150.972 175.799 144.762 175.799 144.762L172.715 142.494Z" fill="#E4897B"/>
<path opacity="0.2" d="M172.715 142.494C172.715 142.494 168.875 148.008 167.417 148.968C165.959 149.928 155.567 149.154 155.567 149.154L155.039 151.422C155.039 151.422 165.707 153.372 167.951 152.172C170.195 150.972 175.799 144.762 175.799 144.762L172.715 142.494Z" fill="black"/>
<path d="M158.4 148.836L158.754 152.562C158.754 152.562 172.278 154.23 173.754 153.432C175.23 152.634 176.46 145.302 176.46 145.302L170.4 144.774C170.4 144.774 165.486 148.404 164.934 148.836C164.382 149.268 158.4 148.836 158.4 148.836Z" fill="#263238"/>
<path opacity="0.3" d="M158.4 148.836L158.754 152.562C158.754 152.562 172.278 154.23 173.754 153.432C175.23 152.634 176.46 145.302 176.46 145.302L170.4 144.774C170.4 144.774 165.486 148.404 164.934 148.836C164.382 149.268 158.4 148.836 158.4 148.836Z" fill="white"/>
<path d="M155.567 149.154C154.975 148.506 154.284 147.956 153.521 147.522C152.68 147.173 151.785 146.97 150.875 146.922L150.443 149.856C151.113 150.383 151.83 150.847 152.585 151.242C153.388 151.439 154.217 151.498 155.039 151.416L155.567 149.154Z" fill="#E4897B"/>
<path opacity="0.2" d="M155.567 149.154C154.975 148.506 154.284 147.956 153.521 147.522C152.68 147.173 151.785 146.97 150.875 146.922L150.443 149.856C151.113 150.383 151.83 150.847 152.585 151.242C153.388 151.439 154.217 151.498 155.039 151.416L155.567 149.154Z" fill="black"/>
<path d="M159.599 129.234C159.578 129.235 159.558 129.23 159.539 129.222C159.521 129.214 159.504 129.202 159.491 129.186C159.288 129.015 159.05 128.893 158.793 128.827C158.536 128.762 158.268 128.755 158.009 128.808C157.989 128.812 157.969 128.813 157.95 128.81C157.93 128.806 157.912 128.799 157.895 128.789C157.878 128.778 157.864 128.764 157.852 128.748C157.841 128.732 157.833 128.713 157.829 128.694C157.821 128.654 157.83 128.613 157.852 128.58C157.875 128.546 157.909 128.523 157.949 128.514C158.257 128.451 158.577 128.46 158.882 128.54C159.186 128.62 159.469 128.769 159.707 128.976C159.735 129.005 159.75 129.044 159.75 129.084C159.75 129.124 159.735 129.163 159.707 129.192C159.677 129.218 159.638 129.233 159.599 129.234Z" fill="#263238"/>
<path d="M158.856 130.992C158.61 131.557 158.298 132.091 157.926 132.582C158.044 132.723 158.199 132.829 158.374 132.887C158.549 132.945 158.736 132.954 158.916 132.912L158.856 130.992Z" fill="#DE5753"/>
<path d="M158.148 130.05C158.148 130.344 158.34 130.578 158.538 130.566C158.736 130.554 158.886 130.302 158.868 130.002C158.85 129.702 158.676 129.474 158.472 129.486C158.268 129.498 158.13 129.75 158.148 130.05Z" fill="#263238"/>
<path d="M158.556 129.492L157.896 129.276C157.896 129.276 158.25 129.804 158.556 129.492Z" fill="#263238"/>
<path d="M167.034 135.6C167.002 135.638 166.966 135.673 166.926 135.702C166.425 136.215 165.828 136.623 165.168 136.902C163.236 137.64 161.838 137.556 160.824 136.776C159.39 135.576 158.748 133.236 158.526 130.32C158.397 129.162 158.454 127.992 158.694 126.852V126.798C158.703 126.755 158.715 126.713 158.73 126.672C158.889 126.026 159.207 125.43 159.656 124.938C160.104 124.447 160.669 124.075 161.298 123.858C161.843 123.655 162.408 123.513 162.984 123.432C168.6 122.586 170.916 131.796 167.034 135.6Z" fill="#E4897B"/>
<path opacity="0.2" d="M166.925 135.714C166.414 136.196 165.813 136.572 165.155 136.818C163.223 137.556 161.813 137.418 160.799 136.608C162.033 136.741 163.277 136.465 164.339 135.822C164.734 135.61 165.171 135.49 165.619 135.471C166.067 135.452 166.514 135.535 166.925 135.714Z" fill="black"/>
<path d="M164.999 121.656C164.999 121.656 161.093 121.218 159.215 123.024C157.025 125.13 156.353 127.092 159.629 129.54C159.629 129.54 165.683 126.612 167.855 126.762C169.12 126.841 170.376 127.024 171.611 127.308C171.467 123.066 166.979 120.51 164.999 121.656Z" fill="#263238"/>
<path d="M164.178 137.124C164.513 137.274 164.812 137.496 165.052 137.774C165.292 138.052 165.468 138.38 165.568 138.734C165.667 139.087 165.688 139.459 165.628 139.821C165.568 140.184 165.43 140.529 165.222 140.832L173.4 138.546C173.4 138.546 169.536 136.86 169.2 134.142C169.2 134.142 164.916 133.8 164.178 137.124Z" fill="#E4897B"/>
<path d="M158.682 126.81C158.791 127.992 159.249 129.114 159.996 130.036C160.744 130.958 161.748 131.637 162.882 131.988C162.882 131.988 165.054 135.876 167.436 135.588C170.676 135.222 172.89 130.23 171.126 125.7C168.858 119.85 159.6 120.6 158.682 126.81Z" fill="#263238"/>
<path d="M160.842 131.118C160.758 130.518 161.112 129.396 162.09 129.402C163.068 129.408 163.992 131.802 161.628 132.666C161.286 132.792 161.016 132.402 160.842 131.118Z" fill="#E4897B"/>
<path d="M184.968 158.184C184.968 158.184 190.872 171.984 185.352 191.976L159.984 189.708C163.296 173.478 167.784 164.61 167.784 164.61L168.6 156.444L184.968 158.184Z" fill="#93278F"/>
<path d="M164.885 139.062C165.555 138.051 166.453 137.211 167.506 136.61C168.56 136.008 169.739 135.663 170.951 135.6L173.033 137.802L164.885 139.062Z" fill="#93278F"/>
<path d="M181.32 161.316L172.248 162.264V160.2L181.056 159.33C181.122 159.834 181.23 160.656 181.32 161.316Z" fill="#263238"/>
<path d="M171.539 160.272V162.336L167.783 162.726V160.644L171.539 160.272Z" fill="#263238"/>
<path d="M181.775 159.258L185.585 158.88L186.065 160.818L182.129 161.226L181.775 159.258Z" fill="#263238"/>
<path d="M143.166 156.708C142.446 156.205 141.653 155.816 140.814 155.556C139.914 155.402 138.995 155.402 138.096 155.556L138.312 158.514C139.084 158.882 139.887 159.181 140.712 159.408C141.538 159.424 142.362 159.3 143.148 159.042L143.166 156.708Z" fill="#E4897B"/>
<path d="M184.968 158.184L168.24 160.056L159.924 141.318C159.924 141.318 165.714 136.326 176.436 137.94C176.436 137.94 180.276 139.65 184.968 158.184Z" fill="#263238"/>
<path opacity="0.5" d="M184.962 158.184L168.24 160.056L164.286 151.152L162.606 147.378L159.924 141.318C159.924 141.318 165.708 136.332 176.436 137.94C176.436 137.94 180.27 139.65 184.962 158.184Z" fill="white"/>
<path opacity="0.2" d="M164.285 151.152L162.605 147.378C162.765 147.049 162.98 146.751 163.241 146.496C163.803 147.116 164.195 147.87 164.378 148.686C164.561 149.502 164.529 150.352 164.285 151.152Z" fill="black"/>
<path d="M158.459 146.496C158.459 146.496 155.909 152.712 154.691 153.96C153.473 155.208 143.165 156.708 143.165 156.708L143.135 159.036C143.135 159.036 153.977 158.634 155.909 156.978C157.841 155.322 161.999 148.038 161.999 148.038L158.459 146.496Z" fill="#E4897B"/>
<path d="M159.924 141.318C158.49 142.62 155.124 153.684 154.692 153.96C154.26 154.236 145.092 156.408 145.092 156.408C145.092 156.408 146.13 159.6 146.124 159.408C146.118 159.216 155.376 158.694 156.498 158.268C157.62 157.842 163.698 148.194 163.698 148.194C163.315 146.531 162.735 144.92 161.97 143.394C160.92 141.534 159.924 141.318 159.924 141.318Z" fill="#263238"/>
<path opacity="0.5" d="M159.924 141.318C158.49 142.62 155.124 153.684 154.692 153.96C154.26 154.236 145.092 156.408 145.092 156.408C145.092 156.408 146.13 159.6 146.124 159.408C146.118 159.216 155.376 158.694 156.498 158.268C157.62 157.842 163.698 148.194 163.698 148.194C163.315 146.531 162.735 144.92 161.97 143.394C160.92 141.534 159.924 141.318 159.924 141.318Z" fill="white"/>
<path d="M144.564 156.444L145.404 155.928L146.694 159.648H145.404L144.564 156.444Z" fill="#93278F"/>
<path d="M148.566 249.78C149.033 249.402 149.566 249.113 150.138 248.928C150.138 248.928 151.848 247.23 152.67 242.124L154.908 241.524C155.287 241.431 155.686 241.458 156.05 241.599C156.414 241.741 156.725 241.991 156.942 242.316C157.002 242.408 157.05 242.507 157.086 242.61C157.199 243.158 157.278 243.714 157.32 244.272C157.446 246.138 157.458 248.009 157.356 249.876H156.948L156.792 246.36C156.732 245.16 155.814 246.564 155.556 247.848C155.298 249.132 154.734 250.506 152.118 250.572C149.058 250.65 147.792 250.53 148.566 249.78Z" fill="#263238"/>
<path d="M157.021 242.4C157.151 241.482 157.352 240.575 157.621 239.688H152.221C152.221 239.688 152.821 242.046 152.329 243.822C154.849 243.138 157.021 242.4 157.021 242.4Z" fill="#263238"/>
<path d="M171.599 249.78C172.066 249.402 172.599 249.113 173.171 248.928C173.171 248.928 174.881 247.23 175.703 242.124L177.941 241.524C178.32 241.431 178.719 241.458 179.083 241.599C179.447 241.741 179.758 241.991 179.975 242.316C180.035 242.408 180.083 242.507 180.119 242.61C180.232 243.159 180.312 243.714 180.359 244.272C180.481 246.138 180.491 248.009 180.389 249.876H179.999L179.843 246.36C179.783 245.16 178.865 246.564 178.607 247.848C178.349 249.132 177.785 250.506 175.169 250.572C172.121 250.65 170.849 250.53 171.599 249.78Z" fill="#263238"/>
<path d="M180.077 242.4C180.208 241.482 180.409 240.575 180.677 239.688H175.277C175.277 239.688 175.877 242.046 175.379 243.822C177.911 243.138 180.077 242.4 180.077 242.4Z" fill="#263238"/>
<path d="M166.068 122.1C166.068 122.1 167.97 116.73 173.034 118.866C178.098 121.002 174.168 126.528 175.812 129.54C177.456 132.552 175.134 135.324 173.844 134.538C174.025 134.519 174.199 134.46 174.354 134.364C174.509 134.268 174.639 134.139 174.736 133.985C174.833 133.831 174.894 133.658 174.914 133.477C174.935 133.296 174.913 133.113 174.852 132.942C174.456 131.526 172.188 131.994 171.252 127.884C170.316 123.774 168.798 125.484 168.798 125.484L166.068 122.1Z" fill="#263238"/>
</svg>
